<svg width="250" height="226" viewBox="0 0 250 226" fill="none" xmlns="http://www.w3.org/2000/svg">
<g opacity="0.7" clip-path="url(#clip0_297_2857)">
<path d="M128.546 1.33025C125.921 0.164773 123.012 -0.255246 120.153 0.118413C117.536 0.463183 115.051 1.44577 112.928 2.97525C111.46 4.079 110.318 5.54134 109.617 7.21411C108.763 9.40777 108.506 11.7793 108.871 14.0984C108.895 14.2902 108.959 14.4753 109.058 14.6427C109.157 14.8101 109.289 14.9564 109.447 15.073C109.607 15.1901 109.789 15.275 109.982 15.3228C110.175 15.3706 110.377 15.3803 110.574 15.3515L115.741 14.5831C116.098 14.5332 116.425 14.359 116.66 14.0926C116.895 13.8262 117.024 13.4856 117.021 13.1341C117.021 11.52 117.55 8.71472 121.411 8.07529C122.382 7.8985 123.385 8.02044 124.282 8.4242C125.178 8.82796 125.924 9.49356 126.415 10.3288C126.839 11.0331 127.087 11.8252 127.139 12.6406C127.19 13.4559 127.044 14.2717 126.711 15.0214C125.68 17.4348 123.204 18.1464 121.819 18.3579C121.053 18.4736 120.366 18.8795 119.907 19.487C119.447 20.0945 119.252 20.8545 119.364 21.6015L120.195 27.0212C120.255 27.4019 120.467 27.7439 120.786 27.9721C121.104 28.2002 121.502 28.2959 121.893 28.2382L126.928 27.4905C127.121 27.4628 127.307 27.398 127.475 27.2999C127.643 27.2018 127.789 27.0723 127.905 26.9189C128.021 26.7655 128.104 26.5912 128.151 26.4061C128.198 26.221 128.206 26.0287 128.176 25.8403L128.002 24.7007C127.999 24.6877 128 24.6741 128.006 24.662C128.012 24.65 128.021 24.64 128.033 24.6336C129.937 23.6441 131.595 22.2586 132.889 20.5753C135.047 17.7339 135.84 14.3872 135.248 10.5505C134.386 5.09984 131.127 2.54209 128.546 1.33025Z" fill="#EBEBEB"/>
<path d="M124.886 29.177L124.447 29.244C123.946 29.3182 123.464 29.4879 123.03 29.7435C122.596 29.9991 122.218 30.3356 121.917 30.7338C121.616 31.1319 121.398 31.584 121.277 32.0641C121.155 32.5442 121.132 33.0429 121.208 33.5318C121.284 34.0208 121.458 34.4903 121.72 34.9137C121.982 35.337 122.327 35.7058 122.736 35.9991C123.144 36.2924 123.608 36.5044 124.1 36.623C124.593 36.7416 125.104 36.7645 125.606 36.6904L126.05 36.6285C127.046 36.4589 127.934 35.9159 128.524 35.1158C129.114 34.3156 129.359 33.322 129.207 32.3477C129.055 31.3735 128.517 30.496 127.71 29.9033C126.902 29.3107 125.889 29.0499 124.886 29.177Z" fill="#EBEBEB"/>
<path d="M24.8165 88.882C23.4824 87.3048 21.7215 86.1239 19.7336 85.4734C17.9106 84.8816 15.9635 84.7504 14.0743 85.0918C12.76 85.3526 11.5395 85.9467 10.5359 86.8141C9.25805 87.9813 8.31074 89.4502 7.78555 91.0788C7.73477 91.2122 7.71287 91.3544 7.72121 91.4965C7.72956 91.6386 7.76798 91.7775 7.83406 91.9044C7.90013 92.0313 7.99243 92.1435 8.10514 92.2339C8.21786 92.3243 8.34855 92.3911 8.489 92.4299L12.1173 93.5385C12.3658 93.6201 12.6364 93.6088 12.8768 93.5069C13.1172 93.4049 13.3102 93.2196 13.4184 92.9868C13.9474 91.9296 15.2167 90.264 17.9459 91.053C18.6384 91.2393 19.2541 91.6315 19.7073 92.175C20.1604 92.7184 20.4285 93.3862 20.4741 94.0852C20.5205 94.6779 20.4231 95.273 20.1897 95.8222C19.9563 96.3714 19.5935 96.8592 19.1307 97.2463C17.6656 98.5045 15.8144 98.1951 14.8412 97.9012C14.3061 97.7398 13.7271 97.792 13.2314 98.0463C12.7356 98.3005 12.3635 98.736 12.1967 99.2574L10.9696 103.063C10.9232 103.195 10.9048 103.335 10.9156 103.475C10.9264 103.614 10.9661 103.75 11.0324 103.874C11.0987 103.998 11.1901 104.107 11.3012 104.196C11.4122 104.284 11.5405 104.35 11.6783 104.388L15.2167 105.471C15.4917 105.552 15.7883 105.525 16.0425 105.394C16.2968 105.264 16.4884 105.042 16.576 104.775L16.8299 103.976C16.834 103.967 16.8406 103.959 16.8491 103.954C16.8575 103.948 16.8674 103.945 16.8775 103.945C18.4402 103.886 19.9709 103.495 21.3627 102.8C22.5315 102.204 23.5628 101.38 24.3933 100.381C25.2237 99.3815 25.8357 98.227 26.1916 96.9884C27.4028 93.157 26.1123 90.4651 24.8165 88.882Z" fill="#EBEBEB"/>
<path d="M13.2915 105.935L12.9847 105.842C12.6325 105.735 12.2621 105.696 11.8945 105.728C11.5269 105.76 11.1693 105.862 10.8422 106.028C10.5151 106.195 10.2249 106.423 9.9881 106.699C9.7513 106.975 9.57259 107.294 9.46215 107.637C9.35171 107.98 9.31172 108.341 9.34445 108.7C9.37718 109.058 9.48199 109.407 9.65291 109.726C9.82383 110.045 10.0575 110.328 10.3406 110.559C10.6237 110.789 10.9506 110.964 11.3028 111.071L11.6095 111.164C12.3207 111.382 13.0914 111.315 13.752 110.978C14.4126 110.642 14.909 110.063 15.1321 109.37C15.3551 108.676 15.2865 107.925 14.9413 107.281C14.5961 106.637 14.0027 106.153 13.2915 105.935Z" fill="#EBEBEB"/>
<path d="M181.575 212.438C194.449 211.891 210.776 207.884 220.762 199.695C206.705 200.13 193.085 204.559 181.575 212.438Z" fill="#EBEBEB"/>
<path d="M190.54 197.597C203.414 197.05 219.741 193.043 229.727 184.854C215.67 185.289 202.05 189.718 190.54 197.597Z" fill="#EBEBEB"/>
<path d="M200.156 183.457C213.029 182.91 229.357 178.903 239.348 170.714C225.29 171.149 211.668 175.578 200.156 183.457Z" fill="#EBEBEB"/>
<path d="M210.898 168.873C223.708 166.811 239.491 160.891 248.35 151.645C234.417 153.726 221.405 159.712 210.898 168.873Z" fill="#EBEBEB"/>
<path d="M220.344 158.096C231.716 151.753 244.383 140.924 249.101 129.501C236.836 136.063 226.832 146.011 220.344 158.096Z" fill="#EBEBEB"/>
<path d="M215.764 163.196C219.265 150.747 220.355 134.009 215.235 122.138C211.242 135.574 211.426 149.862 215.764 163.196Z" fill="#EBEBEB"/>
<path d="M206.656 175.113C209.136 161.907 208.697 144.431 202.213 132.482C199.324 146.808 200.87 161.647 206.656 175.113Z" fill="#EBEBEB"/>
<path d="M195.829 189.686C198.31 176.48 197.865 158.998 191.386 147.055C188.497 161.381 190.044 176.22 195.829 189.686Z" fill="#EBEBEB"/>
<path d="M184.23 208.173C186.711 194.966 186.272 177.485 179.787 165.542C176.898 179.867 178.445 194.707 184.23 208.173Z" fill="#EBEBEB"/>
<path d="M179.819 215.001C177.957 218.358 176.492 221.101 175.529 223.014C175.061 223.943 174.69 224.678 174.419 225.222C174.302 225.454 174.212 225.644 174.138 225.799C174.064 225.954 174.049 226 174.059 226.005C174.105 225.947 174.146 225.885 174.181 225.82C174.271 225.67 174.376 225.49 174.503 225.263L175.693 223.097C176.714 221.21 178.222 218.497 180.12 215.161C182.019 211.824 184.352 207.895 186.996 203.573C189.641 199.252 192.708 194.565 195.988 189.717C202.604 180.033 209.078 171.586 213.913 165.594C216.33 162.593 218.313 160.184 219.704 158.539L221.291 156.626L221.693 156.111C221.783 155.992 221.825 155.935 221.82 155.925C221.814 155.915 221.756 155.971 221.656 156.08L221.217 156.554L219.561 158.411C218.128 160.019 216.102 162.397 213.648 165.372C208.74 171.323 202.213 179.744 195.586 189.444" fill="#E0E0E0"/>
<path d="M157.605 128.186C162.301 116.878 165.258 101.196 161.836 89.2891C156.572 101.577 155.101 115.096 157.605 128.186Z" fill="#EBEBEB"/>
<path d="M147.767 114.48C152.464 103.171 155.42 87.4895 152.025 75.5825C146.749 87.867 145.269 101.387 147.767 114.48Z" fill="#EBEBEB"/>
<path d="M138.834 100.485C143.536 89.176 146.487 73.4892 143.097 61.5874C137.821 73.8719 136.34 87.3909 138.834 100.485Z" fill="#EBEBEB"/>
<path d="M129.953 85.3442C133.232 73.4836 134.253 57.4977 129.424 46.1528C125.702 58.9907 125.886 72.6063 129.953 85.3442Z" fill="#EBEBEB"/>
<path d="M124.008 72.8702C122.845 60.494 118.148 45.2352 109.696 36.5615C110.695 49.7745 115.674 62.4056 124.008 72.8702Z" fill="#EBEBEB"/>
<path d="M126.774 78.8674C116.9 70.828 102.175 63.1393 89.3435 62.7783C99.9155 71.6301 112.941 77.2289 126.774 78.8674Z" fill="#EBEBEB"/>
<path d="M133.878 91.5118C122.913 84.0448 106.903 77.3771 93.4531 78.1403C105.27 86.4069 119.341 91.0613 133.878 91.5118Z" fill="#EBEBEB"/>
<path d="M142.726 106.75C131.757 99.283 115.752 92.6154 102.297 93.3786C114.115 101.646 128.188 106.301 142.726 106.75Z" fill="#EBEBEB"/>
<path d="M154.807 124.175C143.842 116.708 127.832 110.04 114.382 110.803C126.199 119.07 140.27 123.724 154.807 124.175Z" fill="#EBEBEB"/>
<path d="M159.218 130.724C161.508 133.689 163.401 136.051 164.75 137.654L166.3 139.501L166.712 139.975C166.758 140.032 166.809 140.084 166.866 140.13C166.836 140.063 166.797 140 166.749 139.944L166.374 139.428L164.893 137.531C163.592 135.891 161.72 133.498 159.488 130.518C157.256 127.537 154.606 123.958 151.76 119.936C148.915 115.914 145.905 111.386 142.843 106.585C136.734 96.978 131.693 87.9949 128.213 81.4097C126.468 78.1197 125.087 75.4382 124.151 73.5766C123.693 72.6794 123.329 71.9677 123.061 71.4417L122.765 70.8951C122.733 70.8294 122.694 70.7672 122.649 70.7095C122.649 70.7095 122.649 70.7817 122.718 70.9106L122.972 71.483L123.987 73.654C124.87 75.5414 126.208 78.2435 127.912 81.5593C131.323 88.1857 136.327 97.21 142.441 106.827" fill="#E0E0E0"/>
<path d="M247.218 83.9108C245.289 81.7371 242.77 80.1376 239.951 79.2955C237.369 78.5231 234.628 78.4025 231.985 78.9449C230.15 79.3592 228.459 80.2379 227.082 81.4923C225.33 83.1747 224.054 85.2712 223.38 87.5773C223.318 87.7655 223.295 87.964 223.314 88.1609C223.334 88.3577 223.394 88.5487 223.491 88.7221C223.587 88.8971 223.718 89.0516 223.876 89.1764C224.034 89.3013 224.216 89.3941 224.411 89.4492L229.547 90.8828C229.9 90.9802 230.277 90.9511 230.61 90.8007C230.943 90.6502 231.209 90.3885 231.361 90.0629C232.049 88.5571 233.784 86.1798 237.645 87.1905C238.625 87.4272 239.505 87.9564 240.162 88.7043C240.819 89.4522 241.221 90.3814 241.31 91.3624C241.396 92.1929 241.28 93.0315 240.971 93.8101C240.662 94.5887 240.169 95.2853 239.533 95.8436C237.523 97.6588 234.905 97.2926 233.53 96.911C232.768 96.6988 231.951 96.789 231.258 97.1619C230.564 97.5349 230.05 98.1603 229.827 98.9015L228.241 104.29C228.185 104.479 228.169 104.676 228.192 104.87C228.215 105.065 228.278 105.253 228.376 105.424C228.475 105.594 228.607 105.744 228.765 105.865C228.923 105.986 229.105 106.074 229.298 106.126L234.302 107.529C234.495 107.582 234.697 107.598 234.896 107.575C235.096 107.552 235.288 107.491 235.463 107.395C235.638 107.299 235.792 107.17 235.916 107.016C236.04 106.862 236.131 106.686 236.185 106.497L236.518 105.368C236.523 105.355 236.531 105.343 236.542 105.334C236.554 105.325 236.567 105.319 236.582 105.317C238.778 105.185 240.917 104.585 242.849 103.558C246.097 101.815 248.307 99.015 249.418 95.2299C251 89.8205 249.096 86.087 247.218 83.9108Z" fill="#EBEBEB"/>
<path d="M231.641 108.256L231.202 108.132C230.196 107.85 229.116 107.97 228.2 108.464C227.284 108.959 226.607 109.788 226.318 110.77C226.029 111.751 226.152 112.804 226.659 113.697C227.166 114.59 228.017 115.25 229.023 115.532L229.462 115.656C229.961 115.795 230.482 115.838 230.998 115.78C231.513 115.723 232.011 115.568 232.465 115.323C232.918 115.078 233.318 114.749 233.641 114.353C233.964 113.957 234.204 113.504 234.347 113.018C234.49 112.532 234.533 112.023 234.475 111.521C234.416 111.019 234.257 110.533 234.006 110.091C233.755 109.648 233.416 109.259 233.011 108.944C232.605 108.629 232.14 108.395 231.641 108.256Z" fill="#EBEBEB"/>
<path d="M77.7128 128.006C75.5039 126.442 72.8886 125.515 70.1653 125.33C67.6737 125.166 65.1798 125.616 62.9139 126.64C61.348 127.391 60.0113 128.529 59.037 129.94C57.8197 131.816 57.1202 133.967 57.006 136.185C56.9909 136.368 57.0138 136.552 57.0735 136.727C57.1332 136.901 57.2283 137.062 57.3533 137.2C57.4782 137.338 57.6304 137.449 57.8006 137.528C57.9709 137.607 58.1557 137.652 58.3441 137.66L63.2841 137.902C63.6227 137.918 63.9559 137.815 64.223 137.612C64.49 137.408 64.673 137.118 64.7386 136.793C65.0348 135.293 66.0874 132.792 69.7844 132.916C70.7197 132.928 71.6277 133.225 72.3815 133.765C73.1353 134.305 73.6974 135.061 73.9893 135.927C74.2456 136.658 74.3217 137.438 74.2115 138.203C74.1012 138.968 73.8076 139.697 73.3546 140.331C71.9318 142.394 69.4935 142.584 68.1713 142.523C67.4402 142.49 66.7255 142.74 66.182 143.218C65.6385 143.695 65.3099 144.363 65.2675 145.075L65.0031 150.258C64.9843 150.621 65.114 150.977 65.3638 151.248C65.6136 151.518 65.9631 151.682 66.3359 151.702L71.1543 151.934C71.5267 151.952 71.8913 151.825 72.168 151.582C72.4447 151.338 72.6108 150.997 72.63 150.634L72.6882 149.541C72.6879 149.529 72.692 149.517 72.6997 149.508C72.7075 149.498 72.7183 149.492 72.7305 149.489C74.6875 148.92 76.4928 147.939 78.0196 146.617C80.5689 144.384 81.96 141.404 82.1451 137.758C82.399 132.56 79.876 129.584 77.7128 128.006Z" fill="#EBEBEB"/>
<path d="M68.917 153.146H68.4938C67.5252 153.098 66.5771 153.428 65.8579 154.063C65.1388 154.697 64.7076 155.584 64.6592 156.528C64.6108 157.473 64.9492 158.397 65.5999 159.098C66.2506 159.799 67.1603 160.22 68.1289 160.267H68.552C69.5206 160.314 70.4688 159.984 71.1879 159.35C71.907 158.716 72.3382 157.829 72.3866 156.884C72.435 155.94 72.0966 155.015 71.4459 154.314C70.7953 153.613 69.8856 153.193 68.917 153.146Z" fill="#EBEBEB"/>
<path d="M52.0236 219.812H56.5933C59.2855 210.468 60.576 200.067 58.8148 191.377C54.6496 200.326 52.3415 209.99 52.0236 219.812Z" fill="#EBEBEB"/>
<path d="M51.1562 176.449C45.4726 188.721 43.2629 202.254 44.7564 215.64C44.804 215.748 44.8569 215.852 44.9098 215.96C49.9926 204.62 53.6632 188.809 51.1562 176.449Z" fill="#EBEBEB"/>
<path d="M39.1023 159.746C34.9743 172.24 34.2165 185.56 36.9021 198.422C37.066 198.809 37.2353 199.206 37.431 199.603C41.1281 187.639 42.974 171.555 39.1023 159.746Z" fill="#EBEBEB"/>
<path d="M31.2427 184.782C31.2161 184.714 31.1966 184.643 31.1845 184.571C31.2288 184.63 31.2628 184.696 31.285 184.767C31.3538 184.921 31.4331 185.112 31.5336 185.349L31.8086 186.03C31.9885 186.314 32.1683 186.608 32.3375 186.886C31.962 174.123 28.3972 158.132 20.8813 148.726C21.0559 161.865 24.827 174.902 31.4966 185.587L31.4331 185.406L31.2427 184.782Z" fill="#EBEBEB"/>
<path d="M34.395 193.162L34.284 192.878C25.3718 184.112 12.0221 175.541 0 174.401C9.3194 184.014 21.5478 190.676 34.395 193.162Z" fill="#EBEBEB"/>
<path d="M40.6309 206.647L40.4775 206.523C40.4983 206.559 40.516 206.597 40.5304 206.637L40.6309 206.647Z" fill="#EBEBEB"/>
<path d="M2.9989 190.449C13.3498 199.42 26.2929 205.051 40.0544 206.569L39.7687 205.93C29.8094 197.87 15.4706 190.48 2.9989 190.449Z" fill="#EBEBEB"/>
<path d="M10.5042 206.646C17.2905 212.508 25.2126 216.984 33.8026 219.812H44.2539C34.5484 212.701 21.7541 206.672 10.5042 206.646Z" fill="#EBEBEB"/>
<path d="M35.5692 196.039C36.7487 198.943 38.1662 202.289 39.8005 205.94L40.0861 206.58C41.9215 210.705 44.0212 215.156 46.3431 219.812H46.8721C46.2162 218.507 45.5815 217.234 44.9627 215.945C44.9098 215.836 44.8569 215.733 44.8093 215.625C43.286 212.495 41.8739 209.478 40.578 206.637C40.5636 206.597 40.5459 206.559 40.5251 206.523C39.4091 204.063 38.4095 201.743 37.4574 199.592C37.2829 199.195 37.1137 198.798 36.9285 198.412C36.5583 197.545 36.2039 196.705 35.8707 195.905C34.4109 192.414 33.2262 189.578 32.4804 187.608C32.2318 187 32.0203 186.479 31.8404 186.03L31.5654 185.349C31.4649 185.112 31.3856 184.921 31.3168 184.767C31.2946 184.697 31.2606 184.63 31.2163 184.571C31.2284 184.643 31.2479 184.714 31.2745 184.782L31.4808 185.386L31.5442 185.566C31.7452 186.108 31.9991 186.809 32.3164 187.68C32.8083 189.031 33.4853 190.774 34.3157 192.883L34.4268 193.167C34.7547 194.07 35.1355 195.024 35.5692 196.039Z" fill="#E0E0E0"/>
<path d="M239.935 219.611C239.935 219.688 187.742 219.75 123.374 219.75C59.0052 219.75 6.80176 219.688 6.80176 219.611C6.80176 219.534 58.984 219.461 123.368 219.461C187.753 219.461 239.935 219.534 239.935 219.611Z" fill="#263238"/>
<path d="M34.2794 54.5356C43.0533 51.2228 47.4113 41.6025 44.0135 33.0482C40.6156 24.4939 30.7485 20.2449 21.9746 23.5577C13.2008 26.8706 8.84265 36.4908 12.2405 45.0451C15.6384 53.5994 25.5055 57.8485 34.2794 54.5356Z" fill="white"/>
<path d="M45.1689 39.0522C45.1689 39.0522 45.1689 38.9593 45.1425 38.7789C45.116 38.5984 45.1425 38.3354 45.0949 37.9899C45.0949 37.8197 45.0684 37.6237 45.0578 37.4123C45.0473 37.2009 44.9891 36.9688 44.9521 36.7162C44.915 36.4635 44.8674 36.2005 44.8198 35.9117C44.7722 35.6229 44.6717 35.3238 44.5977 35.0041C44.2012 33.4512 43.5645 31.9662 42.7095 30.6002C41.5951 28.779 40.1295 27.1855 38.3936 25.9076L37.6637 25.3919C37.4045 25.2269 37.1348 25.0774 36.865 24.9123C36.5953 24.7473 36.3361 24.5772 36.0399 24.4482L35.1567 24.0202L34.7124 23.8139L34.2416 23.6489L33.2843 23.3086C32.9617 23.2055 32.6232 23.1384 32.29 23.0456C31.9528 22.9515 31.6102 22.8775 31.2639 22.8239C30.5654 22.6946 29.8584 22.6136 29.1482 22.5815C28.7833 22.5815 28.413 22.5351 28.0428 22.5402L26.9215 22.597C26.7311 22.597 26.5407 22.597 26.3556 22.6331L25.7897 22.7156C25.4141 22.7774 25.028 22.8187 24.6525 22.896C23.0982 23.236 21.5958 23.7716 20.1832 24.4895C19.8288 24.6751 19.485 24.8969 19.1254 25.1031C18.9508 25.2114 18.7657 25.3043 18.5965 25.4229L18.0993 25.789C17.4213 26.2771 16.7781 26.8094 16.1741 27.3824L15.3172 28.3055L15.1004 28.5375L14.9047 28.7902L14.5186 29.3059L14.1272 29.8216L13.7887 30.363L13.4449 30.9096L13.2756 31.1881L13.1328 31.4769L12.5563 32.6372L12.0803 33.8181C10.9168 37.1976 10.9168 40.8551 12.0803 44.2347L12.5404 45.4569L13.117 46.6223L13.2598 46.9111L13.429 47.1844L13.7728 47.731L14.1113 48.2776L14.5027 48.7933L14.8888 49.3089L15.0845 49.5616L15.3014 49.7937L16.1582 50.7167C16.7616 51.2885 17.4029 51.8208 18.0781 52.3102L18.607 52.6763C18.771 52.7949 18.9561 52.8877 19.136 52.996C19.4903 53.2023 19.8288 53.424 20.1938 53.6097C21.6064 54.3275 23.1087 54.8632 24.6631 55.2031C25.0386 55.2805 25.4247 55.3217 25.8002 55.3836L26.3662 55.4661C26.5566 55.4919 26.7417 55.4919 26.9321 55.5022L28.0534 55.5589C28.4236 55.5589 28.7939 55.5589 29.1588 55.5177C29.869 55.4859 30.576 55.4049 31.2744 55.2753C31.621 55.2228 31.9637 55.1487 32.3005 55.0536C32.6337 54.9608 32.9723 54.8937 33.3002 54.7906L34.2522 54.4502L34.7229 54.2852L35.1672 54.0789L36.0505 53.6664C36.3414 53.5375 36.5794 53.3518 36.8756 53.2023C37.1718 53.0528 37.4045 52.8877 37.6743 52.7227L38.4042 52.2071C40.1387 50.9277 41.604 49.3344 42.7201 47.5144C43.5751 46.1484 44.2118 44.6634 44.6083 43.1105C44.6823 42.7908 44.7934 42.4969 44.8304 42.2029C44.8674 41.909 44.9203 41.646 44.9626 41.3985C45.005 41.151 45.0473 40.9138 45.0684 40.7023C45.0896 40.4909 45.0684 40.2949 45.1055 40.1196C45.1055 39.7793 45.1425 39.5163 45.1531 39.3358C45.1636 39.1553 45.1795 39.0676 45.1795 39.0676C45.1842 39.157 45.1842 39.2465 45.1795 39.3358C45.1795 39.5214 45.1795 39.7844 45.1795 40.1248C45.1795 40.3001 45.1795 40.4961 45.1795 40.7075C45.1795 40.9189 45.116 41.151 45.0843 41.4036C45.0526 41.6563 45.005 41.9193 44.9574 42.2184C44.9036 42.5261 44.833 42.8308 44.7458 43.1312C44.3605 44.6965 43.7327 46.1954 42.884 47.5763C41.7686 49.416 40.2996 51.0285 38.5575 52.3257L37.8171 52.8413C37.5579 53.0063 37.2882 53.1611 37.0184 53.3209C36.7485 53.4931 36.4695 53.6514 36.1827 53.7953L35.2942 54.213L34.8446 54.4245L34.3686 54.5946L33.406 54.9401C33.0833 55.0484 32.7395 55.1155 32.401 55.2083C32.0532 55.3052 31.7001 55.3826 31.3432 55.4403C30.6287 55.5703 29.9059 55.653 29.18 55.6879C28.8097 55.6879 28.4395 55.7394 28.064 55.7343L26.9268 55.6775C26.7364 55.6775 26.546 55.6775 26.3556 55.6415L25.7844 55.5589C25.4035 55.4971 25.0174 55.4558 24.6313 55.3785C23.8565 55.2086 23.0934 54.9916 22.3464 54.7287C21.5791 54.4613 20.8315 54.1425 20.1092 53.7747C19.7495 53.5839 19.4004 53.3622 19.0513 53.1559C18.8768 53.0424 18.6864 52.9496 18.5224 52.8259L17.9935 52.4597C17.2935 51.9702 16.6274 51.4361 15.9995 50.8611L15.1321 49.9278L14.91 49.6905L14.7143 49.4379L14.3229 48.9222L13.9262 48.4065L13.5824 47.8547L13.2333 47.303L13.0641 47.0245L12.916 46.7357C12.7203 46.3438 12.5299 45.9467 12.3342 45.5548C12.1385 45.1629 12.0221 44.7298 11.8687 44.3172C10.6857 40.8966 10.6857 37.1922 11.8687 33.7716C12.0221 33.3539 12.1808 32.9414 12.3342 32.534C12.4876 32.1266 12.7256 31.745 12.916 31.3531L13.0641 31.0592L13.2386 30.7859L13.5824 30.229L13.9368 29.6927L14.3335 29.177L14.7248 28.6613L14.9205 28.4086L15.1427 28.1714L15.9995 27.238C16.6095 26.6586 17.2598 26.121 17.9459 25.6291L18.4484 25.2578C18.6176 25.1392 18.8027 25.0413 18.9773 24.933C19.3369 24.7267 19.686 24.505 20.0351 24.3142C20.7579 23.9473 21.5054 23.6286 22.2724 23.3602C23.0194 23.0973 23.7825 22.8802 24.5573 22.7104C24.9434 22.6331 25.3295 22.5918 25.7103 22.5299L26.308 22.4732C26.4984 22.4732 26.6888 22.4732 26.8792 22.4371L28.0164 22.3804C28.3866 22.3804 28.7621 22.4113 29.1324 22.4268C29.8583 22.4616 30.5811 22.5443 31.2956 22.6743C31.6528 22.73 32.0061 22.8075 32.3534 22.9064C32.6919 22.9992 33.0304 23.0662 33.3584 23.1745L34.2998 23.5045L34.7758 23.6747L35.2254 23.8861L36.114 24.3038C36.3991 24.4478 36.6762 24.6061 36.9444 24.7783C37.2194 24.9381 37.4733 25.0928 37.7483 25.2578L38.4888 25.7993C40.2306 27.0966 41.6996 28.7092 42.8153 30.5487C43.664 31.9295 44.2918 33.4284 44.677 34.9938C44.7642 35.2941 44.8349 35.5988 44.8886 35.9065C44.9362 36.1953 44.9732 36.4686 45.0102 36.7213C45.0473 36.974 45.0896 37.206 45.1107 37.4175C45.1319 37.6289 45.1107 37.8249 45.1107 38.0002C45.1107 38.3405 45.1107 38.6035 45.1107 38.7892C45.1346 38.8758 45.154 38.9636 45.1689 39.0522Z" fill="#263238"/>
<path d="M22.0767 36.2004H25.3083C25.306 35.841 25.378 35.4849 25.5199 35.1532C25.6619 34.8216 25.8709 34.5212 26.1345 34.2699C26.398 34.0187 26.7108 33.8219 27.0541 33.691C27.3974 33.5602 27.7643 33.4982 28.1327 33.5086C28.6773 33.4881 29.2149 33.6342 29.6701 33.9264C30.1254 34.2186 30.4755 34.6422 30.6715 35.1381C30.847 35.5547 30.9175 36.0063 30.877 36.4549C30.8365 36.9035 30.6862 37.3362 30.4388 37.7165C29.9098 38.5983 28.6881 39.4027 26.509 39.0263V43.6674H29.6824V41.9863C30.9958 41.6093 32.1459 40.8224 32.9562 39.7464C33.7664 38.6704 34.192 37.3649 34.1676 36.0302C34.1676 31.3891 29.9363 30.3578 28.1063 30.3578C26.747 30.3062 22.0132 30.6363 22.0767 36.2004Z" fill="#454238"/>
<path d="M29.7459 44.8325H26.4984V47.7873H29.7459V44.8325Z" fill="#454238"/>
<path d="M45.9412 54.5894C45.9412 55.0912 45.7886 55.5817 45.5026 55.9989C45.2167 56.4162 44.8103 56.7413 44.3348 56.9334C43.8593 57.1254 43.336 57.1756 42.8313 57.0777C42.3265 56.9799 41.8628 56.7382 41.4989 56.3834C41.1349 56.0286 40.8871 55.5765 40.7867 55.0843C40.6863 54.5922 40.7378 54.0821 40.9348 53.6185C41.1317 53.1549 41.4653 52.7586 41.8932 52.4798C42.3211 52.201 42.8243 52.0522 43.3389 52.0522C44.0291 52.0522 44.691 52.3196 45.179 52.7954C45.667 53.2712 45.9412 53.9165 45.9412 54.5894Z" fill="white"/>
<path d="M45.9411 54.5892C45.9411 54.5892 45.9411 54.3623 45.8195 53.9807C45.6654 53.4409 45.3302 52.967 44.8674 52.6348C44.6007 52.4412 44.2974 52.301 43.9749 52.2222C43.6524 52.1433 43.3171 52.1274 42.9883 52.1753C42.6594 52.2233 42.3436 52.3341 42.0588 52.5014C41.7741 52.6688 41.526 52.8893 41.329 53.1504C41.0161 53.5681 40.8475 54.0719 40.8475 54.5892C40.8475 55.1064 41.0161 55.6102 41.329 56.0279C41.526 56.289 41.7741 56.5096 42.0588 56.6769C42.3436 56.8443 42.6594 56.9551 42.9883 57.003C43.3171 57.0509 43.6524 57.035 43.9749 56.9562C44.2974 56.8773 44.6007 56.7371 44.8674 56.5436C45.329 56.2102 45.6639 55.7368 45.8195 55.1977C45.9252 54.8161 45.92 54.5892 45.9411 54.5892C45.9477 54.6423 45.9477 54.6959 45.9411 54.749C45.9402 54.9071 45.9207 55.0646 45.8829 55.2183C45.7523 55.791 45.4213 56.3015 44.9468 56.6622C44.591 56.9313 44.1715 57.1087 43.7268 57.1781C43.2822 57.2475 42.8268 57.2067 42.4027 57.0593C41.8981 56.8862 41.4592 56.5679 41.1439 56.1465C40.8043 55.6983 40.6191 55.1567 40.615 54.5995C40.6159 54.0578 40.788 53.5295 41.1079 53.0866C41.4278 52.6437 41.8799 52.3076 42.4027 52.1242C42.8273 51.9776 43.2829 51.9375 43.7275 52.0078C44.1722 52.0781 44.5915 52.2565 44.9468 52.5265C45.4223 52.8863 45.7535 53.3972 45.8829 53.9704C45.9203 54.1224 45.9398 54.2781 45.9411 54.4345C45.9471 54.4859 45.9471 54.5378 45.9411 54.5892Z" fill="#263238"/>
<path d="M230.135 41.072C237.127 34.2551 237.127 23.2029 230.135 16.386C223.143 9.56917 211.807 9.56917 204.816 16.386C197.824 23.2029 197.824 34.2551 204.816 41.072C211.807 47.8888 223.143 47.8888 230.135 41.072Z" fill="white"/>
<path d="M235.376 28.7333C235.376 28.7333 235.376 28.6405 235.376 28.4549C235.376 28.2692 235.349 27.9856 235.323 27.6246C235.323 27.4441 235.323 27.2379 235.286 27.0161C235.249 26.7944 235.212 26.5469 235.175 26.2839C235.138 26.0209 235.085 25.7372 235.037 25.4382C234.977 25.1158 234.898 24.7973 234.799 24.4842C234.385 22.8481 233.718 21.2831 232.821 19.8431C231.647 17.9306 230.107 16.2568 228.283 14.9132L227.516 14.3563C227.246 14.181 226.961 14.0211 226.675 13.8406C226.395 13.6545 226.106 13.4824 225.808 13.3249L224.882 12.8918L224.39 12.7268L223.898 12.5514L222.893 12.1956C222.555 12.0822 222.201 12.0151 221.836 11.9171C221.488 11.8177 221.135 11.7384 220.778 11.6799C220.035 11.5482 219.284 11.4638 218.53 11.4272C218.144 11.4272 217.758 11.3757 217.366 11.386L216.187 11.4427C215.991 11.4427 215.79 11.4427 215.594 11.4788L215.002 11.5716C214.605 11.6335 214.203 11.6799 213.801 11.7573C212.998 11.9351 212.206 12.1625 211.432 12.438C210.635 12.717 209.859 13.0496 209.11 13.4332C208.734 13.6343 208.375 13.8612 207.999 14.0778C207.819 14.1913 207.624 14.2892 207.47 14.4182L206.941 14.7998C206.233 15.3137 205.56 15.8718 204.926 16.4706L204.022 17.4452L203.794 17.6876L203.588 17.9505L203.181 18.4662L202.774 18.9819L202.414 19.5491L202.054 20.1267L201.88 20.4155L201.726 20.7146L201.118 21.9573C200.954 22.3802 200.795 22.8082 200.632 23.2414C199.412 26.7919 199.412 30.6334 200.632 34.184C200.795 34.6172 200.954 35.0452 201.113 35.4732C201.272 35.9012 201.52 36.288 201.721 36.6954L201.869 36.9996L202.049 37.2884L202.409 37.8608L202.768 38.4332L203.176 38.9489L203.583 39.4645L203.789 39.7327L204.017 39.9751L204.921 40.9445C205.554 41.5462 206.227 42.1061 206.936 42.6205L207.465 43.0021C207.64 43.131 207.835 43.229 207.994 43.3424C208.369 43.5538 208.729 43.7859 209.105 43.987C209.855 44.3685 210.631 44.701 211.427 44.9823C212.2 45.2585 212.992 45.4841 213.796 45.6578C214.198 45.7403 214.6 45.7867 214.997 45.8486L215.589 45.9363C215.785 45.962 215.986 45.962 216.187 45.9775L217.361 46.0342C217.752 46.0342 218.138 46.0033 218.525 45.993C219.279 45.9567 220.03 45.8723 220.772 45.7403C221.13 45.6806 221.483 45.5997 221.83 45.4979C222.185 45.4051 222.539 45.3381 222.888 45.2246L223.888 44.8688L224.385 44.6935L224.85 44.4769L225.776 44.0437C226.088 43.9097 226.358 43.7137 226.649 43.5281C226.94 43.3424 227.215 43.2032 227.484 43.0124L228.257 42.4555C230.078 41.1086 231.616 39.4332 232.789 37.5204C233.688 36.081 234.355 34.5158 234.767 32.8794C234.865 32.5659 234.944 32.2474 235.005 31.9254C235.053 31.6211 235.101 31.3426 235.143 31.0745C235.185 30.8063 235.233 30.5588 235.254 30.3474C235.275 30.136 235.28 29.9194 235.291 29.7389C235.317 29.3779 235.333 29.1046 235.344 28.9087C235.354 28.7127 235.344 28.625 235.344 28.625C235.344 28.625 235.344 28.723 235.344 28.9087C235.344 29.0943 235.344 29.3831 235.312 29.7389C235.312 29.9245 235.312 30.1308 235.312 30.3525C235.312 30.5743 235.243 30.8218 235.206 31.0848C235.169 31.3478 235.127 31.6366 235.079 31.9408C235.032 32.2451 234.931 32.5596 234.857 32.9C234.452 34.5458 233.79 36.1214 232.895 37.572C231.722 39.5042 230.18 41.1988 228.352 42.5637L227.574 43.131C227.304 43.3063 227.045 43.4662 226.733 43.6467C226.421 43.8271 226.167 44.0076 225.855 44.1623L224.924 44.6007L224.448 44.8224L223.951 45.0029L222.941 45.3639C222.597 45.4773 222.238 45.5495 221.883 45.6423C221.526 45.7468 221.162 45.8277 220.794 45.8847C220.043 46.0249 219.283 46.1128 218.519 46.1477C218.128 46.1477 217.742 46.1993 217.345 46.1941L216.155 46.1374C215.954 46.1374 215.753 46.1374 215.552 46.1013L214.954 46.0136C214.552 45.9466 214.145 45.9053 213.738 45.8228C212.923 45.6475 212.121 45.4201 211.337 45.1421C210.531 44.8513 209.746 44.5067 208.988 44.1108C208.608 43.9097 208.243 43.6776 207.867 43.461C207.682 43.3476 207.486 43.2496 207.306 43.1155L206.777 42.7288C206.057 42.2127 205.373 41.6493 204.731 41.0425C204.429 40.7125 204.122 40.3876 203.816 40.0576L203.583 39.81L203.377 39.5419L202.964 39.0262L202.551 38.5105L202.176 37.9949L201.816 37.4121L201.631 37.1234L201.478 36.814L200.864 35.5763C200.706 35.1432 200.542 34.71 200.378 34.2768C199.136 30.6802 199.136 26.7864 200.378 23.1898L200.87 21.8903L201.478 20.6527L201.631 20.3433L201.816 20.0545L202.176 19.4718L202.541 18.8942L202.953 18.3786L203.366 17.8629L203.578 17.5947L203.805 17.3524L204.725 16.3674C205.367 15.7605 206.049 15.1955 206.767 14.676L207.296 14.2892C207.476 14.1603 207.671 14.0624 207.856 13.9489C208.232 13.7323 208.597 13.5003 208.978 13.2992C209.735 12.9032 210.52 12.5586 211.326 12.2678C212.11 11.9898 212.913 11.7625 213.727 11.5871C214.135 11.5046 214.542 11.4582 214.939 11.3963L215.542 11.3086C215.743 11.3086 215.943 11.3086 216.144 11.2725L217.335 11.2158C217.726 11.2158 218.117 11.2468 218.509 11.2622C219.272 11.298 220.032 11.3842 220.783 11.5201C221.151 11.5812 221.515 11.6639 221.873 11.7676C222.227 11.8604 222.587 11.9326 222.93 12.0461L223.941 12.407L224.438 12.5875L224.914 12.8093L225.845 13.2476C226.157 13.3868 226.432 13.5828 226.723 13.7633C227.014 13.9437 227.294 14.0984 227.564 14.2789L228.341 14.8462C230.172 16.2083 231.715 17.9034 232.884 19.8379C233.779 21.2885 234.441 22.8641 234.847 24.5099C234.937 24.8258 235.012 25.1459 235.069 25.4691C235.116 25.7733 235.159 26.057 235.196 26.3251C235.233 26.5933 235.28 26.8408 235.302 27.0574C235.323 27.274 235.302 27.4854 235.302 27.6659C235.302 28.0097 235.312 28.2881 235.333 28.5013C235.381 28.6611 235.376 28.7333 235.376 28.7333Z" fill="#263238"/>
<path d="M211.109 25.7421H214.51C214.51 25.7421 214.51 22.9574 217.477 22.911C218.045 22.8965 218.604 23.053 219.077 23.3594C219.55 23.6658 219.915 24.1071 220.122 24.6231C220.3 25.0581 220.371 25.528 220.329 25.9947C220.287 26.4615 220.132 26.9119 219.879 27.3097C219.302 28.2328 218.038 29.0785 215.742 28.6866V33.5494H219.106V31.7807C220.494 31.393 221.712 30.57 222.572 29.4392C223.431 28.3084 223.885 26.9328 223.861 25.5255C223.861 20.6782 219.403 19.5488 217.514 19.5488C216.018 19.5488 211.046 19.8943 211.109 25.7421Z" fill="#454238"/>
<path d="M219.17 34.813H215.758V37.9225H219.17V34.813Z" fill="#454238"/>
<path d="M200.822 43.7754C200.822 44.3027 200.662 44.8182 200.361 45.2566C200.061 45.695 199.634 46.0367 199.134 46.2385C198.634 46.4403 198.084 46.4931 197.554 46.3902C197.024 46.2874 196.536 46.0334 196.154 45.6606C195.772 45.2877 195.511 44.8127 195.406 44.2955C195.3 43.7784 195.354 43.2423 195.561 42.7552C195.768 42.268 196.119 41.8516 196.568 41.5587C197.018 41.2657 197.547 41.1094 198.087 41.1094C198.812 41.1107 199.507 41.3921 200.02 41.8917C200.532 42.3914 200.821 43.0688 200.822 43.7754Z" fill="white"/>
<path d="M200.822 43.7755C200.795 43.7755 200.822 43.5383 200.69 43.1361C200.528 42.5678 200.176 42.0686 199.69 41.7179C199.337 41.4614 198.923 41.295 198.487 41.2338C198.051 41.1725 197.607 41.2184 197.194 41.3673C196.704 41.5398 196.28 41.8526 195.977 42.2646C195.629 42.7632 195.471 43.365 195.531 43.9654C195.591 44.5657 195.865 45.1265 196.305 45.5503C196.746 45.974 197.324 46.2339 197.941 46.2846C198.557 46.3353 199.173 46.1737 199.679 45.8279C200.167 45.4803 200.519 44.9824 200.679 44.4149C200.795 44.0127 200.785 43.7755 200.811 43.7755C200.819 43.8319 200.819 43.8892 200.811 43.9457C200.818 44.1191 200.8 44.2925 200.758 44.4613C200.619 45.0634 200.27 45.5995 199.769 45.9774C199.475 46.2042 199.136 46.3711 198.774 46.4681C198.412 46.5651 198.033 46.5903 197.661 46.5423C197.289 46.4942 196.93 46.3738 196.606 46.1882C196.283 46.0026 196 45.7556 195.776 45.4618C195.415 44.9873 195.221 44.4124 195.221 43.8219C195.221 43.2314 195.415 42.6565 195.776 42.1821C196.108 41.7397 196.569 41.4054 197.098 41.2229C197.544 41.0691 198.022 41.0267 198.489 41.0997C198.955 41.1727 199.396 41.3587 199.769 41.6406C200.277 42.0257 200.627 42.574 200.758 43.1876C200.798 43.348 200.815 43.5127 200.811 43.6775C200.817 43.7099 200.821 43.7426 200.822 43.7755Z" fill="#263238"/>
<path d="M101.323 171.952C95.611 158.029 91.3322 148.324 91.3322 148.324L39.1287 156.059C39.1287 156.059 29.7511 179.507 30.5604 190.15C31.3696 200.794 35.1936 219.544 35.1936 219.544H98.3561C98.3561 219.544 107.03 185.896 101.323 171.952Z" fill="#263238"/>
<path d="M82.4836 55.6572C82.8908 51.6349 83.5097 47.5869 85.0223 43.8224C86.535 40.058 89.005 36.5617 92.5011 34.3856L93.395 35.1952C93.7044 34.3243 94.2513 33.552 94.9769 32.9612C95.7025 32.3704 96.5794 31.9835 97.5135 31.8419C98.4477 31.7004 99.4037 31.8096 100.279 32.1578C101.154 32.506 101.916 33.08 102.482 33.8183C103.491 33.5533 104.559 33.5945 105.544 33.9365C106.528 34.2784 107.382 34.9048 107.993 35.7321C108.603 36.5595 108.94 37.5485 108.959 38.5673C108.978 39.5862 108.678 40.5865 108.099 41.4348C109.045 41.5493 109.933 41.9408 110.646 42.5577C111.359 43.1745 111.863 43.9877 112.093 44.8899C112.322 45.7921 112.265 46.7408 111.93 47.6108C111.594 48.4809 110.996 49.2313 110.214 49.763C111.246 50.6454 111.983 51.8085 112.331 53.1028C112.679 54.3971 112.622 55.7632 112.167 57.0255C111.712 58.2878 110.88 59.3885 109.778 60.1858C108.676 60.9832 107.354 61.4408 105.983 61.4998C106.296 62.6691 106.188 63.9078 105.677 65.0089C105.166 66.11 104.284 67.007 103.176 67.5501C102.069 68.0932 100.804 68.2496 99.593 67.9931C98.3817 67.7366 97.2973 67.0828 96.5208 66.1409C96.7113 68.5491 94.7384 70.8284 92.3319 71.4008C89.9253 71.9732 87.3019 71.0243 85.546 69.3381C83.8392 67.5619 82.7557 65.3028 82.4518 62.887C82.1552 60.4851 82.1659 58.0565 82.4836 55.6572Z" fill="#263238"/>
<path d="M93.5907 37.8301C95.9919 38.5881 96.4838 40.4858 96.981 42.0638C98.0388 45.4621 96.8488 50.4951 94.8971 53.5015C92.9454 56.5078 90.8033 58.0549 87.1962 58.5706C87.0728 53.1731 86.9546 47.7757 86.8418 42.3783L93.5907 37.8301Z" fill="#454238"/>
<path d="M94.9447 47.1277C95.7322 46.061 96.1106 44.7586 96.014 43.4477C95.9173 42.1368 95.3517 40.9006 94.4158 39.9547C95.4736 38.6655 95.0875 36.6801 94.0191 35.4064C92.9507 34.1327 91.3745 33.4004 89.8354 32.7094C88.9944 28.945 84.6574 26.2944 80.8122 27.202C78.8076 24.3297 74.5446 23.8811 71.1226 24.8505C70.308 25.1406 69.4547 25.3143 68.5891 25.3662C67.953 25.319 67.3206 25.2329 66.6956 25.1084C63.2154 24.6546 59.7669 27.0421 58.4076 30.1981C58.2283 30.7151 57.9812 31.2074 57.6724 31.6626C57.1586 32.1773 56.5812 32.6277 55.9534 33.0034C55.3262 33.4827 54.8125 34.0883 54.4474 34.7789C54.0823 35.4695 53.8743 36.2289 53.8378 37.005C53.7796 38.32 54.208 39.7175 53.6421 40.9138C53.3565 41.5172 52.8381 41.9967 52.616 42.6207C51.976 44.4307 54.0335 46.282 53.6738 48.1591C53.5945 48.5407 53.4147 48.8965 53.3089 49.2729C53.087 50.0504 53.1602 50.8799 53.5151 51.6089C53.7902 52.1659 54.2345 52.6712 54.2715 53.29C54.2374 53.7552 54.1433 54.2144 53.9912 54.6566C53.7532 55.7807 56.2337 60.1021 57.2281 60.7106L86.9158 60.9684C88.0366 60.724 89.0519 60.1461 89.8212 59.3147C90.5906 58.4833 91.0761 57.4394 91.2106 56.3274C91.1991 55.9552 91.2943 55.5873 91.4856 55.2651C91.7175 55.04 91.9949 54.8643 92.3001 54.7494C94.2095 53.749 94.4158 51.1912 94.2412 49.077C94.1857 48.7855 94.1857 48.4866 94.2412 48.1952C94.4003 47.7972 94.6395 47.4342 94.9447 47.1277Z" fill="#263238"/>
<path d="M86.4398 47.1687C86.5297 42.0429 83.2346 36.159 78.0142 33.6529C74.7244 32.0749 72.1592 32.0646 70.4244 31.8686C67.9967 31.6422 65.5558 32.1422 63.4269 33.3022C61.7873 33.6786 55.7894 39.0314 55.4932 44.843C55.1442 51.2941 54.9643 59.1891 55.8212 63.9901C57.5031 73.6538 65.1247 74.8192 65.1247 74.8192L64.4159 90.8774L79.0456 102.557L83.5202 83.3227L86.4398 47.1687Z" fill="#FFBF9D"/>
<path d="M65.1141 74.7987C69.8033 74.8158 74.4056 73.5664 78.4109 71.189C78.4109 71.189 74.9466 78.0475 65.0031 77.243L65.1141 74.7987Z" fill="#FF9A6C"/>
<path d="M84.943 56.353C84.943 55.6363 85.7734 53.9242 86.5297 53.8056C88.4761 53.491 91.9881 53.6045 92.0727 58.4467C92.1891 65.0473 85.5513 63.5725 85.3609 63.6034C84.2554 63.8097 84.9642 58.8438 84.943 56.353Z" fill="#FFBF9D"/>
<path d="M87.1538 61.1491C87.1855 61.1491 87.2754 61.2264 87.4764 61.3141C87.76 61.4246 88.0762 61.4246 88.3597 61.3141C89.0684 61.046 89.6503 59.9321 89.6608 58.7357C89.6673 58.1699 89.5445 57.6097 89.3012 57.0959C89.2349 56.8911 89.1183 56.7051 88.9617 56.5541C88.805 56.4032 88.6129 56.2917 88.402 56.2295C88.2658 56.1966 88.1221 56.211 87.9956 56.2703C87.8691 56.3296 87.7678 56.4301 87.7092 56.5544C87.6245 56.7401 87.6668 56.8741 87.6351 56.8844C87.6034 56.8948 87.487 56.7762 87.5346 56.5029C87.5695 56.3388 87.6609 56.1914 87.7938 56.0851C87.9788 55.9457 88.2118 55.8811 88.4443 55.9047C88.7262 55.9564 88.9895 56.0787 89.2083 56.2595C89.4271 56.4403 89.594 56.6734 89.6926 56.936C89.9905 57.502 90.1412 58.1306 90.1316 58.7667C90.1316 60.0971 89.4387 61.345 88.4655 61.6441C88.2882 61.6943 88.1018 61.7064 87.9192 61.6797C87.7366 61.653 87.5621 61.5881 87.4077 61.4894C87.1697 61.3141 87.1326 61.1491 87.1538 61.1491Z" fill="#FF9A6C"/>
<path d="M54.0282 43.8585C54.3349 41.4642 55.1452 39.1574 56.4083 37.0825C57.1772 35.5908 58.2124 34.2445 59.4654 33.1067C60.5786 32.2339 61.8081 31.5122 63.1202 30.9614C66.5105 29.4144 70.2922 28.0633 73.9522 28.8678C75.9145 29.2958 77.6863 30.3168 79.4053 31.3379C80.7517 32.0733 82.008 32.9556 83.15 33.9678C84.1023 34.91 84.9223 35.9713 85.5883 37.1238C87.2841 39.8185 88.316 42.8598 88.6031 46.0089C88.8252 49.1493 91.2476 51.9288 89.3753 54.4814C89.2272 54.6774 85.8633 55.3581 85.6306 55.4457C85.1017 55.6571 84.4828 55.0796 84.4881 54.5072C84.5216 54.2217 84.6138 53.9458 84.7592 53.696C84.9046 53.4461 85.1002 53.2274 85.3344 53.053C84.4987 53.0272 83.9222 52.1145 83.9751 51.2997C84.1073 50.4861 84.4742 49.726 85.0329 49.1081C85.1051 49.0293 85.1544 48.9332 85.1757 48.8296C85.2127 48.5511 84.8901 48.381 84.6468 48.2366C84.3636 48.0468 84.128 47.7971 83.9577 47.5061C83.7874 47.2151 83.6868 46.8903 83.6634 46.5561C83.6401 46.2218 83.6945 45.8867 83.8226 45.5759C83.9508 45.265 84.1494 44.9864 84.4035 44.7609C84.0086 44.6525 83.6401 44.4677 83.32 44.2175C82.9999 43.9673 82.7347 43.6568 82.5402 43.3046C82.3458 42.9523 82.226 42.5655 82.1881 42.1672C82.1502 41.7689 82.1949 41.3673 82.3196 40.9862C82.3856 40.8759 82.4285 40.7539 82.4457 40.6273C82.463 40.5007 82.4543 40.372 82.4201 40.2488C82.3037 40.0322 82.0234 39.96 81.7854 39.8929C80.8987 39.6069 80.1474 39.0188 79.6694 38.2364C79.1915 37.454 79.0188 36.5299 79.1832 35.6335C78.2475 35.7242 77.3033 35.6826 76.3799 35.5097C75.9185 35.4215 75.4818 35.2378 75.0995 34.9709C74.7172 34.704 74.3981 34.3602 74.1638 33.9627C73.8636 34.4925 73.43 34.9391 72.904 35.2605C72.3779 35.5819 71.7767 35.7676 71.1567 35.8001C70.5368 35.8326 69.9186 35.7108 69.3603 35.4462C68.8019 35.1816 68.3218 34.7829 67.965 34.2875C66.3797 34.431 64.7826 34.19 63.3159 33.5862C63.1294 34.3018 62.7614 34.9602 62.2456 35.5009C61.7299 36.0415 61.0831 36.4471 60.3645 36.6803C60.0842 36.7679 59.7616 36.8556 59.6294 37.1083C59.5634 37.2721 59.5416 37.4496 59.5659 37.624C59.6188 38.547 58.9735 38.9389 58.4499 39.6867C57.9263 40.4344 57.0218 41.605 56.1121 41.3523C56.2126 42.8993 55.3558 44.0596 53.9965 44.9053L54.0282 43.8585Z" fill="#263238"/>
<path d="M52.6266 42.6464C52.7091 42.393 52.8304 42.1531 52.9862 41.9348C53.1291 41.7182 53.33 41.4604 53.5152 41.1304C53.7278 40.7483 53.8541 40.3263 53.8854 39.8927C53.9182 39.3492 53.9023 38.804 53.8378 38.2632C53.761 37.6113 53.7734 36.9523 53.8748 36.3036C54.0185 35.5653 54.3154 34.8633 54.7475 34.2409C54.9837 33.8975 55.2606 33.5825 55.5726 33.3024C55.9021 33.0128 56.256 32.7506 56.6304 32.5186C57.018 32.2833 57.3629 31.9871 57.6512 31.6419C57.9194 31.2564 58.1312 30.8364 58.2806 30.394C59.092 28.4346 60.5918 26.8206 62.5119 25.8406C63.0261 25.5723 63.5688 25.3596 64.1304 25.2063C64.7113 25.0631 65.3084 24.992 65.9075 24.9949C66.2134 25.0003 66.5188 25.021 66.8225 25.0568C67.124 25.1032 67.4202 25.1599 67.7217 25.2115C68.3182 25.3325 68.934 25.3325 69.5306 25.2115C70.1335 25.0928 70.7259 24.8711 71.35 24.6958C71.9771 24.5282 72.6176 24.4126 73.2647 24.3503C73.9236 24.284 74.5871 24.272 75.2481 24.3142C75.9211 24.3614 76.5875 24.4754 77.2368 24.6545C78.5822 25.0092 79.7804 25.7645 80.6641 26.8152L80.918 27.1401L80.8069 27.0988C82.7752 26.7148 84.8195 27.0801 86.5202 28.1197C88.2209 29.1592 89.4488 30.7942 89.9518 32.6888L89.8936 32.6217C90.7141 32.9725 91.5108 33.3738 92.279 33.8232C93.0287 34.2593 93.6902 34.8256 94.2307 35.494C94.7371 36.1562 95.048 36.9409 95.1298 37.763C95.2258 38.5604 95.0001 39.3629 94.5004 40.001V39.8927C95.4164 40.8022 95.9777 41.9951 96.0871 43.2653C96.2109 44.4019 95.9747 45.5483 95.4101 46.5501C95.2793 46.7791 95.1308 46.998 94.9659 47.205C94.8072 47.4061 94.6379 47.5969 94.5057 47.798C94.3734 47.9921 94.2933 48.2156 94.273 48.4478C94.2606 48.6767 94.2695 48.9063 94.2994 49.1336C94.3816 49.9665 94.3638 50.8058 94.2465 51.6347C94.1609 52.3079 93.9398 52.958 93.596 53.5478C93.3363 53.984 92.9736 54.3535 92.5382 54.6256C92.1891 54.8525 91.8823 54.9453 91.713 55.0691C91.6243 55.1289 91.5412 55.1962 91.4645 55.2702C91.527 55.1826 91.606 55.1074 91.6972 55.0484C91.8664 54.9144 92.1732 54.8164 92.5117 54.5843C92.9257 54.3056 93.2693 53.9389 93.5166 53.5117C93.8432 52.9263 94.0532 52.2859 94.1355 51.6244C94.2405 50.8012 94.2494 49.9691 94.1619 49.144C94.1317 48.9097 94.1228 48.6733 94.1355 48.4375C94.1579 48.1857 94.2432 47.9432 94.384 47.731C94.5285 47.5223 94.6839 47.3209 94.8495 47.1277C95.0056 46.9215 95.1487 46.7063 95.2779 46.4831C95.8197 45.5037 96.0429 44.3868 95.9179 43.2807C95.8075 42.0467 95.2595 40.8888 94.3682 40.0062L94.31 39.9546L94.3576 39.8979C94.8252 39.2911 95.0354 38.5322 94.9447 37.7785C94.8611 36.9895 94.5595 36.2374 94.072 35.6023C93.5428 34.9535 92.8977 34.4032 92.1679 33.9779C91.405 33.5366 90.6155 33.1406 89.8037 32.7919H89.7614V32.7455C89.2653 30.9043 88.0677 29.317 86.4127 28.307C84.7576 27.2971 82.7698 26.9406 80.8545 27.3103H80.7911L80.7487 27.2587L80.5054 26.9441C79.6478 25.9249 78.4845 25.1928 77.1786 24.8505C76.544 24.6825 75.8937 24.5771 75.2375 24.5359C74.5889 24.4946 73.938 24.5049 73.2911 24.5669C72.655 24.63 72.0252 24.7438 71.4082 24.9072C70.7946 25.0568 70.197 25.2785 69.5729 25.4229C69.2634 25.4883 68.948 25.5228 68.6314 25.526C68.3172 25.5217 68.0039 25.4906 67.6952 25.4332C67.3885 25.3868 67.0923 25.3249 66.7961 25.2836C66.5031 25.2461 66.2082 25.2238 65.9128 25.2166C65.3297 25.2146 64.7487 25.2839 64.1833 25.4229C63.6334 25.5624 63.1012 25.7613 62.5965 26.0159C61.6241 26.497 60.7552 27.1552 60.0366 27.9548C59.3597 28.6959 58.8225 29.5479 58.4499 30.4713C58.2882 30.9232 58.0678 31.353 57.794 31.7502C57.4924 32.102 57.1353 32.4049 56.7362 32.6475C56.3629 32.8753 56.0091 33.1323 55.6784 33.4159C55.3735 33.6887 55.102 33.995 54.8692 34.3286C54.4364 34.9501 54.141 35.6525 54.0018 36.3913C53.897 37.0309 53.881 37.6813 53.9542 38.3251C54.0011 38.8725 54.0011 39.4227 53.9542 39.9701C53.9144 40.4121 53.7792 40.8409 53.5575 41.2283C53.3618 41.5584 53.1555 41.8111 53.0286 42.0276C52.9112 42.1905 52.8085 42.3631 52.7218 42.5433C52.6919 42.5793 52.6602 42.6137 52.6266 42.6464Z" fill="#454238"/>
<path d="M77.644 25.7737C77.644 25.7737 77.4642 25.6758 77.1151 25.5211C76.6481 25.3061 76.1476 25.1684 75.6342 25.1137C74.8763 25.0314 74.1096 25.1471 73.4127 25.4489C72.5639 25.8257 71.86 26.456 71.4029 27.2486C71.2651 27.4868 71.1551 27.7394 71.075 28.0015C71.0296 28.1131 71.0109 28.2332 71.02 28.3529C71.0292 28.4726 71.066 28.5887 71.1278 28.6925L71.2971 28.9194L71.0221 28.8472C70.3178 28.6646 69.5683 28.7571 68.9329 29.105C68.4266 29.3837 68.0259 29.8141 67.7904 30.3323C67.6371 30.6765 67.551 31.0455 67.5365 31.4204C67.5365 31.6885 67.5365 31.8329 67.5365 31.8329C67.5365 31.8329 67.5366 31.802 67.5048 31.7298C67.4827 31.628 67.4703 31.5244 67.4678 31.4204C67.4539 31.0323 67.5242 30.6457 67.6741 30.2859C67.902 29.7299 68.3132 29.2636 68.843 28.9606C69.5162 28.5748 70.319 28.4654 71.075 28.6564L70.9692 28.8059C70.8887 28.6792 70.8388 28.5363 70.8233 28.388C70.8077 28.2397 70.8268 28.0899 70.8793 27.9499C70.9618 27.6731 71.0772 27.4065 71.2231 27.1558C71.7035 26.325 72.4452 25.6669 73.3387 25.2787C74.0661 24.9732 74.8655 24.8679 75.65 24.9745C76.1754 25.0415 76.6831 25.2042 77.1468 25.454C77.2747 25.5198 77.3967 25.5957 77.5118 25.6809C77.607 25.7377 77.6493 25.7686 77.644 25.7737Z" fill="#454238"/>
<path d="M88.6824 33.2662C88.6824 33.2662 88.6136 33.359 88.4497 33.5034C88.2148 33.7006 87.9596 33.8734 87.688 34.0191C87.276 34.2479 86.8173 34.3853 86.3446 34.4213C85.7405 34.473 85.1384 34.3019 84.6574 33.9417L84.8055 33.9159L84.6098 34.1892C84.541 34.2769 84.4617 34.3646 84.3823 34.4522C83.9175 34.926 83.3397 35.2803 82.7004 35.4836C82.1818 35.6552 81.6339 35.727 81.0872 35.695C80.7247 35.67 80.368 35.5918 80.0294 35.463C79.9028 35.4201 79.7834 35.3593 79.675 35.2825C80.1399 35.4292 80.6211 35.5209 81.1084 35.5558C81.6327 35.5662 82.1544 35.4822 82.6475 35.3083C83.2504 35.1023 83.7943 34.7593 84.2343 34.3078C84.3083 34.2253 84.3823 34.148 84.4511 34.0603L84.6362 33.8076L84.705 33.7148L84.7843 33.7819C85.2254 34.1155 85.7771 34.2789 86.334 34.2408C86.7842 34.2148 87.2239 34.0971 87.6246 33.8953C88.3122 33.5653 88.6612 33.2352 88.6824 33.2662Z" fill="#454238"/>
<path d="M92.3107 39.3565C92.3176 39.3975 92.3176 39.4393 92.3107 39.4803C92.2799 39.5941 92.2298 39.7022 92.1626 39.8C91.9066 40.1625 91.5191 40.4168 91.0783 40.5116C90.4282 40.6318 89.7562 40.5674 89.1425 40.326C88.7987 40.2074 88.4391 40.0888 88.0847 39.9238C87.6809 39.7655 87.3475 39.4733 87.1432 39.0987C87.1268 39.0635 87.1127 39.0273 87.1009 38.9904L87.2596 39.0368C86.6591 39.5306 85.9849 39.9323 85.2603 40.228C84.66 40.4697 84.0018 40.5412 83.3615 40.4343C82.9301 40.3671 82.5248 40.1891 82.1874 39.9186C82.0953 39.8473 82.0119 39.766 81.9388 39.6762C81.8912 39.6144 81.87 39.5834 81.8753 39.5783C81.8806 39.5731 81.997 39.6917 82.235 39.8567C82.5761 40.0892 82.9699 40.2378 83.3827 40.2899C83.9966 40.3749 84.6226 40.2928 85.1916 40.0527C85.8947 39.7566 86.5489 39.3604 87.1327 38.8769L87.2385 38.7944L87.2913 38.9234C87.2913 38.9234 87.2913 38.9801 87.3284 39.011C87.5146 39.3416 87.8114 39.6001 88.1693 39.7433C88.5131 39.9031 88.8781 40.0269 89.2272 40.1455C89.8071 40.3865 90.4445 40.4651 91.0678 40.3724C91.4846 40.292 91.8591 40.0711 92.1256 39.7484C92.1976 39.6227 92.2595 39.4916 92.3107 39.3565Z" fill="#454238"/>
<path d="M70.4773 52.7539C70.4628 53.0717 70.5764 53.3824 70.7939 53.6194C71.0114 53.8565 71.3154 54.0012 71.6409 54.0225C71.7996 54.0395 71.9601 54.0256 72.1131 53.9815C72.2662 53.9374 72.4087 53.864 72.5323 53.7656C72.6559 53.6672 72.7582 53.5457 72.833 53.4083C72.9079 53.2709 72.954 53.1203 72.9685 52.9653C72.9817 52.6474 72.8678 52.3368 72.6507 52.0992C72.4336 51.8615 72.1304 51.7154 71.8049 51.6916C71.6458 51.6745 71.4849 51.6886 71.3315 51.733C71.1782 51.7775 71.0354 51.8513 70.9118 51.9503C70.7881 52.0493 70.6859 52.1713 70.6113 52.3093C70.5367 52.4473 70.4912 52.5985 70.4773 52.7539Z" fill="#263238"/>
<path d="M58.3124 52.4286C58.2978 52.7464 58.4115 53.0571 58.629 53.2942C58.8464 53.5313 59.1505 53.676 59.476 53.6972C59.6348 53.715 59.7956 53.7016 59.9489 53.6578C60.1023 53.614 60.2451 53.5406 60.3688 53.4421C60.4926 53.3435 60.5948 53.2217 60.6695 53.084C60.7442 52.9462 60.7898 52.7953 60.8036 52.6401C60.8181 52.3223 60.7045 52.0116 60.487 51.7745C60.2695 51.5374 59.9655 51.3928 59.64 51.3715C59.4811 51.353 59.32 51.3658 59.1663 51.4094C59.0127 51.4529 58.8696 51.5262 58.7457 51.6249C58.6217 51.7236 58.5195 51.8456 58.4451 51.9837C58.3706 52.1218 58.3255 52.2732 58.3124 52.4286Z" fill="#263238"/>
<path d="M57.8416 48.3808C57.9897 48.5459 58.9576 47.8652 60.3063 47.9374C61.6551 48.0096 62.6177 48.6696 62.771 48.5149C62.8451 48.4427 62.6917 48.1539 62.2739 47.8342C61.7037 47.4213 61.0164 47.1907 60.3063 47.1741C59.6073 47.1515 58.9187 47.3446 58.3388 47.7259C57.9157 48.025 57.7834 48.3086 57.8416 48.3808Z" fill="#263238"/>
<path d="M71.2283 49.0355C71.3976 49.1851 72.2862 48.4374 73.6349 48.3497C74.9836 48.262 76.015 48.8654 76.1472 48.6746C76.216 48.5972 76.0361 48.3239 75.5866 48.0454C74.975 47.6953 74.2678 47.5369 73.5608 47.5917C72.8617 47.6372 72.1952 47.8971 71.6568 48.3342C71.2707 48.6746 71.149 48.9685 71.2283 49.0355Z" fill="#263238"/>
<path d="M66.209 58.8903C66.209 58.8181 65.3839 58.6531 64.0352 58.4365C63.6914 58.3953 63.3688 58.3179 63.3159 58.0859C63.3012 57.7392 63.3933 57.3962 63.5804 57.1009L64.6805 54.5793C66.2143 50.9696 67.325 48.0302 67.1875 47.9735C67.05 47.9168 65.6748 50.7788 64.141 54.3679L63.0832 56.905C62.8534 57.3025 62.7747 57.7663 62.861 58.2148C62.9038 58.334 62.9736 58.4422 63.0651 58.5315C63.1567 58.6208 63.2677 58.6888 63.39 58.7305C63.5789 58.7868 63.7744 58.8197 63.9718 58.8285C65.3522 58.9316 66.1985 58.9677 66.209 58.8903Z" fill="#263238"/>
<path d="M68.2929 60.8445C68.5502 60.8738 68.7987 60.9538 69.0233 61.0797C69.2479 61.2056 69.4439 61.3747 69.5993 61.5768C69.8902 61.9893 70.1018 62.9536 69.8109 63.3301C69.52 63.7065 68.4516 63.6447 67.6952 63.5518C67.5213 63.5299 67.3572 63.4607 67.2216 63.3522C67.086 63.2437 66.9843 63.1002 66.9283 62.9382L66.6268 62.0925C66.5845 61.9778 66.5662 61.856 66.5729 61.7343C66.5796 61.6126 66.6113 61.4934 66.666 61.3838C66.7207 61.2743 66.7974 61.1765 66.8915 61.0962C66.9856 61.016 67.0952 60.955 67.2139 60.9167C67.5639 60.8163 67.9322 60.7916 68.2929 60.8445Z" fill="#FF9A6C"/>
<path d="M70.6148 44.245C70.8158 44.5699 72.1063 44.1522 73.693 44.0387C75.2798 43.9253 76.6179 44.1006 76.7607 43.75C76.8242 43.5798 76.5386 43.291 75.9673 43.0486C75.2105 42.7547 74.3934 42.6382 73.582 42.7083C72.7692 42.7659 71.9823 43.0116 71.2865 43.4251C70.7576 43.7551 70.5301 44.0852 70.6148 44.245Z" fill="#263238"/>
<path d="M58.1696 46.2253C58.4552 46.5141 59.5183 46.1789 60.8141 46.1325C62.1099 46.0861 63.2101 46.2666 63.4587 45.952C63.5644 45.7973 63.3793 45.5034 62.898 45.2301C62.2301 44.8984 61.4827 44.7488 60.7348 44.7969C59.9811 44.8208 59.2489 45.0475 58.6191 45.4518C58.1854 45.7715 58.0479 46.0809 58.1696 46.2253Z" fill="#263238"/>
<path d="M104.576 100.748L91.8823 145.678L96.341 158.57C79.564 165.79 55.3134 168.069 36.1986 159.039C36.1986 159.039 42.6883 140.475 42.9105 136.865C43.1326 133.256 41.5353 112.113 43.3019 105.043C45.0684 97.9732 50.1301 82.7711 50.1301 82.7711L65.0083 80.4712C71.8313 84.0448 76.2001 84.5966 83.5202 80.4351L97.3829 83.3228L104.576 100.748Z" fill="#454238"/>
<path d="M50.3364 82.7145C50.3364 82.7145 42.3446 83.5396 39.1288 89.934C35.913 96.3284 27.1067 124.293 26.6465 128.976C26.1863 133.658 30.0633 139.96 33.4589 140.836L43.7515 130.827L52.2934 131.57L63.5433 80.4043L50.3364 82.7145Z" fill="#454238"/>
<g opacity="0.3">
<path d="M44.3068 99.9224C41.8158 106.247 41.1214 113.109 42.2969 119.786L36.6693 117.723C38.2036 119.791 40.191 121.5 42.4873 122.726C40.9694 122.298 39.4144 121.864 37.8382 121.962C36.2621 122.06 34.6648 122.803 33.9296 124.18C35.7649 123.855 37.6319 123.525 39.4937 123.736C41.3555 123.948 43.2278 124.768 44.2539 126.315C42.8603 120.469 42.326 114.46 42.6672 108.467" fill="black"/>
</g>
<g opacity="0.3">
<path d="M41.969 138.459L83.9063 142.507C80.8862 142.445 78.559 144.941 75.9409 146.416C71.0961 149.149 65.0612 148.386 59.5447 147.535L45.7931 145.431C44.64 145.25 43.4077 145.039 42.5561 144.255C41.017 142.858 41.4348 140.434 41.969 138.459Z" fill="black"/>
</g>
<path d="M73.9998 135.097L81.0237 128.486C81.3602 128.17 81.7624 127.928 82.2032 127.776C82.644 127.625 83.113 127.568 83.5784 127.609C85.5829 127.795 88.9785 128.125 89.6767 128.403C90.6816 128.785 91.6337 129.331 91.9087 129.821C92.4301 131.078 92.8596 132.368 93.194 133.684C93.1941 134.15 93.1569 134.615 93.0829 135.076C93.0636 135.233 93.0052 135.383 92.9128 135.513C92.8205 135.643 92.697 135.749 92.5531 135.821C92.4091 135.894 92.2492 135.931 92.0871 135.93C91.925 135.929 91.7657 135.889 91.6231 135.814C91.3493 135.674 91.1204 135.463 90.9619 135.205C90.7249 134.866 90.5894 134.47 90.5706 134.06C90.5706 134.06 90.7927 137 88.3386 137.056C88.3386 137.056 89.4704 139.557 86.3075 140.589C86.3075 140.589 86.4292 142.223 83.7846 142.44C82.107 142.568 80.4217 142.568 78.7441 142.44C78.7441 142.44 73.9099 145.823 70.509 146.05C67.1081 146.277 59.4812 144.817 59.4812 144.817L58.5609 131.131L73.9998 135.097Z" fill="#FFBF9D"/>
<path d="M83.5149 130.904C83.8765 131.084 84.2513 131.238 84.6362 131.363C85.3449 131.621 86.3234 131.961 87.4394 132.25C87.9683 132.405 88.5448 132.487 89.0261 132.611C89.4319 132.743 89.7731 133.017 89.9835 133.38C90.1845 133.679 90.3484 133.936 90.5124 134.096C90.6763 134.256 90.7504 134.323 90.7557 134.313C90.7009 134.222 90.639 134.136 90.5706 134.055C90.4542 133.885 90.3114 133.627 90.121 133.307C90.0131 133.129 89.8835 132.965 89.7349 132.817C89.5573 132.649 89.3417 132.524 89.1055 132.451C88.6083 132.312 88.0847 132.224 87.5187 132.075C86.4133 131.786 85.4295 131.466 84.7155 131.239C84.3249 131.097 83.9235 130.985 83.5149 130.904Z" fill="#FF9A6C"/>
<path d="M82.6105 135.097C82.8549 135.246 83.118 135.364 83.3933 135.447C83.8851 135.643 84.5727 135.891 85.3397 136.144C86.1066 136.396 86.81 136.597 87.3231 136.731C87.5964 136.819 87.8782 136.88 88.164 136.912C87.9084 136.782 87.6388 136.68 87.3601 136.608L85.3978 135.968L83.4356 135.329C83.1694 135.224 82.893 135.146 82.6105 135.097Z" fill="#FF9A6C"/>
<path d="M80.8757 139.016C80.8757 139.073 82.0975 139.191 83.5573 139.583C85.0171 139.975 86.149 140.46 86.1701 140.408C85.9513 140.252 85.7109 140.127 85.4561 140.037C84.8563 139.78 84.2375 139.568 83.6049 139.403C82.9749 139.238 82.3331 139.119 81.685 139.047C81.4184 138.996 81.1455 138.986 80.8757 139.016Z" fill="#FF9A6C"/>
<path d="M64.6117 145.679L33.4536 140.831C33.4536 140.831 37.1983 125.608 42.6619 125.608C43.4606 125.608 71.1332 134.375 71.1332 134.375L64.6117 145.679Z" fill="#454238"/>
<path d="M70.0594 139.042C70.3221 138.847 70.5664 138.629 70.7893 138.392L72.4924 136.762C73.1536 136.123 73.746 135.53 74.1585 135.092C74.3946 134.865 74.6072 134.616 74.7932 134.349C74.5322 134.546 74.2881 134.763 74.0633 134.999L72.3602 136.634C71.6991 137.273 71.1067 137.861 70.6941 138.299C70.4595 138.527 70.2471 138.776 70.0594 139.042Z" fill="#FF9A6C"/>
<path d="M71.1332 134.375C70.9979 134.37 70.8641 134.346 70.7365 134.302L69.6258 134.014L65.569 132.874C62.147 131.894 57.4291 130.512 52.2246 128.96L44.1905 126.541H44.127L44.0847 126.48C43.1653 125.32 41.8935 124.474 40.4511 124.061C39.3269 123.726 38.1465 123.609 36.9761 123.716C36.2143 123.781 35.4622 123.928 34.7336 124.154C34.2046 124.314 33.9666 124.427 33.9561 124.407C34.1761 124.241 34.4252 124.115 34.6912 124.035C36.5587 123.32 38.6144 123.219 40.5463 123.747C42.0811 124.146 43.4415 125.02 44.4232 126.237L44.3121 126.155L52.3568 128.532C57.5613 130.079 62.2633 131.513 65.6589 132.57L69.6786 133.838L70.7365 134.21C70.8772 134.243 71.0113 134.298 71.1332 134.375Z" fill="#263238"/>
<path d="M62.8822 85.6639C63.1413 84.8182 64.6064 77.0109 65.1988 75.1957C66.0398 72.6173 72.8627 68.0587 72.8627 68.0587C72.8627 68.0587 71.8049 65.6557 68.8853 66.9036C65.4474 68.3836 63.7443 70.8743 62.8822 70.369C62.02 69.8636 56.6093 64.4954 55.1389 64.6656C53.6685 64.8358 53.3406 66.3106 53.859 66.8984C54.2659 67.3869 54.6354 67.904 54.9644 68.4455C54.9644 68.4455 51.8438 67.5276 52.4521 70.8588C52.4521 70.8588 48.8978 68.6982 49.2469 73.2567C49.2469 73.2567 46.9038 72.3285 46.3855 73.9323C45.8671 75.536 47.4062 77.3976 48.189 78.6662C48.9718 79.9347 51.5 87.2831 51.5 87.2831V93.7652L63.9241 91.2744L62.8822 85.6639Z" fill="#FFBF9D"/>
<path d="M62.8821 85.6639C62.9236 85.7851 62.9555 85.9092 62.9773 86.0352C63.0355 86.3033 63.1148 86.6643 63.21 87.1232C63.411 88.103 63.6913 89.5005 64.051 91.2796V91.3776H63.9505L51.5423 93.9559L51.336 93.9972V93.7909C51.336 91.7953 51.3043 89.6088 51.2831 87.3089V87.3708C50.3998 84.8749 49.4742 82.214 48.3212 79.4861C47.7553 78.1814 46.5758 77.0418 46.1474 75.4587C46.0333 75.0559 46.0063 74.6345 46.0681 74.2211C46.0926 73.9981 46.1651 73.7828 46.2809 73.5891C46.3966 73.3954 46.553 73.2276 46.7398 73.0969C47.1302 72.8663 47.5866 72.765 48.0409 72.8081C48.4723 72.8399 48.8965 72.9337 49.2997 73.0866L48.9929 73.298C48.9614 72.8442 48.972 72.3885 49.0247 71.9366C49.0694 71.4362 49.2769 70.9628 49.617 70.5855C49.8158 70.4057 50.0562 70.2753 50.3176 70.2053C50.5791 70.1353 50.854 70.1277 51.1191 70.1833C51.6203 70.2681 52.101 70.4429 52.5366 70.699L52.1981 70.9207C52.028 70.2396 52.1104 69.5217 52.4308 68.8941C52.567 68.695 52.7458 68.5269 52.9549 68.4014C53.1639 68.2759 53.3983 68.1959 53.642 68.167C54.0951 68.1069 54.5561 68.1385 54.9961 68.2598L54.7422 68.5796C54.437 68.069 54.0959 67.5797 53.7214 67.115C53.48 66.8488 53.3564 66.5003 53.3776 66.1456C53.395 65.8058 53.5125 65.4782 53.7161 65.2019C53.9167 64.9251 54.1963 64.7117 54.52 64.5882C54.6768 64.5289 54.8401 64.4874 55.0066 64.4645C55.1844 64.4495 55.3634 64.4652 55.5355 64.5109C56.121 64.722 56.6689 65.0213 57.1593 65.3978C59.0951 66.7747 60.7559 68.3578 62.4484 69.7914C62.6263 69.9567 62.8254 70.0988 63.0408 70.2142C63.2617 70.2212 63.4783 70.1538 63.6543 70.0235C64.0986 69.7553 64.5164 69.4098 64.9449 69.0901C65.7756 68.4298 66.66 67.8366 67.5894 67.3162C68.4991 66.8469 69.4618 66.3209 70.5513 66.3673C71.0741 66.3916 71.5799 66.5555 72.0137 66.841C72.4474 67.1266 72.7923 67.5228 73.0107 67.9865L73.0742 68.1154L72.942 68.2083C70.2974 70.0492 67.8962 71.8644 66.2037 73.8137C65.7973 74.2692 65.48 74.7936 65.2675 75.3607C65.093 75.9279 64.9607 76.4952 64.8285 77.0366C64.5852 78.1196 64.3613 79.1131 64.1568 80.0172C63.7707 81.7963 63.4586 83.199 63.2471 84.1891C63.136 84.6686 63.0461 85.0348 62.9773 85.2823C62.9467 85.4067 62.9078 85.529 62.861 85.6484C62.8681 85.5194 62.8894 85.3914 62.9244 85.2668L63.136 84.1684C63.3317 83.1732 63.6067 81.7654 63.9505 79.976C64.1409 79.0736 64.3525 78.068 64.5799 76.9799C64.7069 76.4333 64.8338 75.8712 65.003 75.2833C65.2162 74.6741 65.5445 74.1091 65.9709 73.6177C67.6899 71.6014 70.0647 69.7759 72.7357 67.8989L72.6722 68.1154C72.4816 67.7186 72.1842 67.3795 71.8117 67.1343C71.4392 66.8892 71.0054 66.747 70.5566 66.7231C69.6204 66.6819 68.7001 67.1666 67.8063 67.6359C66.8984 68.1534 66.0336 68.7397 65.2199 69.3892C64.7968 69.7089 64.3789 70.0544 63.8923 70.3586C63.6234 70.5526 63.2879 70.6376 62.9562 70.5959C62.6731 70.469 62.4153 70.2945 62.1945 70.0802C60.4967 68.6414 58.8412 67.0686 56.9424 65.7227C56.4897 65.3816 55.9892 65.1055 55.4562 64.9028C55.3404 64.8747 55.2209 64.8642 55.1018 64.8718C54.9701 64.8917 54.8407 64.9246 54.7157 64.9698C54.4691 65.0604 54.2569 65.2223 54.1075 65.4339C53.9461 65.6299 53.8581 65.8736 53.8581 66.1249C53.8581 66.3762 53.9461 66.62 54.1075 66.8159C54.4948 67.2993 54.8482 67.8075 55.1653 68.3372L55.4456 68.7961L54.9167 68.6569C54.1921 68.4661 53.2401 68.4867 52.8593 69.1055C52.6023 69.642 52.5425 70.2484 52.69 70.8227L52.7535 71.2817L52.3515 71.0496C51.9675 70.825 51.5444 70.6712 51.1033 70.5959C50.9065 70.5483 50.7007 70.5489 50.5042 70.5975C50.3077 70.646 50.1265 70.7411 49.9767 70.8743C49.4478 71.457 49.4478 72.4213 49.4795 73.2464V73.5765L49.1622 73.463C48.464 73.2155 47.5754 73.0659 47.0465 73.4269C46.9084 73.5265 46.7932 73.6532 46.7085 73.7988C46.6238 73.9445 46.5714 74.1059 46.5546 74.2726C46.5033 74.6279 46.5285 74.9897 46.6287 75.3349C46.8463 76.0464 47.1745 76.7212 47.6019 77.3357C48.0439 77.9587 48.4331 78.6158 48.7655 79.3005C49.9291 82.049 50.8282 84.7202 51.7062 87.2264V87.2573V87.2883C51.7062 89.5882 51.7062 91.7695 51.7062 93.7652L51.5 93.6053L63.9346 91.1816L63.8553 91.2951C63.5327 89.5005 63.2841 88.0927 63.1095 87.1026C63.0302 86.6437 62.972 86.2827 62.9297 86.0094C62.9023 85.896 62.8864 85.7803 62.8821 85.6639Z" fill="#FF9A6C"/>
<path d="M54.975 68.5542C55.45 69.0393 55.9533 69.4973 56.4824 69.9259C56.9704 70.3981 57.486 70.8423 58.0268 71.2563C57.6165 70.7143 57.1405 70.2226 56.6093 69.7918C56.1198 69.3142 55.5707 68.8984 54.975 68.5542Z" fill="#FF9A6C"/>
<path d="M52.1981 70.6992C52.5625 71.6802 53.2342 72.5245 54.1181 73.1126C54.1551 73.0713 53.6368 72.5969 53.1131 71.942C52.5895 71.2871 52.2457 70.6786 52.1981 70.6992Z" fill="#FF9A6C"/>
<path d="M49.3209 73.1175C49.6954 73.8341 50.1766 74.4927 50.7489 75.0719C50.3676 74.3482 49.8774 73.6842 49.2944 73.1021L49.3209 73.1175Z" fill="#FF9A6C"/>
<path d="M97.3829 83.3228L84.0227 96.3229L70.3186 113.134L64.8655 90.7588L50.9393 93.5486C50.9393 93.5486 51.9231 118.817 56.2284 130.275C57.043 132.456 59.4548 134.081 60.5338 134.576C67.2668 137.696 73.8411 132.869 73.8411 132.869C73.8411 132.869 101.932 114.49 104.978 102.181C106.417 96.3694 105.84 89.4644 103.391 86.6179C101.212 84.1169 97.3829 83.3228 97.3829 83.3228Z" fill="#454238"/>
<path d="M104.957 102.181C104.957 102.181 104.925 102.321 104.851 102.578C104.75 102.971 104.625 103.356 104.476 103.734C103.903 105.186 103.163 106.57 102.27 107.859C100.871 109.897 99.308 111.824 97.5945 113.619C95.3354 116.004 92.9503 118.273 90.4489 120.416C87.688 122.819 84.5463 125.32 81.0925 127.893C79.363 129.177 77.5541 130.471 75.6606 131.786L74.2272 132.761C73.7512 133.081 73.2487 133.421 72.7304 133.705C71.6738 134.294 70.5548 134.769 69.393 135.123C66.9784 135.912 64.3738 135.96 61.9301 135.262C61.6204 135.17 61.3166 135.059 61.0203 134.932C60.7126 134.824 60.4138 134.693 60.1265 134.54C59.5527 134.226 59.0092 133.862 58.5027 133.452C57.444 132.635 56.6143 131.571 56.0909 130.358C55.2146 127.855 54.5079 125.299 53.9753 122.705C53.4463 120.07 52.9915 117.389 52.6318 114.656C51.6533 107.374 51.0927 100.284 50.7806 93.5644V93.4561H50.8917L64.8179 90.6767L64.9396 90.6509L64.966 90.7643C67.0235 99.2678 68.8588 106.828 70.3873 113.145L70.2287 113.103L81.3358 101.48C82.6369 100.124 83.6418 99.0719 84.3347 98.3551L85.1122 97.5455L85.3872 97.2825L85.1334 97.5661L84.3717 98.386L81.4098 101.547L70.3873 113.232L70.2657 113.356L70.2234 113.191C68.679 106.874 66.8278 99.3194 64.7439 90.821L64.892 90.9139L50.9658 93.714L51.0715 93.5799C51.3889 100.284 51.9548 107.379 52.9333 114.645C53.2877 117.373 53.7637 120.05 54.2714 122.674C54.7902 125.241 55.4828 127.772 56.3448 130.25C56.8545 131.415 57.6544 132.437 58.672 133.225C59.1669 133.625 59.698 133.981 60.2587 134.287C60.5372 134.436 60.8273 134.564 61.1261 134.669C61.4162 134.792 61.7128 134.901 62.0147 134.994C64.4075 135.68 66.9584 135.635 69.3242 134.865C70.4675 134.514 71.5701 134.047 72.614 133.473C73.143 133.184 73.6031 132.864 74.095 132.539L75.5283 131.565C77.4218 130.27 79.2307 128.986 80.9603 127.692C84.4193 125.113 87.5611 122.638 90.3273 120.251C93.0935 117.863 95.4894 115.61 97.4887 113.495C99.2038 111.71 100.774 109.798 102.185 107.776C103.083 106.503 103.835 105.136 104.428 103.703C104.65 103.218 104.729 102.816 104.83 102.563C104.93 102.31 104.957 102.181 104.957 102.181Z" fill="#263238"/>
<path d="M72.8521 123.407C72.8045 123.407 72.9632 122.752 73.0478 121.689C73.0935 121.07 73.0935 120.447 73.0478 119.828C72.9846 119.069 72.8554 118.317 72.6617 117.579C72.2963 116.242 71.7371 114.962 71.001 113.779C70.4297 112.866 70.0119 112.345 70.0489 112.314C70.0859 112.283 70.1811 112.423 70.3821 112.655C70.6655 112.982 70.9269 113.326 71.1649 113.686C72.4189 115.511 73.1493 117.63 73.2806 119.823C73.3113 120.456 73.2883 121.091 73.2118 121.72C73.1662 122.143 73.0866 122.562 72.9738 122.973C72.9514 123.122 72.9105 123.267 72.8521 123.407Z" fill="#263238"/>
<path d="M70.9481 62.5462C70.9481 62.6184 70.636 62.5875 70.197 62.4998C69.6427 62.3758 69.081 62.2862 68.5151 62.2316C67.9649 62.1785 67.4096 62.2116 66.8702 62.3296C66.4576 62.4224 66.2831 62.5875 66.2143 62.5617C66.1456 62.5359 66.1826 62.4534 66.2672 62.3348C66.3882 62.1797 66.5461 62.0558 66.7274 61.9738C67.3012 61.7243 67.9333 61.6299 68.5574 61.7005C69.1656 61.7487 69.7611 61.8969 70.3187 62.1388C70.7365 62.3193 70.9745 62.474 70.9481 62.5462Z" fill="#263238"/>
<g opacity="0.3">
<path d="M92.1625 145.39C92.1625 145.39 86.0431 144.658 82.7532 144.163C80.9602 143.894 78.2205 143.611 77.7021 143.131C77.0569 142.523 77.0622 141.512 76.9934 140.64C75.8298 125.763 81.0713 109.669 97.2877 100.072L101.424 101.135L101.154 110.814L92.1625 145.39Z" fill="black"/>
</g>
<path d="M187.758 29.4552C188.836 29.6078 189.933 29.349 190.82 28.7328C191.708 28.1165 192.317 27.1902 192.522 26.1469C192.726 25.1035 192.51 24.0234 191.918 23.1316C191.326 22.2397 190.405 21.6048 189.345 21.3591C189.978 20.6958 190.381 19.8546 190.497 18.9551C190.612 18.0556 190.433 17.1435 189.986 16.3486C189.54 15.5537 188.847 14.9164 188.007 14.5272C187.168 14.1381 186.223 14.0169 185.309 14.1809C185.25 13.2898 184.955 12.4289 184.452 11.6825C183.95 10.9361 183.257 10.3297 182.442 9.92269C181.626 9.51569 180.717 9.32203 179.802 9.36068C178.887 9.39932 177.998 9.66894 177.222 10.1431C176.172 9.35093 174.881 8.92365 173.554 8.92925C172.226 8.93486 170.939 9.37303 169.897 10.1741C169 10.0316 168.081 10.1739 167.274 10.5802C166.467 10.9864 165.816 11.6349 165.416 12.4299C165.016 13.2249 164.89 14.1241 165.054 14.9948C165.219 15.8654 165.667 16.6612 166.332 17.2646" fill="#263238"/>
<path d="M169.093 14.2841H170.029C174.56 14.1813 178.965 15.7456 182.367 18.6658C185.769 21.5859 187.918 25.6478 188.387 30.0431C189.292 38.5208 190.18 47.9009 190.233 52.4595C190.339 61.8964 180.713 63.5826 180.713 63.5826L181.802 74.9017L158.276 74.7058L155.214 33.6374C154.119 23.8602 159.038 15.0885 169.093 14.2841Z" fill="#FFBF9D"/>
<path d="M180.707 63.5616C176.026 63.6839 171.403 62.5245 167.363 60.2148C167.363 60.2148 171.298 67.094 180.935 66.0265L180.707 63.5616Z" fill="#FF9A6C"/>
<path d="M185.431 40.2637C185.442 40.6147 185.313 40.9562 185.07 41.2154C184.827 41.4746 184.489 41.6309 184.13 41.6509C183.954 41.6686 183.777 41.6519 183.609 41.6017C183.441 41.5516 183.284 41.469 183.149 41.3589C183.014 41.2488 182.903 41.1134 182.822 40.9607C182.742 40.808 182.694 40.6412 182.68 40.47C182.669 40.1193 182.797 39.7779 183.039 39.518C183.281 39.2581 183.617 39.1002 183.976 39.0776C184.152 39.0599 184.33 39.0768 184.499 39.1272C184.668 39.1776 184.825 39.2605 184.96 39.3711C185.096 39.4817 185.207 39.6176 185.288 39.7709C185.369 39.9243 185.417 40.0918 185.431 40.2637Z" fill="#263238"/>
<path d="M186.42 34.6841C186.25 34.8646 185.187 34.1324 183.701 34.1685C182.215 34.2046 181.141 34.9523 180.972 34.7821C180.893 34.7048 181.062 34.385 181.501 34.0344C182.133 33.5854 182.893 33.3385 183.675 33.3279C184.449 33.308 185.21 33.5282 185.848 33.957C186.34 34.2922 186.499 34.6068 186.42 34.6841Z" fill="#263238"/>
<path d="M172.626 40.2637C172.637 40.6147 172.508 40.9562 172.265 41.2154C172.022 41.4746 171.684 41.6309 171.325 41.6509C171.149 41.6679 170.972 41.6507 170.804 41.6003C170.635 41.55 170.479 41.4674 170.344 41.3575C170.208 41.2476 170.097 41.1125 170.015 40.9601C169.934 40.8078 169.885 40.6411 169.87 40.47C169.858 40.1184 169.988 39.7763 170.231 39.5163C170.474 39.2563 170.811 39.0989 171.171 39.0776C171.347 39.0599 171.525 39.0768 171.694 39.1272C171.863 39.1776 172.02 39.2605 172.155 39.3711C172.291 39.4817 172.403 39.6176 172.483 39.7709C172.564 39.9243 172.613 40.0918 172.626 40.2637Z" fill="#263238"/>
<path d="M171.806 35.2877C171.637 35.4682 170.574 34.7359 169.087 34.772C167.601 34.8081 166.527 35.5558 166.363 35.3857C166.279 35.3083 166.448 34.9834 166.892 34.6379C167.527 34.1891 168.288 33.9424 169.071 33.9315C169.844 33.9075 170.604 34.1262 171.24 34.5554C171.727 34.8958 171.891 35.2103 171.806 35.2877Z" fill="#263238"/>
<path d="M177.46 45.9207C177.46 45.8382 178.375 45.6629 179.867 45.4411C180.247 45.3947 180.602 45.3122 180.66 45.0596C180.684 44.6757 180.586 44.2939 180.38 43.9663C180.002 43.0794 179.606 42.1477 179.19 41.1714C177.534 37.1903 176.328 33.9158 176.492 33.8539C176.656 33.792 178.132 36.948 179.787 40.9445C180.189 41.9242 180.57 42.8576 180.93 43.7549C181.179 44.1964 181.261 44.7093 181.162 45.2039C181.11 45.3351 181.028 45.4532 180.923 45.5496C180.818 45.646 180.692 45.7182 180.554 45.7609C180.344 45.8198 180.127 45.8527 179.909 45.8589C178.401 45.9723 177.471 46.0032 177.46 45.9207Z" fill="#263238"/>
<path d="M172.123 32.2964C171.933 32.6677 170.648 32.2964 169.077 32.2964C167.506 32.2964 166.194 32.5697 166.041 32.1881C165.977 32.0076 166.247 31.6724 166.802 31.3682C167.524 30.9996 168.332 30.8218 169.145 30.8525C169.952 30.8586 170.743 31.074 171.436 31.4765C171.965 31.755 172.203 32.1159 172.123 32.2964Z" fill="#263238"/>
<path d="M186.346 28.7075C186.044 29.0426 184.807 28.7075 183.331 28.7436C181.855 28.7797 180.607 29.0272 180.316 28.692C180.184 28.527 180.374 28.1763 180.908 27.8669C181.655 27.462 182.498 27.2574 183.352 27.2739C184.201 27.2574 185.039 27.4678 185.774 27.8824C186.309 28.2072 186.483 28.5424 186.346 28.7075Z" fill="#263238"/>
<path d="M187.366 25.7166C187.366 25.7166 184.669 19.8637 181.718 18.5539C178.137 16.9656 176.704 20.7867 173.313 19.941C169.923 19.0953 166.501 17.5741 163.116 20.1937C159.414 23.0609 161.228 24.974 161.096 29.1665C160.567 46.1838 157.488 51.0311 156.394 43.0588C156.277 42.1821 153.749 41.5427 153.305 37.8504C152.712 33.065 152.384 27.243 153.4 23.8138C154.257 20.9208 155.891 18.8994 158.848 16.6459C163.518 13.0825 170.039 12.8608 174.482 13.196C178.925 13.5312 187.583 18.3115 187.366 25.7166Z" fill="#263238"/>
<path d="M156.996 42.7856C156.974 42.4401 156.88 42.1025 156.721 41.7931C156.562 41.4836 156.341 41.2085 156.07 40.9843C155.8 40.76 155.486 40.5912 155.147 40.4878C154.808 40.3844 154.451 40.3486 154.098 40.3825C152.3 40.594 150.316 41.6356 150.523 45.2711C150.887 51.7171 157.446 50.0308 157.451 49.8452C157.457 49.6595 157.171 45.4826 156.996 42.7856Z" fill="#FFBF9D"/>
<path d="M155.875 47.4937C155.843 47.4937 155.764 47.5814 155.574 47.6794C155.305 47.8072 154.996 47.8293 154.712 47.7412C153.998 47.5298 153.352 46.4778 153.252 45.3176C153.206 44.766 153.286 44.2115 153.485 43.6932C153.536 43.4895 153.637 43.3009 153.779 43.143C153.92 42.9851 154.099 42.8625 154.299 42.7856C154.43 42.7432 154.572 42.7474 154.7 42.7974C154.827 42.8475 154.933 42.9401 154.997 43.0589C155.098 43.2342 155.061 43.3631 155.098 43.3735C155.135 43.3838 155.235 43.2549 155.166 42.9919C155.119 42.8351 155.018 42.6988 154.881 42.6051C154.787 42.5429 154.682 42.4995 154.571 42.4774C154.461 42.4552 154.347 42.4548 154.236 42.4762C153.967 42.5426 153.72 42.6752 153.519 42.8612C153.318 43.0472 153.17 43.2804 153.088 43.5385C152.84 44.1132 152.739 44.7376 152.792 45.3588C152.908 46.6532 153.659 47.8341 154.632 48.0506C154.815 48.0931 155.005 48.0947 155.188 48.0554C155.371 48.0161 155.543 47.9369 155.69 47.8237C155.87 47.6536 155.896 47.504 155.875 47.4937Z" fill="#FF9A6C"/>
<path d="M156.827 30.2852C157.7 30.837 158.62 31.4094 159.657 31.4816C160.693 31.5538 161.868 30.9659 162.016 29.9346C162.084 29.4808 161.958 28.9651 162.254 28.6093C162.55 28.2535 163.275 28.305 163.84 28.3463C165.771 28.501 167.966 26.3816 168.416 24.5458C168.675 24.8891 169.06 25.1229 169.49 25.1996C169.92 25.2762 170.365 25.1899 170.732 24.9583C171.341 24.5782 171.878 24.0984 172.319 23.5402C172.885 22.8801 173.689 22.2819 174.567 22.3799C175.053 22.4367 175.519 22.71 176.011 22.6584C176.878 22.5604 177.28 21.56 177.391 20.7195C177.502 19.8789 177.582 18.8888 178.306 18.4144C179.031 17.94 179.866 18.203 180.67 18.3009C181.474 18.3989 182.5 18.1875 182.686 17.4243C182.715 17.2189 182.701 17.0098 182.646 16.8096C182.59 16.6094 182.494 16.4221 182.363 16.2589C181.806 15.4915 180.999 14.9295 180.074 14.6638C179.149 14.3981 178.159 14.4441 177.264 14.7943C176.909 13.7318 176.239 12.7952 175.34 12.1023C174.441 11.4093 173.351 10.9908 172.209 10.8994C171.066 10.8079 169.922 11.0476 168.918 11.5882C167.915 12.1289 167.098 12.9465 166.57 13.9383C165.85 13.3249 164.988 12.8914 164.058 12.6753C163.128 12.4592 162.158 12.467 161.232 12.6979C160.306 12.9289 159.451 13.3761 158.742 14.001C158.032 14.6258 157.49 15.4096 157.16 16.2846C156.342 16.0923 155.484 16.1397 154.693 16.421C153.903 16.7022 153.215 17.2048 152.716 17.8657C152.217 18.5266 151.93 19.3163 151.89 20.1359C151.849 20.9555 152.058 21.7684 152.49 22.4727C151.316 23.1638 150.322 24.3343 150.332 25.6699C150.343 27.0055 151.702 28.3102 153.019 27.9286C152.749 28.462 152.702 29.0764 152.886 29.6433C153.07 30.2102 153.471 30.6859 154.007 30.9708C154.542 31.2557 155.17 31.3279 155.758 31.1723C156.347 31.0167 156.851 30.6453 157.166 30.1357" fill="#263238"/>
<path d="M177.767 16.6924C177.773 16.7316 177.773 16.7717 177.767 16.811C177.764 16.9267 177.753 17.0421 177.735 17.1565C177.655 17.5967 177.504 18.0216 177.285 18.4147C176.931 19.0275 176.442 19.556 175.852 19.9618C175.07 20.5124 174.124 20.7986 173.16 20.7765L173.271 20.6321C173.482 21.2154 173.45 21.8561 173.181 22.4164C172.898 23.0002 172.529 23.5405 172.086 24.0201C171.875 24.2987 171.632 24.553 171.362 24.7782C171.049 24.9961 170.685 25.1344 170.304 25.1804C169.915 25.2458 169.515 25.2165 169.141 25.0951C168.766 24.9736 168.428 24.7638 168.156 24.4842L168.4 24.412C168.324 25.0842 168.104 25.7334 167.755 26.3178C167.407 26.9022 166.936 27.4089 166.374 27.8052C165.758 28.2741 165.003 28.5348 164.221 28.5478C163.485 28.5315 162.758 28.3938 162.069 28.1404L162.243 28.063C161.917 28.8509 161.396 29.5473 160.725 30.0896C160.418 30.3582 160.052 30.5568 159.656 30.6709C159.26 30.7851 158.843 30.812 158.435 30.7497C157.736 30.6206 157.092 30.295 156.58 29.8131C156.069 29.3311 155.714 28.7138 155.558 28.0372L155.711 28.0991C155.024 28.4771 154.224 28.6102 153.447 28.4756C152.874 28.3835 152.33 28.1609 151.861 27.8258C151.565 27.6118 151.31 27.3502 151.104 27.0523C151.032 26.9493 150.971 26.8386 150.925 26.7223C151.192 27.1218 151.53 27.4711 151.924 27.7536C152.39 28.0659 152.924 28.2673 153.484 28.3415C154.215 28.4493 154.961 28.311 155.6 27.9496L155.727 27.8774V28.0166C155.882 28.6473 156.222 29.2206 156.704 29.6672C157.187 30.1138 157.792 30.4145 158.446 30.5331C158.818 30.5851 159.198 30.5555 159.558 30.4467C159.917 30.3379 160.247 30.1525 160.524 29.904C161.155 29.388 161.644 28.727 161.947 27.9805L162 27.8619L162.127 27.9032C162.785 28.1454 163.481 28.2762 164.184 28.2899C164.92 28.283 165.633 28.0381 166.21 27.5938C166.74 27.2204 167.184 26.7431 167.514 26.1925C167.844 25.6419 168.052 25.0302 168.125 24.3966L168.162 24.0872L168.373 24.3192C168.613 24.5655 168.911 24.7503 169.241 24.8574C169.571 24.9644 169.924 24.9903 170.267 24.9329C170.598 24.8932 170.914 24.7745 171.187 24.5874C171.441 24.3755 171.67 24.1369 171.869 23.8757C172.295 23.4115 172.652 22.8906 172.927 22.3287C173.179 21.8233 173.217 21.2419 173.033 20.7095L172.975 20.5599H173.139C174.061 20.5982 174.972 20.341 175.73 19.8277C176.319 19.4461 176.813 18.9403 177.174 18.3477C177.472 17.8349 177.672 17.2742 177.767 16.6924Z" fill="#454238"/>
<path d="M130.175 73.8701C130.175 73.8701 105.317 82.4097 98.1128 85.9369C92.4905 88.6906 88.9309 98.6896 97.5839 102.856C104.031 105.95 138.945 100.025 138.945 100.025L130.175 73.8701Z" fill="#FFBF9D"/>
<path d="M206.1 158.766L142.938 156.435L140.648 177.408L138.088 219.461L170.351 219.595C170.351 219.415 174.376 195.946 174.376 195.946L176.196 195.482L176.027 219.595H206.259C207.846 199.638 208.756 182.879 208.814 181.301C209.056 173.7 208.142 166.106 206.1 158.766Z" fill="#263238"/>
<path d="M178.121 165.655C178.121 165.655 177.968 165.547 177.65 165.542C177.199 165.551 176.763 165.707 176.413 165.985C176.142 166.191 175.923 166.454 175.772 166.754C175.621 167.054 175.541 167.384 175.54 167.718C175.587 168.132 175.755 168.524 176.024 168.848C176.294 169.171 176.653 169.412 177.059 169.542C177.465 169.672 177.9 169.685 178.314 169.58C178.727 169.475 179.101 169.257 179.391 168.951C179.593 168.68 179.73 168.368 179.79 168.038C179.851 167.709 179.833 167.37 179.74 167.048C179.626 166.621 179.369 166.243 179.01 165.975C178.751 165.795 178.571 165.779 178.565 165.8C178.985 166.142 179.281 166.607 179.412 167.125C179.468 167.393 179.465 167.67 179.403 167.936C179.341 168.203 179.221 168.454 179.052 168.672C178.814 168.901 178.516 169.061 178.19 169.135C177.865 169.209 177.525 169.195 177.208 169.093C176.89 168.991 176.608 168.806 176.391 168.558C176.174 168.31 176.032 168.009 175.979 167.687C175.974 167.413 176.029 167.14 176.141 166.888C176.254 166.637 176.42 166.411 176.63 166.228C177.052 165.887 177.574 165.687 178.121 165.655Z" fill="#454238"/>
<path d="M142.938 176.144C143.187 176.213 143.446 176.243 143.705 176.232C144.411 176.259 145.118 176.236 145.821 176.165C150.488 175.708 154.851 173.697 158.176 170.472C158.678 169.99 159.143 169.473 159.567 168.925C159.863 168.533 160.016 168.311 159.99 168.29C159.964 168.27 159.234 169.074 157.943 170.235C154.554 173.266 150.301 175.222 145.747 175.845C143.996 176.077 142.938 176.062 142.938 176.144Z" fill="#454238"/>
<path d="M207.375 155.347C206.132 152.593 206.365 152.341 206.365 152.341L202.853 122.364L199.478 93.208L196.739 71.6218L180.935 68.3215C180.935 68.3215 179.115 73.241 171.473 73.3906C162.666 73.5607 157.626 65.8823 157.626 65.8823L132.36 71.1783L141.88 134.74L143.017 151.861C143.017 151.861 141.134 154.63 141.134 157.6C141.134 160.571 141.007 162.556 141.007 162.556C164.47 168.837 187.753 174.283 209.173 168.198C209.147 168.198 208.613 158.095 207.375 155.347Z" fill="#454238"/>
<path d="M190.974 70.498C190.974 70.498 200.087 71.4881 203.318 74.8349C206.55 78.1816 216.885 94.7348 216.885 94.7348L201.874 114.779L194.919 105.497L190.974 70.498Z" fill="#454238"/>
<path d="M197.945 80.8579C198.072 80.8579 199.505 91.847 201.15 105.43C202.795 119.013 204.027 130.038 203.9 130.048C203.773 130.059 202.34 119.059 200.695 105.476C199.05 91.8934 197.791 80.8682 197.945 80.8579Z" fill="#263238"/>
<path d="M132.344 71.1733L112.108 79.9295L119.433 99.9068L138.939 102.918L132.344 71.1733Z" fill="#454238"/>
<path d="M135.131 84.416C135.269 84.416 136.231 92.1976 137.289 101.82C138.347 111.443 139.093 119.265 138.955 119.276C138.818 119.286 137.855 111.499 136.803 101.872C135.75 92.244 135.004 84.4315 135.131 84.416Z" fill="#263238"/>
<g opacity="0.3">
<path d="M140.124 185.695C151.11 181.843 157.197 174.252 162.116 166.202C167.035 158.153 167.728 146.818 164.586 137.964C164.586 137.964 141.875 159.38 141.716 159.854C141.557 160.329 140.124 185.695 140.124 185.695Z" fill="black"/>
</g>
<g opacity="0.3">
<path d="M171.034 73.1125C170.759 75.2835 172.007 77.3823 173.535 78.986C175.064 80.5898 176.915 81.9047 178.296 83.6271C179.882 85.5867 180.797 87.9794 181.681 90.3309C183.532 95.2367 185.381 100.137 187.229 105.033C188.816 109.256 190.434 113.516 192.962 117.28C195.491 121.045 199.045 124.319 203.435 125.696L200.097 98.0866L182.511 70.5083L171.034 73.1125Z" fill="black"/>
</g>
<path d="M189.255 73.3497C189.255 73.0042 189.54 60.2155 188.657 58.8283C187.774 57.4411 187.07 56.1365 186.901 54.8318C186.967 54.7275 187.009 54.6106 187.024 54.4891C187.04 54.3676 187.028 54.2443 186.991 54.1275C186.953 54.0107 186.89 53.9031 186.806 53.812C186.722 53.7209 186.619 53.6483 186.504 53.5993C185.632 53.1198 184.246 54.28 184.214 56.3376C184.182 58.3951 184.426 61.8966 184.426 61.8966C184.426 61.8966 174.747 56.5438 172.097 56.3943C169.447 56.2448 165.464 55.7703 165.253 57.0183C165.041 58.2662 165.221 58.5653 166.612 59.0397C168.003 59.5141 170.198 59.8442 172.367 60.5867C173.449 60.9211 174.509 61.3207 175.54 61.7831C175.54 61.7831 170.595 60.365 169.51 61.7831C168.426 63.2012 168.574 64.4801 169.267 65.1659C168.842 65.3486 168.486 65.6558 168.248 66.0449C168.01 66.4339 167.902 66.8855 167.94 67.3369C168.093 68.9149 168.818 69.3017 168.818 69.3017C168.818 69.3017 167.368 70.3743 168.061 71.7408C168.754 73.1073 170.383 72.2565 171.922 73.8035C173.461 75.3505 177.285 78.9603 178.761 79.7853C180.237 80.6104 183.616 80.9147 183.616 80.9147L189.255 73.3497Z" fill="#FFBF9D"/>
<path d="M189.255 73.3495C189.255 73.3495 189.228 73.3959 189.17 73.4836L188.895 73.86C188.646 74.2056 188.281 74.7006 187.811 75.34L183.664 80.9197L183.638 80.9506H183.601C182.929 80.8836 182.236 80.7856 181.511 80.6567C180.753 80.5281 180.008 80.3349 179.285 80.0791C178.906 79.938 178.55 79.7453 178.227 79.5067C177.883 79.2747 177.56 78.991 177.227 78.7538C176.566 78.2381 175.91 77.6503 175.244 77.0469C174.577 76.4436 173.895 75.8196 173.213 75.1647L172.155 74.1591C171.834 73.8003 171.457 73.4924 171.039 73.2464C170.596 73.0191 170.12 72.8607 169.627 72.7771C169.081 72.7219 168.571 72.4852 168.183 72.1068C168.002 71.8946 167.874 71.6447 167.808 71.3765C167.742 71.1083 167.74 70.8288 167.802 70.5597C167.958 70.0222 168.286 69.5471 168.738 69.2035V69.3891C168.394 69.1283 168.143 68.767 168.024 68.3578C167.886 67.962 167.81 67.5483 167.797 67.1305C167.784 66.6903 167.914 66.2575 168.167 65.8929C168.434 65.5211 168.8 65.227 169.225 65.042L169.183 65.2328C168.896 64.9205 168.704 64.5366 168.628 64.1241C168.553 63.7115 168.596 63.2866 168.754 62.8968C168.892 62.5039 169.09 62.1336 169.341 61.7984C169.461 61.6103 169.629 61.4557 169.828 61.3498C170.024 61.2471 170.234 61.1707 170.452 61.1229C171.303 60.9811 172.172 60.9811 173.022 61.1229C173.883 61.2393 174.735 61.4115 175.572 61.6385L175.482 61.8603C174.168 61.2859 172.816 60.7966 171.436 60.3958C170.034 59.9884 168.564 59.7202 167.099 59.318C166.56 59.1794 166.043 58.9731 165.56 58.7043C165.431 58.6249 165.321 58.5193 165.238 58.3947C165.155 58.2701 165.1 58.1294 165.078 57.9824C165.049 57.709 165.059 57.4329 165.11 57.1625C165.118 57.0162 165.16 56.8735 165.232 56.7448C165.317 56.6196 165.428 56.514 165.56 56.4354C165.806 56.3028 166.075 56.2138 166.353 56.1724C166.877 56.0857 167.408 56.046 167.94 56.0538C168.997 56.0538 170.055 56.1311 171.076 56.2033C171.595 56.2238 172.112 56.272 172.626 56.3477C172.885 56.4044 173.128 56.4818 173.377 56.5437L174.101 56.7912C175.946 57.5026 177.752 58.3064 179.512 59.1994C181.233 60.0623 182.885 60.9217 184.468 61.7778L184.294 61.8809C184.177 59.8543 184.056 57.9154 184.108 56.0383C184.118 55.5679 184.233 55.1054 184.447 54.6837C184.661 54.262 184.968 53.8917 185.346 53.5992C185.548 53.4648 185.784 53.3864 186.028 53.3723C186.276 53.3677 186.517 53.448 186.711 53.5992C186.913 53.7367 187.051 53.9459 187.097 54.1819C187.133 54.4152 187.087 54.6536 186.965 54.8574V54.7955C187.241 56.1487 187.793 57.434 188.588 58.5754C188.688 58.7141 188.765 58.8673 188.816 59.0292C188.869 59.1858 188.909 59.3462 188.937 59.5088C188.996 59.8234 189.038 60.1379 189.07 60.4473C189.138 61.0661 189.175 61.6695 189.207 62.2522C189.323 64.5727 189.323 66.5787 189.323 68.2237C189.323 69.8687 189.292 71.1373 189.271 72.0036C189.271 72.4316 189.271 72.7565 189.244 72.9886C189.218 73.2206 189.244 73.3237 189.244 73.3237C189.244 73.3237 189.244 73.2103 189.244 72.9886V72.0294C189.244 71.1528 189.244 69.879 189.244 68.2495C189.244 66.62 189.218 64.6037 189.085 62.2831C189.054 61.7056 189.011 61.1074 188.943 60.4937C188.906 60.1843 188.863 59.8749 188.805 59.5655C188.761 59.253 188.648 58.9537 188.472 58.6889C187.657 57.5307 187.09 56.224 186.806 54.8471V54.8161V54.7852C186.903 54.6198 186.941 54.4272 186.912 54.2386C186.87 54.0517 186.756 53.8874 186.594 53.7796C186.433 53.6567 186.233 53.5899 186.028 53.5899C185.823 53.5899 185.624 53.6567 185.462 53.7796C185.113 54.057 184.83 54.4058 184.633 54.8014C184.437 55.197 184.332 55.6298 184.325 56.0692C184.278 57.9102 184.405 59.8646 184.526 61.8809V62.082L184.341 61.984C182.758 61.1177 181.108 60.2582 179.391 59.4057C177.649 58.5199 175.86 57.7247 174.033 57.0232L173.319 56.7809C173.081 56.719 172.837 56.6416 172.594 56.5901C172.091 56.5167 171.584 56.4702 171.076 56.4508C170.045 56.3838 169.003 56.3065 167.955 56.3065C167.433 56.2983 166.911 56.3345 166.395 56.4147C165.909 56.5127 165.337 56.6829 165.337 57.2037C165.289 57.4484 165.28 57.6989 165.311 57.9463C165.328 58.0603 165.37 58.1694 165.435 58.2656C165.5 58.3619 165.586 58.443 165.686 58.5032C166.149 58.7609 166.646 58.9569 167.162 59.0859C168.606 59.483 170.087 59.7512 171.504 60.1689C172.899 60.5706 174.263 61.0651 175.588 61.6489L175.498 61.8758C174.673 61.6512 173.833 61.479 172.985 61.3601C172.162 61.2286 171.323 61.2286 170.5 61.3601C170.307 61.389 170.122 61.455 169.956 61.5541C169.79 61.6533 169.646 61.7836 169.532 61.9376C169.304 62.2538 169.125 62.6014 169.003 62.969C168.857 63.3172 168.813 63.6983 168.878 64.0692C168.942 64.4401 169.112 64.786 169.368 65.0678L169.489 65.1864L169.331 65.2586C168.957 65.4287 168.636 65.6919 168.4 66.0218C168.173 66.3486 168.057 66.7361 168.067 67.1305C168.078 67.5237 168.149 67.913 168.278 68.2856C168.384 68.6387 168.596 68.9528 168.886 69.188L169.019 69.2809L168.902 69.3737C168.492 69.6867 168.194 70.1181 168.051 70.6061C167.991 70.843 167.99 71.0903 168.047 71.3277C168.104 71.5652 168.217 71.7862 168.379 71.9727C168.734 72.3183 169.201 72.5333 169.701 72.5812C170.214 72.6695 170.71 72.8347 171.171 73.0711C171.605 73.3294 171.996 73.6511 172.33 74.0251L173.356 75.0564C174.038 75.7113 174.715 76.3405 175.376 76.9438C176.037 77.5471 176.693 78.1144 177.349 78.6507C177.947 79.1912 178.631 79.6335 179.375 79.9605C180.088 80.2139 180.822 80.4071 181.57 80.5381C182.284 80.6721 182.977 80.7701 183.638 80.8475L183.574 80.8732L187.763 75.3452L188.879 73.8858L189.17 73.5094L189.255 73.3495Z" fill="#FF9A6C"/>
<path d="M220.619 103.207C219.651 101.407 217.446 97.6584 216.414 95.3585L209.496 97.8131C209.496 97.8131 189.926 72.0293 189.276 72.0293C188.625 72.0293 180.141 79.7129 180.141 79.7129C180.517 80.079 198.156 119.502 204.916 123.772C211.675 128.042 216.71 130.754 220.339 124.654C223.967 118.554 224.871 111.138 220.619 103.207Z" fill="#FFBF9D"/>
<path d="M218.355 109.395C218.23 109.235 218.122 109.062 218.033 108.88C217.842 108.55 217.557 108.075 217.192 107.493C216.248 105.987 215.22 104.532 214.113 103.135C212.823 101.49 211.564 100.072 210.654 99.0459L209.596 97.8289C209.456 97.6866 209.33 97.5311 209.221 97.3647C209.385 97.4835 209.535 97.6182 209.671 97.767C209.946 98.0351 210.337 98.4322 210.813 98.9272C211.76 99.9277 213.04 101.335 214.341 102.986C215.456 104.389 216.47 105.866 217.377 107.405C217.715 107.998 217.98 108.488 218.144 108.833C218.236 109.012 218.307 109.201 218.355 109.395Z" fill="#FF9A6C"/>
<path d="M178.497 51.9285C178.322 52.0523 177.592 51.32 176.434 50.9281C175.276 50.5362 174.244 50.6084 174.197 50.4124C174.17 50.3196 174.419 50.1546 174.884 50.0669C175.493 49.9769 176.115 50.0373 176.694 50.2428C177.272 50.4482 177.788 50.792 178.195 51.2427C178.491 51.5882 178.576 51.8666 178.497 51.9285Z" fill="#263238"/>
<path d="M196.183 155.172C196.109 155.224 196.029 155.269 195.945 155.306C195.776 155.389 195.543 155.523 195.221 155.652C194.304 156.021 193.342 156.272 192.359 156.399C190.904 156.587 189.43 156.587 187.975 156.399C186.198 156.162 184.445 155.781 182.733 155.26C179.089 154.172 175.857 152.98 173.557 152.062C172.404 151.603 171.478 151.206 170.843 150.928L170.119 150.598C170.03 150.564 169.946 150.519 169.87 150.464C169.962 150.483 170.05 150.512 170.135 150.552C170.336 150.624 170.579 150.722 170.88 150.84L173.625 151.897C175.942 152.779 179.174 153.96 182.802 155.022C184.502 155.537 186.24 155.922 188.001 156.172C189.438 156.378 190.895 156.404 192.338 156.25C193.31 156.136 194.265 155.913 195.184 155.585C195.829 155.311 196.173 155.151 196.183 155.172Z" fill="#263238"/>
<path d="M148.328 105.971C139.495 100.17 128.985 98.097 122.099 98.0918C115.652 98.0918 106.158 99.0716 97.5681 103.79C92.3502 106.609 87.9837 110.715 84.906 115.697C81.2776 121.586 79.3101 128.872 79.0562 137.355C79.0407 137.982 79.1538 138.605 79.389 139.189C79.6241 139.772 79.9765 140.304 80.4254 140.753C80.8743 141.201 81.4107 141.558 82.003 141.802C82.5953 142.045 83.2317 142.171 83.8746 142.172H100.8C101.957 142.165 103.073 141.755 103.946 141.015C104.819 140.275 105.392 139.255 105.56 138.139C106.311 132.982 109.463 124.267 122.12 124.061C131.767 123.912 135.734 130.713 136.993 133.648C138 136.105 138.399 138.759 138.155 141.394C137.912 144.03 137.033 146.572 135.591 148.814C131.085 156.033 122.808 157.147 118.275 157.162C115.774 157.166 113.376 158.134 111.604 159.854C109.831 161.575 108.828 163.908 108.813 166.347V184.086C108.813 185.332 109.32 186.528 110.224 187.41C111.127 188.291 112.353 188.787 113.631 188.789H130.107C131.385 188.787 132.61 188.292 133.514 187.412C134.418 186.531 134.927 185.337 134.93 184.091V180.373C134.93 180.329 134.944 180.285 134.971 180.249C134.998 180.213 135.035 180.186 135.078 180.172C141.636 177.902 147.606 174.262 152.569 169.508C160.894 161.448 165.12 151.041 165.126 138.567C165.12 120.745 155.991 111.004 148.328 105.971Z" fill="#454238"/>
<path d="M122.67 193.254H121.253C117.983 193.32 114.87 194.632 112.582 196.91C110.293 199.187 109.012 202.249 109.012 205.437C109.012 208.625 110.293 211.687 112.582 213.964C114.87 216.242 117.983 217.554 121.253 217.62H122.697C126.011 217.62 129.19 216.336 131.534 214.051C133.878 211.766 135.195 208.666 135.195 205.434C135.195 202.203 133.878 199.103 131.534 196.818C129.19 194.533 126.011 193.249 122.697 193.249L122.67 193.254Z" fill="#454238"/>
<g opacity="0.3">
<path d="M164.475 127.186C164.248 125.392 163.779 123.636 163.079 121.962C159.784 113.938 152.041 108.467 143.229 107.492L100.715 102.774C105.338 107.384 111.373 108.302 117.772 109.916C124.172 111.53 131.064 113.959 137.527 115.3C139.601 115.733 141.759 116.269 143.345 117.61C144.932 118.951 145.799 120.833 146.624 122.684C147.859 125.434 149.093 128.174 150.327 130.904C151.728 134.029 153.596 137.561 157.372 137.763C158.905 137.823 160.403 137.306 161.556 136.319C164.295 134.034 164.872 130.471 164.475 127.186Z" fill="black"/>
</g>
<path d="M163.867 116.084C163.539 115.516 157.081 107.833 153.865 104.826C151.792 102.898 148.666 101.567 146.709 100.866C146.709 100.866 114.356 89.4747 112.108 88.3608L97.5786 102.856C102.635 104.228 136.982 112.293 145.456 114.103C146.937 115.79 148.428 117.172 148.428 117.172L150.872 122.813C151.045 124.225 151.08 125.649 150.977 127.067C150.803 129.269 152.633 128.413 152.633 128.413C152.583 129.525 152.593 130.639 152.665 131.75C152.667 131.77 152.667 131.791 152.665 131.812C152.786 133.286 154.96 133.467 155.42 132.059L157.092 126.975C157.092 126.975 156.875 131.616 156.785 134.194C156.763 134.594 156.838 134.993 157.002 135.36C157.152 135.656 157.393 135.901 157.691 136.059C157.989 136.217 158.33 136.281 158.668 136.243C159.005 136.204 159.322 136.065 159.575 135.844C159.827 135.623 160.004 135.331 160.08 135.009L162.032 126.964L161.45 122.024L163.089 126.526C163.394 128.44 163.514 130.377 163.449 132.312C163.412 133.663 163.883 134.24 164.454 134.442C164.685 134.513 164.93 134.531 165.17 134.496C165.41 134.46 165.638 134.372 165.837 134.237C166.037 134.102 166.201 133.924 166.319 133.717C166.437 133.511 166.505 133.28 166.517 133.044L167.114 125.608C167.114 125.608 164.2 116.646 163.867 116.084Z" fill="#FFBF9D"/>
<path d="M110.024 87.7988C110.833 87.861 111.631 88.0221 112.399 88.2784C114.275 88.8047 116.122 89.4279 117.931 90.1452C120.047 90.9651 121.951 91.7592 123.326 92.3265C124.088 92.5944 124.824 92.9274 125.526 93.3217C124.726 93.1838 123.945 92.9553 123.199 92.641C121.787 92.1511 119.867 91.4086 117.751 90.5783C115.636 89.7481 113.71 89.0313 112.298 88.5878C111.52 88.3839 110.759 88.1201 110.024 87.7988Z" fill="#FF9A6C"/>
</g>
<defs>
<clipPath id="clip0_297_2857">
<rect width="250" height="226" fill="white"/>
</clipPath>
</defs>
</svg>
