<svg width="143" height="52" viewBox="0 0 143 52" fill="none" xmlns="http://www.w3.org/2000/svg">
<path d="M68.7899 21C67.9637 20.996 67.1466 20.8278 66.386 20.505C65.6255 20.1823 64.9367 19.7115 64.3599 19.12C63.7873 18.5774 63.3274 17.9271 63.0065 17.2066C62.6855 16.486 62.5098 15.7092 62.4893 14.9206C62.4689 14.1321 62.6041 13.3472 62.8874 12.611C63.1706 11.8747 63.5962 11.2016 64.1399 10.63L71.4999 3.2C71.8929 2.80768 72.3614 2.49908 72.877 2.29283C73.3926 2.08658 73.9447 1.98697 74.4999 2C75.0946 2.00203 75.6829 2.12244 76.2306 2.35422C76.7783 2.586 77.2744 2.92451 77.6899 3.35C78.5169 4.14624 78.9965 5.23652 79.0245 6.38418C79.0526 7.53184 78.6269 8.64427 77.8399 9.48L70.4399 16.91C70.2029 17.1486 69.9208 17.3378 69.6101 17.4665C69.2994 17.5953 68.9662 17.661 68.6299 17.66C68.2665 17.6605 67.9068 17.5882 67.5719 17.4473C67.237 17.3065 66.9337 17.1 66.6799 16.84C66.1726 16.3489 65.8796 15.6774 65.8647 14.9715C65.8497 14.2655 66.1139 13.5822 66.5999 13.07L73.4299 6.21C73.6243 6.08091 73.8577 6.02385 74.0897 6.04872C74.3217 6.07358 74.5377 6.17881 74.7003 6.34616C74.8629 6.51352 74.9619 6.73247 74.9801 6.96511C74.9983 7.19775 74.9345 7.42942 74.7999 7.62L67.9699 14.48C67.856 14.6172 67.8005 14.7937 67.8155 14.9714C67.8305 15.1491 67.9146 15.3138 68.0499 15.43C68.1906 15.5717 68.3803 15.654 68.5799 15.66C68.6538 15.6611 68.7272 15.6475 68.7959 15.62C68.8645 15.5925 68.9271 15.5518 68.9799 15.5L76.3699 8.07C76.7847 7.60918 77.0015 7.00363 76.9734 6.38425C76.9453 5.76487 76.6747 5.18141 76.2199 4.76C75.7975 4.32144 75.223 4.06146 74.6148 4.03356C74.0065 4.00566 73.4107 4.21196 72.9499 4.61L65.5599 12C65.2005 12.386 64.921 12.8392 64.7375 13.3336C64.554 13.828 64.47 14.3538 64.4905 14.8808C64.5109 15.4077 64.6354 15.9255 64.8566 16.4041C65.0779 16.8828 65.3917 17.313 65.7799 17.67C66.1692 18.0735 66.6349 18.3955 67.15 18.6169C67.6651 18.8384 68.2192 18.9551 68.7799 18.96C69.2633 18.9639 69.7427 18.8723 70.1906 18.6904C70.6385 18.5085 71.0461 18.2399 71.3899 17.9L78.7799 10.47C78.8725 10.3768 78.9825 10.3027 79.1037 10.252C79.2249 10.2013 79.3549 10.1749 79.4863 10.1744C79.6177 10.174 79.7479 10.1994 79.8695 10.2493C79.9911 10.2991 80.1016 10.3724 80.1949 10.465C80.2881 10.5576 80.3622 10.6676 80.4129 10.7888C80.4636 10.9101 80.49 11.0401 80.4904 11.1715C80.4909 11.3029 80.4655 11.4331 80.4156 11.5546C80.3658 11.6762 80.2925 11.7868 80.1999 11.88L72.8099 19.31C72.2852 19.844 71.6596 20.2683 70.9695 20.5585C70.2794 20.8486 69.5385 20.9987 68.7899 21Z" fill="url(#paint0_linear_1423_26047)"/>
<path d="M0.482156 48L4.06616 38.2H6.08216L9.66616 48H7.76216L6.97816 45.732H3.15616L2.35816 48H0.482156ZM3.64616 44.332H6.48816L5.06016 40.258L3.64616 44.332ZM13.7504 48.168C13.0971 48.168 12.5138 48.0093 12.0004 47.692C11.4871 47.3747 11.0811 46.9407 10.7824 46.39C10.4838 45.8393 10.3344 45.214 10.3344 44.514C10.3344 43.814 10.4838 43.1933 10.7824 42.652C11.0811 42.1013 11.4871 41.672 12.0004 41.364C12.5138 41.0467 13.0971 40.888 13.7504 40.888C14.2731 40.888 14.7304 40.986 15.1224 41.182C15.5144 41.378 15.8318 41.6533 16.0744 42.008V37.92H17.8664V48H16.2704L16.0744 47.006C15.8504 47.314 15.5518 47.5847 15.1784 47.818C14.8144 48.0513 14.3384 48.168 13.7504 48.168ZM14.1284 46.6C14.7071 46.6 15.1784 46.4087 15.5424 46.026C15.9158 45.634 16.1024 45.1347 16.1024 44.528C16.1024 43.9213 15.9158 43.4267 15.5424 43.044C15.1784 42.652 14.7071 42.456 14.1284 42.456C13.5591 42.456 13.0878 42.6473 12.7144 43.03C12.3411 43.4127 12.1544 43.9073 12.1544 44.514C12.1544 45.1207 12.3411 45.62 12.7144 46.012C13.0878 46.404 13.5591 46.6 14.1284 46.6ZM22.8833 48.168C22.2299 48.168 21.6466 48.0093 21.1333 47.692C20.6199 47.3747 20.2139 46.9407 19.9153 46.39C19.6166 45.8393 19.4673 45.214 19.4673 44.514C19.4673 43.814 19.6166 43.1933 19.9153 42.652C20.2139 42.1013 20.6199 41.672 21.1333 41.364C21.6466 41.0467 22.2299 40.888 22.8833 40.888C23.4059 40.888 23.8633 40.986 24.2553 41.182C24.6473 41.378 24.9646 41.6533 25.2073 42.008V37.92H26.9993V48H25.4033L25.2073 47.006C24.9833 47.314 24.6846 47.5847 24.3113 47.818C23.9473 48.0513 23.4713 48.168 22.8833 48.168ZM23.2613 46.6C23.8399 46.6 24.3113 46.4087 24.6753 46.026C25.0486 45.634 25.2353 45.1347 25.2353 44.528C25.2353 43.9213 25.0486 43.4267 24.6753 43.044C24.3113 42.652 23.8399 42.456 23.2613 42.456C22.6919 42.456 22.2206 42.6473 21.8473 43.03C21.4739 43.4127 21.2873 43.9073 21.2873 44.514C21.2873 45.1207 21.4739 45.62 21.8473 46.012C22.2206 46.404 22.6919 46.6 23.2613 46.6ZM31.572 48L35.156 38.2H37.172L40.756 48H38.852L38.068 45.732H34.246L33.448 48H31.572ZM34.736 44.332H37.578L36.15 40.258L34.736 44.332ZM41.9764 48V41.056H43.5584L43.6984 42.232C43.9131 41.8213 44.2211 41.4947 44.6224 41.252C45.0331 41.0093 45.5137 40.888 46.0644 40.888C46.9231 40.888 47.5904 41.1587 48.0664 41.7C48.5424 42.2413 48.7804 43.0347 48.7804 44.08V48H46.9884V44.248C46.9884 43.6507 46.8671 43.1933 46.6244 42.876C46.3817 42.5587 46.0037 42.4 45.4904 42.4C44.9864 42.4 44.5711 42.5773 44.2444 42.932C43.9271 43.2867 43.7684 43.7813 43.7684 44.416V48H41.9764ZM51.1296 51.08L52.7396 47.538H52.3196L49.6176 41.056H51.5636L53.5096 45.942L55.5396 41.056H57.4436L53.0336 51.08H51.1296ZM61.363 48L64.947 38.2H66.963L70.547 48H68.643L67.859 45.732H64.037L63.239 48H61.363ZM64.527 44.332H67.369L65.941 40.258L64.527 44.332ZM74.1778 48C73.4498 48 72.8665 47.8227 72.4278 47.468C71.9892 47.1133 71.7698 46.4833 71.7698 45.578V42.554H70.5798V41.056H71.7698L71.9798 39.194H73.5618V41.056H75.4378V42.554H73.5618V45.592C73.5618 45.928 73.6318 46.1613 73.7718 46.292C73.9212 46.4133 74.1732 46.474 74.5278 46.474H75.3958V48H74.1778ZM80.0704 48C79.3424 48 78.7591 47.8227 78.3204 47.468C77.8817 47.1133 77.6624 46.4833 77.6624 45.578V42.554H76.4724V41.056H77.6624L77.8724 39.194H79.4544V41.056H81.3304V42.554H79.4544V45.592C79.4544 45.928 79.5244 46.1613 79.6644 46.292C79.8137 46.4133 80.0657 46.474 80.4204 46.474H81.2884V48H80.0704ZM85.263 48.168C84.6657 48.168 84.1757 48.0747 83.793 47.888C83.4103 47.692 83.1257 47.4353 82.939 47.118C82.7523 46.8007 82.659 46.4507 82.659 46.068C82.659 45.424 82.911 44.9013 83.415 44.5C83.919 44.0987 84.675 43.898 85.683 43.898H87.447V43.73C87.447 43.254 87.3117 42.904 87.041 42.68C86.7703 42.456 86.4343 42.344 86.033 42.344C85.669 42.344 85.3517 42.4327 85.081 42.61C84.8103 42.778 84.6423 43.03 84.577 43.366H82.827C82.8737 42.862 83.0417 42.4233 83.331 42.05C83.6297 41.6767 84.0123 41.392 84.479 41.196C84.9457 40.9907 85.4683 40.888 86.047 40.888C87.0363 40.888 87.8157 41.1353 88.385 41.63C88.9543 42.1247 89.239 42.8247 89.239 43.73V48H87.713L87.545 46.88C87.3397 47.2533 87.0503 47.5613 86.677 47.804C86.313 48.0467 85.8417 48.168 85.263 48.168ZM85.669 46.768C86.1823 46.768 86.579 46.6 86.859 46.264C87.1483 45.928 87.3303 45.5127 87.405 45.018H85.879C85.403 45.018 85.0623 45.1067 84.857 45.284C84.6517 45.452 84.549 45.662 84.549 45.914C84.549 46.1847 84.6517 46.3947 84.857 46.544C85.0623 46.6933 85.333 46.768 85.669 46.768ZM94.3511 48.168C93.6417 48.168 93.0164 48.014 92.4751 47.706C91.9337 47.398 91.5044 46.9687 91.1871 46.418C90.8791 45.8673 90.7251 45.2373 90.7251 44.528C90.7251 43.8187 90.8791 43.1887 91.1871 42.638C91.5044 42.0873 91.9337 41.658 92.4751 41.35C93.0164 41.042 93.6417 40.888 94.3511 40.888C95.2377 40.888 95.9844 41.1213 96.5911 41.588C97.1977 42.0453 97.5851 42.68 97.7531 43.492H95.8631C95.7697 43.156 95.5831 42.8947 95.3031 42.708C95.0324 42.512 94.7104 42.414 94.3371 42.414C93.8424 42.414 93.4224 42.6007 93.0771 42.974C92.7317 43.3473 92.5591 43.8653 92.5591 44.528C92.5591 45.1907 92.7317 45.7087 93.0771 46.082C93.4224 46.4553 93.8424 46.642 94.3371 46.642C94.7104 46.642 95.0324 46.5487 95.3031 46.362C95.5831 46.1753 95.7697 45.9093 95.8631 45.564H97.7531C97.5851 46.348 97.1977 46.978 96.5911 47.454C95.9844 47.93 95.2377 48.168 94.3511 48.168ZM99.3436 48V37.92H101.136V42.12C101.369 41.7373 101.682 41.4387 102.074 41.224C102.475 41 102.932 40.888 103.446 40.888C104.304 40.888 104.967 41.1587 105.434 41.7C105.91 42.2413 106.148 43.0347 106.148 44.08V48H104.37V44.248C104.37 43.6507 104.248 43.1933 104.006 42.876C103.772 42.5587 103.399 42.4 102.886 42.4C102.382 42.4 101.962 42.5773 101.626 42.932C101.299 43.2867 101.136 43.7813 101.136 44.416V48H99.3436ZM107.861 48V41.056H109.443L109.597 41.994C109.821 41.658 110.115 41.392 110.479 41.196C110.853 40.9907 111.282 40.888 111.767 40.888C112.841 40.888 113.601 41.3033 114.049 42.134C114.301 41.7513 114.637 41.448 115.057 41.224C115.487 41 115.953 40.888 116.457 40.888C117.363 40.888 118.058 41.1587 118.543 41.7C119.029 42.2413 119.271 43.0347 119.271 44.08V48H117.479V44.248C117.479 43.6507 117.363 43.1933 117.129 42.876C116.905 42.5587 116.555 42.4 116.079 42.4C115.594 42.4 115.202 42.5773 114.903 42.932C114.614 43.2867 114.469 43.7813 114.469 44.416V48H112.677V44.248C112.677 43.6507 112.561 43.1933 112.327 42.876C112.094 42.5587 111.735 42.4 111.249 42.4C110.773 42.4 110.386 42.5773 110.087 42.932C109.798 43.2867 109.653 43.7813 109.653 44.416V48H107.861ZM124.347 48.168C123.647 48.168 123.026 48.0187 122.485 47.72C121.943 47.4213 121.519 47.0013 121.211 46.46C120.903 45.9187 120.749 45.2933 120.749 44.584C120.749 43.8653 120.898 43.226 121.197 42.666C121.505 42.106 121.925 41.672 122.457 41.364C122.998 41.0467 123.633 40.888 124.361 40.888C125.042 40.888 125.644 41.0373 126.167 41.336C126.689 41.6347 127.095 42.0453 127.385 42.568C127.683 43.0813 127.833 43.6553 127.833 44.29C127.833 44.3927 127.828 44.5 127.819 44.612C127.819 44.724 127.814 44.8407 127.805 44.962H122.527C122.564 45.5033 122.751 45.928 123.087 46.236C123.432 46.544 123.847 46.698 124.333 46.698C124.697 46.698 125 46.6187 125.243 46.46C125.495 46.292 125.681 46.0773 125.803 45.816H127.623C127.492 46.2547 127.273 46.656 126.965 47.02C126.666 47.3747 126.293 47.6547 125.845 47.86C125.406 48.0653 124.907 48.168 124.347 48.168ZM124.361 42.344C123.922 42.344 123.535 42.47 123.199 42.722C122.863 42.9647 122.648 43.338 122.555 43.842H126.013C125.985 43.3847 125.817 43.0207 125.509 42.75C125.201 42.4793 124.818 42.344 124.361 42.344ZM129.34 48V41.056H130.922L131.062 42.232C131.276 41.8213 131.584 41.4947 131.986 41.252C132.396 41.0093 132.877 40.888 133.428 40.888C134.286 40.888 134.954 41.1587 135.43 41.7C135.906 42.2413 136.144 43.0347 136.144 44.08V48H134.352V44.248C134.352 43.6507 134.23 43.1933 133.988 42.876C133.745 42.5587 133.367 42.4 132.854 42.4C132.35 42.4 131.934 42.5773 131.608 42.932C131.29 43.2867 131.132 43.7813 131.132 44.416V48H129.34ZM140.951 48C140.223 48 139.64 47.8227 139.201 47.468C138.763 47.1133 138.543 46.4833 138.543 45.578V42.554H137.353V41.056H138.543L138.753 39.194H140.335V41.056H142.211V42.554H140.335V45.592C140.335 45.928 140.405 46.1613 140.545 46.292C140.695 46.4133 140.947 46.474 141.301 46.474H142.169V48H140.951Z" fill="#919B9B"/>
<defs>
<linearGradient id="paint0_linear_1423_26047" x1="71.4889" y1="1.99887" x2="71.4889" y2="21" gradientUnits="userSpaceOnUse">
<stop stop-color="#236FDA"/>
<stop offset="1" stop-color="#2A7FF8"/>
</linearGradient>
</defs>
</svg>
