<svg width="627" height="600" viewBox="0 0 627 600" fill="none" xmlns="http://www.w3.org/2000/svg">
<path d="M66.8581 254.458V314.151C66.8581 319.338 68.9199 324.313 72.59 327.982C76.26 331.65 81.2377 333.71 86.4279 333.71H300.567C305.755 333.707 310.729 331.645 314.397 327.977C318.064 324.309 320.124 319.336 320.124 314.151V263.718L346.79 235.726L86.5031 234.912C83.9279 234.902 81.3761 235.4 78.9939 236.378C76.6117 237.355 74.446 238.793 72.621 240.609C70.7959 242.425 69.3475 244.583 68.3585 246.96C67.3696 249.336 66.8598 251.884 66.8581 254.458V254.458Z" fill="#F5F5F5"/>
<path d="M288.557 271.073L94.2508 270.171L94.2633 264.207L288.582 265.096L288.557 271.073Z" fill="#E0E0E0"/>
<path d="M288.557 290.707L94.2508 289.818L94.2633 283.841L288.582 284.743L288.557 290.707Z" fill="#E0E0E0"/>
<path d="M211.687 303.501L211.658 309.465L288.544 309.84L288.573 303.876L211.687 303.501Z" fill="#E0E0E0"/>
<path d="M265.276 460.702V520.394C265.276 525.582 267.338 530.557 271.008 534.225C274.678 537.893 279.656 539.954 284.846 539.954H498.96C504.148 539.95 509.122 537.888 512.79 534.22C516.457 530.553 518.517 525.58 518.517 520.394V469.961L545.183 441.969L284.884 441.155C282.311 441.15 279.764 441.652 277.386 442.632C275.008 443.612 272.847 445.05 271.026 446.866C269.205 448.681 267.76 450.838 266.773 453.212C265.786 455.586 265.278 458.131 265.276 460.702V460.702Z" fill="#F5F5F5"/>
<path d="M487.915 475.763L293.597 474.873L293.609 468.896L487.928 469.798L487.915 475.763Z" fill="#E0E0E0"/>
<path d="M487.915 495.397L293.597 494.507L293.609 488.531L487.928 489.433L487.915 495.397Z" fill="#E0E0E0"/>
<path d="M411.026 508.178L410.997 514.142L487.884 514.518L487.913 508.554L411.026 508.178Z" fill="#E0E0E0"/>
<path d="M181.318 29.6205H307.613C310.605 29.6205 313.475 30.8086 315.591 32.9235C317.707 35.0383 318.896 37.9067 318.896 40.8975V102.633C318.896 105.624 317.707 108.492 315.591 110.607C313.475 112.722 310.605 113.91 307.613 113.91H200.449C197.457 113.91 194.587 112.722 192.471 110.607C190.355 108.492 189.166 105.624 189.166 102.633V37.4267L181.318 29.6205Z" fill="#F5F5F5"/>
<path d="M254.495 89.6391V129.234C254.495 132.673 253.128 135.972 250.694 138.404C248.261 140.836 244.96 142.202 241.519 142.202H99.5287C97.821 142.207 96.1291 141.876 94.5498 141.226C92.9705 140.577 91.5348 139.623 90.3249 138.418C89.115 137.213 88.1547 135.782 87.4989 134.206C86.8431 132.63 86.5047 130.941 86.5031 129.234V95.7788L68.8765 77.2094L241.519 76.6706C244.96 76.6706 248.261 78.0369 250.694 80.4689C253.128 82.901 254.495 86.1996 254.495 89.6391V89.6391Z" fill="#E0E0E0"/>
<path d="M107.489 100.653L236.367 100.064L236.354 96.1045L107.477 96.706L107.489 100.653Z" fill="#F5F5F5"/>
<path d="M107.489 113.684L236.367 113.083L236.354 109.136L107.477 109.725L107.489 113.684Z" fill="#F5F5F5"/>
<path d="M157.749 122.944H106.75V126.903H157.749V122.944Z" fill="#F5F5F5"/>
<path d="M523.582 273.216V312.81C523.582 316.25 522.215 319.548 519.781 321.98C517.348 324.413 514.048 325.779 510.606 325.779H368.578C365.136 325.779 361.834 324.413 359.399 321.981C356.964 319.55 355.594 316.251 355.59 312.81V279.355L337.914 260.786L510.556 260.247C512.264 260.242 513.956 260.574 515.535 261.223C517.115 261.873 518.55 262.827 519.76 264.031C520.97 265.236 521.93 266.667 522.586 268.243C523.242 269.819 523.58 271.509 523.582 273.216Z" fill="#E0E0E0"/>
<path d="M376.539 284.242L505.429 283.641L505.404 279.681L376.527 280.283L376.539 284.242Z" fill="#F5F5F5"/>
<path d="M376.539 297.261L505.429 296.672L505.404 292.712L376.527 293.301L376.539 297.261Z" fill="#F5F5F5"/>
<path d="M425.896 307.848H374.897V311.808H425.896V307.848Z" fill="#F5F5F5"/>
<path d="M401.926 469.748C380.701 449.086 380.35 417.122 385.866 389.368C386.794 384.732 387.12 379.733 389.979 375.999C392.837 372.265 398.491 370.323 402.352 372.979C405.549 375.172 406.402 379.445 407.793 383.091C409.648 387.959 412.847 392.2 417.02 395.32C419.741 397.35 423.288 398.891 426.448 397.764C430.836 396.197 432.227 390.722 432.954 386.086C434.308 377.432 435.671 368.782 437.041 360.136C437.768 355.487 438.533 350.751 440.689 346.591C442.846 342.431 446.72 338.86 451.333 338.346C455.947 337.833 460.986 341.266 461.174 345.965C461.032 347.91 460.76 349.844 460.359 351.754C460.171 353.696 460.723 355.976 462.466 356.765C464.208 357.555 466.302 356.603 467.907 355.512C473.46 351.616 477.698 346.128 481.697 340.627C485.696 335.126 489.67 329.463 494.86 325.065C500.051 320.667 506.708 317.609 513.415 318.324C520.122 319.038 526.541 324.288 527.142 331.104C527.744 337.92 522.855 343.922 517.84 348.533C510.394 355.374 502 361.105 492.917 365.549C491.287 366.351 489.52 367.203 488.68 368.832C487.163 371.764 489.595 375.31 492.441 376.826C495.713 378.543 499.511 378.793 503.059 379.821C506.607 380.848 510.268 383.066 511.083 386.712C512.199 391.724 507.422 396.072 502.984 398.691C494.1 403.929 484.38 407.6 474.25 409.542C470.64 410.231 466.866 410.732 463.719 412.687C460.573 414.641 458.241 418.526 459.369 422.059C460.497 425.593 464.584 427.347 468.27 427.272C471.956 427.196 475.466 425.768 479.089 425.041C485.859 423.688 494.02 425.467 497.192 431.645C499.286 435.704 498.697 440.779 496.628 444.876C494.383 448.875 491.356 452.382 487.727 455.188C475.541 465.488 460.886 472.993 445.253 475.7C429.62 478.406 415.704 477.554 401.888 469.773" fill="url(#paint0_linear_5_7)"/>
<path d="M398.165 490.398C401.568 477.66 406.186 465.278 411.955 453.422C419.086 438.97 427.039 424.939 435.775 411.396L442.595 400.708C444.839 397.2 447.058 393.716 449.453 390.459C454.059 384.187 459.01 378.176 464.283 372.453C469.298 366.952 474.187 361.928 478.839 357.254C483.49 352.58 487.903 348.333 492.102 344.624C498.686 338.728 505.729 333.365 513.164 328.586C515.797 326.894 517.878 325.641 519.294 324.827L520.924 323.887C521.114 323.767 521.316 323.666 521.526 323.586C521.362 323.726 521.185 323.852 520.999 323.962L519.42 324.964C518.028 325.829 515.985 327.12 513.39 328.861C506.039 333.73 499.07 339.15 492.541 345.075C488.379 348.834 484.004 353.082 479.378 357.755C474.752 362.429 469.862 367.491 464.91 372.979C459.69 378.689 454.785 384.679 450.217 390.922C447.848 394.167 445.641 397.626 443.397 401.134C441.153 404.642 438.897 408.214 436.59 411.822C427.881 425.342 419.929 439.335 412.77 453.735C406.974 465.53 402.298 477.842 398.804 490.51" fill="#263238"/>
<path d="M449.741 390.459C449.63 389.78 449.588 389.091 449.616 388.404C449.616 387.088 449.616 385.171 449.616 382.815C449.716 378.091 450.079 371.538 450.493 364.384C450.907 357.229 451.195 350.701 451.22 345.977C451.22 343.622 451.22 341.717 451.22 340.401C451.165 339.716 451.191 339.026 451.295 338.346C451.451 339.017 451.539 339.701 451.559 340.389C451.684 341.642 451.772 343.609 451.835 345.977C451.96 350.701 451.835 357.254 451.358 364.434C450.882 371.613 450.531 377.941 450.217 382.84C450.104 385.046 450.004 386.913 449.916 388.416C449.938 389.101 449.879 389.787 449.741 390.459V390.459Z" fill="#263238"/>
<path d="M511.208 389.08C510.4 389.127 509.59 389.094 508.789 388.98C507.234 388.867 505.028 388.679 502.207 388.554C496.641 388.253 488.956 388.103 480.456 388.303C471.956 388.504 464.283 389.043 458.73 389.556C455.959 389.807 453.715 390.07 452.173 390.246C451.37 390.385 450.556 390.448 449.741 390.434C450.518 390.187 451.315 390.011 452.123 389.907C453.665 389.632 455.884 389.281 458.667 388.942C464.221 388.241 471.918 387.627 480.443 387.401C487.714 387.202 494.991 387.374 502.244 387.915C505.028 388.128 507.259 388.391 508.826 388.617C509.633 388.693 510.431 388.848 511.208 389.08V389.08Z" fill="#263238"/>
<path d="M412.921 452.444C412.921 452.444 412.795 452.181 412.632 451.655C412.469 451.129 412.231 450.264 411.955 449.324C411.391 447.307 410.639 444.312 409.761 440.716C408.006 433.411 405.9 423.262 403.719 412.01C401.537 400.758 399.519 390.609 397.914 383.279C397.124 379.72 396.472 376.788 395.996 374.608C395.783 373.668 395.62 372.879 395.482 372.24C395.403 371.967 395.361 371.685 395.357 371.4C395.497 371.651 395.598 371.921 395.658 372.202C395.833 372.829 396.046 373.593 396.322 374.52C396.886 376.538 397.638 379.532 398.516 383.141C400.271 390.433 402.39 400.595 404.559 411.847C406.728 423.099 408.758 433.248 410.363 440.578C411.153 444.137 411.805 447.069 412.281 449.249C412.494 450.189 412.657 450.966 412.795 451.605C412.873 451.878 412.915 452.16 412.921 452.444V452.444Z" fill="#263238"/>
<path d="M496.352 439.889C496.082 439.989 495.799 440.052 495.512 440.077L493.08 440.478L484.141 441.831C476.619 442.984 466.202 444.701 454.705 446.593C443.209 448.485 432.779 450.114 425.207 451.104C421.446 451.605 418.349 451.981 416.23 452.194L413.723 452.432C413.44 452.476 413.153 452.476 412.87 452.432C413.143 452.339 413.425 452.276 413.71 452.244L416.13 451.843L425.069 450.49C432.591 449.337 443.021 447.633 454.517 445.728C466.013 443.824 476.444 442.207 484.016 441.217C487.777 440.716 490.861 440.34 492.992 440.127L495.5 439.902C495.781 439.852 496.069 439.848 496.352 439.889V439.889Z" fill="#263238"/>
<path d="M191.034 187.999C189.144 186.424 187.704 184.378 186.861 182.067C186.018 179.757 185.801 177.264 186.232 174.843C186.708 172.434 187.658 170.143 189.027 168.104C190.396 166.065 192.156 164.318 194.206 162.964C196.074 161.711 198.393 160.659 200.574 161.298C201.574 161.662 202.459 162.286 203.137 163.105C203.816 163.924 204.264 164.909 204.436 165.959C204.753 168.075 204.502 170.237 203.709 172.224C201.327 179.091 197.766 185.305 191.034 188.037" fill="url(#paint1_linear_5_7)"/>
<path d="M184.678 199.727C180.816 196.273 176.185 193.79 171.171 192.482C166.156 191.175 160.902 191.081 155.843 192.209C153.336 192.798 150.39 194.152 149.976 196.745C149.563 199.339 151.869 201.557 154.151 202.885C158.967 205.557 164.467 206.745 169.957 206.299C175.447 205.853 180.683 203.793 185.004 200.379" fill="url(#paint2_linear_5_7)"/>
<path d="M147.933 145.422C150.062 144.931 152.269 144.871 154.422 145.246C156.575 145.62 158.631 146.421 160.47 147.603C164.162 150.01 167.25 153.234 169.496 157.025C174.034 164.192 175.639 173.84 175.839 182.323C166.412 181.947 158.363 174.542 154.527 170.52C148.434 164.18 141.288 149.031 147.858 145.46" fill="url(#paint3_linear_5_7)"/>
<path d="M198.932 212.546C198.074 211.409 197.287 210.22 196.575 208.987C194.136 204.207 192.352 199.12 191.272 193.863C190.209 188.538 190.616 183.024 192.451 177.913C193.024 176.383 193.786 174.931 194.72 173.59C195.037 173.078 195.43 172.618 195.886 172.224C194.796 174.119 193.857 176.096 193.077 178.138C191.487 183.171 191.186 188.521 192.2 193.7C193.293 198.887 194.976 203.932 197.215 208.736" fill="#263238"/>
<path d="M199.02 212.658L194.105 206.331C189.981 200.98 184.252 193.6 177.808 185.531C171.364 177.462 165.459 170.244 161.172 165.032L156.157 158.767C155.497 158.039 154.901 157.255 154.377 156.424C155.116 157.07 155.804 157.774 156.433 158.529C157.686 159.932 159.529 161.975 161.748 164.531C166.174 169.643 172.179 176.81 178.623 184.879C185.066 192.949 190.695 200.404 194.695 205.867C196.701 208.599 198.293 210.879 199.371 212.37" fill="#263238"/>
<path d="M161.723 197.76C162.236 197.507 162.786 197.337 163.353 197.259C163.998 197.081 164.656 196.956 165.321 196.883C166.197 196.738 167.08 196.642 167.966 196.595C170.28 196.449 172.603 196.537 174.899 196.858C177.705 197.276 180.458 197.995 183.111 199.001C185.751 200.056 188.273 201.387 190.633 202.973C192.539 204.287 194.307 205.789 195.911 207.458C196.537 208.089 197.127 208.754 197.678 209.451C198.131 209.957 198.55 210.493 198.932 211.054C199.546 211.969 199.459 212.395 199.408 212.433C198.186 210.865 196.88 209.363 195.497 207.935C193.861 206.37 192.091 204.953 190.207 203.699C187.884 202.206 185.419 200.947 182.847 199.94C180.255 198.957 177.571 198.231 174.837 197.773C172.598 197.416 170.332 197.265 168.067 197.322C164.105 197.359 161.723 197.936 161.723 197.76Z" fill="#263238"/>
<path d="M372.013 517.475L227.215 516.798C218.861 516.749 210.869 513.388 204.993 507.453C199.116 501.519 195.836 493.497 195.873 485.148L197.403 122.317C197.439 113.963 200.792 105.964 206.725 100.079C212.658 94.1938 220.686 90.903 229.045 90.9297L373.844 91.5937C382.197 91.6501 390.188 95.0149 396.063 100.95C401.938 106.886 405.219 114.908 405.185 123.257L403.681 486.075C403.645 494.435 400.288 502.438 394.35 508.326C388.412 514.214 380.378 517.505 372.013 517.475V517.475Z" fill="#263238"/>
<path d="M373.593 104.124L345.511 103.986C344.596 104.002 343.692 104.199 342.853 104.564C342.013 104.929 341.254 105.456 340.618 106.115C339.983 106.773 339.483 107.551 339.148 108.402C338.813 109.254 338.649 110.163 338.666 111.078V116.165C338.683 117.08 338.519 117.989 338.184 118.841C337.849 119.692 337.349 120.47 336.713 121.128C336.078 121.787 335.318 122.314 334.479 122.679C333.639 123.044 332.736 123.241 331.821 123.257L277.098 123.006C275.25 122.954 273.499 122.171 272.227 120.83C270.956 119.489 270.269 117.699 270.316 115.852V110.765C270.363 108.916 269.674 107.123 268.4 105.782C267.126 104.44 265.371 103.659 263.521 103.61H253.655L229.083 103.497C223.222 103.474 217.591 105.777 213.428 109.9C209.265 114.023 206.91 119.63 206.88 125.487L205.388 479.622C205.365 485.476 207.668 491.101 211.791 495.259C215.914 499.417 221.52 501.77 227.378 501.8L371.888 502.464C374.789 502.477 377.664 501.919 380.349 500.822C383.034 499.724 385.477 498.109 387.537 496.068C389.598 494.028 391.236 491.601 392.358 488.928C393.48 486.254 394.065 483.386 394.078 480.486L395.57 126.339C395.591 123.437 395.039 120.559 393.946 117.87C392.852 115.182 391.238 112.735 389.196 110.671C387.154 108.607 384.725 106.967 382.048 105.843C379.37 104.719 376.497 104.135 373.593 104.124Z" fill="#FAFAFA"/>
<path d="M291.854 468.508C291.946 469.118 291.849 469.742 291.576 470.295C291.302 470.849 290.866 471.305 290.325 471.603C289.784 471.901 289.165 472.026 288.551 471.962C287.937 471.897 287.357 471.646 286.89 471.243C286.423 470.839 286.091 470.302 285.938 469.703C285.786 469.105 285.821 468.475 286.038 467.897C286.255 467.319 286.644 466.822 287.153 466.472C287.661 466.122 288.265 465.936 288.883 465.939C289.616 465.894 290.337 466.138 290.893 466.618C291.448 467.098 291.793 467.776 291.854 468.508V468.508Z" fill="url(#paint4_linear_5_7)"/>
<path d="M301.093 468.558C301.183 469.168 301.084 469.791 300.808 470.343C300.533 470.895 300.095 471.35 299.554 471.646C299.013 471.942 298.393 472.065 297.78 471.999C297.166 471.932 296.588 471.68 296.122 471.275C295.656 470.871 295.326 470.333 295.175 469.735C295.024 469.137 295.059 468.507 295.277 467.93C295.495 467.353 295.885 466.857 296.393 466.508C296.902 466.158 297.505 465.973 298.122 465.977C298.857 465.932 299.58 466.177 300.136 466.66C300.692 467.143 301.036 467.824 301.093 468.558V468.558Z" fill="url(#paint5_linear_5_7)"/>
<path d="M310.333 468.595C310.425 469.206 310.328 469.83 310.055 470.383C309.781 470.937 309.345 471.393 308.804 471.691C308.263 471.989 307.644 472.114 307.03 472.05C306.416 471.985 305.836 471.734 305.369 471.33C304.902 470.927 304.57 470.389 304.418 469.791C304.265 469.193 304.3 468.563 304.517 467.985C304.734 467.407 305.123 466.91 305.632 466.559C306.14 466.209 306.744 466.023 307.362 466.027C308.095 465.978 308.819 466.221 309.375 466.702C309.931 467.182 310.275 467.863 310.333 468.595Z" fill="url(#paint6_linear_5_7)"/>
<path d="M250.132 274.845C252.489 275.183 394.529 303.024 394.529 303.024V274.845H250.132Z" fill="#EBEBEB"/>
<path d="M205.439 453.772C205.439 453.772 359.966 431.92 358.612 432.597C357.258 433.273 205.439 432.597 205.439 432.597V453.772Z" fill="#EBEBEB"/>
<path d="M384.876 40.2961C385.052 40.2961 385.202 48.1022 385.202 57.7252C385.202 67.3483 385.052 75.1669 384.876 75.1669C384.701 75.1669 384.55 67.3608 384.55 57.7252C384.55 48.0897 384.701 40.2961 384.876 40.2961Z" fill="#263238"/>
<path d="M446.72 80.4295C446.795 80.5924 439.699 83.8753 430.886 87.7596C422.072 91.6439 414.864 94.6761 414.789 94.5007C414.713 94.3253 421.809 91.055 430.622 87.1707C439.436 83.2864 446.644 80.2541 446.72 80.4295Z" fill="#263238"/>
<path d="M445.152 19.559C445.078 19.7996 444.969 20.0277 444.826 20.2356C444.538 20.7117 444.187 21.3257 443.748 22.0775C442.808 23.6813 441.417 25.9743 439.661 28.781C436.151 34.4195 431.099 42.0628 425.37 50.4077C419.64 58.7527 414.55 66.3584 410.94 71.9217C409.172 74.6407 407.73 76.9337 406.677 78.5125L405.499 80.2917C405.374 80.51 405.222 80.712 405.048 80.8932C405.14 80.6582 405.254 80.4318 405.386 80.2165C405.674 79.7404 406.025 79.1264 406.464 78.3746C407.392 76.7708 408.796 74.4903 410.551 71.6711C414.061 66.0326 419.114 58.3893 424.83 50.0444C430.547 41.6994 435.662 34.1438 439.273 28.5429L443.535 21.9397L444.714 20.1604C444.843 19.9482 444.99 19.7471 445.152 19.559V19.559Z" fill="#263238"/>
<path d="M531.844 167.074H249.204C247.753 167.074 246.315 167.36 244.975 167.916C243.634 168.471 242.416 169.286 241.39 170.312C240.364 171.338 239.551 172.557 238.996 173.897C238.442 175.238 238.158 176.675 238.159 178.126V265.748C238.158 267.198 238.442 268.635 238.996 269.976C239.551 271.317 240.364 272.535 241.39 273.562C242.416 274.588 243.634 275.402 244.975 275.958C246.315 276.513 247.753 276.799 249.204 276.799H270.266C271.958 285.946 273.939 297.486 273.939 297.486L292.995 276.799H531.844C533.295 276.799 534.732 276.513 536.073 275.958C537.414 275.402 538.632 274.588 539.658 273.562C540.684 272.535 541.497 271.317 542.051 269.976C542.606 268.635 542.89 267.198 542.888 265.748V178.126C542.89 176.675 542.606 175.238 542.051 173.897C541.497 172.557 540.684 171.338 539.658 170.312C538.632 169.286 537.414 168.471 536.073 167.916C534.732 167.36 533.295 167.074 531.844 167.074V167.074Z" fill="url(#paint7_linear_5_7)"/>
<path d="M415.227 214.575C415.227 214.751 381.591 214.901 340.108 214.901C298.624 214.901 264.975 214.751 264.975 214.575C264.975 214.4 298.611 214.237 340.108 214.237C381.604 214.237 415.227 214.425 415.227 214.575Z" fill="#F5F5F5"/>
<path d="M415.227 201.143C415.227 201.319 381.591 201.469 340.108 201.469C298.624 201.469 264.975 201.319 264.975 201.143C264.975 200.968 298.611 200.817 340.108 200.817C381.604 200.817 415.227 200.955 415.227 201.143Z" fill="#F5F5F5"/>
<path d="M415.227 227.932C415.227 228.108 381.591 228.258 340.108 228.258C298.624 228.258 264.975 228.108 264.975 227.932C264.975 227.757 298.611 227.607 340.108 227.607C381.604 227.607 415.227 227.744 415.227 227.932Z" fill="#F5F5F5"/>
<path d="M363.388 241.728C363.388 241.903 341.361 242.054 314.182 242.054C287.002 242.054 264.975 241.903 264.975 241.728C264.975 241.552 287.002 241.402 314.182 241.402C341.361 241.402 363.388 241.54 363.388 241.728Z" fill="#F5F5F5"/>
<path d="M404.132 324.614H119.186C118.169 324.612 117.161 324.811 116.221 325.2C115.281 325.589 114.427 326.159 113.709 326.879C112.99 327.598 112.42 328.453 112.033 329.393C111.646 330.333 111.448 331.34 111.451 332.357V425.079C111.451 427.129 112.266 429.096 113.717 430.546C115.167 431.995 117.135 432.81 119.186 432.81H326.142L344.947 453.271C344.947 453.271 346.915 441.769 348.582 432.81H404.095C406.146 432.81 408.114 431.995 409.564 430.546C411.015 429.096 411.83 427.129 411.83 425.079V332.357C411.833 331.344 411.637 330.339 411.252 329.401C410.867 328.464 410.301 327.611 409.586 326.892C408.871 326.173 408.022 325.602 407.086 325.211C406.15 324.82 405.147 324.617 404.132 324.614V324.614Z" fill="url(#paint8_linear_5_7)"/>
<path d="M392.962 372.453C392.962 372.628 359.326 372.779 317.83 372.779C276.334 372.779 242.698 372.628 242.698 372.453C242.698 372.278 276.334 372.127 317.83 372.127C359.326 372.127 392.962 372.227 392.962 372.453Z" fill="#F5F5F5"/>
<path d="M392.962 358.946C392.962 359.121 359.326 359.271 317.83 359.271C276.334 359.271 242.698 359.121 242.698 358.946C242.698 358.77 276.334 358.62 317.83 358.62C359.326 358.62 392.962 358.758 392.962 358.946Z" fill="#F5F5F5"/>
<path d="M392.962 385.735C392.962 385.91 359.326 386.061 317.83 386.061C276.334 386.061 242.698 385.91 242.698 385.735C242.698 385.559 276.334 385.409 317.83 385.409C359.326 385.409 392.962 385.559 392.962 385.735Z" fill="#F5F5F5"/>
<path d="M341.123 399.53C341.123 399.718 319.096 399.856 291.917 399.856C264.737 399.856 242.698 399.718 242.698 399.53C242.698 399.342 264.737 399.204 291.917 399.204C319.096 399.204 341.123 399.355 341.123 399.53Z" fill="#F5F5F5"/>
<path d="M460.786 129.91C460.961 127.605 458.905 124.435 457.025 122.605C455.935 121.624 455.156 120.345 454.784 118.927C454.412 117.509 454.463 116.013 454.931 114.624C455.696 111.78 457.501 111.993 458.216 110.314C458.563 109.015 458.703 107.671 458.629 106.329C458.778 105.196 459.159 104.105 459.748 103.125C460.338 102.146 461.123 101.298 462.054 100.635C462.986 99.9715 464.044 99.5074 465.163 99.2713C466.282 99.0351 467.438 99.032 468.558 99.2621C469.181 97.0385 470.458 95.0533 472.224 93.5643C473.99 92.0753 476.162 91.1513 478.46 90.9121C480.758 90.673 483.075 91.1299 485.11 92.2234C487.144 93.3169 488.803 94.9966 489.871 97.0443C491.169 96.3852 492.609 96.0558 494.065 96.0852C495.52 96.1146 496.946 96.5019 498.216 97.2128C499.487 97.9238 500.562 98.9365 501.348 100.161C502.133 101.386 502.605 102.786 502.721 104.236C504.037 103.397 505.612 103.062 507.155 103.292C508.699 103.523 510.107 104.303 511.12 105.489C512.072 106.731 512.636 108.224 512.743 109.784C512.85 111.344 512.495 112.901 511.722 114.26C510.928 115.609 509.838 116.76 508.536 117.628C507.233 118.496 505.751 119.058 504.2 119.272C501.09 119.667 497.934 119.094 495.161 117.631C492.4 116.178 489.894 114.286 487.74 112.03" fill="#263238"/>
<path d="M481.283 273.905C511.256 273.905 535.554 250.186 535.554 220.928C535.554 191.67 511.256 167.951 481.283 167.951C451.31 167.951 427.012 191.67 427.012 220.928C427.012 250.186 451.31 273.905 481.283 273.905Z" fill="#E0E0E0"/>
<path d="M535.78 220.966L529.775 205.579L508.25 219.099L527.431 248.657C527.431 248.657 535.228 238.533 535.78 220.966Z" fill="#EB996E"/>
<path d="M476.394 187.636C480.102 187.658 483.676 186.253 486.377 183.713C489.077 181.172 490.696 177.691 490.899 173.991C491.212 167.613 491.488 161.461 491.488 161.461C491.488 161.461 503.323 160.609 504.413 149.031C505.504 137.453 505.667 110.702 505.667 110.702C499.246 107.334 492.047 105.725 484.802 106.04C477.558 106.354 470.526 108.581 464.421 112.494L463.293 113.208L461.926 173.101C461.913 175.007 462.278 176.897 462.999 178.662C463.721 180.426 464.785 182.03 466.13 183.382C467.475 184.733 469.074 185.805 470.836 186.535C472.598 187.265 474.487 187.639 476.394 187.636V187.636Z" fill="#FFBE9D"/>
<path d="M483.139 128.52C483.45 128.629 483.723 128.829 483.921 129.092C484.12 129.356 484.237 129.673 484.257 130.002C484.277 130.332 484.199 130.66 484.033 130.946C483.867 131.232 483.621 131.462 483.324 131.608C483.028 131.755 482.695 131.81 482.367 131.769C482.04 131.727 481.731 131.589 481.481 131.373C481.231 131.157 481.051 130.872 480.962 130.554C480.873 130.236 480.88 129.899 480.982 129.585C481.128 129.158 481.436 128.807 481.84 128.607C482.245 128.408 482.711 128.376 483.139 128.52V128.52Z" fill="#263238"/>
<path d="M486.423 129.121C486.223 129.309 485.169 128.357 483.515 128.256C481.86 128.156 480.681 128.908 480.518 128.695C480.355 128.482 480.644 128.244 481.17 127.893C481.891 127.438 482.74 127.228 483.59 127.292C484.436 127.349 485.241 127.679 485.884 128.231C486.323 128.657 486.486 129.033 486.423 129.121Z" fill="#263238"/>
<path d="M500.815 128.52C501.127 128.629 501.399 128.829 501.598 129.092C501.797 129.356 501.914 129.673 501.934 130.002C501.954 130.332 501.876 130.66 501.71 130.946C501.544 131.232 501.297 131.462 501.001 131.608C500.705 131.755 500.372 131.81 500.044 131.769C499.716 131.727 499.408 131.589 499.158 131.373C498.908 131.157 498.727 130.872 498.639 130.554C498.55 130.236 498.557 129.899 498.659 129.585C498.805 129.158 499.113 128.807 499.517 128.607C499.921 128.408 500.388 128.376 500.815 128.52V128.52Z" fill="#263238"/>
<path d="M504.275 129.146C504.087 129.347 503.022 128.394 501.367 128.294C499.712 128.194 498.534 128.946 498.371 128.733C498.208 128.52 498.496 128.282 499.035 127.931C499.751 127.474 500.596 127.263 501.442 127.329C502.292 127.389 503.1 127.718 503.749 128.269C504.225 128.695 504.376 129.071 504.275 129.146Z" fill="#263238"/>
<path d="M492.115 141.663C492.971 141.4 493.865 141.285 494.76 141.325C495.186 141.325 495.525 141.25 495.575 141.024C495.634 140.596 495.564 140.16 495.374 139.771C495.048 138.681 494.71 137.579 494.359 136.426C492.98 131.665 492.065 127.755 492.303 127.655C492.541 127.555 493.87 131.414 495.249 136.15C495.575 137.303 495.876 138.418 496.189 139.508C496.417 140.066 496.448 140.685 496.277 141.263C496.201 141.419 496.091 141.555 495.954 141.662C495.817 141.768 495.657 141.842 495.487 141.877C495.246 141.906 495.002 141.906 494.76 141.877C493.873 141.956 492.978 141.884 492.115 141.663Z" fill="#263238"/>
<path d="M491.438 161.311C486.037 160.977 480.855 159.054 476.544 155.785C476.544 155.785 479.465 164.418 491.225 164.318L491.438 161.311Z" fill="#EB996E"/>
<path d="M462.942 130.224C462.952 129.769 462.786 129.328 462.477 128.993C462.168 128.659 461.742 128.458 461.287 128.432C459.106 128.332 455.52 129.121 455.019 135.085C454.367 143.606 462.691 141.638 462.729 141.35C462.766 141.062 462.904 133.544 462.942 130.224Z" fill="#FFBE9D"/>
<path d="M460.949 138.005C460.949 138.005 460.786 138.105 460.522 138.193C460.346 138.266 460.156 138.304 459.964 138.304C459.773 138.304 459.583 138.266 459.407 138.193C458.877 137.804 458.462 137.28 458.204 136.676C457.946 136.073 457.855 135.411 457.94 134.759C457.971 134.027 458.169 133.312 458.517 132.667C458.624 132.403 458.795 132.169 459.013 131.986C459.231 131.802 459.491 131.675 459.77 131.614C459.946 131.579 460.128 131.608 460.284 131.695C460.441 131.783 460.561 131.923 460.623 132.091C460.723 132.329 460.623 132.504 460.698 132.517C460.773 132.529 460.899 132.391 460.848 132.028C460.817 131.814 460.711 131.618 460.547 131.477C460.327 131.281 460.04 131.177 459.745 131.188C459.382 131.235 459.038 131.374 458.745 131.594C458.453 131.814 458.223 132.106 458.078 132.441C457.648 133.145 457.406 133.948 457.376 134.772C457.278 135.53 457.407 136.299 457.746 136.983C458.085 137.668 458.619 138.237 459.281 138.619C459.508 138.701 459.751 138.732 459.991 138.71C460.231 138.688 460.464 138.614 460.673 138.493C460.911 138.218 460.974 138.03 460.949 138.005Z" fill="#EB996E"/>
<path d="M478.751 124.573C479.177 125.124 480.656 124.873 482.587 124.786C484.518 124.698 486.009 124.71 486.348 124.109C486.686 123.508 484.894 122.067 482.411 122.28C479.929 122.493 478.274 124.009 478.751 124.573Z" fill="#263238"/>
<path d="M497.531 124.009C497.756 124.748 499.173 124.974 500.74 124.961C502.307 124.949 503.711 124.673 503.924 123.921C504.138 123.169 502.671 122.154 500.702 122.179C498.734 122.204 497.292 123.282 497.531 124.009Z" fill="#263238"/>
<path d="M507.259 114.336C507.259 114.336 500.226 117.744 491.087 113.183C485.082 110.188 478.099 108.722 476.557 109.925C475.015 111.128 474.689 117.318 468.746 119.122C468.746 119.122 469.148 130.9 464.446 130.487C459.745 130.073 462.679 111.83 462.679 111.83L474.187 106.216L486.724 103.848L498.546 105.515L507.698 108.021L507.259 114.336Z" fill="#263238"/>
<path d="M428.516 182.599C440.815 169.956 462.453 171.322 462.453 171.322L480.393 184.165L490.56 172.324C497.769 173.305 504.767 175.469 511.271 178.727L511.96 178.94V179.078C519.833 183.351 530.966 193.6 541.585 203.536L528.885 215.315L514.819 227.845C514.851 227.925 514.851 228.015 514.819 228.095C514.681 228.86 516.774 246.013 518.931 259.044C512.809 265.079 505.308 269.532 497.078 272.019C488.847 274.506 480.134 274.951 471.693 273.316C465.938 272.301 463.155 270.91 457.827 269.557C453.988 268.54 450.556 266.364 448.001 263.325C445.445 260.286 443.89 256.534 443.548 252.579V252.579C442.595 241.653 441.868 228.12 441.868 228.12" fill="url(#paint9_linear_5_7)"/>
<path d="M501.806 174.542C502.12 175.192 502.38 175.867 502.583 176.559C503.047 177.812 503.661 179.78 504.401 182.148C505.88 186.884 507.773 193.425 509.553 200.855C511.334 208.285 512.675 214.964 513.515 219.851C513.941 222.357 514.255 224.286 514.443 225.664C514.577 226.371 514.656 227.088 514.681 227.807C514.46 227.12 514.296 226.416 514.192 225.702C513.904 224.236 513.527 222.294 513.064 219.938C512.098 215.077 510.694 208.373 508.914 201.005C507.134 193.638 505.328 187.009 503.975 182.286L502.345 176.635C502.116 175.951 501.936 175.251 501.806 174.542V174.542Z" fill="#263238"/>
<path d="M513.352 219.713C513.239 219.575 518.605 215.014 525.337 209.538C532.069 204.063 537.61 199.727 537.723 199.865C537.836 200.003 532.483 204.564 525.751 210.04C519.019 215.515 513.477 219.851 513.352 219.713Z" fill="#263238"/>
<path opacity="0.2" d="M444.751 199.94L433.769 236.114L437.869 238.244L441.905 228.02C441.905 228.02 446.017 206.519 444.751 199.94Z" fill="black"/>
<g opacity="0.2">
<path d="M500.615 174.567C506.545 177.687 491.676 185.205 484.969 185.005L489.846 172.149C489.846 172.149 498.621 173.515 500.615 174.567Z" fill="black"/>
</g>
<path d="M460.685 172.149V162.563C460.685 162.563 479.403 167.388 480.08 178.577C480.08 178.577 482.462 166.197 492.115 165.608L493.481 183.012L482.198 192.786H470.878L461.864 185.005L460.685 172.926" fill="url(#paint10_linear_5_7)"/>
<path d="M484.304 232.28C484.24 231.597 484.24 230.909 484.304 230.225C484.304 228.897 484.304 226.98 484.367 224.612C484.367 219.888 484.229 213.335 483.64 206.155C483.051 198.976 482.098 192.485 481.308 187.824C480.907 185.581 480.569 183.727 480.318 182.311C480.155 181.641 480.055 180.957 480.017 180.268C480.252 180.917 480.436 181.583 480.569 182.261C480.894 183.514 481.308 185.418 481.76 187.749C482.92 193.819 483.756 199.946 484.267 206.105C484.774 212.264 484.949 218.446 484.793 224.624C484.731 226.993 484.643 228.91 484.53 230.238C484.503 230.923 484.428 231.606 484.304 232.28V232.28Z" fill="#263238"/>
<path d="M479.227 175.357C478.853 175.294 478.468 175.328 478.111 175.457C477.192 175.975 476.516 176.835 476.231 177.85C474.685 181.191 473.479 184.68 472.633 188.262L472.533 188.688L472.156 188.463C471.041 187.786 469.887 187.06 468.734 186.283C466.632 184.853 464.607 183.313 462.666 181.672C461.783 180.935 461.077 180.01 460.598 178.965C460.221 178.045 460.009 177.065 459.971 176.071C459.933 174.664 460.072 173.258 460.384 171.886C460.459 171.373 460.598 170.872 460.798 170.395C460.782 170.908 460.728 171.419 460.635 171.923C460.423 173.287 460.355 174.668 460.435 176.046C460.494 176.976 460.719 177.888 461.099 178.74C461.558 179.712 462.231 180.569 463.067 181.246C464.835 182.724 466.891 184.253 469.097 185.756C470.251 186.533 471.379 187.273 472.495 187.949L472.019 188.15C472.856 184.551 474.119 181.064 475.78 177.762C476.035 177.184 476.363 176.641 476.757 176.146C477.066 175.764 477.48 175.48 477.948 175.332C478.901 175.031 479.252 175.344 479.227 175.357Z" fill="#263238"/>
<path d="M492.115 165.608C492.229 166.097 492.287 166.597 492.29 167.099L492.591 171.184C492.729 172.901 492.942 174.943 493.293 177.186C493.595 178.39 493.671 179.638 493.519 180.87C493.044 182.161 492.165 183.264 491.012 184.015C489.546 184.924 488.17 185.969 486.9 187.135L486.398 187.699V186.947C486.171 183.674 485.225 180.491 483.627 177.625C482.437 175.482 481.459 174.392 481.534 174.329C481.609 174.267 481.835 174.555 482.274 175.068C482.903 175.807 483.473 176.595 483.979 177.424C485.722 180.304 486.765 183.553 487.025 186.909L486.473 186.721C487.761 185.506 489.168 184.423 490.673 183.489C491.692 182.82 492.473 181.846 492.905 180.707C493.036 179.559 492.968 178.398 492.704 177.274C492.391 175.006 492.228 172.938 492.14 171.209C492.052 169.48 492.04 168.077 492.052 167.112C492.009 166.61 492.03 166.105 492.115 165.608V165.608Z" fill="#263238"/>
<path d="M552.379 168.014C551.614 168.904 524.033 205.804 524.033 205.804L527.92 208.01L556.202 171.673L552.379 168.014Z" fill="#263238"/>
<path d="M441.642 197.134C441.642 197.134 470.639 238.858 472.395 239.673C475.83 241.289 515.496 207.032 519.282 203.749C519.808 203.048 520.886 201.582 523.043 198.662C523.043 198.662 526.177 184.353 529.512 185.443C532.846 186.533 527.681 192.723 529.863 198.161C532.044 203.599 541.998 190.643 542.399 189.465L544.969 186.107C544.969 186.107 547.665 193.738 547.477 196.933C546.888 207.145 537.222 219.287 537.222 219.287C537.222 219.287 493.807 273.04 464.07 274.707C455.508 275.183 440.251 250.9 430.108 232.681C427.146 227.361 426.234 221.142 427.544 215.196C428.853 209.251 432.294 203.989 437.217 200.404L441.642 197.134Z" fill="#FFBE9D"/>
<path d="M542.55 198.738C543.105 197.454 543.725 196.2 544.405 194.979C544.964 193.693 545.592 192.438 546.286 191.22C545.496 193.932 544.222 196.479 542.525 198.738H542.55Z" fill="#EB996E"/>
<path d="M436.74 176.772C436.74 176.772 405.612 187.836 428.754 240.149L464.685 218.472L459.57 206.243L436.74 176.772Z" fill="url(#paint11_linear_5_7)"/>
<path d="M434.358 177.687C435.621 177.57 436.894 177.676 438.119 178C439.554 178.372 440.926 178.95 442.194 179.717C443.869 180.76 445.396 182.024 446.732 183.476C450.126 187.265 452.971 191.513 455.182 196.094C457.814 201.181 460.272 206.982 462.792 213.059C463.544 214.889 464.296 216.68 464.998 218.384L465.111 218.66L464.848 218.798C454.455 224.462 445.403 229.762 439.009 233.734C435.8 235.713 433.255 237.342 431.487 238.47L429.482 239.723C429.252 239.882 429.009 240.021 428.754 240.137C428.954 239.943 429.172 239.771 429.406 239.623C429.845 239.297 430.497 238.821 431.362 238.232C433.067 236.979 435.587 235.35 438.759 233.32C445.102 229.248 454.129 223.86 464.534 218.184L464.384 218.585C463.682 216.881 462.929 215.089 462.177 213.26C459.67 207.183 457.163 201.394 454.655 196.319C452.487 191.788 449.712 187.573 446.406 183.789C445.114 182.35 443.639 181.086 442.018 180.03C440.778 179.253 439.437 178.65 438.032 178.238C436.825 177.951 435.596 177.766 434.358 177.687V177.687Z" fill="#263238"/>
<path d="M501.304 100.127C501.384 100.301 501.434 100.487 501.455 100.678C501.55 101.211 501.583 101.753 501.555 102.294C501.435 104.329 500.59 106.254 499.173 107.72C498.097 108.793 496.751 109.556 495.277 109.929C493.803 110.302 492.256 110.27 490.798 109.837C489.033 109.368 487.506 108.261 486.511 106.73C485.984 105.885 485.759 104.887 485.872 103.898C485.929 103.383 486.096 102.885 486.362 102.44C486.628 101.995 486.987 101.612 487.414 101.317C487.859 101.037 488.367 100.872 488.893 100.837C489.418 100.802 489.944 100.898 490.422 101.117C491.352 101.511 492.09 102.253 492.478 103.184C492.788 104.053 492.874 104.985 492.729 105.896C492.585 106.806 492.214 107.666 491.651 108.396C490.71 109.614 489.369 110.46 487.864 110.786C486.359 111.112 484.788 110.895 483.427 110.176C482.445 109.662 481.406 109.267 480.33 108.998C479.526 108.817 478.685 108.905 477.936 109.248C477.308 109.587 476.713 109.981 476.156 110.426C476.156 110.426 476.268 110.263 476.519 109.988C476.674 109.815 476.846 109.66 477.033 109.524C477.278 109.32 477.548 109.148 477.836 109.01C478.611 108.623 479.488 108.492 480.343 108.635C481.459 108.876 482.542 109.254 483.565 109.762C484.145 110.018 484.75 110.215 485.37 110.351C486.037 110.476 486.721 110.476 487.388 110.351C488.89 110.113 490.239 109.299 491.149 108.083C491.645 107.436 491.971 106.675 492.098 105.87C492.225 105.065 492.149 104.241 491.877 103.472C491.727 103.084 491.498 102.731 491.203 102.437C490.908 102.143 490.555 101.914 490.166 101.765C489.777 101.616 489.361 101.551 488.945 101.573C488.53 101.595 488.123 101.704 487.752 101.893C487.406 102.141 487.115 102.459 486.899 102.826C486.683 103.192 486.547 103.601 486.498 104.023C486.409 104.868 486.603 105.719 487.05 106.442C487.959 107.841 489.351 108.858 490.961 109.299C492.321 109.715 493.768 109.762 495.152 109.434C496.535 109.105 497.807 108.414 498.834 107.432C500.213 106.059 501.077 104.254 501.279 102.319C501.332 101.59 501.341 100.857 501.304 100.127V100.127Z" fill="url(#paint12_linear_5_7)"/>
<path d="M494.522 147.377C494.522 147.452 494.146 147.628 493.456 147.653C492.553 147.665 491.659 147.46 490.852 147.054C490.045 146.648 489.347 146.054 488.818 145.322C488.442 144.746 488.329 144.332 488.404 144.295C489.229 145.128 490.151 145.86 491.149 146.475C492.233 146.91 493.366 147.213 494.522 147.377V147.377Z" fill="#263238"/>
<path d="M461.651 141.902C461.713 141.902 462.064 142.453 461.651 143.317C461.52 143.562 461.342 143.777 461.126 143.951C460.911 144.126 460.663 144.255 460.397 144.332C460.056 144.409 459.701 144.402 459.363 144.313C459.024 144.223 458.713 144.054 458.454 143.819C458.171 143.588 457.946 143.295 457.795 142.962C457.645 142.629 457.575 142.266 457.589 141.902C457.61 141.351 457.813 140.822 458.165 140.398C458.767 139.696 459.419 139.621 459.419 139.696C459.419 139.771 458.968 140.01 458.567 140.674C458.31 141.059 458.199 141.523 458.254 141.982C458.309 142.442 458.527 142.866 458.868 143.18C459.052 143.347 459.271 143.471 459.51 143.543C459.749 143.614 460 143.632 460.247 143.593C460.66 143.5 461.026 143.26 461.275 142.917C461.676 142.403 461.55 141.902 461.651 141.902Z" fill="#263238"/>
<path d="M503.373 104.312C503.785 105.009 503.994 105.808 503.975 106.617C504.073 108.596 503.403 110.537 502.104 112.033C500.806 113.53 498.978 114.467 497.004 114.649C496.204 114.786 495.382 114.69 494.635 114.373C494.635 114.26 495.55 114.373 496.941 114.185C498.748 113.908 500.398 113.001 501.6 111.625C502.802 110.25 503.479 108.493 503.511 106.667C503.548 105.239 503.26 104.374 503.373 104.312Z" fill="url(#paint13_linear_5_7)"/>
<path d="M460.974 209.188C461.049 209.35 452.787 213.598 442.507 218.673C432.227 223.747 423.84 227.744 423.702 227.582C423.564 227.419 431.876 223.171 442.156 218.084C452.436 212.997 460.899 209.025 460.974 209.188Z" fill="#E0E0E0"/>
<path d="M453.439 194.979C453.527 195.129 446.168 199.251 437.004 204.163C427.839 209.075 420.342 212.934 420.267 212.771C420.192 212.608 427.538 208.498 436.703 203.587C445.867 198.675 453.351 194.816 453.439 194.979Z" fill="#E0E0E0"/>
<path d="M446.155 183.489C444.985 184.299 443.757 185.023 442.482 185.656L433.481 190.668L424.53 195.78C423.326 196.546 422.069 197.224 420.769 197.81C421.876 196.905 423.059 196.096 424.304 195.392C426.535 193.976 429.657 192.097 433.167 190.104C436.678 188.112 439.912 186.433 442.282 185.255C443.52 184.557 444.816 183.966 446.155 183.489V183.489Z" fill="#E0E0E0"/>
<path d="M473.698 180.744C472.85 180.705 472.021 180.483 471.266 180.093C469.429 179.27 467.736 178.157 466.252 176.798C464.764 175.44 463.396 173.956 462.165 172.362C461.602 171.748 461.126 171.061 460.748 170.32C460.823 170.32 461.475 170.934 462.516 172.074C463.556 173.214 464.96 174.768 466.69 176.309C468.148 177.632 469.77 178.76 471.517 179.667C472.808 180.381 473.724 180.669 473.698 180.744Z" fill="#E0E0E0"/>
<path d="M491.977 173.978C491.563 175.489 490.648 176.814 489.382 177.737C488.259 178.833 486.794 179.51 485.232 179.654C486.531 178.922 487.787 178.114 488.993 177.236C490.042 176.201 491.037 175.113 491.977 173.978V173.978Z" fill="#E0E0E0"/>
<path d="M524.585 192.836C524.357 192.906 524.121 192.948 523.883 192.961L521.864 193.212C520.109 193.412 517.564 193.65 514.43 193.901C508.162 194.402 499.386 194.891 489.821 195.242C480.255 195.592 471.492 195.705 465.173 195.655C462.027 195.655 459.469 195.567 457.714 195.505L455.683 195.405C455.446 195.405 455.211 195.375 454.981 195.317C455.214 195.287 455.45 195.287 455.683 195.317H457.714L465.173 195.254C471.442 195.192 480.218 194.991 489.796 194.653C499.374 194.314 508.099 193.876 514.393 193.5L521.839 193.024L523.87 192.899C524.104 192.845 524.345 192.824 524.585 192.836V192.836Z" fill="#E0E0E0"/>
<path d="M514.681 207.696C514.004 207.851 513.317 207.96 512.625 208.022C511.283 208.185 509.353 208.386 506.971 208.611C502.194 209.05 495.587 209.501 488.279 209.801C480.97 210.102 474.338 210.165 469.474 210.115C467.079 210.115 465.136 210.04 463.794 209.989C463.097 209.995 462.401 209.94 461.713 209.827C462.404 209.744 463.099 209.71 463.794 209.726L469.474 209.651C474.263 209.651 480.882 209.438 488.178 209.15C495.475 208.862 502.094 208.473 506.87 208.148L512.537 207.759C513.248 207.671 513.966 207.65 514.681 207.696V207.696Z" fill="#E0E0E0"/>
<path d="M492.203 226.015C490.839 226.33 489.45 226.527 488.053 226.604C485.47 226.867 481.91 227.155 477.961 227.356C474.012 227.556 470.439 227.619 467.844 227.607C466.446 227.672 465.045 227.618 463.657 227.444C465.038 227.233 466.434 227.132 467.831 227.143L477.923 226.704L487.953 226.141C489.365 226.002 490.785 225.96 492.203 226.015V226.015Z" fill="#E0E0E0"/>
<path d="M463.481 182.536C463.481 182.724 459.632 182.762 454.893 182.962C450.155 183.163 446.331 183.426 446.306 183.238C451.974 182.237 457.75 182 463.481 182.536V182.536Z" fill="#E0E0E0"/>
<path d="M516.361 181.86C512.658 182.164 508.941 182.256 505.228 182.135C501.509 182.233 497.788 182.112 494.083 181.772C497.789 181.459 501.511 181.363 505.228 181.484C508.943 181.385 512.661 181.511 516.361 181.86V181.86Z" fill="#E0E0E0"/>
<path d="M518.291 258.105C517.939 258.367 517.556 258.586 517.151 258.756C516.398 259.144 515.283 259.658 513.891 260.247C510.235 261.752 506.461 262.955 502.608 263.843C498.757 264.721 494.841 265.287 490.899 265.535C489.394 265.622 488.166 265.648 487.313 265.622C486.893 265.642 486.473 265.613 486.06 265.535C486.06 265.435 487.915 265.359 490.911 265.071C494.813 264.696 498.686 264.073 502.508 263.204C506.34 262.325 510.11 261.19 513.791 259.809C516.511 258.756 518.254 258.004 518.291 258.105Z" fill="#E0E0E0"/>
<path d="M179.638 428.65C209.611 428.65 233.909 405.481 233.909 376.901C233.909 348.321 209.611 325.152 179.638 325.152C149.665 325.152 125.367 348.321 125.367 376.901C125.367 405.481 149.665 428.65 179.638 428.65Z" fill="#E0E0E0"/>
<path d="M168.581 252.165C159.981 252.616 156.596 261.588 155.568 263.593C154.685 265.671 154.216 267.901 154.189 270.158C154.162 272.419 153.595 274.64 152.534 276.636C150.641 279.656 146.654 281.222 145.576 284.618C144.322 288.465 147.494 292.574 146.654 296.521C146.203 298.639 144.661 300.381 144.147 302.473C143.672 304.71 144.091 307.043 145.313 308.976C148.133 313.838 154.001 316.269 159.617 316.494C165.233 316.72 170.725 315.016 176.103 313.362" fill="#263238"/>
<path d="M206.467 263.292C206.136 264.242 206.079 265.265 206.3 266.246C206.522 267.227 207.014 268.127 207.72 268.843C209.164 270.227 210.725 271.484 212.384 272.602C213.213 273.173 213.921 273.901 214.467 274.747C215.014 275.592 215.388 276.536 215.568 277.526C215.731 279.355 214.803 281.185 215.054 283.002C215.706 287.7 223.191 289.104 223.579 293.815C223.855 296.96 220.62 299.854 221.523 302.874C222.011 304.007 222.644 305.072 223.404 306.044C225.535 309.578 224.093 314.439 221.009 317.171C217.925 319.902 213.663 320.867 209.551 321.055C206.09 321.205 202.154 320.642 200.123 317.847C198.255 315.279 198.644 311.795 199.007 308.65C200.75 293.965 200.449 279.13 200.161 264.344" fill="#263238"/>
<path d="M170.85 331.242C170.913 323.523 170.85 315.404 170.85 315.404C170.85 315.404 160.933 313.637 159.015 300.656C157.197 288.264 160.269 261.625 160.269 261.625C174.648 255.949 190.846 258.142 200.913 269.707L199.333 332.357C199.158 339.624 192.751 345.263 184.966 345.012C177.106 344.749 170.787 338.622 170.85 331.242Z" fill="#FFBE9D"/>
<path d="M162.977 282.074C162.966 282.508 163.126 282.929 163.421 283.247C163.716 283.565 164.123 283.756 164.556 283.778C164.768 283.797 164.982 283.774 165.185 283.709C165.387 283.645 165.575 283.541 165.737 283.404C165.899 283.266 166.033 283.098 166.129 282.908C166.225 282.719 166.283 282.512 166.299 282.3C166.306 281.865 166.144 281.444 165.847 281.127C165.55 280.809 165.141 280.618 164.707 280.596C164.496 280.577 164.283 280.6 164.081 280.665C163.879 280.729 163.692 280.834 163.531 280.971C163.37 281.109 163.238 281.278 163.142 281.467C163.047 281.656 162.991 281.863 162.977 282.074V282.074Z" fill="#263238"/>
<path d="M160.307 280.796C160.507 281.009 161.773 280.095 163.566 280.12C166.938 280.608 166.876 281.122 166.851 280.834C166.951 280.746 166.75 280.345 166.174 279.932C165.411 279.382 164.494 279.084 163.554 279.08C162.62 279.07 161.708 279.355 160.946 279.894C160.394 280.308 160.206 280.696 160.307 280.796Z" fill="#263238"/>
<path d="M181.305 282.613C181.295 283.046 181.455 283.465 181.75 283.781C182.045 284.097 182.453 284.285 182.885 284.305C183.097 284.325 183.31 284.303 183.513 284.239C183.716 284.175 183.903 284.071 184.065 283.933C184.226 283.795 184.358 283.626 184.453 283.436C184.548 283.246 184.603 283.038 184.615 282.826C184.626 282.392 184.466 281.972 184.171 281.654C183.876 281.335 183.469 281.145 183.036 281.122C182.824 281.105 182.611 281.13 182.409 281.196C182.206 281.262 182.02 281.367 181.859 281.506C181.698 281.645 181.566 281.814 181.471 282.004C181.376 282.194 181.32 282.401 181.305 282.613V282.613Z" fill="#263238"/>
<path d="M178.974 281.41C179.174 281.636 180.453 280.709 182.233 280.734C184.013 280.759 185.33 281.673 185.53 281.46C185.731 281.247 185.417 280.972 184.853 280.546C184.086 279.997 183.165 279.703 182.221 279.706C181.288 279.69 180.375 279.971 179.613 280.508C179.061 280.984 178.873 281.31 178.974 281.41Z" fill="#263238"/>
<path d="M172.317 294.253C171.382 293.934 170.407 293.745 169.421 293.69C168.969 293.69 168.531 293.539 168.455 293.226C168.429 292.753 168.542 292.282 168.781 291.873L170.173 288.414C171.455 285.476 172.507 282.443 173.32 279.343C173.119 279.268 171.389 283.215 169.446 288.114C168.982 289.367 168.543 290.494 168.117 291.597C167.818 292.144 167.724 292.779 167.854 293.389C167.917 293.553 168.018 293.7 168.149 293.817C168.279 293.935 168.436 294.02 168.606 294.066C168.853 294.142 169.111 294.18 169.371 294.178C170.346 294.327 171.335 294.352 172.317 294.253Z" fill="#263238"/>
<path d="M170.837 315.404C176.944 315.569 182.976 314.038 188.263 310.981C188.263 310.981 183.951 319.84 170.975 318.499L170.837 315.404Z" fill="#EB996E"/>
<path d="M173.006 298.526C173.353 298.102 173.802 297.773 174.31 297.57C174.819 297.366 175.371 297.294 175.915 297.361C176.328 297.397 176.729 297.519 177.092 297.72C177.455 297.921 177.771 298.195 178.021 298.526C178.256 298.829 178.393 299.197 178.413 299.58C178.433 299.963 178.336 300.343 178.134 300.669C177.84 300.984 177.459 301.205 177.04 301.305C176.621 301.406 176.182 301.38 175.777 301.233C174.936 300.924 174.164 300.451 173.508 299.842C173.309 299.694 173.139 299.511 173.006 299.303C172.939 299.205 172.904 299.089 172.904 298.971C172.904 298.853 172.939 298.737 173.006 298.639" fill="#EB996E"/>
<path d="M177.582 295.544C177.281 295.544 177.256 297.474 175.576 298.827C173.896 300.18 171.815 299.955 171.815 300.218C171.815 300.481 172.279 300.606 173.144 300.631C174.286 300.671 175.403 300.297 176.291 299.579C177.139 298.897 177.692 297.914 177.833 296.835C177.921 296.02 177.707 295.532 177.582 295.544Z" fill="#263238"/>
<path d="M195.271 260.46C190.532 267.226 177.958 274.18 168.944 275.797C169.985 274.419 175.514 271.01 176.567 269.632C172.492 272.664 166.65 276.749 161.247 277.012C160.609 277.106 159.958 277.005 159.379 276.724C159.075 276.482 158.833 276.172 158.67 275.82C158.506 275.468 158.427 275.082 158.439 274.694C158.131 270.775 158.257 266.833 158.815 262.941C159.243 259.652 160.917 256.652 163.491 254.559C166.964 251.877 171.915 251.226 176.592 251.113C180.505 250.859 184.431 251.387 188.138 252.666C191.723 254.07 194.795 256.864 195.321 260.184" fill="#263238"/>
<path d="M208.886 290.77C209.48 287.908 209.899 285.012 210.14 282.099C210.528 275.408 208.598 250.774 185.518 252.704L184.578 259.733C184.578 259.733 181.017 283.778 195.948 283.954C196.952 289.323 199.577 294.255 203.47 298.088C203.47 298.088 207.382 297.975 208.786 290.77" fill="#263238"/>
<path d="M195.986 283.954C197.38 283.68 198.823 283.788 200.161 284.267C201.5 284.772 202.586 285.785 203.182 287.086C203.702 288.416 203.702 289.892 203.182 291.221C202.645 292.537 201.823 293.719 200.775 294.679C200.084 295.421 199.224 295.984 198.268 296.321C197.785 296.487 197.269 296.531 196.766 296.448C196.262 296.364 195.787 296.157 195.384 295.845" fill="#FFBE9D"/>
<path d="M196.65 292.374C196.487 292.374 197.089 293.264 198.355 292.938C198.696 292.83 199.012 292.655 199.283 292.422C199.555 292.19 199.776 291.905 199.935 291.585C200.327 290.881 200.575 290.105 200.662 289.304C200.782 288.428 200.582 287.538 200.098 286.798C199.902 286.489 199.637 286.229 199.324 286.04C199.011 285.851 198.658 285.737 198.293 285.708C197.039 285.708 196.575 286.56 196.713 286.585C196.851 286.61 197.327 286.234 198.18 286.447C198.701 286.65 199.132 287.034 199.392 287.529C199.653 288.024 199.725 288.597 199.596 289.141C199.434 290.57 198.869 291.873 198.105 292.186C197.34 292.499 196.738 292.261 196.65 292.374Z" fill="#EB996E"/>
<path d="M198.506 257.929C200.295 258.944 202.411 259.218 204.4 258.694C206.389 258.169 208.094 256.887 209.149 255.122C209.88 254.015 210.141 252.663 209.877 251.363C209.58 250.514 209.067 249.758 208.387 249.169C207.708 248.579 206.886 248.178 206.003 248.005C204.741 247.676 203.417 247.663 202.149 247.967C200.881 248.27 199.707 248.882 198.731 249.747C197.777 250.64 197.095 251.784 196.762 253.047C196.429 254.311 196.46 255.642 196.851 256.889C197.294 258.114 198.108 259.171 199.18 259.912C200.252 260.653 201.528 261.042 202.831 261.024" fill="#263238"/>
<path d="M200.587 295.319C199.266 296.195 198.061 297.235 197.001 298.413C195.941 299.612 195.388 301.175 195.459 302.774C195.654 303.637 195.75 304.52 195.748 305.405C195.366 306.564 194.747 307.631 193.93 308.538C193.173 309.924 192.877 311.517 193.087 313.082C193.297 314.648 194 316.107 195.096 317.246C197.372 319.482 200.442 320.726 203.633 320.704C205.469 320.861 207.307 320.422 208.874 319.451C211.03 317.948 211.857 315.116 211.92 312.472" fill="#263238"/>
<path d="M202.166 263.104C201.847 263.958 201.39 264.754 200.813 265.46C199.538 267.26 198.043 268.893 196.362 270.321C194.694 271.765 192.854 272.998 190.883 273.992C190.104 274.45 189.258 274.783 188.376 274.982C191.04 273.468 193.58 271.746 195.973 269.833C198.21 267.755 200.281 265.505 202.166 263.104V263.104Z" fill="url(#paint14_linear_5_7)"/>
<path d="M204.561 262.966C204.597 264.038 204.457 265.109 204.147 266.136C203.529 268.645 202.54 271.048 201.214 273.266C199.878 275.477 198.217 277.475 196.287 279.192C195.523 279.946 194.642 280.572 193.679 281.047C196.359 278.668 198.704 275.937 200.65 272.927C202.404 269.802 203.72 266.45 204.561 262.966V262.966Z" fill="url(#paint15_linear_5_7)"/>
<path d="M154.452 273.466C154.64 273.466 154.891 275.621 155.706 278.19C156.52 280.759 157.385 282.726 157.21 282.814C155.27 280.094 154.299 276.803 154.452 273.466V273.466Z" fill="url(#paint16_linear_5_7)"/>
<path d="M209.751 317.747C210.319 318.12 210.978 318.332 211.657 318.361C212.446 318.351 213.213 318.106 213.863 317.659C214.697 317.046 215.287 316.159 215.531 315.153C215.831 313.918 215.831 312.629 215.531 311.394C215.267 310.029 214.741 308.625 214.277 307.084C213.709 305.478 213.516 303.764 213.713 302.072C214.001 300.243 215.192 298.752 215.769 297.06C216.041 296.253 216.15 295.399 216.087 294.549C216.025 293.699 215.793 292.87 215.405 292.111C214.692 290.672 213.467 289.55 211.97 288.966C211.235 288.691 210.515 288.378 209.814 288.026C209.114 287.681 208.52 287.153 208.096 286.497C207.474 285.28 207.205 283.913 207.319 282.55C207.403 281.488 207.361 280.42 207.194 279.368C207.056 278.585 206.733 277.846 206.253 277.213C205.821 276.684 205.226 276.314 204.561 276.16C204.742 276.116 204.931 276.116 205.113 276.16C205.633 276.295 206.1 276.583 206.454 276.987C206.986 277.642 207.363 278.409 207.557 279.23C207.771 280.306 207.847 281.405 207.783 282.5C207.695 283.765 207.964 285.028 208.56 286.147C209.262 287.299 210.717 287.775 212.196 288.364C213.833 288.989 215.175 290.205 215.957 291.773C216.387 292.607 216.646 293.519 216.719 294.455C216.792 295.391 216.678 296.332 216.383 297.223C215.731 299.015 214.578 300.443 214.327 302.085C214.136 303.694 214.312 305.326 214.841 306.859C215.28 308.362 215.794 309.803 216.095 311.219C216.375 312.546 216.336 313.92 215.982 315.229C215.684 316.329 215.004 317.289 214.064 317.935C213.347 318.403 212.5 318.632 211.644 318.587C211.108 318.563 210.588 318.394 210.14 318.098C209.987 318.01 209.855 317.89 209.751 317.747V317.747Z" fill="url(#paint17_linear_5_7)"/>
<path d="M200.7 316.858C200.7 316.858 200.863 317.258 201.464 317.547C201.886 317.722 202.354 317.751 202.794 317.631C203.235 317.511 203.622 317.247 203.897 316.883C204.22 316.272 204.372 315.584 204.337 314.894C204.301 314.204 204.08 313.536 203.696 312.961C202.981 311.545 201.565 310.154 201.189 308.087C201.086 307.583 201.095 307.063 201.214 306.563C201.333 306.063 201.56 305.595 201.878 305.192C202.492 304.44 203.22 303.939 203.683 303.325C204.486 302.153 204.801 300.715 204.561 299.316C204.406 298.349 204.167 297.397 203.846 296.471C203.7 296.135 203.599 295.781 203.546 295.419C203.546 295.419 203.784 295.745 204.072 296.384C204.51 297.295 204.826 298.259 205.012 299.253C205.173 300.009 205.181 300.789 205.037 301.549C204.893 302.308 204.599 303.031 204.172 303.676C203.633 304.403 202.919 304.929 202.392 305.593C202.129 305.927 201.942 306.314 201.844 306.727C201.747 307.141 201.741 307.57 201.828 307.986C202.129 309.778 203.458 311.144 204.223 312.685C204.635 313.358 204.853 314.132 204.853 314.922C204.853 315.711 204.635 316.485 204.223 317.158C204.032 317.406 203.792 317.61 203.518 317.759C203.244 317.908 202.941 317.998 202.63 318.023C202.172 318.077 201.708 317.99 201.301 317.772C200.675 317.321 200.675 316.845 200.7 316.858Z" fill="url(#paint18_linear_5_7)"/>
<path d="M151.556 313.562C151.172 313.269 150.826 312.928 150.528 312.547C149.633 311.569 148.897 310.457 148.347 309.252C147.975 308.39 147.796 307.458 147.82 306.52C147.826 305.409 148.215 304.333 148.923 303.476C149.701 302.586 150.829 302.11 151.506 301.27C151.834 300.809 152.051 300.279 152.14 299.72C152.229 299.162 152.188 298.59 152.02 298.05C151.714 296.891 151.254 295.779 150.653 294.742C150.065 293.716 149.642 292.604 149.4 291.447C149.196 290.351 149.426 289.22 150.039 288.289C150.586 287.546 151.227 286.877 151.945 286.297C152.982 285.546 153.736 284.47 154.088 283.24C154.173 282.784 154.173 282.317 154.088 281.861C154.088 281.861 154.189 281.962 154.276 282.187C154.402 282.536 154.441 282.91 154.389 283.277C154.118 284.609 153.38 285.8 152.308 286.635C151.647 287.213 151.054 287.865 150.54 288.577C150.021 289.401 149.841 290.393 150.039 291.347C150.297 292.436 150.72 293.48 151.293 294.441C151.926 295.525 152.41 296.688 152.734 297.9C152.92 298.534 152.957 299.203 152.844 299.855C152.731 300.506 152.471 301.123 152.082 301.659C151.23 302.661 150.102 303.1 149.45 303.864C148.815 304.606 148.456 305.544 148.434 306.52C148.396 307.375 148.537 308.229 148.848 309.026C149.34 310.216 149.999 311.329 150.804 312.334C151.094 312.718 151.345 313.129 151.556 313.562Z" fill="url(#paint19_linear_5_7)"/>
<path d="M203.834 259.558C202.938 258.343 201.912 257.23 200.775 256.238C199.512 255.416 198.162 254.735 196.751 254.208C198.347 254.233 199.893 254.765 201.166 255.727C202.44 256.689 203.374 258.03 203.834 259.558V259.558Z" fill="url(#paint20_linear_5_7)"/>
<path d="M205.602 247.567C205.677 247.567 206.09 248.018 206.429 248.983C206.862 250.266 206.902 251.65 206.542 252.956C206.182 254.263 205.44 255.432 204.411 256.313C203.608 256.977 203.006 257.177 202.969 257.115C202.931 257.052 203.433 256.689 204.085 255.987C204.952 255.091 205.582 253.992 205.915 252.79C206.248 251.588 206.273 250.322 205.99 249.108C205.816 248.606 205.686 248.091 205.602 247.567V247.567Z" fill="url(#paint21_linear_5_7)"/>
<path opacity="0.3" d="M141.978 401.698C141.978 401.698 173.132 431.269 191.648 425.906C210.165 420.543 215.631 406.672 215.631 406.672L216.082 401.66L214.227 400.407L142.918 394.719L141.978 401.698Z" fill="black"/>
<path d="M123.562 374.007L129.567 358.67L151.092 372.19L131.911 401.748C131.911 401.748 124.113 391.574 123.562 374.007Z" fill="#EB996E"/>
<path d="M147.845 331.48C157.874 326.242 170.837 324.739 170.837 324.739C174.598 332.257 186.471 333.222 193.654 328.084L199.722 323.987C200.559 323.975 201.396 324.012 202.229 324.1C209.149 324.749 215.676 327.609 220.842 332.256C226.009 336.903 229.54 343.089 230.913 349.899C232.11 355.242 232.619 360.716 232.43 366.188C231.64 379.883 217.461 381.124 217.461 381.124C217.461 381.124 216.734 394.644 215.769 405.582C215.561 409.393 214.289 413.069 212.098 416.193C209.906 419.318 206.883 421.767 203.37 423.262C198.404 425.744 193.063 427.391 187.561 428.136C178.972 429.48 170.185 428.697 161.969 425.857C153.753 423.017 146.359 418.207 140.436 411.847C142.592 398.816 144.648 381.938 144.498 381.174C144.473 381.092 144.473 381.005 144.498 380.923L130.444 368.456L122.471 361.765C122.471 361.765 140.022 335.828 147.82 331.568" fill="url(#paint22_linear_5_7)"/>
<path d="M165.271 339.875C164.211 339.273 163.018 338.941 161.798 338.91C160.495 338.907 159.23 339.349 158.213 340.163C157.635 340.694 157.098 341.268 156.608 341.88C156.049 342.629 155.247 343.16 154.339 343.383C153.4 343.502 152.451 343.25 151.694 342.682C150.967 342.218 150.352 341.717 149.713 341.354C149.163 341.03 148.548 340.834 147.913 340.777C147.278 340.721 146.638 340.806 146.04 341.028C145.202 341.313 144.46 341.825 143.896 342.506C143.507 342.995 143.369 343.321 143.307 343.296C143.354 342.955 143.488 342.631 143.695 342.356C144.221 341.557 144.984 340.944 145.877 340.602C146.537 340.319 147.254 340.193 147.972 340.232C148.689 340.271 149.388 340.475 150.014 340.827C150.716 341.203 151.343 341.717 152.032 342.143C152.66 342.616 153.445 342.831 154.226 342.744C154.986 342.549 155.661 342.109 156.144 341.491C156.653 340.856 157.22 340.268 157.837 339.737C158.968 338.865 160.371 338.421 161.798 338.484C162.742 338.517 163.662 338.78 164.481 339.249C165.058 339.599 165.296 339.875 165.271 339.875Z" fill="#FAFAFA"/>
<path d="M179.55 358.67C178.74 357.756 177.715 357.058 176.567 356.64C175.348 356.223 174.025 356.223 172.806 356.64C172.095 356.964 171.408 357.337 170.75 357.755C169.978 358.283 169.049 358.531 168.117 358.457C167.188 358.268 166.369 357.724 165.835 356.941C165.296 356.277 164.87 355.6 164.381 355.049C163.963 354.568 163.444 354.186 162.861 353.931C162.278 353.675 161.645 353.552 161.009 353.57C160.124 353.579 159.258 353.826 158.501 354.285C157.975 354.623 157.737 354.886 157.686 354.848C157.636 354.811 157.849 354.498 158.363 354.072C159.322 353.351 160.514 353.012 161.709 353.118C162.903 353.225 164.016 353.77 164.832 354.648C165.371 355.237 165.81 355.901 166.324 356.54C166.776 357.174 167.445 357.62 168.205 357.793C168.995 357.835 169.778 357.619 170.436 357.179C171.123 356.737 171.849 356.359 172.605 356.051C173.961 355.588 175.438 355.628 176.767 356.164C177.656 356.489 178.449 357.032 179.074 357.743C179.45 358.257 179.575 358.595 179.55 358.67Z" fill="#FAFAFA"/>
<path d="M211.281 331.229C210.116 330.868 208.882 330.795 207.683 331.016C206.406 331.288 205.261 331.986 204.436 332.996C203.991 333.635 203.593 334.305 203.245 335.001C202.852 335.854 202.18 336.549 201.339 336.968C200.443 337.267 199.467 337.218 198.606 336.83C197.804 336.53 197.089 336.166 196.387 335.941C195.78 335.744 195.136 335.685 194.503 335.767C193.87 335.85 193.263 336.072 192.726 336.417C191.974 336.876 191.359 337.53 190.946 338.309C190.67 338.86 190.595 339.224 190.545 339.211C190.495 339.198 190.545 338.835 190.721 338.196C191.175 337.086 192.024 336.183 193.106 335.662C194.187 335.141 195.423 335.04 196.575 335.377C197.34 335.602 198.067 335.953 198.819 336.229C199.531 336.562 200.344 336.607 201.088 336.354C201.793 335.992 202.358 335.406 202.693 334.688C203.048 333.962 203.468 333.271 203.947 332.62C204.874 331.529 206.157 330.802 207.57 330.565C208.499 330.392 209.456 330.457 210.353 330.753C210.698 330.83 211.018 330.994 211.281 331.229V331.229Z" fill="#FAFAFA"/>
<path d="M196.638 351.779C196.014 351.088 195.249 350.541 194.394 350.175C193.471 349.815 192.453 349.785 191.51 350.087C190.951 350.302 190.41 350.561 189.893 350.864C189.264 351.253 188.521 351.416 187.787 351.327C187.062 351.151 186.434 350.702 186.032 350.074C185.643 349.536 185.342 348.997 184.991 348.558C184.694 348.176 184.314 347.864 183.88 347.647C183.446 347.431 182.969 347.314 182.484 347.305C181.557 347.311 180.653 347.594 179.889 348.12C179.889 348.12 180.014 347.844 180.415 347.531C181.181 346.996 182.119 346.765 183.046 346.883C183.973 347.001 184.823 347.46 185.43 348.17C185.831 348.646 186.157 349.185 186.521 349.673C186.831 350.176 187.319 350.543 187.887 350.701C189.041 350.901 190.094 349.861 191.297 349.523C192.373 349.21 193.526 349.295 194.544 349.761C196.312 350.551 196.713 351.804 196.638 351.779Z" fill="#FAFAFA"/>
<path d="M164.356 369.095C163.726 368.407 162.957 367.86 162.099 367.491C161.172 367.144 160.154 367.127 159.216 367.441C158.658 367.658 158.117 367.918 157.599 368.218C156.962 368.623 156.203 368.791 155.455 368.694C154.735 368.514 154.112 368.065 153.712 367.441C153.311 366.902 153.01 366.363 152.672 365.937C152.372 365.557 151.992 365.247 151.558 365.03C151.125 364.814 150.649 364.695 150.164 364.684C149.236 364.683 148.33 364.968 147.569 365.499C147.569 365.499 147.682 365.223 148.096 364.91C148.696 364.469 149.42 364.228 150.164 364.221C150.728 364.199 151.29 364.308 151.805 364.538C152.32 364.768 152.776 365.114 153.136 365.549C153.537 366.025 153.85 366.564 154.226 367.053C154.53 367.555 155.014 367.922 155.58 368.08C156.734 368.281 157.799 367.241 159.003 366.902C160.074 366.589 161.223 366.673 162.237 367.14C164.017 367.867 164.419 369.12 164.356 369.095Z" fill="#FAFAFA"/>
<path d="M194.532 369.496C193.724 369.027 192.818 368.753 191.886 368.694C190.897 368.658 189.925 368.958 189.128 369.546C188.677 369.929 188.258 370.348 187.875 370.799C187.404 371.368 186.754 371.761 186.032 371.914C185.284 371.969 184.544 371.736 183.963 371.263C183.412 370.887 182.96 370.473 182.484 370.173C182.078 369.911 181.618 369.743 181.139 369.68C180.66 369.618 180.173 369.662 179.713 369.809C178.837 370.118 178.073 370.68 177.519 371.426C177.519 371.426 177.519 371.125 177.833 370.686C178.263 370.078 178.872 369.618 179.575 369.371C180.101 369.168 180.667 369.089 181.228 369.141C181.789 369.193 182.331 369.375 182.81 369.671C183.336 369.985 183.813 370.398 184.327 370.736C184.778 371.114 185.357 371.302 185.944 371.263C187.097 371.087 187.762 369.759 188.79 369.045C189.707 368.405 190.823 368.111 191.937 368.218C192.437 368.222 192.931 368.34 193.38 368.561C193.829 368.782 194.223 369.102 194.532 369.496V369.496Z" fill="#FAFAFA"/>
<path d="M184.565 383.254C183.75 382.801 182.849 382.528 181.92 382.452C180.927 382.417 179.951 382.717 179.149 383.304C178.701 383.69 178.282 384.109 177.895 384.557C177.426 385.127 176.776 385.521 176.053 385.672C175.307 385.725 174.569 385.497 173.984 385.033C173.432 384.645 172.981 384.231 172.505 383.943C172.1 383.677 171.642 383.505 171.162 383.44C170.683 383.375 170.195 383.419 169.734 383.567C168.856 383.871 168.09 384.434 167.54 385.183C167.568 384.913 167.673 384.657 167.841 384.444C168.395 383.674 169.219 383.141 170.149 382.953C171.079 382.765 172.046 382.935 172.856 383.429C173.395 383.742 173.871 384.156 174.385 384.494C174.836 384.871 175.416 385.06 176.002 385.021C177.156 384.845 177.82 383.517 178.848 382.803C179.768 382.167 180.881 381.874 181.995 381.976C182.491 381.987 182.979 382.107 183.423 382.328C183.867 382.549 184.257 382.865 184.565 383.254V383.254Z" fill="#FAFAFA"/>
<path d="M163.516 417.411C162.875 416.73 162.097 416.192 161.234 415.832C160.301 415.503 159.284 415.503 158.351 415.832C157.795 416.061 157.259 416.333 156.746 416.646C156.124 417.04 155.384 417.209 154.652 417.122C153.923 416.95 153.289 416.501 152.885 415.869C152.484 415.343 152.17 414.804 151.819 414.378C151.518 413.999 151.137 413.691 150.704 413.474C150.271 413.258 149.796 413.139 149.312 413.125C148.382 413.138 147.479 413.44 146.729 413.99C146.729 413.99 146.842 413.702 147.243 413.376C147.845 412.936 148.567 412.691 149.312 412.674C149.872 412.641 150.432 412.737 150.949 412.955C151.466 413.172 151.927 413.504 152.296 413.927C152.697 414.403 153.023 414.942 153.399 415.418C153.714 415.916 154.207 416.275 154.778 416.421C155.931 416.609 156.972 415.556 158.175 415.168C159.247 414.845 160.399 414.916 161.422 415.368C163.152 416.183 163.579 417.423 163.516 417.411Z" fill="#FAFAFA"/>
<path d="M188.151 424.678C187.353 424.209 186.463 423.919 185.543 423.826C184.554 423.778 183.578 424.065 182.772 424.64C182.321 425.023 181.902 425.442 181.519 425.893C181.04 426.452 180.386 426.832 179.663 426.971C178.918 427.024 178.18 426.786 177.607 426.307C177.056 425.918 176.604 425.492 176.14 425.192C175.737 424.924 175.28 424.748 174.801 424.676C174.322 424.605 173.834 424.64 173.37 424.778C172.491 425.076 171.723 425.63 171.163 426.369C171.163 426.369 171.163 426.069 171.477 425.643C171.921 425.057 172.533 424.62 173.232 424.39C173.763 424.202 174.329 424.137 174.889 424.198C175.449 424.258 175.988 424.444 176.466 424.741C176.993 425.066 177.469 425.48 177.971 425.831C178.422 426.209 178.999 426.406 179.588 426.382C180.741 426.207 181.431 424.903 182.459 424.202C183.387 423.578 184.505 423.299 185.618 423.412C186.107 423.427 186.586 423.548 187.024 423.767C187.461 423.985 187.845 424.296 188.151 424.678Z" fill="#FAFAFA"/>
<path d="M106.963 321.08C107.715 321.97 135.283 358.808 135.283 358.808L131.409 361.013L103.114 324.676L106.963 321.08Z" fill="#263238"/>
<path d="M214.54 347.393C214.54 347.393 188.69 391.962 186.96 392.777C183.512 394.393 143.846 360.123 140.06 356.853C139.546 356.151 138.468 354.685 136.299 351.766C136.299 351.766 133.177 337.444 129.83 338.547C126.483 339.65 131.66 345.827 129.491 351.265C127.323 356.703 117.356 343.747 116.955 342.569L114.447 339.211C114.447 339.211 111.752 346.842 111.94 350.037C112.517 360.249 122.182 372.39 122.182 372.39C122.182 372.39 161.472 421.583 191.209 423.249C199.772 423.738 216.132 399.092 226.312 380.873C232.455 369.872 229.597 358.708 219.417 351.277L214.54 347.393Z" fill="#FFBE9D"/>
<path d="M116.792 351.779C115.095 349.52 113.821 346.973 113.031 344.261C113.131 344.261 113.871 345.952 114.911 348.02C115.952 350.087 116.879 351.728 116.792 351.779Z" fill="#EB996E"/>
<path d="M213.324 334.938C212.309 335.552 188.251 380.159 188.251 380.159L219.204 404.379C223.935 392.632 228.036 380.64 231.49 368.456C232.643 364.083 232.054 352.393 230.424 347.882C228.117 341.479 224.632 343.07 219.404 339.324L213.324 334.938Z" fill="url(#paint23_linear_5_7)"/>
<g opacity="0.7">
<path d="M223.491 334.938C223.491 334.938 223.191 334.763 222.614 334.475C221.774 334.047 220.834 333.853 219.893 333.911C218.409 334.05 217.002 334.636 215.857 335.59C214.324 336.815 212.981 338.259 211.87 339.875C210.508 341.897 209.253 343.988 208.109 346.14C206.855 348.408 205.426 350.839 203.972 353.395C201.051 358.495 197.829 364.108 194.469 369.997C192.4 373.568 190.407 377.039 188.527 380.297L188.451 379.896L209.388 396.435L215.468 401.31L217.073 402.638C217.269 402.781 217.45 402.945 217.612 403.126C217.398 403.014 217.196 402.879 217.01 402.725L215.33 401.472L209.137 396.736L188.063 380.447L187.837 380.272L188.05 379.971C189.931 376.713 191.924 373.242 193.968 369.659C197.352 363.782 200.587 358.194 203.52 353.094L207.708 345.864C208.85 343.711 210.105 341.62 211.469 339.599C212.632 337.939 214.044 336.469 215.656 335.239C216.869 334.274 218.346 333.697 219.893 333.585C220.875 333.55 221.845 333.798 222.689 334.299C222.908 334.421 223.118 334.559 223.316 334.713C223.441 334.863 223.504 334.926 223.491 334.938Z" fill="black"/>
</g>
<path d="M214.252 376.763C213.632 376.069 212.866 375.521 212.008 375.159C211.085 374.802 210.069 374.767 209.124 375.059C208.565 375.279 208.024 375.543 207.507 375.849C206.876 376.232 206.135 376.395 205.401 376.312C204.676 376.136 204.048 375.687 203.646 375.059C203.257 374.52 202.956 373.982 202.605 373.543C202.308 373.16 201.928 372.849 201.494 372.632C201.06 372.415 200.583 372.298 200.098 372.29C199.171 372.296 198.267 372.579 197.503 373.105C197.503 373.105 197.628 372.829 198.029 372.503C198.641 372.076 199.365 371.841 200.11 371.826C200.673 371.805 201.232 371.914 201.746 372.144C202.259 372.374 202.712 372.72 203.069 373.155C203.47 373.631 203.796 374.17 204.16 374.658C204.473 375.157 204.96 375.523 205.526 375.686C206.68 375.886 207.733 374.846 208.936 374.508C210.011 374.191 211.163 374.271 212.183 374.733C213.926 375.523 214.377 376.776 214.252 376.763Z" fill="#FAFAFA"/>
<path d="M228.393 371C227.994 370.152 227.401 369.41 226.663 368.832C225.87 368.246 224.904 367.942 223.918 367.967C223.322 368.036 222.731 368.145 222.15 368.293C221.437 368.493 220.678 368.449 219.994 368.168C219.343 367.794 218.863 367.183 218.652 366.464C218.427 365.837 218.276 365.211 218.063 364.735C217.877 364.287 217.594 363.886 217.234 363.561C216.874 363.236 216.447 362.995 215.982 362.855C215.087 362.61 214.139 362.641 213.261 362.943C213.261 362.943 213.45 362.705 213.926 362.517C214.624 362.252 215.388 362.216 216.107 362.416C216.657 362.547 217.169 362.803 217.604 363.163C218.039 363.524 218.385 363.98 218.615 364.496C218.865 365.06 219.028 365.662 219.254 366.238C219.415 366.802 219.788 367.282 220.295 367.579C221.348 368.093 222.639 367.378 223.893 367.366C225.01 367.364 226.092 367.755 226.952 368.468C227.367 368.755 227.712 369.131 227.961 369.57C228.211 370.008 228.358 370.497 228.393 371V371Z" fill="#FAFAFA"/>
<path d="M229.12 352.555C228.715 351.715 228.123 350.978 227.39 350.4C226.6 349.809 225.632 349.504 224.645 349.536C224.047 349.592 223.456 349.701 222.877 349.861C222.164 350.064 221.402 350.015 220.721 349.724C220.074 349.352 219.594 348.747 219.379 348.032C219.154 347.406 219.003 346.779 218.79 346.29C218.6 345.845 218.315 345.447 217.956 345.122C217.597 344.798 217.171 344.555 216.709 344.411C215.814 344.166 214.866 344.197 213.989 344.499C213.989 344.499 214.177 344.273 214.653 344.073C215.352 343.813 216.115 343.778 216.834 343.972C217.382 344.109 217.891 344.367 218.325 344.727C218.759 345.087 219.107 345.54 219.342 346.052C219.592 346.616 219.755 347.23 219.981 347.794C220.142 348.362 220.514 348.846 221.022 349.147C222.075 349.648 223.366 348.934 224.62 348.934C225.739 348.921 226.826 349.312 227.679 350.037C228.091 350.323 228.435 350.697 228.685 351.133C228.934 351.569 229.083 352.055 229.12 352.555V352.555Z" fill="#FAFAFA"/>
<path d="M222.275 395.007C221.864 394.17 221.273 393.435 220.545 392.852C219.751 392.259 218.778 391.954 217.787 391.987C217.194 392.044 216.606 392.153 216.032 392.313C215.32 392.513 214.56 392.469 213.876 392.188C213.231 391.808 212.752 391.2 212.534 390.484C212.296 389.857 212.158 389.231 211.933 388.742C211.745 388.297 211.463 387.899 211.106 387.574C210.748 387.25 210.325 387.007 209.864 386.862C208.969 386.609 208.017 386.644 207.144 386.963C207.144 386.963 207.332 386.725 207.808 386.524C208.694 386.21 209.665 386.24 210.531 386.606C211.396 386.973 212.093 387.65 212.484 388.504C212.747 389.068 212.91 389.682 213.136 390.246C213.296 390.81 213.663 391.293 214.164 391.599C215.23 392.1 216.521 391.386 217.775 391.386C218.894 391.372 219.98 391.764 220.834 392.488C221.246 392.774 221.59 393.149 221.84 393.585C222.089 394.02 222.238 394.506 222.275 395.007V395.007Z" fill="#FAFAFA"/>
<defs>
<linearGradient id="paint0_linear_5_7" x1="400.903" y1="349.995" x2="529.557" y2="390.067" gradientUnits="userSpaceOnUse">
<stop stop-color="#FF403E"/>
<stop offset="1" stop-color="#FF8145"/>
</linearGradient>
<linearGradient id="paint1_linear_5_7" x1="195.293" y1="161.105" x2="195.293" y2="188.037" gradientUnits="userSpaceOnUse">
<stop stop-color="#144CA1"/>
<stop offset="1" stop-color="#67A3FF"/>
</linearGradient>
<linearGradient id="paint2_linear_5_7" x1="167.466" y1="191.427" x2="167.466" y2="206.391" gradientUnits="userSpaceOnUse">
<stop stop-color="#144CA1"/>
<stop offset="1" stop-color="#67A3FF"/>
</linearGradient>
<linearGradient id="paint3_linear_5_7" x1="160.54" y1="145.003" x2="160.54" y2="182.323" gradientUnits="userSpaceOnUse">
<stop stop-color="#144CA1"/>
<stop offset="1" stop-color="#67A3FF"/>
</linearGradient>
<linearGradient id="paint4_linear_5_7" x1="288.866" y1="465.934" x2="288.866" y2="471.978" gradientUnits="userSpaceOnUse">
<stop stop-color="#144CA1"/>
<stop offset="1" stop-color="#67A3FF"/>
</linearGradient>
<linearGradient id="paint5_linear_5_7" x1="298.104" y1="465.971" x2="298.104" y2="472.016" gradientUnits="userSpaceOnUse">
<stop stop-color="#144CA1"/>
<stop offset="1" stop-color="#67A3FF"/>
</linearGradient>
<linearGradient id="paint6_linear_5_7" x1="307.346" y1="466.021" x2="307.346" y2="472.066" gradientUnits="userSpaceOnUse">
<stop stop-color="#144CA1"/>
<stop offset="1" stop-color="#67A3FF"/>
</linearGradient>
<linearGradient id="paint7_linear_5_7" x1="276.25" y1="193.157" x2="457.744" y2="338.559" gradientUnits="userSpaceOnUse">
<stop stop-color="#FF403E"/>
<stop offset="1" stop-color="#FF8145"/>
</linearGradient>
<linearGradient id="paint8_linear_5_7" x1="261.641" y1="324.614" x2="261.641" y2="453.271" gradientUnits="userSpaceOnUse">
<stop stop-color="#144CA1"/>
<stop offset="1" stop-color="#67A3FF"/>
</linearGradient>
<linearGradient id="paint9_linear_5_7" x1="485.05" y1="171.279" x2="485.05" y2="274.282" gradientUnits="userSpaceOnUse">
<stop stop-color="#144CA1"/>
<stop offset="1" stop-color="#67A3FF"/>
</linearGradient>
<linearGradient id="paint10_linear_5_7" x1="477.083" y1="162.563" x2="477.083" y2="192.786" gradientUnits="userSpaceOnUse">
<stop stop-color="#144CA1"/>
<stop offset="1" stop-color="#67A3FF"/>
</linearGradient>
<linearGradient id="paint11_linear_5_7" x1="442.441" y1="176.772" x2="442.441" y2="240.149" gradientUnits="userSpaceOnUse">
<stop stop-color="#144CA1"/>
<stop offset="1" stop-color="#67A3FF"/>
</linearGradient>
<linearGradient id="paint12_linear_5_7" x1="488.86" y1="100.127" x2="488.86" y2="110.934" gradientUnits="userSpaceOnUse">
<stop stop-color="#144CA1"/>
<stop offset="1" stop-color="#67A3FF"/>
</linearGradient>
<linearGradient id="paint13_linear_5_7" x1="499.309" y1="104.312" x2="499.309" y2="114.71" gradientUnits="userSpaceOnUse">
<stop stop-color="#144CA1"/>
<stop offset="1" stop-color="#67A3FF"/>
</linearGradient>
<linearGradient id="paint14_linear_5_7" x1="195.271" y1="263.104" x2="195.271" y2="274.982" gradientUnits="userSpaceOnUse">
<stop stop-color="#144CA1"/>
<stop offset="1" stop-color="#67A3FF"/>
</linearGradient>
<linearGradient id="paint15_linear_5_7" x1="199.123" y1="262.966" x2="199.123" y2="281.047" gradientUnits="userSpaceOnUse">
<stop stop-color="#144CA1"/>
<stop offset="1" stop-color="#67A3FF"/>
</linearGradient>
<linearGradient id="paint16_linear_5_7" x1="155.835" y1="273.466" x2="155.835" y2="282.814" gradientUnits="userSpaceOnUse">
<stop stop-color="#144CA1"/>
<stop offset="1" stop-color="#67A3FF"/>
</linearGradient>
<linearGradient id="paint17_linear_5_7" x1="210.651" y1="276.127" x2="210.651" y2="318.592" gradientUnits="userSpaceOnUse">
<stop stop-color="#144CA1"/>
<stop offset="1" stop-color="#67A3FF"/>
</linearGradient>
<linearGradient id="paint18_linear_5_7" x1="202.916" y1="295.419" x2="202.916" y2="318.038" gradientUnits="userSpaceOnUse">
<stop stop-color="#144CA1"/>
<stop offset="1" stop-color="#67A3FF"/>
</linearGradient>
<linearGradient id="paint19_linear_5_7" x1="151.115" y1="281.861" x2="151.115" y2="313.562" gradientUnits="userSpaceOnUse">
<stop stop-color="#144CA1"/>
<stop offset="1" stop-color="#67A3FF"/>
</linearGradient>
<linearGradient id="paint20_linear_5_7" x1="197.636" y1="255.278" x2="203.379" y2="257.885" gradientUnits="userSpaceOnUse">
<stop stop-color="#FF403E"/>
<stop offset="1" stop-color="#FF8145"/>
</linearGradient>
<linearGradient id="paint21_linear_5_7" x1="204.876" y1="247.567" x2="204.876" y2="257.125" gradientUnits="userSpaceOnUse">
<stop stop-color="#144CA1"/>
<stop offset="1" stop-color="#67A3FF"/>
</linearGradient>
<linearGradient id="paint22_linear_5_7" x1="136.221" y1="344.943" x2="231.448" y2="379.215" gradientUnits="userSpaceOnUse">
<stop stop-color="#FF403E"/>
<stop offset="1" stop-color="#FF8145"/>
</linearGradient>
<linearGradient id="paint23_linear_5_7" x1="193.731" y1="348.826" x2="234.681" y2="357.69" gradientUnits="userSpaceOnUse">
<stop stop-color="#FF403E"/>
<stop offset="1" stop-color="#FF8145"/>
</linearGradient>
</defs>
</svg>
