<svg width="738" height="663" viewBox="0 0 738 663" fill="none" xmlns="http://www.w3.org/2000/svg">
<path d="M369 643.455C547.637 643.455 692.451 568.344 692.451 475.689C692.451 383.035 547.637 307.924 369 307.924C190.363 307.924 45.5493 383.035 45.5493 475.689C45.5493 568.344 190.363 643.455 369 643.455Z" fill="#F5F5F5"/>
<path d="M241.252 585.973L317.118 546.617C317.743 546.29 318.262 545.822 318.622 545.259C318.983 544.696 319.172 544.058 319.172 543.408C319.172 542.759 318.983 542.12 318.622 541.557C318.262 540.994 317.743 540.526 317.118 540.199L241.252 500.844C239.509 499.944 237.535 499.471 235.525 499.471C233.516 499.471 231.541 499.944 229.798 500.844L153.932 540.199C153.307 540.526 152.788 540.994 152.428 541.557C152.068 542.12 151.878 542.759 151.878 543.408C151.878 544.058 152.068 544.696 152.428 545.259C152.788 545.822 153.307 546.29 153.932 546.617L229.798 585.973C231.541 586.872 233.516 587.345 235.525 587.345C237.535 587.345 239.509 586.872 241.252 585.973Z" fill="#E0E0E0"/>
<path d="M347.007 531.156L504.393 449.514C505.251 449.068 505.964 448.427 506.459 447.656C506.954 446.884 507.215 446.009 507.215 445.118C507.215 444.228 506.954 443.353 506.459 442.581C505.964 441.81 505.251 441.169 504.393 440.723L378.564 374.794C376.548 373.737 374.256 373.181 371.922 373.181C369.588 373.181 367.296 373.737 365.28 374.794L207.939 456.409C207.081 456.855 206.368 457.496 205.873 458.268C205.378 459.039 205.117 459.914 205.117 460.805C205.117 461.696 205.378 462.571 205.873 463.342C206.368 464.114 207.081 464.755 207.939 465.201L333.782 531.129C335.789 532.18 338.069 532.736 340.391 532.741C342.713 532.745 344.996 532.199 347.007 531.156Z" fill="#E0E0E0"/>
<path d="M473.176 566.52C512.182 566.52 543.802 550.123 543.802 529.896C543.802 509.669 512.182 493.272 473.176 493.272C434.17 493.272 402.549 509.669 402.549 529.896C402.549 550.123 434.17 566.52 473.176 566.52Z" fill="#E0E0E0"/>
<path d="M169.223 183.174V246.026L108.634 277.466V214.6L169.223 183.174Z" fill="#FAFAFA"/>
<path d="M162.67 186.568V242.658L108.634 270.65V214.6L162.67 186.568ZM165.947 181.463L105.342 212.902V275.808L108.634 277.505L169.223 246.079V183.226L165.947 181.516V181.463Z" fill="#E0E0E0"/>
<path d="M165.947 188.292V244.342L111.91 272.361V216.297L165.947 188.292ZM169.223 183.187L108.634 214.6V277.452L169.223 246.026V183.174V183.187Z" fill="#EBEBEB"/>
<path d="M160.338 231.652L114.493 255.427L128.028 223.762L137.415 233.774L146.995 221.508L160.338 231.652Z" fill="#E0E0E0"/>
<path d="M143.204 215.601C144.838 213.058 144.841 210.311 143.21 209.465C141.58 208.619 138.933 209.995 137.298 212.538C135.664 215.081 135.661 217.829 137.292 218.675C138.922 219.52 141.569 218.144 143.204 215.601Z" fill="#E0E0E0"/>
<path d="M189.445 104.9V154.983L141.165 180.018V129.948L189.445 104.9Z" fill="#FAFAFA"/>
<path d="M184.219 107.618V152.278L141.165 174.594V129.948L184.219 107.618ZM186.832 103.547L138.552 128.622V178.692L141.165 180.018L189.444 154.983V104.913L186.832 103.587V103.547Z" fill="#E0E0E0"/>
<path d="M186.832 108.971V153.63L143.777 175.96V131.274L186.832 108.944M189.445 104.887L141.165 129.948V180.018L189.445 154.983V104.913V104.887Z" fill="#EBEBEB"/>
<path d="M182.36 143.527L145.844 162.475L156.618 137.255L164.102 145.224L171.733 135.451L182.36 143.527Z" fill="#E0E0E0"/>
<path d="M169.74 127.8C169.676 128.839 169.34 129.849 168.761 130.75C168.181 131.651 167.374 132.416 166.404 132.985C164.559 133.939 163.068 133.157 163.068 131.248C163.133 130.209 163.468 129.198 164.048 128.298C164.627 127.397 165.434 126.631 166.404 126.063C168.264 125.108 169.74 125.891 169.74 127.8Z" fill="#E0E0E0"/>
<path d="M334.624 514.926V524.407C334.67 524.882 334.857 525.337 335.166 525.724C335.475 526.111 335.895 526.417 336.38 526.608C337.692 527.21 339.144 527.523 340.617 527.523C342.089 527.523 343.541 527.21 344.853 526.608C345.339 526.417 345.758 526.111 346.067 525.724C346.376 525.337 346.564 524.882 346.609 524.407V514.926H334.624Z" fill="#EBEBEB"/>
<path d="M481.25 438.906V448.387C481.295 448.862 481.483 449.317 481.792 449.704C482.101 450.092 482.52 450.397 483.006 450.588C484.32 451.183 485.771 451.493 487.242 451.493C488.714 451.493 490.164 451.183 491.478 450.588C491.964 450.397 492.384 450.092 492.693 449.704C493.002 449.317 493.189 448.862 493.235 448.387V438.906H481.25Z" fill="#EBEBEB"/>
<path d="M245.739 468.622V478.116C245.785 478.591 245.972 479.046 246.281 479.433C246.59 479.821 247.01 480.126 247.496 480.317C248.81 480.912 250.261 481.222 251.732 481.222C253.203 481.222 254.654 480.912 255.968 480.317C256.454 480.126 256.873 479.821 257.182 479.433C257.492 479.046 257.679 478.591 257.724 478.116V468.622H245.739Z" fill="#EBEBEB"/>
<path d="M367.495 268.979L246.344 328.305V431.534L396.601 359.147L367.495 268.979Z" fill="#455A64"/>
<path d="M467.449 359.147L459.877 355.236L386.446 317.524C385.827 317.208 385.309 316.756 384.939 316.209C384.57 315.663 384.362 315.041 384.335 314.402C384.309 313.763 384.464 313.128 384.787 312.559C385.11 311.989 385.59 311.503 386.181 311.146L390.933 308.282L385.029 271.804C384.626 269.35 383.623 267.008 382.091 264.944C380.56 262.881 378.539 261.148 376.173 259.87L365.354 254.035C364.832 253.757 364.238 253.607 363.631 253.602C363.024 253.597 362.427 253.736 361.899 254.005C361.371 254.275 360.932 254.665 360.627 255.136C360.321 255.607 360.16 256.142 360.159 256.687V389.566C360.163 391.861 360.85 394.113 362.147 396.09C363.444 398.066 365.306 399.696 367.539 400.81L469.693 452.06C470.523 452.475 471.458 452.692 472.408 452.692C473.359 452.692 474.294 452.475 475.124 452.06L475.523 451.861C476.347 451.403 477.027 450.763 477.497 450.001C477.968 449.24 478.213 448.383 478.209 447.512V375.828C478.205 372.444 477.208 369.12 475.319 366.192C473.43 363.263 470.716 360.834 467.449 359.147Z" fill="#455A64"/>
<path d="M230.33 325.122V324.207C230.33 322.029 230.967 319.89 232.177 318.003C233.386 316.115 235.126 314.547 237.223 313.453L354.24 252.378C355.531 251.69 357.005 251.328 358.506 251.328C360.007 251.328 361.48 251.69 362.771 252.378L375.435 259.233C376.258 259.672 376.94 260.296 377.413 261.044C377.886 261.791 378.135 262.636 378.135 263.496C378.135 264.356 377.886 265.201 377.413 265.948C376.94 266.696 376.258 267.32 375.435 267.759L252.263 333.197L230.33 325.122Z" fill="#37474F"/>
<path d="M384.277 313.997V418.274L465.87 451.808C467.548 452.498 469.385 452.822 471.229 452.753C473.074 452.684 474.874 452.224 476.482 451.41L488.792 445.165V357.437L384.277 313.997Z" fill="#263238"/>
<path d="M382.506 499.04L447.051 466.527C450.186 464.957 452.806 462.675 454.65 459.91C456.493 457.144 457.495 453.991 457.555 450.768C457.615 447.544 456.73 444.363 454.991 441.544C453.251 438.724 450.716 436.365 447.641 434.703L383.406 399.776C383.233 399.688 383.037 399.641 382.838 399.641C382.638 399.641 382.443 399.688 382.269 399.776L282.433 449.355C282.261 449.445 282.119 449.574 282.02 449.728C281.921 449.883 281.869 450.058 281.869 450.237C281.869 450.415 281.921 450.59 282.02 450.745C282.119 450.9 282.261 451.029 282.433 451.119L370.993 498.855C372.728 499.782 374.703 500.287 376.722 500.319C378.741 500.352 380.734 499.911 382.506 499.04Z" fill="#263238"/>
<path d="M375.745 494.598C375.749 495.398 375.985 496.183 376.431 496.876C376.876 497.568 377.516 498.144 378.285 498.546C379.055 498.948 379.929 499.163 380.819 499.168C381.709 499.173 382.586 498.969 383.362 498.576L463.066 458.663C465.389 457.496 467.323 455.793 468.67 453.73C470.016 451.668 470.726 449.32 470.726 446.928V439.887L379.332 489.294C378.26 489.825 377.366 490.604 376.743 491.551C376.12 492.498 375.791 493.578 375.79 494.678L375.745 494.598Z" fill="#455A64"/>
<path d="M381.841 487.968L466.283 446.252C467.598 445.602 468.7 444.655 469.482 443.504C470.264 442.354 470.698 441.04 470.741 439.692C470.784 438.345 470.435 437.011 469.728 435.822C469.022 434.633 467.982 433.63 466.711 432.913L385.236 386.98L283.097 437.686L376.114 487.968C376.984 488.424 377.972 488.664 378.978 488.664C379.984 488.664 380.972 488.424 381.841 487.968Z" fill="#37474F"/>
<path d="M378.387 484.56L463.656 441.107L382.845 382.976L280.706 433.695L374.904 484.521C375.429 484.803 376.028 484.955 376.64 484.962C377.252 484.969 377.855 484.83 378.387 484.56Z" fill="#263238"/>
<path d="M375.745 458.266V478.09C375.749 478.89 375.985 479.675 376.431 480.367C376.876 481.06 377.516 481.636 378.285 482.038C379.055 482.44 379.929 482.654 380.819 482.66C381.71 482.665 382.586 482.461 383.362 482.068L463.656 441.107C465.823 440.005 467.626 438.405 468.878 436.471C470.131 434.537 470.789 432.339 470.785 430.102V402.03L381.28 449.514C379.589 450.413 378.188 451.694 377.217 453.229C376.247 454.764 375.739 456.5 375.745 458.266Z" fill="#455A64"/>
<path d="M381.93 451.331L467.213 408.408C468.283 407.871 469.177 407.091 469.806 406.145C470.435 405.2 470.776 404.122 470.795 403.021C470.815 401.92 470.512 400.834 469.917 399.871C469.322 398.908 468.456 398.102 467.405 397.535L382.845 351.549L280.706 402.269L371.436 451.211C373.017 452.064 374.821 452.524 376.665 452.545C378.508 452.566 380.325 452.147 381.93 451.331Z" fill="#37474F"/>
<path d="M408.926 305.126C406.858 304.046 404.495 303.51 402.104 303.578C399.714 303.646 397.393 304.315 395.406 305.511L390.874 308.242L386.122 311.106C385.531 311.463 385.051 311.949 384.728 312.519C384.405 313.088 384.25 313.723 384.276 314.362C384.303 315.001 384.511 315.623 384.88 316.169C385.25 316.716 385.768 317.169 386.387 317.484L459.818 355.196L467.198 358.962C467.316 358.962 467.42 359.107 467.553 359.16C470.879 360.936 473.62 363.475 475.495 366.515C477.37 369.556 478.312 372.99 478.224 376.465V447.578C478.228 448.449 477.983 449.306 477.512 450.068C477.042 450.829 476.362 451.469 475.538 451.927L493.678 442.725C495.795 441.653 497.558 440.095 498.784 438.21C500.011 436.325 500.658 434.181 500.659 431.998V363.046C500.659 360.019 499.776 357.045 498.097 354.421C496.419 351.797 494.005 349.613 491.095 348.088L408.926 305.126Z" fill="#455A64"/>
<path d="M491.021 348.115L408.926 305.126C406.858 304.046 404.495 303.51 402.104 303.578C399.714 303.646 397.393 304.315 395.406 305.511L390.874 308.242L386.122 311.106C385.531 311.463 385.051 311.949 384.728 312.519C384.405 313.088 384.25 313.723 384.276 314.362C384.303 315.001 384.511 315.623 384.88 316.169C385.25 316.716 385.768 317.169 386.387 317.484L459.818 355.196L467.198 358.962C467.316 358.962 467.42 359.107 467.553 359.16C471.146 360.985 474.023 363.764 475.789 367.116L498.002 354.347C496.31 351.765 493.905 349.619 491.021 348.115Z" fill="#37474F"/>
<path d="M301.281 235.67C301.281 235.67 298.063 213.592 338.506 213.592C372.218 213.592 370.978 246.252 349.428 255.64L301.281 235.67Z" fill="#263238"/>
<path d="M304.617 256.621C312.418 256.621 318.742 250.939 318.742 243.931C318.742 236.923 312.418 231.241 304.617 231.241C296.816 231.241 290.492 236.923 290.492 243.931C290.492 250.939 296.816 256.621 304.617 256.621Z" fill="#263238"/>
<path d="M366.58 243.904C366.582 245.925 365.918 247.901 364.67 249.582C363.423 251.263 361.648 252.574 359.57 253.348C357.493 254.123 355.207 254.326 353.001 253.932C350.795 253.539 348.768 252.566 347.178 251.137C345.588 249.709 344.505 247.888 344.067 245.906C343.629 243.925 343.855 241.871 344.717 240.004C345.579 238.138 347.038 236.544 348.909 235.423C350.781 234.302 352.98 233.705 355.229 233.708C358.239 233.708 361.126 234.782 363.255 236.694C365.384 238.606 366.58 241.2 366.58 243.904Z" fill="#263238"/>
<path d="M307.2 273.753C315.001 273.753 321.325 268.071 321.325 261.063C321.325 254.054 315.001 248.373 307.2 248.373C299.399 248.373 293.075 254.054 293.075 261.063C293.075 268.071 299.399 273.753 307.2 273.753Z" fill="#263238"/>
<path d="M322.919 281.669C330.72 281.669 337.045 275.988 337.045 268.979C337.045 261.971 330.72 256.29 322.919 256.29C315.118 256.29 308.794 261.971 308.794 268.979C308.794 275.988 315.118 281.669 322.919 281.669Z" fill="#263238"/>
<path d="M430.653 467.946L459.243 502.064L451.302 507.699C451.302 507.699 439.848 505.551 435.819 491.946C433.427 484.074 431.7 476.051 430.653 467.946Z" fill="#FFA8A7"/>
<path d="M428.04 465.625C428.04 465.625 420.114 472.083 423.612 477.877C427.11 483.672 433.206 488.313 433.398 495.937C433.59 503.562 437.826 517.153 447.228 519.301C456.63 521.45 465.84 518.506 465.663 515.509C465.486 512.512 459.213 502.063 459.213 502.063C459.213 502.063 450.564 506.877 444.188 502.236C437.811 497.595 436.335 478.05 436.335 478.05L428.04 465.625Z" fill="url(#paint0_linear_3211_2298)"/>
<path opacity="0.2" d="M428.04 465.625C428.04 465.625 420.114 472.083 423.612 477.877C427.11 483.672 433.206 488.313 433.398 495.937C433.59 503.562 437.826 517.153 447.228 519.301C456.63 521.45 465.84 518.506 465.663 515.509C465.486 512.512 459.213 502.063 459.213 502.063C459.213 502.063 450.564 506.877 444.188 502.236C437.811 497.595 436.335 478.05 436.335 478.05L428.04 465.625Z" fill="black"/>
<path d="M379.332 359.983C379.332 359.983 442.992 384.182 448.158 386.503C453.324 388.823 462.357 393.133 461.442 411.697C460.527 430.261 455.346 476.525 455.346 476.525L420.439 416.219L330.299 377.685L379.332 359.983Z" fill="url(#paint1_linear_3211_2298)"/>
<path opacity="0.5" d="M379.332 359.983C379.332 359.983 442.992 384.182 448.158 386.503C453.324 388.823 462.357 393.133 461.442 411.697C460.527 430.261 455.346 476.525 455.346 476.525L420.439 416.219L330.299 377.685L379.332 359.983Z" fill="black"/>
<path d="M457.9 452.657C456.542 465.837 455.346 476.525 455.346 476.525L420.439 416.218L356.174 388.783L370.771 378.52C391.317 387.802 421.147 401.234 430.047 405.332C441.398 410.543 444.896 425.315 454.667 445.828C455.7 448.002 456.793 450.296 457.9 452.657Z" fill="url(#paint2_linear_3211_2298)"/>
<path opacity="0.7" d="M457.9 452.657C456.542 465.837 455.346 476.525 455.346 476.525L420.439 416.218L356.174 388.783L370.771 378.52C391.317 387.802 421.147 401.234 430.047 405.332C441.398 410.543 444.896 425.315 454.667 445.828C455.7 448.002 456.793 450.296 457.9 452.657Z" fill="black"/>
<path d="M374.063 372.314L367.495 381.238L372.631 381.941L374.063 372.314Z" fill="url(#paint3_linear_3211_2298)"/>
<path opacity="0.7" d="M374.063 372.314L367.495 381.238L372.631 381.941L374.063 372.314Z" fill="black"/>
<path d="M458.859 515.509C458.859 515.509 457.944 516.835 457.944 523.784C457.944 530.732 460.896 532.045 464.807 533.291C468.719 534.537 479.892 541.87 483.006 545.092C486.121 548.315 498.563 551.722 510.858 549.694C523.153 547.665 525.781 540.412 519.847 535.784C513.914 531.156 497.058 522.524 497.058 522.524L458.859 515.509Z" fill="url(#paint4_linear_3211_2298)"/>
<path d="M311.436 374.264L338.831 368.628C338.831 368.628 414.889 402.892 426.225 408.117C437.56 413.341 441.073 428.1 450.844 448.613C458.224 464.047 467.789 485.224 474.121 497.94C474.121 497.94 469.619 508.681 455.346 505.989C450.505 496.508 441.959 488.021 429.546 472.971C418.786 459.924 414.594 448.401 412.955 441.492C412.48 439.452 411.373 437.575 409.762 436.076C408.151 434.577 406.101 433.517 403.848 433.019C391.288 430.274 365.709 424.334 338.698 415.967C300.661 404.139 311.436 374.264 311.436 374.264Z" fill="url(#paint5_linear_3211_2298)"/>
<path opacity="0.5" d="M311.436 374.264L338.831 368.628C338.831 368.628 414.889 402.892 426.225 408.117C437.56 413.341 441.073 428.1 450.844 448.613C458.224 464.047 467.789 485.224 474.121 497.94C474.121 497.94 469.619 508.681 455.346 505.989C450.505 496.508 441.959 488.021 429.546 472.971C418.786 459.924 414.594 448.401 412.955 441.492C412.48 439.452 411.373 437.575 409.762 436.076C408.151 434.577 406.101 433.517 403.848 433.019C391.288 430.274 365.709 424.334 338.698 415.967C300.661 404.139 311.436 374.264 311.436 374.264Z" fill="black"/>
<path d="M474.121 497.887C476.202 502.077 477.944 505.352 479.124 507.169C483.892 514.621 497.825 522.696 502.74 526.502C507.655 530.307 508.644 531.806 504.01 534.988C492.202 543.156 481.87 534.246 475.228 528.531C470.775 524.872 465.89 521.661 460.66 518.957C460.274 518.764 459.941 518.496 459.685 518.173C459.43 517.849 459.258 517.478 459.184 517.087C458.457 513.22 457.161 509.457 455.331 505.896C469.619 508.627 474.121 497.887 474.121 497.887Z" fill="#FFA8A7"/>
<path d="M340.484 397.628L388.38 422.464L467.995 381.106L420.114 355.766L340.484 397.628Z" fill="#EBEBEB"/>
<path d="M383.229 390.56L401.192 381.238L389.93 375.404L371.967 384.726L383.229 390.56Z" fill="#E0E0E0"/>
<path d="M390.417 416.258L366.21 403.462L413.501 377.751L390.417 416.258Z" fill="#E0E0E0"/>
<path d="M389 339.522L408.188 347.585C413.908 348.886 419.549 350.452 425.088 352.279C425.088 352.279 438.372 357.185 439.021 360.394C439.671 363.603 429.014 371.333 419.701 367.567C417.246 366.413 414.63 365.561 411.922 365.035C409.428 364.796 401.989 363.709 396.616 359.147L381.103 355.368C381.103 355.368 373.133 341.511 389 339.522Z" fill="#FFA8A7"/>
<path d="M401.472 363.523C403.701 365.658 410.018 371.041 411.405 372.606C412.793 374.171 416.04 370.153 410.328 364.186C405.383 362.558 400.733 360.284 396.527 357.437C398.003 359.574 399.655 361.609 401.472 363.523Z" fill="#FFA8A7"/>
<path d="M349.812 279.68C354.213 279.052 358.72 279.847 362.53 281.923C366.341 283.999 369.208 287.221 370.624 291.017C372.642 296.499 373.945 302.172 374.505 307.924C376.173 325.652 376.631 334.51 376.631 334.51L396.454 342.585C396.454 342.585 385.753 343.05 386.476 356.628L361.782 351.032L349.812 279.68Z" fill="#FFA8A7"/>
<path d="M375.081 314.169C374.904 312.233 374.712 310.151 374.505 307.924C373.945 302.172 372.642 296.499 370.624 291.017C369.208 287.221 366.341 283.999 362.53 281.923C358.72 279.847 354.213 279.052 349.812 279.68L357.059 322.921L375.081 314.169Z" fill="url(#paint6_linear_3211_2298)"/>
<path opacity="0.2" d="M375.081 314.169C374.904 312.233 374.712 310.151 374.505 307.924C373.945 302.172 372.642 296.499 370.624 291.017C369.208 287.221 366.341 283.999 362.53 281.923C358.72 279.847 354.213 279.052 349.812 279.68L357.059 322.921L375.081 314.169Z" fill="black"/>
<path d="M376.631 334.51C374.388 335.12 372.356 336.233 370.727 337.746C370.727 337.746 373.118 333.662 376.469 332.442L376.631 334.51Z" fill="#F28F8F"/>
<path d="M318.536 286.721L304.617 292.025V328.663C308.98 338.04 311.343 348.071 311.584 358.232V376.372C311.584 376.372 340.011 385.469 362.063 375.63C372.749 370.856 379.347 359.97 379.347 359.97C379.347 359.97 367.539 353.764 367.539 346.179C367.767 340.252 368.553 334.352 369.886 328.543C372.457 326.248 374.406 323.451 375.581 320.369C376.756 317.288 377.125 314.005 376.66 310.775C375.096 298.682 349.753 279.667 349.753 279.667L340.307 280.834L318.536 286.721Z" fill="url(#paint7_linear_3211_2298)"/>
<path d="M318.536 286.721L340.366 280.847V257.112H318.536V286.721Z" fill="#FFA8A7"/>
<path d="M340.366 280.847C335.901 279.36 331.82 277.073 328.369 274.126C324.919 271.179 322.171 267.632 320.292 263.702V257.072H340.366V280.847Z" fill="#F28F8F"/>
<path d="M345.458 224.956C345.458 224.956 365.428 226.004 362.948 256.674C361.812 270.862 358.122 278.208 345.96 277.665C332.189 277.055 312.631 268.555 313.916 244.289C315.2 220.023 345.458 224.956 345.458 224.956Z" fill="#FFA8A7"/>
<path d="M318.536 257.112C318.536 257.112 324.012 258.438 324.012 251.357C324.012 251.357 348.336 249.872 353.709 228.192C353.709 228.192 351.303 221.694 336.115 221.694C320.927 221.694 308.159 233.761 312.13 250.349L318.536 257.112Z" fill="#263238"/>
<path d="M348.321 250.521V261.063L355.185 259.167L348.321 250.521Z" fill="#F28F8F"/>
<path d="M338.004 251.635C338.004 252.06 338.144 252.476 338.407 252.829C338.67 253.182 339.043 253.457 339.48 253.62C339.917 253.783 340.398 253.825 340.862 253.742C341.326 253.659 341.752 253.455 342.086 253.154C342.42 252.854 342.648 252.471 342.74 252.055C342.833 251.638 342.785 251.206 342.604 250.813C342.423 250.421 342.117 250.085 341.724 249.849C341.33 249.613 340.868 249.487 340.395 249.487C339.761 249.487 339.153 249.714 338.704 250.116C338.256 250.519 338.004 251.066 338.004 251.635Z" fill="#263238"/>
<path d="M353.709 250.15C353.709 250.575 353.849 250.99 354.112 251.343C354.374 251.697 354.748 251.972 355.185 252.135C355.622 252.297 356.103 252.34 356.566 252.257C357.03 252.174 357.456 251.969 357.791 251.669C358.125 251.369 358.353 250.986 358.445 250.569C358.537 250.152 358.49 249.721 358.309 249.328C358.128 248.936 357.822 248.6 357.428 248.364C357.035 248.128 356.573 248.002 356.1 248.002C355.786 248.002 355.475 248.058 355.185 248.165C354.895 248.273 354.631 248.432 354.409 248.631C354.187 248.831 354.011 249.067 353.891 249.328C353.771 249.589 353.709 249.868 353.709 250.15Z" fill="#263238"/>
<path d="M359.008 245.668L354.329 243.175C354.329 243.175 356.129 241.504 357.915 242.512C358.431 242.877 358.812 243.374 359.007 243.938C359.202 244.501 359.202 245.105 359.008 245.668Z" fill="#263238"/>
<path d="M347.716 264.564C344.993 264.738 342.285 264.084 340.026 262.708C340.026 262.708 339.495 266.354 342.889 267.044C346.284 267.733 347.716 264.564 347.716 264.564Z" fill="#F28F8F"/>
<path d="M320.469 257.907C320.549 256.119 320.181 254.338 319.392 252.696C319.009 251.676 318.301 250.779 317.357 250.117C316.412 249.455 315.272 249.056 314.078 248.97C307.938 248.811 307.111 254.115 307.2 256.011C307.421 260.97 311.879 266.327 320.203 266.526L320.469 257.907Z" fill="#FFA8A7"/>
<path d="M340.366 280.847L346.801 288.366C347.527 289.211 348.038 290.189 348.298 291.23C348.559 292.272 348.561 293.353 348.307 294.395C348.052 295.438 347.546 296.418 346.824 297.267C346.103 298.115 345.183 298.811 344.129 299.305C341.272 300.648 337.985 301.056 334.829 300.461C331.673 299.866 328.846 298.304 326.831 296.043L318.536 286.761L340.366 280.847Z" fill="#FFA8A7"/>
<path d="M340.484 371.28L358.742 380.204C361.537 380.009 364.345 380.009 367.14 380.204C370.358 380.549 378.948 381.955 381.148 382.047C383.347 382.14 381.236 385.853 375.435 385.522C375.435 385.522 388.528 390.905 388.985 394.14C389.443 397.376 378.491 404.748 369.34 400.598C366.95 399.34 364.377 398.39 361.694 397.774C359.199 397.442 351.834 396.116 346.668 391.316L331.362 386.927C331.362 386.927 324.543 372.699 340.484 371.28Z" fill="#FFA8A7"/>
<path d="M304.617 292.039C304.617 292.039 315.702 298.921 313.857 320.07C312.747 332.9 312.747 345.787 313.857 358.617L340.484 371.28C337.615 372.983 335.274 375.311 333.679 378.048C332.083 380.784 331.286 383.839 331.362 386.927C331.362 386.927 293.075 379.846 290.787 371.837C288.499 363.828 287.658 325.507 287.658 318.797C287.658 312.088 290.772 297.369 304.617 292.039Z" fill="#FFA8A7"/>
<path d="M287.658 318.864C287.658 321.688 287.82 330.188 288.16 339.655C296.092 342.554 304.921 342.789 313.03 340.318C313.03 334.418 313.207 327.469 313.857 320.07C315.702 298.921 304.617 292.039 304.617 292.039C290.772 297.369 287.658 312.194 287.658 318.864Z" fill="url(#paint8_linear_3211_2298)"/>
<path opacity="0.2" d="M287.658 318.864C287.658 321.688 287.82 330.188 288.16 339.655C296.092 342.554 304.921 342.789 313.03 340.318C313.03 334.418 313.207 327.469 313.857 320.07C315.702 298.921 304.617 292.039 304.617 292.039C290.772 297.369 287.658 312.194 287.658 318.864Z" fill="black"/>
<path d="M313.827 358.617C310.897 358.554 307.983 359.033 305.266 360.023C307.709 358.298 310.599 357.157 313.665 356.708L313.827 358.617Z" fill="#F28F8F"/>
<path d="M479.095 333.715L470.844 382.67C470.844 382.67 470.844 382.67 470.844 382.75L388.188 425.832C388.167 425.841 388.143 425.846 388.119 425.844C388.095 425.843 388.072 425.836 388.053 425.823C388.033 425.811 388.017 425.794 388.007 425.775C387.997 425.755 387.994 425.734 387.996 425.712L396.07 378.242C396.248 377.231 396.667 376.267 397.299 375.415C397.931 374.564 398.76 373.845 399.73 373.309L475.405 331.5C475.803 331.284 476.262 331.174 476.728 331.183C477.193 331.193 477.646 331.321 478.033 331.553C478.421 331.786 478.726 332.113 478.914 332.495C479.102 332.878 479.165 333.301 479.095 333.715Z" fill="#FAFAFA"/>
<path d="M388.011 425.832L343.908 402.852C342.892 402.319 342.048 401.556 341.46 400.64C340.873 399.724 340.561 398.685 340.558 397.628L388.454 422.464L388.011 425.832Z" fill="#E0E0E0"/>
<path d="M431.228 380.894C431.228 384.381 433.974 385.8 437.339 384.05C439.114 383.009 440.591 381.607 441.65 379.957C442.709 378.308 443.32 376.457 443.435 374.556C443.435 371.055 440.704 369.649 437.339 371.386C435.562 372.43 434.083 373.834 433.021 375.485C431.96 377.137 431.346 378.99 431.228 380.894Z" fill="#E0E0E0"/>
<path opacity="0.2" d="M349.812 331.182C349.812 331.182 333.118 335.266 324.262 323.995C324.262 323.995 329.989 338.541 349.812 331.182Z" fill="black"/>
<path d="M303.51 230.432C303.51 230.432 299.451 221.15 297.015 222.278C294.58 223.405 299.525 229.292 299.525 229.292C299.525 229.292 291.23 226.375 290.536 228.099C289.842 229.822 301.134 233.708 301.134 233.708L303.51 230.432Z" fill="#263238"/>
<path d="M337.65 427.649L330.078 423.671L256.647 385.959C256.029 385.642 255.511 385.189 255.143 384.641C254.775 384.094 254.569 383.472 254.544 382.833C254.519 382.194 254.676 381.56 255 380.991C255.324 380.422 255.805 379.936 256.396 379.581L261.134 376.717L255.23 340.252C254.831 337.797 253.829 335.453 252.297 333.389C250.766 331.325 248.742 329.593 246.374 328.318L235.555 322.497C235.034 322.214 234.439 322.061 233.83 322.054C233.221 322.046 232.621 322.185 232.092 322.455C231.563 322.725 231.123 323.117 230.819 323.59C230.514 324.064 230.356 324.602 230.359 325.149V458.067C230.365 460.361 231.052 462.613 232.35 464.59C233.647 466.566 235.507 468.196 237.739 469.311L339.893 520.561C340.717 520.982 341.645 521.209 342.592 521.221C343.54 521.233 344.475 521.028 345.31 520.628L345.709 520.429C346.523 519.965 347.192 519.322 347.652 518.561C348.112 517.8 348.347 516.946 348.336 516.079V444.33C348.337 440.952 347.351 437.633 345.476 434.705C343.6 431.778 340.902 429.344 337.65 427.649Z" fill="#263238"/>
<path d="M279.126 373.64C277.061 372.555 274.698 372.015 272.307 372.081C269.916 372.146 267.594 372.815 265.606 374.012L261.06 376.743L256.322 379.607C255.731 379.963 255.25 380.448 254.926 381.017C254.602 381.586 254.445 382.22 254.47 382.859C254.495 383.498 254.701 384.121 255.07 384.668C255.438 385.215 255.955 385.668 256.573 385.985L330.004 423.697L337.384 427.463L337.738 427.675C341.054 429.444 343.787 431.972 345.66 435C347.532 438.029 348.476 441.449 348.395 444.913V516.079C348.4 516.95 348.156 517.808 347.685 518.57C347.215 519.331 346.534 519.971 345.709 520.429L363.864 511.239C365.981 510.165 367.741 508.604 368.966 506.716C370.19 504.829 370.833 502.683 370.83 500.499V431.547C370.838 428.522 369.959 425.549 368.283 422.926C366.607 420.303 364.192 418.122 361.281 416.603L279.126 373.64Z" fill="#455A64"/>
<path d="M361.222 416.629L279.126 373.64C277.061 372.555 274.698 372.015 272.307 372.081C269.916 372.146 267.594 372.815 265.606 374.012L261.06 376.743L256.322 379.607C255.731 379.963 255.25 380.448 254.926 381.017C254.602 381.586 254.445 382.22 254.47 382.859C254.495 383.498 254.701 384.121 255.07 384.668C255.438 385.215 255.955 385.668 256.573 385.985L330.004 423.697L337.384 427.463L337.738 427.675C341.334 429.501 344.216 432.279 345.989 435.631L368.129 422.875C366.467 420.291 364.087 418.139 361.222 416.629Z" fill="#37474F"/>
<path d="M304.499 461.342V547.717L234.404 511.359V424.983L304.499 461.342Z" fill="url(#paint9_linear_3211_2298)"/>
<path opacity="0.4" d="M304.499 461.342V547.717L234.404 511.359V424.983L304.499 461.342Z" fill="black"/>
<path d="M310.034 458.571V544.96L304.499 547.718V461.342L310.034 458.571Z" fill="url(#paint10_linear_3211_2298)"/>
<path d="M239.939 494.93V581.305L169.858 544.96V458.571L239.939 494.93Z" fill="url(#paint11_linear_3211_2298)"/>
<path opacity="0.4" d="M239.939 494.93V581.305L169.858 544.96V458.571L239.939 494.93Z" fill="black"/>
<path d="M245.488 492.171V578.547L239.939 581.305V494.929L245.488 492.171Z" fill="url(#paint12_linear_3211_2298)"/>
<path d="M239.939 501.812L310.034 465.466V458.571L239.939 494.93V501.812Z" fill="url(#paint13_linear_3211_2298)"/>
<path d="M239.939 581.305L310.034 544.96V495.341L239.939 531.7V581.305Z" fill="url(#paint14_linear_3211_2298)"/>
<path d="M239.939 494.93L310.034 458.571L239.939 422.225L169.858 458.571L239.939 494.93Z" fill="url(#paint15_linear_3211_2298)"/>
<path opacity="0.2" d="M239.939 494.93L310.034 458.571L239.939 422.225L169.858 458.571L239.939 494.93Z" fill="black"/>
<path d="M245.489 530.109L304.499 499.504V468.317L245.489 498.921V530.109Z" fill="url(#paint16_linear_3211_2298)"/>
<path opacity="0.6" d="M245.489 530.109L304.499 499.504V468.317L245.489 498.921V530.109Z" fill="white"/>
<path d="M274.388 496.627C274.388 497.39 274.64 498.136 275.112 498.77C275.584 499.405 276.255 499.9 277.04 500.192C277.825 500.484 278.688 500.56 279.522 500.411C280.355 500.262 281.12 499.895 281.721 499.355C282.321 498.816 282.73 498.128 282.896 497.38C283.062 496.631 282.977 495.855 282.652 495.15C282.327 494.445 281.776 493.842 281.07 493.418C280.364 492.994 279.533 492.768 278.684 492.768C277.544 492.768 276.452 493.175 275.646 493.898C274.841 494.622 274.388 495.603 274.388 496.627Z" fill="white"/>
<path d="M245.489 568.92L304.499 538.316V507.129L245.489 537.733V568.92Z" fill="url(#paint17_linear_3211_2298)"/>
<path opacity="0.6" d="M245.489 568.92L304.499 538.316V507.129L245.489 537.733V568.92Z" fill="white"/>
<path d="M274.388 535.439C274.388 536.202 274.64 536.948 275.112 537.582C275.584 538.217 276.255 538.712 277.04 539.004C277.825 539.296 278.688 539.372 279.522 539.223C280.355 539.074 281.12 538.707 281.721 538.167C282.321 537.628 282.73 536.94 282.896 536.191C283.062 535.443 282.977 534.667 282.652 533.962C282.327 533.257 281.776 532.654 281.07 532.23C280.364 531.806 279.533 531.58 278.684 531.58C277.544 531.58 276.452 531.987 275.646 532.71C274.841 533.434 274.388 534.415 274.388 535.439Z" fill="white"/>
<path d="M221.577 452.696C222.579 451.132 224.052 449.854 225.828 449.01C232.485 445.562 243.274 445.562 249.931 449.01C251.706 449.854 253.18 451.132 254.182 452.696H254.92V455.269C254.92 457.536 253.267 459.79 249.931 461.514C243.274 464.975 232.485 464.975 225.828 461.514C222.492 459.79 220.824 457.536 220.824 455.269V452.696H221.577Z" fill="#263238"/>
<path d="M225.828 458.942C232.485 462.403 243.274 462.403 249.931 458.942C256.588 455.481 256.588 449.899 249.931 446.438C243.274 442.977 232.485 442.99 225.828 446.438C219.171 449.885 219.171 455.494 225.828 458.942Z" fill="#37474F"/>
<path d="M238.241 452.696H237.518C236.633 452.696 235.785 452.381 235.159 451.819C234.533 451.257 234.182 450.494 234.182 449.7V379.422H241.562V449.7C241.562 450.494 241.211 451.257 240.585 451.819C239.959 452.381 239.111 452.696 238.226 452.696H238.241Z" fill="#263238"/>
<path d="M204.839 407.188C204.943 406.83 205.075 406.459 205.223 406.101L215.673 376.239H260.086L270.536 406.101C270.684 406.459 270.816 406.83 270.92 407.188C272.396 412.413 269.222 417.915 261.488 421.933C248.44 428.683 227.304 428.683 214.256 421.933C206.537 417.915 203.393 412.386 204.839 407.188Z" fill="url(#paint18_linear_3211_2298)"/>
<path opacity="0.4" d="M204.839 407.188C204.943 406.83 205.075 406.459 205.223 406.101L215.673 376.239H260.086L270.536 406.101C270.684 406.459 270.816 406.83 270.92 407.188C272.396 412.413 269.222 417.915 261.488 421.933C248.44 428.683 227.304 428.683 214.256 421.933C206.537 417.915 203.393 412.386 204.839 407.188Z" fill="white"/>
<path d="M237.872 389.539C250.263 389.539 260.307 384.333 260.307 377.91C260.307 371.488 250.263 366.281 237.872 366.281C225.482 366.281 215.437 371.488 215.437 377.91C215.437 384.333 225.482 389.539 237.872 389.539Z" fill="url(#paint19_linear_3211_2298)"/>
<path d="M237.872 366.268V368.628C242.937 368.523 247.948 369.587 252.426 371.718C255.806 373.468 257.68 375.696 257.68 377.897C257.68 380.098 255.806 382.312 252.426 384.076C247.91 386.108 242.93 387.166 237.88 387.166C232.829 387.166 227.849 386.108 223.334 384.076C219.954 382.312 218.079 380.098 218.079 377.897C218.079 375.696 219.954 373.468 223.334 371.718C227.806 369.588 232.812 368.524 237.872 368.628V366.254M237.872 366.254C232.352 366.161 226.896 367.334 222.02 369.662C213.252 374.21 213.252 381.596 222.02 386.118C226.935 388.358 232.368 389.525 237.88 389.525C243.391 389.525 248.824 388.358 253.739 386.118C262.507 381.583 262.507 374.184 253.739 369.662C248.859 367.332 243.398 366.159 237.872 366.254Z" fill="url(#paint20_linear_3211_2298)"/>
<path opacity="0.2" d="M237.872 366.268V368.628C242.937 368.523 247.948 369.587 252.426 371.718C255.806 373.468 257.68 375.696 257.68 377.897C257.68 380.098 255.806 382.312 252.426 384.076C247.91 386.108 242.93 387.166 237.88 387.166C232.829 387.166 227.849 386.108 223.334 384.076C219.954 382.312 218.079 380.098 218.079 377.897C218.079 375.696 219.954 373.468 223.334 371.718C227.806 369.588 232.812 368.524 237.872 368.628V366.254M237.872 366.254C232.352 366.161 226.896 367.334 222.02 369.662C213.252 374.21 213.252 381.596 222.02 386.118C226.935 388.358 232.368 389.525 237.88 389.525C243.391 389.525 248.824 388.358 253.739 386.118C262.507 381.583 262.507 374.184 253.739 369.662C248.859 367.332 243.398 366.159 237.872 366.254Z" fill="white"/>
<path d="M670.576 183.266L473.043 80.8062C470.785 79.6261 468.733 79.7189 467.302 80.8062L460.512 85.0362L465.117 90.1678V233.376C465.117 238.613 468.674 244.7 473.043 246.981L668.628 348.38L668.997 353.949L676.2 349.52C677.026 348.821 677.664 347.963 678.066 347.009C678.467 346.056 678.622 345.032 678.517 344.017V196.831C678.502 191.62 674.96 185.534 670.576 183.266Z" fill="url(#paint21_linear_3211_2298)"/>
<path opacity="0.3" d="M670.576 183.266L473.043 80.8062C470.785 79.6261 468.733 79.7189 467.302 80.8062L460.512 85.0362L465.117 90.1678V233.376C465.117 238.613 468.674 244.7 473.043 246.981L668.628 348.38L668.997 353.949L676.2 349.52C677.026 348.821 677.664 347.963 678.066 347.009C678.467 346.056 678.622 345.032 678.517 344.017V196.831C678.502 191.62 674.96 185.534 670.576 183.266Z" fill="black"/>
<path d="M663.86 353.551L466.313 251.091C461.885 248.824 458.386 242.737 458.386 237.486V90.3005C458.386 85.0628 461.944 82.6495 466.313 84.9965L663.86 187.443C668.288 189.724 671.772 195.81 671.772 201.048V348.234C671.772 353.419 668.229 355.819 663.86 353.551Z" fill="url(#paint22_linear_3211_2298)"/>
<path d="M626.961 334.417L640.732 341.564L542.755 124.617L527.316 116.608L626.961 334.417Z" fill="url(#paint23_linear_3211_2298)"/>
<path opacity="0.2" d="M626.961 334.417L640.732 341.564L542.755 124.617L527.316 116.608L626.961 334.417Z" fill="white"/>
<path d="M657.971 350.528L662.768 352.902L564.777 135.955L558.341 132.719L657.971 350.528Z" fill="url(#paint24_linear_3211_2298)"/>
<path opacity="0.2" d="M657.971 350.528L662.768 352.902L564.777 135.955L558.341 132.719L657.971 350.528Z" fill="white"/>
<path d="M485.22 115.441C485.22 118.451 482.859 119.671 479.951 118.173C478.433 117.281 477.167 116.083 476.255 114.674C475.343 113.265 474.809 111.685 474.696 110.058C474.696 107.035 477.058 105.815 479.951 107.326C481.474 108.215 482.744 109.412 483.66 110.821C484.575 112.23 485.109 113.813 485.22 115.441Z" fill="#455A64"/>
<path d="M517.515 132.149C517.282 132.148 517.053 132.093 516.851 131.99L491.641 118.902C491.49 118.824 491.357 118.719 491.251 118.595C491.144 118.471 491.066 118.329 491.021 118.177C490.976 118.026 490.964 117.868 490.987 117.712C491.01 117.557 491.066 117.407 491.154 117.271C491.241 117.135 491.357 117.016 491.496 116.921C491.634 116.825 491.792 116.755 491.961 116.715C492.129 116.674 492.305 116.664 492.478 116.684C492.651 116.704 492.818 116.755 492.969 116.834L518.179 129.948C518.331 130.026 518.463 130.13 518.569 130.255C518.676 130.379 518.754 130.521 518.799 130.673C518.844 130.824 518.856 130.982 518.833 131.138C518.81 131.293 518.754 131.443 518.666 131.579C518.547 131.756 518.378 131.902 518.176 132.003C517.974 132.103 517.746 132.153 517.515 132.149Z" fill="#455A64"/>
<path d="M655.344 320.255C655.012 320.259 654.685 320.181 654.399 320.03L473.796 226.321C473.579 226.209 473.389 226.06 473.236 225.881C473.083 225.703 472.971 225.499 472.906 225.282C472.841 225.064 472.824 224.838 472.856 224.615C472.889 224.391 472.97 224.176 473.095 223.981C473.22 223.786 473.386 223.615 473.585 223.478C473.784 223.341 474.01 223.24 474.252 223.181C474.494 223.123 474.746 223.108 474.995 223.137C475.243 223.166 475.483 223.239 475.7 223.351L656.333 317.06C656.699 317.247 656.985 317.539 657.146 317.888C657.308 318.237 657.336 318.625 657.227 318.99C657.117 319.356 656.876 319.678 656.54 319.907C656.205 320.136 655.795 320.258 655.373 320.255H655.344Z" fill="#455A64"/>
<path d="M655.344 198.9C655.173 198.899 655.005 198.858 654.857 198.781L650.001 196.248C649.888 196.189 649.79 196.111 649.711 196.017C649.632 195.924 649.574 195.818 649.541 195.704C649.508 195.591 649.501 195.473 649.519 195.357C649.537 195.241 649.58 195.129 649.647 195.028C649.71 194.924 649.795 194.833 649.898 194.76C650.002 194.687 650.12 194.633 650.247 194.602C650.374 194.571 650.506 194.563 650.637 194.58C650.767 194.596 650.892 194.636 651.005 194.697L655.831 197.203C656.045 197.288 656.219 197.439 656.321 197.628C656.423 197.817 656.447 198.033 656.388 198.237C656.33 198.44 656.193 198.619 656.002 198.74C655.81 198.862 655.577 198.918 655.344 198.9Z" fill="#455A64"/>
<path d="M655.344 202.082C655.173 202.082 655.005 202.041 654.857 201.963L650.016 199.457C649.903 199.398 649.804 199.32 649.725 199.226C649.646 199.133 649.589 199.027 649.556 198.913C649.523 198.8 649.515 198.682 649.534 198.566C649.552 198.45 649.595 198.338 649.661 198.237C649.724 198.133 649.81 198.042 649.913 197.969C650.016 197.896 650.135 197.842 650.262 197.811C650.389 197.78 650.521 197.772 650.651 197.789C650.781 197.805 650.907 197.845 651.019 197.906L655.846 200.412C656.043 200.507 656.198 200.658 656.286 200.843C656.375 201.027 656.391 201.232 656.333 201.426C656.275 201.62 656.146 201.79 655.966 201.909C655.786 202.028 655.567 202.089 655.344 202.082Z" fill="#455A64"/>
<path d="M655.344 205.278C655.173 205.277 655.005 205.236 654.857 205.158L650.016 202.652C649.903 202.593 649.804 202.515 649.725 202.422C649.646 202.328 649.589 202.222 649.556 202.109C649.523 201.995 649.515 201.877 649.534 201.761C649.552 201.645 649.595 201.533 649.661 201.432C649.724 201.329 649.81 201.237 649.913 201.164C650.016 201.091 650.135 201.037 650.262 201.006C650.389 200.975 650.521 200.968 650.651 200.984C650.781 201 650.907 201.04 651.019 201.101L655.846 203.607C656.043 203.702 656.198 203.854 656.286 204.038C656.375 204.222 656.391 204.428 656.333 204.621C656.275 204.815 656.146 204.985 655.966 205.104C655.786 205.224 655.567 205.285 655.344 205.278Z" fill="#455A64"/>
<path d="M546.297 189.498V214.122C546.298 214.355 546.353 214.586 546.459 214.798C546.565 215.011 546.72 215.201 546.914 215.356C547.108 215.511 547.335 215.628 547.583 215.699C547.83 215.77 548.091 215.793 548.349 215.766L573.249 213.114C573.594 213.077 573.92 212.954 574.189 212.758C574.459 212.562 574.662 212.301 574.775 212.006C574.887 211.711 574.905 211.394 574.826 211.09C574.746 210.787 574.573 210.509 574.326 210.29L549.426 188.292C549.168 188.057 548.837 187.898 548.476 187.835C548.116 187.772 547.742 187.808 547.405 187.938C547.067 188.069 546.781 188.287 546.584 188.565C546.386 188.843 546.286 189.169 546.297 189.498Z" fill="#FAFAFA"/>
<path d="M551.552 262.72L475.656 223.351C475.439 223.239 475.199 223.166 474.951 223.137C474.702 223.108 474.45 223.123 474.208 223.181C473.966 223.24 473.739 223.341 473.541 223.478C473.342 223.615 473.176 223.786 473.051 223.981C472.926 224.176 472.845 224.391 472.812 224.615C472.78 224.838 472.797 225.064 472.862 225.282C472.927 225.499 473.039 225.703 473.192 225.881C473.344 226.06 473.535 226.209 473.752 226.321L551.552 266.685V262.72Z" fill="#EBEBEB"/>
<path d="M556.806 267.03C556.806 270.04 554.459 271.26 551.552 269.761C550.02 268.863 548.746 267.652 547.833 266.229C546.92 264.805 546.394 263.208 546.297 261.567C546.297 258.557 548.644 257.337 551.552 258.915C553.073 259.804 554.341 261.001 555.254 262.411C556.166 263.82 556.698 265.402 556.806 267.03Z" fill="#FAFAFA"/>
<path d="M489.722 243.984V250.455C489.724 250.516 489.739 250.576 489.768 250.631C489.797 250.687 489.839 250.736 489.89 250.776C489.942 250.816 490.002 250.846 490.067 250.863C490.132 250.881 490.201 250.887 490.268 250.879L496.807 250.203C496.897 250.192 496.981 250.159 497.052 250.107C497.122 250.055 497.174 249.987 497.203 249.91C497.233 249.833 497.237 249.75 497.217 249.67C497.196 249.591 497.151 249.518 497.087 249.46L490.549 243.666C490.48 243.606 490.392 243.565 490.298 243.549C490.203 243.534 490.106 243.543 490.017 243.577C489.929 243.611 489.854 243.668 489.801 243.741C489.748 243.813 489.721 243.898 489.722 243.984Z" fill="#FAFAFA"/>
<path d="M505.84 252.828V259.299C505.842 259.359 505.857 259.418 505.885 259.472C505.913 259.526 505.953 259.575 506.003 259.615C506.053 259.655 506.111 259.685 506.175 259.703C506.238 259.722 506.305 259.729 506.371 259.723L512.925 259.047C513.015 259.036 513.099 259.003 513.17 258.951C513.24 258.9 513.292 258.831 513.321 258.754C513.35 258.677 513.355 258.594 513.335 258.515C513.314 258.435 513.269 258.362 513.205 258.305L506.666 252.51C506.597 252.45 506.51 252.409 506.416 252.394C506.321 252.378 506.223 252.388 506.135 252.422C506.047 252.456 505.971 252.512 505.919 252.585C505.866 252.657 505.839 252.742 505.84 252.828Z" fill="#FAFAFA"/>
<path d="M513.353 263.423C513.276 263.425 513.2 263.413 513.128 263.388C513.056 263.362 512.991 263.325 512.936 263.276C512.881 263.228 512.837 263.171 512.808 263.107C512.778 263.043 512.762 262.975 512.762 262.906V255.693C512.762 255.552 512.825 255.417 512.935 255.317C513.046 255.218 513.196 255.162 513.353 255.162C513.509 255.162 513.66 255.218 513.77 255.317C513.881 255.417 513.943 255.552 513.943 255.693V262.906C513.943 262.975 513.928 263.043 513.898 263.107C513.868 263.171 513.824 263.228 513.769 263.276C513.714 263.325 513.649 263.362 513.578 263.388C513.506 263.413 513.43 263.425 513.353 263.423Z" fill="#FAFAFA"/>
<path d="M480.896 244.833V238.362C480.896 238.299 480.882 238.238 480.854 238.181C480.826 238.124 480.784 238.073 480.733 238.032C480.681 237.991 480.62 237.959 480.554 237.941C480.488 237.922 480.418 237.917 480.349 237.924L473.796 238.68C473.706 238.691 473.621 238.724 473.551 238.776C473.481 238.828 473.429 238.896 473.399 238.973C473.37 239.05 473.366 239.133 473.386 239.213C473.407 239.292 473.452 239.365 473.516 239.423L480.054 245.204C480.125 245.275 480.22 245.323 480.324 245.341C480.428 245.359 480.536 245.346 480.631 245.304C480.726 245.262 480.804 245.193 480.851 245.108C480.899 245.023 480.915 244.926 480.896 244.833Z" fill="#FAFAFA"/>
<path d="M473.383 242.499C473.226 242.499 473.076 242.443 472.965 242.343C472.855 242.244 472.792 242.109 472.792 241.968V234.702C472.792 234.561 472.855 234.426 472.965 234.327C473.076 234.227 473.226 234.171 473.383 234.171C473.539 234.171 473.69 234.227 473.8 234.327C473.911 234.426 473.973 234.561 473.973 234.702V241.915C473.982 241.989 473.972 242.064 473.946 242.135C473.921 242.205 473.878 242.27 473.823 242.325C473.767 242.38 473.699 242.424 473.623 242.454C473.548 242.484 473.466 242.499 473.383 242.499Z" fill="#FAFAFA"/>
<path d="M648.259 326.965C648.083 326.965 647.914 326.902 647.79 326.79C647.665 326.678 647.595 326.526 647.595 326.368V323.716C647.598 323.612 647.632 323.51 647.691 323.421C647.751 323.331 647.835 323.257 647.936 323.205C648.036 323.153 648.15 323.126 648.266 323.125C648.382 323.123 648.497 323.149 648.599 323.199L651.064 324.525C651.216 324.603 651.327 324.732 651.374 324.883C651.421 325.034 651.4 325.196 651.314 325.334C651.225 325.471 651.079 325.572 650.908 325.614C650.737 325.656 650.554 325.636 650.399 325.559L648.923 324.79V326.381C648.92 326.537 648.848 326.686 648.724 326.795C648.6 326.904 648.433 326.965 648.259 326.965Z" fill="#FAFAFA"/>
<path d="M650.739 333.622C650.62 333.62 650.504 333.593 650.399 333.542L647.934 332.216C647.832 332.164 647.747 332.089 647.687 331.999C647.627 331.908 647.596 331.804 647.595 331.699V329.312C647.595 329.154 647.665 329.002 647.79 328.89C647.914 328.778 648.083 328.715 648.259 328.715C648.435 328.715 648.604 328.778 648.729 328.89C648.853 329.002 648.923 329.154 648.923 329.312V331.354L651.064 332.468C651.216 332.546 651.327 332.675 651.374 332.826C651.421 332.977 651.4 333.139 651.314 333.277C651.266 333.378 651.186 333.465 651.084 333.526C650.981 333.587 650.862 333.62 650.739 333.622Z" fill="#FAFAFA"/>
<path d="M655.979 336.34C655.859 336.335 655.742 336.303 655.639 336.247L653.086 334.921C652.935 334.838 652.826 334.706 652.782 334.553C652.738 334.4 652.762 334.237 652.85 334.099C652.939 333.965 653.083 333.867 653.251 333.827C653.42 333.788 653.599 333.809 653.75 333.887L655.315 334.696V333.37C655.315 333.211 655.384 333.06 655.509 332.948C655.634 332.836 655.803 332.773 655.979 332.773C656.155 332.773 656.324 332.836 656.448 332.948C656.573 333.06 656.643 333.211 656.643 333.37V335.703C656.641 335.807 656.609 335.908 656.549 335.997C656.489 336.085 656.405 336.158 656.303 336.207C656.21 336.276 656.098 336.322 655.979 336.34Z" fill="#FAFAFA"/>
<path d="M655.979 330.943C655.803 330.943 655.634 330.88 655.509 330.768C655.385 330.656 655.315 330.504 655.315 330.346V328.092L653.839 327.296C653.763 327.257 653.697 327.205 653.644 327.143C653.59 327.081 653.551 327.01 653.529 326.934C653.506 326.858 653.5 326.779 653.512 326.701C653.523 326.624 653.551 326.549 653.595 326.481C653.639 326.413 653.697 326.353 653.766 326.306C653.835 326.258 653.914 326.223 653.998 326.203C654.083 326.182 654.171 326.177 654.257 326.187C654.344 326.197 654.427 326.223 654.503 326.262L656.363 327.23C656.466 327.28 656.552 327.355 656.612 327.446C656.672 327.537 656.703 327.641 656.702 327.747V330.399C656.695 330.478 656.67 330.554 656.63 330.624C656.589 330.694 656.534 330.756 656.466 330.806C656.399 330.857 656.322 330.895 656.238 330.918C656.154 330.942 656.066 330.95 655.979 330.943Z" fill="#FAFAFA"/>
<path d="M638.901 327.522C638.782 327.523 638.665 327.495 638.562 327.442L629.189 322.576C629.091 322.521 629.011 322.445 628.954 322.354C628.897 322.264 628.866 322.163 628.865 322.059V314.103C628.866 313.999 628.897 313.898 628.954 313.807C629.011 313.717 629.091 313.641 629.189 313.586C629.29 313.533 629.405 313.506 629.521 313.506C629.638 313.506 629.752 313.533 629.853 313.586L639.226 318.452C639.328 318.504 639.414 318.579 639.473 318.67C639.533 318.76 639.565 318.864 639.566 318.969V326.925C639.562 327.083 639.491 327.232 639.367 327.344C639.243 327.455 639.076 327.519 638.901 327.522ZM630.193 321.714L638.237 325.891V319.261L630.252 315.058L630.193 321.714Z" fill="#FAFAFA"/>
<path d="M445.752 65.9551L388.04 36.2262C387.613 35.942 387.096 35.7886 386.564 35.7886C386.033 35.7886 385.516 35.942 385.088 36.2262L381.59 38.4539L383.967 41.1059V79.4273C383.989 80.7904 384.368 82.1296 385.073 83.3367C385.778 84.5438 386.79 85.5848 388.026 86.3755L444.734 115.548L444.925 118.412L448.601 116.144C449.027 115.786 449.356 115.346 449.563 114.857C449.77 114.367 449.85 113.841 449.796 113.32V72.9299C449.78 71.5634 449.406 70.2197 448.703 69.0077C448.001 67.7958 446.989 66.7499 445.752 65.9551Z" fill="url(#paint25_linear_3211_2298)"/>
<path opacity="0.3" d="M445.752 65.9551L388.04 36.2262C387.613 35.942 387.096 35.7886 386.564 35.7886C386.033 35.7886 385.516 35.942 385.088 36.2262L381.59 38.4539L383.967 41.1059V79.4273C383.989 80.7904 384.368 82.1296 385.073 83.3367C385.778 84.5438 386.79 85.5848 388.026 86.3755L444.734 115.548L444.925 118.412L448.601 116.144C449.027 115.786 449.356 115.346 449.563 114.857C449.77 114.367 449.85 113.841 449.796 113.32V72.9299C449.78 71.5634 449.406 70.2197 448.703 69.0077C448.001 67.7958 446.989 66.7499 445.752 65.9551Z" fill="black"/>
<path d="M442.298 118.16L384.587 88.431C383.351 87.6403 382.339 86.5993 381.634 85.3922C380.929 84.1851 380.55 82.8459 380.528 81.4828V41.1061C380.528 38.4541 382.343 37.1944 384.587 38.3613L442.298 68.0769C443.533 68.8719 444.543 69.9157 445.248 71.1246C445.953 72.3335 446.333 73.6739 446.357 75.0384V115.362C446.357 118.094 444.542 119.34 442.298 118.16Z" fill="url(#paint26_linear_3211_2298)"/>
<path d="M394.24 53.9413C394.24 55.4795 393.044 56.1027 391.553 55.2673C390.768 54.8101 390.115 54.1918 389.648 53.4633C389.181 52.7347 388.913 51.9169 388.867 51.0772C388.867 49.539 390.063 48.9158 391.553 49.7512C392.339 50.2083 392.992 50.8267 393.459 51.5552C393.926 52.2838 394.194 53.1016 394.24 53.9413Z" fill="#455A64"/>
<path d="M410.756 62.4808C410.637 62.4815 410.52 62.454 410.417 62.4012L397.531 55.6917C397.444 55.6571 397.365 55.6063 397.301 55.5426C397.237 55.4789 397.189 55.4037 397.159 55.3221C397.129 55.2404 397.119 55.154 397.13 55.0686C397.14 54.9832 397.17 54.9007 397.218 54.8265C397.266 54.7522 397.331 54.688 397.409 54.6379C397.486 54.5878 397.575 54.553 397.669 54.5358C397.762 54.5186 397.859 54.5194 397.952 54.538C398.046 54.5567 398.133 54.5928 398.21 54.6441L411.096 61.2741C411.25 61.3571 411.362 61.4905 411.409 61.6463C411.456 61.8021 411.433 61.9682 411.347 62.1095C411.294 62.2132 411.212 62.3023 411.108 62.3676C411.004 62.4329 410.883 62.472 410.756 62.4808Z" fill="#455A64"/>
<path d="M406.136 71.962V84.559C406.138 84.6776 406.166 84.7947 406.221 84.9026C406.276 85.0105 406.355 85.1069 406.454 85.1857C406.553 85.2644 406.669 85.3236 406.794 85.3596C406.92 85.3955 407.053 85.4074 407.184 85.3944L419.907 84.0684C420.084 84.0506 420.252 83.9882 420.391 83.8885C420.531 83.7887 420.636 83.6555 420.694 83.5044C420.753 83.3533 420.763 83.1904 420.723 83.0344C420.683 82.8785 420.595 82.7359 420.468 82.6231L407.745 71.3653C407.613 71.248 407.445 71.1683 407.263 71.1361C407.081 71.1039 406.892 71.1207 406.72 71.1843C406.549 71.248 406.402 71.3558 406.298 71.4941C406.194 71.6324 406.138 71.7952 406.136 71.962Z" fill="#FAFAFA"/>
<path d="M445.752 128.688L388.04 98.9591C387.611 98.6788 387.095 98.5278 386.564 98.5278C386.034 98.5278 385.517 98.6788 385.088 98.9591L381.605 101.134L383.981 103.786V142.094C384.003 143.457 384.382 144.796 385.088 146.003C385.793 147.21 386.804 148.251 388.04 149.042L444.748 178.214L444.94 181.065L448.615 178.798C449.041 178.44 449.37 177.999 449.578 177.51C449.785 177.02 449.865 176.495 449.811 175.973V135.636C449.786 134.274 449.407 132.935 448.702 131.728C447.997 130.522 446.986 129.48 445.752 128.688Z" fill="url(#paint27_linear_3211_2298)"/>
<path opacity="0.3" d="M445.752 128.688L388.04 98.9591C387.611 98.6788 387.095 98.5278 386.564 98.5278C386.034 98.5278 385.517 98.6788 385.088 98.9591L381.605 101.134L383.981 103.786V142.094C384.003 143.457 384.382 144.796 385.088 146.003C385.793 147.21 386.804 148.251 388.04 149.042L444.748 178.214L444.94 181.065L448.615 178.798C449.041 178.44 449.37 177.999 449.578 177.51C449.785 177.02 449.865 176.495 449.811 175.973V135.636C449.786 134.274 449.407 132.935 448.702 131.728C447.997 130.522 446.986 129.48 445.752 128.688Z" fill="black"/>
<path d="M442.298 180.893L384.587 151.164C383.352 150.369 382.342 149.325 381.637 148.116C380.932 146.907 380.552 145.567 380.528 144.202V103.839C380.528 101.187 382.343 99.8608 384.587 101.094L442.298 130.823C443.534 131.614 444.546 132.655 445.251 133.862C445.956 135.069 446.335 136.408 446.357 137.771V178.148C446.357 180.826 444.542 182.06 442.298 180.893Z" fill="url(#paint28_linear_3211_2298)"/>
<path d="M394.24 116.688C394.24 118.226 393.044 118.849 391.553 118.08C390.768 117.623 390.115 117.005 389.648 116.276C389.181 115.548 388.913 114.73 388.867 113.89C388.867 112.352 390.063 111.729 391.553 112.564C392.329 113.015 392.976 113.623 393.443 114.339C393.909 115.055 394.182 115.86 394.24 116.688Z" fill="#455A64"/>
<path d="M410.756 125.214C410.637 125.215 410.52 125.187 410.417 125.135L397.531 118.438C397.444 118.404 397.365 118.353 397.301 118.289C397.237 118.225 397.189 118.15 397.159 118.069C397.129 117.987 397.119 117.901 397.13 117.815C397.14 117.73 397.17 117.647 397.218 117.573C397.266 117.499 397.331 117.435 397.409 117.384C397.486 117.334 397.575 117.3 397.669 117.282C397.762 117.265 397.859 117.266 397.952 117.285C398.046 117.303 398.133 117.339 398.21 117.391L411.096 124.021C411.25 124.104 411.362 124.237 411.409 124.393C411.456 124.549 411.433 124.715 411.347 124.856C411.295 124.959 411.212 125.047 411.108 125.11C411.004 125.173 410.882 125.209 410.756 125.214Z" fill="#455A64"/>
<path d="M418.712 135.252L406.52 137.466L406.077 147.159C405.593 146.946 405.045 146.88 404.515 146.972C403.986 147.064 403.504 147.308 403.143 147.668C402.782 148.028 402.562 148.483 402.515 148.966C402.468 149.449 402.598 149.932 402.884 150.342C403.17 150.753 403.598 151.068 404.101 151.241C404.605 151.413 405.158 151.434 405.676 151.299C406.194 151.164 406.649 150.881 406.971 150.493C407.294 150.105 407.467 149.633 407.465 149.148L408.173 140.277L417.029 138.395L417.118 146.894C416.735 146.742 416.316 146.68 415.9 146.713C415.484 146.747 415.083 146.875 414.737 147.085C414.391 147.296 414.11 147.582 413.921 147.917C413.732 148.252 413.641 148.625 413.656 149C413.671 149.375 413.793 149.741 414.008 150.063C414.224 150.384 414.528 150.651 414.89 150.838C415.253 151.026 415.662 151.127 416.08 151.133C416.498 151.139 416.911 151.049 417.28 150.872C417.66 150.689 417.981 150.421 418.211 150.093C418.442 149.765 418.573 149.39 418.594 149.003L418.712 135.252Z" fill="#FAFAFA"/>
<defs>
<linearGradient id="paint0_linear_3211_2298" x1="444.193" y1="465.625" x2="444.193" y2="520.038" gradientUnits="userSpaceOnUse">
<stop stop-color="#236FDA"/>
<stop offset="1" stop-color="#2A7FF8"/>
</linearGradient>
<linearGradient id="paint1_linear_3211_2298" x1="395.903" y1="359.983" x2="395.903" y2="476.525" gradientUnits="userSpaceOnUse">
<stop stop-color="#236FDA"/>
<stop offset="1" stop-color="#2A7FF8"/>
</linearGradient>
<linearGradient id="paint2_linear_3211_2298" x1="407.037" y1="378.52" x2="407.037" y2="476.525" gradientUnits="userSpaceOnUse">
<stop stop-color="#236FDA"/>
<stop offset="1" stop-color="#2A7FF8"/>
</linearGradient>
<linearGradient id="paint3_linear_3211_2298" x1="370.779" y1="372.314" x2="370.779" y2="381.941" gradientUnits="userSpaceOnUse">
<stop stop-color="#236FDA"/>
<stop offset="1" stop-color="#2A7FF8"/>
</linearGradient>
<linearGradient id="paint4_linear_3211_2298" x1="490.415" y1="515.509" x2="490.415" y2="550.305" gradientUnits="userSpaceOnUse">
<stop stop-color="#236FDA"/>
<stop offset="1" stop-color="#2A7FF8"/>
</linearGradient>
<linearGradient id="paint5_linear_3211_2298" x1="392.074" y1="368.628" x2="392.074" y2="506.422" gradientUnits="userSpaceOnUse">
<stop stop-color="#236FDA"/>
<stop offset="1" stop-color="#2A7FF8"/>
</linearGradient>
<linearGradient id="paint6_linear_3211_2298" x1="362.447" y1="279.471" x2="362.447" y2="322.921" gradientUnits="userSpaceOnUse">
<stop stop-color="#236FDA"/>
<stop offset="1" stop-color="#2A7FF8"/>
</linearGradient>
<linearGradient id="paint7_linear_3211_2298" x1="341.982" y1="279.667" x2="341.982" y2="380.204" gradientUnits="userSpaceOnUse">
<stop stop-color="#236FDA"/>
<stop offset="1" stop-color="#2A7FF8"/>
</linearGradient>
<linearGradient id="paint8_linear_3211_2298" x1="300.861" y1="292.039" x2="300.861" y2="342.014" gradientUnits="userSpaceOnUse">
<stop stop-color="#236FDA"/>
<stop offset="1" stop-color="#2A7FF8"/>
</linearGradient>
<linearGradient id="paint9_linear_3211_2298" x1="269.451" y1="424.983" x2="269.451" y2="547.717" gradientUnits="userSpaceOnUse">
<stop stop-color="#236FDA"/>
<stop offset="1" stop-color="#2A7FF8"/>
</linearGradient>
<linearGradient id="paint10_linear_3211_2298" x1="307.266" y1="458.571" x2="307.266" y2="547.718" gradientUnits="userSpaceOnUse">
<stop stop-color="#236FDA"/>
<stop offset="1" stop-color="#2A7FF8"/>
</linearGradient>
<linearGradient id="paint11_linear_3211_2298" x1="204.898" y1="458.571" x2="204.898" y2="581.305" gradientUnits="userSpaceOnUse">
<stop stop-color="#236FDA"/>
<stop offset="1" stop-color="#2A7FF8"/>
</linearGradient>
<linearGradient id="paint12_linear_3211_2298" x1="242.714" y1="492.171" x2="242.714" y2="581.305" gradientUnits="userSpaceOnUse">
<stop stop-color="#236FDA"/>
<stop offset="1" stop-color="#2A7FF8"/>
</linearGradient>
<linearGradient id="paint13_linear_3211_2298" x1="274.986" y1="458.571" x2="274.986" y2="501.812" gradientUnits="userSpaceOnUse">
<stop stop-color="#236FDA"/>
<stop offset="1" stop-color="#2A7FF8"/>
</linearGradient>
<linearGradient id="paint14_linear_3211_2298" x1="274.986" y1="495.341" x2="274.986" y2="581.305" gradientUnits="userSpaceOnUse">
<stop stop-color="#236FDA"/>
<stop offset="1" stop-color="#2A7FF8"/>
</linearGradient>
<linearGradient id="paint15_linear_3211_2298" x1="239.946" y1="422.225" x2="239.946" y2="494.93" gradientUnits="userSpaceOnUse">
<stop stop-color="#236FDA"/>
<stop offset="1" stop-color="#2A7FF8"/>
</linearGradient>
<linearGradient id="paint16_linear_3211_2298" x1="274.994" y1="468.317" x2="274.994" y2="530.109" gradientUnits="userSpaceOnUse">
<stop stop-color="#236FDA"/>
<stop offset="1" stop-color="#2A7FF8"/>
</linearGradient>
<linearGradient id="paint17_linear_3211_2298" x1="274.994" y1="507.129" x2="274.994" y2="568.92" gradientUnits="userSpaceOnUse">
<stop stop-color="#236FDA"/>
<stop offset="1" stop-color="#2A7FF8"/>
</linearGradient>
<linearGradient id="paint18_linear_3211_2298" x1="237.884" y1="376.239" x2="237.884" y2="426.995" gradientUnits="userSpaceOnUse">
<stop stop-color="#236FDA"/>
<stop offset="1" stop-color="#2A7FF8"/>
</linearGradient>
<linearGradient id="paint19_linear_3211_2298" x1="237.872" y1="366.281" x2="237.872" y2="389.539" gradientUnits="userSpaceOnUse">
<stop stop-color="#236FDA"/>
<stop offset="1" stop-color="#2A7FF8"/>
</linearGradient>
<linearGradient id="paint20_linear_3211_2298" x1="237.88" y1="366.249" x2="237.88" y2="389.525" gradientUnits="userSpaceOnUse">
<stop stop-color="#236FDA"/>
<stop offset="1" stop-color="#2A7FF8"/>
</linearGradient>
<linearGradient id="paint21_linear_3211_2298" x1="569.53" y1="79.9556" x2="569.53" y2="353.949" gradientUnits="userSpaceOnUse">
<stop stop-color="#236FDA"/>
<stop offset="1" stop-color="#2A7FF8"/>
</linearGradient>
<linearGradient id="paint22_linear_3211_2298" x1="565.079" y1="84.0972" x2="565.079" y2="354.407" gradientUnits="userSpaceOnUse">
<stop stop-color="#236FDA"/>
<stop offset="1" stop-color="#2A7FF8"/>
</linearGradient>
<linearGradient id="paint23_linear_3211_2298" x1="584.024" y1="116.608" x2="584.024" y2="341.564" gradientUnits="userSpaceOnUse">
<stop stop-color="#236FDA"/>
<stop offset="1" stop-color="#2A7FF8"/>
</linearGradient>
<linearGradient id="paint24_linear_3211_2298" x1="610.555" y1="132.719" x2="610.555" y2="352.902" gradientUnits="userSpaceOnUse">
<stop stop-color="#236FDA"/>
<stop offset="1" stop-color="#2A7FF8"/>
</linearGradient>
<linearGradient id="paint25_linear_3211_2298" x1="415.701" y1="35.7886" x2="415.701" y2="118.412" gradientUnits="userSpaceOnUse">
<stop stop-color="#236FDA"/>
<stop offset="1" stop-color="#2A7FF8"/>
</linearGradient>
<linearGradient id="paint26_linear_3211_2298" x1="413.442" y1="37.9248" x2="413.442" y2="118.605" gradientUnits="userSpaceOnUse">
<stop stop-color="#236FDA"/>
<stop offset="1" stop-color="#2A7FF8"/>
</linearGradient>
<linearGradient id="paint27_linear_3211_2298" x1="415.716" y1="98.5278" x2="415.716" y2="181.065" gradientUnits="userSpaceOnUse">
<stop stop-color="#236FDA"/>
<stop offset="1" stop-color="#2A7FF8"/>
</linearGradient>
<linearGradient id="paint28_linear_3211_2298" x1="413.442" y1="100.629" x2="413.442" y2="181.333" gradientUnits="userSpaceOnUse">
<stop stop-color="#236FDA"/>
<stop offset="1" stop-color="#2A7FF8"/>
</linearGradient>
</defs>
</svg>
