<svg width="692" height="692" viewBox="0 0 692 692" fill="none" xmlns="http://www.w3.org/2000/svg">
<g clip-path="url(#clip0_365_10579)">
<path d="M621.548 692.08H14.2473C10.4687 692.08 6.84481 690.578 4.17293 687.903C1.50105 685.228 9.01442e-06 681.601 9.01442e-06 677.818C-0.00209742 675.945 0.364981 674.089 1.08023 672.358C1.79547 670.627 2.84484 669.054 4.16823 667.729C5.49163 666.404 7.06307 665.354 8.79258 664.638C10.5221 663.922 12.3757 663.555 14.2473 663.557H621.548C625.327 663.557 628.951 665.059 631.623 667.734C634.294 670.408 635.795 674.036 635.795 677.818C635.791 681.6 634.289 685.225 631.618 687.898C628.947 690.572 625.326 692.076 621.548 692.08Z" fill="#E6EDFF"/>
<path d="M626.815 412.326L626.047 411.862C607.622 401.125 585.899 396.991 564.96 391.831C545.51 387.024 523.675 380.614 508.739 366.384C490.586 349.142 493.115 325.378 500.095 303.777C507.427 281.119 514.342 258.3 511.108 234.231C507.308 206.282 494.832 180.234 475.442 159.766C445.027 127.846 397.931 110.924 352.804 115.715C292.245 122.125 242.508 163.932 204.745 209.201C179.964 238.911 165.349 272.658 137.078 300.861C109.144 328.743 77.7681 353.869 54.2521 385.47C22.9402 427.534 7.71645 481.167 17.8656 531.708C28.0148 582.249 65.1377 628.367 115.964 646.603C148.332 658.237 183.838 658.461 218.416 658.557C290.324 658.749 362.329 658.926 433.997 653.477C481.157 649.872 528.958 643.622 571.923 624.874C614.889 606.125 652.941 573.195 667.028 530.442C681.083 487.961 666.531 436.026 626.815 412.326Z" fill="white"/>
<path d="M49.0641 312.126C47.9567 308.114 45.8275 304.459 42.885 301.518L38.0825 297.768C34.4084 295.61 30.2242 294.476 25.9644 294.483H24.7798C21.5664 294.332 18.3712 295.046 15.5271 296.55C12.5634 297.508 9.8991 299.22 7.79513 301.518C5.49917 303.624 3.78915 306.291 2.8326 309.258C1.33097 312.105 0.617963 315.303 0.767551 318.52C1.03969 320.651 1.32784 322.782 1.61598 324.929C2.72048 328.938 4.85029 332.589 7.79513 335.522L12.5976 339.287C16.2787 341.419 20.463 342.526 24.7157 342.492H25.9003C29.129 342.671 32.3464 341.979 35.2171 340.489C38.1789 339.529 40.8387 337.811 42.933 335.506C45.2365 333.409 46.9527 330.747 47.9115 327.782C49.411 324.933 50.1238 321.736 49.9766 318.52L49.0641 312.126Z" fill="#919B9B"/>
<path d="M640.117 339.752C668.771 339.752 691.999 316.5 691.999 287.817C691.999 259.134 668.771 235.882 640.117 235.882C611.463 235.882 588.234 259.134 588.234 287.817C588.234 316.5 611.463 339.752 640.117 339.752Z" fill="url(#paint0_linear_365_10579)"/>
<path d="M450.687 21.7706C448.494 22.203 446.349 22.8525 444.284 23.7095C444.416 23.8628 444.539 24.0233 444.652 24.1903C445.053 24.8311 445.323 25.5445 445.448 26.2899C445.573 27.0353 445.551 27.7981 445.381 28.5347C445.212 29.2712 444.899 29.9672 444.461 30.5827C444.023 31.1983 443.468 31.7215 442.827 32.1224C442.187 32.5232 441.475 32.794 440.73 32.9191C439.985 33.0443 439.223 33.0214 438.487 32.8517C437.001 32.5092 435.712 31.5897 434.903 30.2956C434.789 30.1047 434.688 29.9066 434.599 29.7027C432.903 31.1949 431.349 32.8418 429.957 34.6222C430.166 34.691 430.37 34.7767 430.565 34.8785C431.266 35.2147 431.892 35.6894 432.405 36.2741C432.918 36.8587 433.308 37.5412 433.55 38.2804C433.793 39.0197 433.884 39.8005 433.817 40.5758C433.75 41.351 433.528 42.1048 433.163 42.7917C432.797 43.4786 432.297 44.0844 431.692 44.5727C431.086 45.061 430.389 45.4217 429.641 45.6331C428.893 45.8444 428.109 45.9021 427.338 45.8026C426.567 45.7031 425.825 45.4484 425.154 45.054L424.546 44.6374C423.8 46.792 423.264 49.0137 422.945 51.2715C423.185 51.2715 423.41 51.1914 423.666 51.1753C425.155 51.1826 426.583 51.7664 427.651 52.8044C428.72 53.8424 429.345 55.2541 429.397 56.7436C429.449 58.2331 428.923 59.6848 427.929 60.7946C426.935 61.9044 425.551 62.5861 424.066 62.6969C423.794 62.7208 423.521 62.7208 423.249 62.6969C423.681 64.9566 424.336 67.1681 425.202 69.2989C425.411 69.1154 425.63 68.9442 425.859 68.7861C427.151 68.0603 428.673 67.8604 430.108 68.2282C431.543 68.5959 432.782 69.5029 433.567 70.7608C434.352 72.0188 434.623 73.531 434.323 74.9835C434.023 76.436 433.176 77.7172 431.958 78.561C431.703 78.7168 431.435 78.8508 431.157 78.9616C432.681 80.722 434.369 82.3318 436.2 83.7689C436.291 83.4884 436.404 83.2153 436.536 82.9517C437.252 81.6023 438.473 80.5927 439.932 80.145C441.391 79.6972 442.968 79.8479 444.316 80.5641C445.664 81.2802 446.673 82.503 447.12 83.9635C447.567 85.424 447.417 87.0026 446.701 88.3519C446.548 88.6281 446.371 88.8908 446.173 89.1371C448.37 89.9002 450.639 90.4372 452.945 90.7395C452.883 90.4386 452.845 90.1331 452.833 89.8262C452.806 89.0707 452.929 88.3174 453.193 87.6094C453.458 86.9014 453.859 86.2525 454.374 85.6997C455.415 84.5833 456.855 83.9262 458.379 83.8731C459.904 83.82 461.386 84.3751 462.502 85.4164C463.054 85.932 463.499 86.5514 463.812 87.2393C464.125 87.9272 464.3 88.6701 464.326 89.4255C464.359 89.7399 464.359 90.0567 464.326 90.371C466.614 89.9245 468.85 89.2481 471.002 88.3519C470.793 88.1299 470.605 87.8884 470.441 87.6308C469.62 86.3431 469.343 84.7814 469.672 83.2894C470.001 81.7973 470.908 80.4971 472.194 79.6747C473.481 78.8523 475.041 78.5752 476.531 78.9043C478.022 79.2333 479.321 80.1416 480.142 81.4294C480.306 81.6882 480.446 81.9618 480.559 82.2466C482.291 80.7078 483.872 79.0068 485.281 77.1669C485.005 77.0837 484.738 76.9765 484.481 76.8464C483.78 76.5102 483.154 76.0355 482.641 75.4509C482.128 74.8663 481.738 74.1838 481.495 73.4445C481.253 72.7052 481.162 71.9245 481.229 71.1492C481.295 70.3739 481.518 69.6201 481.883 68.9332C482.249 68.2463 482.749 67.6405 483.354 67.1522C483.959 66.6639 484.657 66.3032 485.405 66.0919C486.153 65.8805 486.936 65.8229 487.707 65.9224C488.478 66.0219 489.221 66.2765 489.891 66.6709C490.138 66.8071 490.374 66.9625 490.596 67.1356C491.344 64.9598 491.88 62.7166 492.197 60.4374C491.937 60.4862 491.675 60.5183 491.412 60.5336C490.603 60.6011 489.789 60.4966 489.022 60.227C488.256 59.9574 487.556 59.5287 486.967 58.9692C486.378 58.4096 485.914 57.7318 485.605 56.9801C485.295 56.2284 485.149 55.4198 485.174 54.6073C485.199 53.7948 485.395 52.9968 485.749 52.2655C486.104 51.5342 486.609 50.8863 487.231 50.364C487.854 49.8418 488.579 49.4571 489.36 49.2351C490.142 49.0132 490.961 48.959 491.764 49.0761C491.311 46.835 490.636 44.6448 489.747 42.5382C489.555 42.6824 489.395 42.8427 489.187 42.9709C487.895 43.6967 486.373 43.8966 484.938 43.5288C483.502 43.1611 482.264 42.2541 481.479 40.9962C480.694 39.7382 480.423 38.226 480.723 36.7735C481.022 35.321 481.869 34.0398 483.088 33.196L483.696 32.8915C482.198 31.1993 480.541 29.654 478.75 28.2765C478.686 28.4753 478.606 28.6683 478.51 28.8534C478.155 29.5215 477.673 30.1133 477.09 30.5948C476.508 31.0764 475.836 31.4384 475.114 31.6601C474.391 31.8818 473.632 31.9589 472.88 31.887C472.128 31.8151 471.397 31.5956 470.73 31.241C470.062 30.8864 469.471 30.4037 468.99 29.8204C468.509 29.2372 468.147 28.5647 467.926 27.8416C467.704 27.1184 467.627 26.3587 467.699 25.6057C467.771 24.8527 467.99 24.1213 468.344 23.4532C468.452 23.2708 468.57 23.0943 468.697 22.9244C466.562 22.2081 464.365 21.6984 462.133 21.402C462.176 21.5918 462.202 21.7848 462.213 21.9789C462.241 22.7344 462.119 23.4878 461.855 24.1963C461.592 24.9047 461.192 25.5542 460.677 26.1077C460.163 26.6613 459.545 27.108 458.858 27.4224C458.171 27.7367 457.429 27.9126 456.674 27.94C455.92 27.9673 455.167 27.8456 454.459 27.5818C453.752 27.318 453.103 26.9172 452.55 26.4023C451.997 25.8875 451.551 25.2687 451.237 24.5812C450.923 23.8937 450.747 23.151 450.719 22.3956C450.692 22.1884 450.682 21.9794 450.687 21.7706ZM456.755 36.0003C460.709 35.8602 464.617 36.8971 467.983 38.9798C471.349 41.0625 474.023 44.0976 475.666 47.7012C477.309 51.3049 477.848 55.3153 477.214 59.2254C476.58 63.1356 474.803 66.7699 472.106 69.6688C469.409 72.5678 465.914 74.6012 462.063 75.512C458.212 76.4228 454.177 76.1701 450.47 74.7859C446.762 73.4016 443.547 70.948 441.232 67.7351C438.918 64.5223 437.606 60.6945 437.465 56.7358C437.368 54.1057 437.791 51.4825 438.709 49.0162C439.627 46.55 441.021 44.2891 442.813 42.3631C444.605 40.437 446.759 38.8836 449.151 37.7918C451.543 36.7 454.127 36.0912 456.755 36.0003Z" fill="#919B9B"/>
<path d="M76.2463 254.646C112.035 254.646 141.047 227.994 141.047 195.116C141.047 162.238 112.035 135.585 76.2463 135.585C40.4577 135.585 11.4453 162.238 11.4453 195.116C11.4453 227.994 40.4577 254.646 76.2463 254.646Z" fill="#E6EDFF"/>
<path d="M74.7109 196.045L24.1732 179.845C22.197 185.017 21.1824 190.508 21.1797 196.045C21.1797 223.014 45.352 245.208 74.7109 245.208C84.3362 245.228 93.8113 242.82 102.261 238.205L74.7109 196.045Z" fill="url(#paint1_linear_365_10579)"/>
<path d="M77.4785 195.116L105.381 237.084C113.073 232.826 119.544 226.663 124.174 219.184C128.619 211.954 130.984 203.637 131.01 195.148L77.4785 195.116Z" fill="url(#paint2_linear_365_10579)"/>
<path d="M77.7832 192.76L131.266 192.119C131.16 185.391 129.569 178.77 126.608 172.73C123.566 166.53 119.257 161.038 113.962 156.609L77.7832 192.76Z" fill="#FEFEFF"/>
<path d="M504.028 87.1021C499.694 87.9455 495.449 89.1956 491.349 90.8358C491.589 91.1562 491.861 91.4447 492.07 91.7812C493.662 94.3311 494.177 97.4098 493.501 100.34C492.826 103.27 491.015 105.811 488.468 107.405C485.92 108.999 482.845 109.514 479.918 108.838C476.991 108.162 474.452 106.349 472.86 103.799C472.636 103.426 472.443 103.035 472.283 102.63C468.943 105.536 465.888 108.756 463.159 112.244C463.543 112.405 463.943 112.533 464.327 112.725C465.64 113.423 466.803 114.372 467.749 115.52C468.695 116.667 469.407 117.99 469.842 119.412C470.278 120.835 470.429 122.329 470.288 123.81C470.146 125.292 469.715 126.73 469.018 128.044C468.321 129.359 467.372 130.522 466.226 131.47C465.08 132.417 463.758 133.129 462.337 133.565C460.916 134.001 459.423 134.152 457.944 134.011C456.464 133.869 455.027 133.437 453.714 132.74C453.292 132.506 452.891 132.238 452.513 131.938C451.058 136.18 450.023 140.554 449.424 144.998C449.883 144.902 450.348 144.837 450.817 144.806C452.313 144.734 453.809 144.96 455.218 145.471C456.627 145.982 457.92 146.768 459.023 147.783C460.126 148.799 461.016 150.023 461.643 151.386C462.269 152.749 462.619 154.222 462.672 155.721C462.725 157.22 462.48 158.715 461.952 160.119C461.423 161.522 460.621 162.807 459.593 163.897C458.564 164.988 457.33 165.864 455.961 166.474C454.591 167.083 453.115 167.414 451.617 167.448C451.081 167.451 450.546 167.414 450.016 167.336C450.866 171.781 452.159 176.129 453.874 180.316C454.272 179.96 454.694 179.633 455.139 179.338C457.686 177.745 460.762 177.229 463.689 177.905C466.616 178.582 469.155 180.394 470.747 182.944C472.339 185.494 472.854 188.572 472.178 191.503C471.503 194.433 469.692 196.974 467.145 198.568C466.631 198.864 466.096 199.121 465.544 199.337C468.536 202.77 471.855 205.905 475.453 208.695C475.622 208.144 475.836 207.608 476.093 207.093C476.816 205.691 477.823 204.456 479.05 203.466C480.277 202.476 481.697 201.754 483.219 201.346C484.741 200.937 486.331 200.851 487.888 201.093C489.445 201.335 490.935 201.9 492.261 202.751C493.587 203.603 494.722 204.722 495.591 206.038C496.46 207.354 497.045 208.836 497.309 210.391C497.573 211.947 497.509 213.54 497.123 215.069C496.736 216.598 496.034 218.029 495.063 219.271C499.389 220.748 503.85 221.795 508.382 222.396C508.253 221.811 508.172 221.216 508.142 220.617C508.07 219.119 508.295 217.621 508.806 216.211C509.317 214.801 510.102 213.506 511.116 212.402C512.131 211.298 513.354 210.407 514.715 209.78C516.076 209.153 517.549 208.803 519.046 208.75C520.544 208.697 522.037 208.942 523.439 209.471C524.841 210 526.124 210.803 527.214 211.832C528.304 212.862 529.179 214.097 529.787 215.468C530.396 216.838 530.727 218.316 530.761 219.816C530.767 220.443 530.724 221.07 530.633 221.691C535.121 220.806 539.509 219.47 543.728 217.701C543.326 217.262 542.962 216.79 542.639 216.291C541.851 215.028 541.319 213.622 541.073 212.154C540.827 210.685 540.873 209.183 541.208 207.732C541.542 206.281 542.159 204.911 543.022 203.698C543.886 202.486 544.98 201.456 546.241 200.667C547.502 199.878 548.907 199.345 550.374 199.099C551.841 198.853 553.342 198.899 554.791 199.234C557.718 199.91 560.257 201.722 561.849 204.272C562.151 204.785 562.414 205.321 562.633 205.875C566.052 202.87 569.162 199.531 571.918 195.908C571.371 195.73 570.836 195.516 570.317 195.267C568.935 194.608 567.7 193.674 566.688 192.524C565.676 191.373 564.908 190.029 564.431 188.572C563.953 187.116 563.776 185.578 563.909 184.05C564.043 182.523 564.484 181.039 565.207 179.688C565.931 178.337 566.92 177.147 568.116 176.189C569.312 175.232 570.69 174.528 572.166 174.119C573.642 173.71 575.186 173.606 576.703 173.811C578.221 174.017 579.681 174.529 580.995 175.316C581.478 175.589 581.938 175.9 582.371 176.246C583.814 171.961 584.827 167.543 585.397 163.058C584.895 163.154 584.387 163.218 583.876 163.25C582.38 163.322 580.883 163.096 579.475 162.585C578.066 162.074 576.773 161.288 575.67 160.272C574.567 159.257 573.676 158.032 573.05 156.67C572.424 155.307 572.074 153.834 572.021 152.334C571.968 150.835 572.213 149.341 572.741 147.937C573.27 146.534 574.072 145.249 575.1 144.158C576.128 143.067 577.363 142.192 578.732 141.582C580.101 140.973 581.578 140.641 583.076 140.607C583.574 140.607 584.071 140.639 584.565 140.704C583.683 136.311 582.369 132.017 580.643 127.884C580.301 128.188 579.937 128.467 579.554 128.717C577.007 130.311 573.931 130.827 571.004 130.15C568.077 129.474 565.538 127.662 563.946 125.112C562.354 122.562 561.839 119.483 562.515 116.553C563.19 113.623 565.001 111.082 567.548 109.488C567.939 109.257 568.345 109.053 568.765 108.879C565.827 105.593 562.584 102.594 559.08 99.9216C558.92 100.306 558.807 100.691 558.615 101.059C557.191 103.713 554.772 105.692 551.89 106.561C549.008 107.429 545.899 107.116 543.248 105.69C540.596 104.264 538.619 101.843 537.752 98.9578C536.884 96.0728 537.197 92.961 538.621 90.3069C538.837 89.9423 539.072 89.5893 539.326 89.2493C535.132 87.8386 530.81 86.8404 526.423 86.2688C526.423 86.6534 526.567 87.0219 526.583 87.4065C526.636 88.8943 526.395 90.3779 525.875 91.7725C525.355 93.1672 524.565 94.4456 523.551 95.5348C522.537 96.6241 521.319 97.5027 519.966 98.1207C518.613 98.7386 517.152 99.0838 515.666 99.1364C514.179 99.189 512.697 98.948 511.304 98.4273C509.911 97.9066 508.634 97.1162 507.545 96.1014C505.348 94.0519 504.054 91.2124 503.948 88.2077C503.955 87.838 503.982 87.469 504.028 87.1021ZM515.73 108.318C524.849 107.997 533.858 110.391 541.618 115.196C549.377 120.002 555.538 127.004 559.321 135.316C563.104 143.628 564.339 152.876 562.87 161.891C561.4 170.906 557.292 179.282 551.066 185.959C544.84 192.635 536.774 197.314 527.891 199.401C519.008 201.488 509.706 200.891 501.162 197.684C492.618 194.477 485.216 188.806 479.893 181.387C474.57 173.968 471.565 165.136 471.259 156.007C471.045 149.947 472.026 143.905 474.145 138.225C476.264 132.544 479.48 127.338 483.61 122.902C487.739 118.466 492.701 114.888 498.213 112.372C503.724 109.856 509.676 108.451 515.73 108.238V108.318Z" fill="url(#paint3_linear_365_10579)"/>
<path d="M432.876 171.848C431.483 170.839 429.674 169.974 429.226 168.339C428.346 165.695 431.179 162.939 430.475 160.327C429.899 158.068 427.273 157.122 424.904 156.802C422.535 156.481 419.957 156.145 418.645 154.222C417.54 152.619 417.796 150.488 417.54 148.565C417.251 146.621 416.415 144.8 415.132 143.313C413.848 141.827 412.168 140.736 410.289 140.168C406.287 139.031 402.797 142.668 399.451 144.126C397.706 144.902 396.18 146.098 395.01 147.608C393.839 149.118 393.061 150.895 392.744 152.779C392.146 156.599 392.353 160.502 393.352 164.237C394.346 167.958 395.078 171.743 395.545 175.566C395.703 179.645 395.112 183.719 393.8 187.584C392.828 190.58 393.005 193.83 394.296 196.702C395.753 199.186 398.683 200.34 401.452 201.141C406.789 202.868 412.436 203.415 418.005 202.743C423.301 202.054 428.172 199.477 431.723 195.484C434.176 193.501 436.06 190.902 437.182 187.953C439.183 182.328 437.663 175.358 432.876 171.848Z" fill="#454238"/>
<path d="M405.086 152.443C405.42 153.61 405.516 154.833 405.371 156.038C405.225 157.243 404.84 158.407 404.238 159.462C403.838 160.151 403.213 160.856 402.413 160.808C401.612 160.76 401.004 159.734 400.716 158.869C399.912 156.472 399.406 153.986 399.211 151.465C399.083 149.863 399.371 147.139 401.564 147.684C403.261 148.1 404.638 150.969 405.086 152.443Z" fill="#FF6EA1"/>
<path d="M405.006 190.18C403.405 195.805 394.313 198.529 388.998 192.119C388.342 191.318 387.749 190.517 387.173 189.636C381.49 190.757 373.054 193.225 369.26 197.84C368.133 199.407 367.327 201.183 366.891 203.064C364.922 209.81 363.273 216.653 361.976 223.543C361.768 224.325 361.768 225.148 361.976 225.931C362.412 226.816 363.089 227.561 363.929 228.078C371.773 234.279 373.838 244.263 376.415 253.3C380.337 267.001 382.13 285.974 386.02 299.675C398.827 300.668 452.294 288.458 458.729 282.897C449.509 266.264 442.033 236.283 439.119 215.419C437.871 206.589 434.413 198.161 431.035 189.892C430.235 187.953 429.53 183.482 428.058 182.216C426.105 180.614 407.487 183.37 405.518 183.434C405.582 184.502 405.63 185.608 405.662 186.751C405.624 187.922 405.402 189.079 405.006 190.18Z" fill="#FF6EA1"/>
<path d="M386.021 181.111C385.418 179.17 384.573 177.313 383.508 175.582C386.663 175.471 389.715 174.429 392.28 172.586C393.545 171.658 394.724 170.617 395.802 169.477C396.202 169.076 396.795 168.067 397.403 167.33C396.554 168.323 398.635 173.884 399.004 175.005C399.84 177.431 401.127 179.676 402.798 181.623C404.478 183.498 405.583 183.803 405.887 186.431C406.113 189.313 405.692 192.209 404.655 194.908C404.182 196.587 403.183 198.07 401.805 199.138C400.91 199.621 399.926 199.917 398.914 200.008C397.901 200.098 396.881 199.983 395.914 199.667C392.6 198.785 388.054 196.029 386.87 192.552C386.245 190.741 386.95 189.812 387.11 187.953C387.196 185.623 386.826 183.298 386.021 181.111Z" fill="#FFC1A6"/>
<path d="M387.141 187.04C387.141 186.847 387.141 186.671 387.141 186.479C386.974 184.654 386.604 182.853 386.037 181.111C385.433 179.17 384.589 177.313 383.523 175.582C386.679 175.471 389.731 174.429 392.296 172.586C393.561 171.658 394.74 170.617 395.818 169.477C396.218 169.076 396.81 168.067 397.418 167.33C397.515 168.371 397.659 169.381 397.835 170.39C397.515 173.82 396.376 177.122 394.515 180.02C392.654 182.917 390.125 185.325 387.141 187.04Z" fill="#E3856D"/>
<path d="M366.027 163.275C367.317 168.48 370.274 173.118 374.447 176.48C375.542 177.439 376.83 178.149 378.225 178.563C378.922 178.765 379.656 178.807 380.371 178.685C381.086 178.563 381.765 178.28 382.355 177.858C383.956 176.576 384.244 174.268 384.356 172.217C384.707 168.365 384.583 164.485 383.988 160.663C383.39 156.817 381.578 153.262 378.817 150.52C376.496 148.373 370.141 145.264 367.339 148.213C364.298 151.465 365.082 159.462 366.027 163.275Z" fill="#454238"/>
<path d="M369.34 154.222C369.885 150.6 373.983 153.292 377.344 151.754C380.242 150.408 382.435 149.254 385.701 149.478C388.648 149.635 391.435 150.873 393.529 152.956C394.073 153.533 394.569 154.125 395.033 154.718C396.364 156.836 397.495 159.073 398.411 161.401V161.561C398.727 166.076 397.679 170.582 395.402 174.492C394.403 176.339 392.93 177.884 391.134 178.969C389.338 180.054 387.286 180.638 385.188 180.662C382.79 180.62 380.485 179.722 378.689 178.13C376.72 176.334 375.093 174.194 373.887 171.816C371.982 168.195 368.732 158.228 369.34 154.222Z" fill="#FFC1A6"/>
<path d="M385.188 161.048C381.234 160.103 377.184 159.542 373.518 157.731C370.76 156.449 368.535 154.245 367.227 151.498C366.01 148.693 366.843 146.69 368.46 144.303C370.818 140.812 374.362 138.295 378.433 137.22C382.451 136.162 387.477 137.733 391.335 139.063C394.055 139.931 396.489 141.52 398.379 143.662C401.58 147.443 402.589 153.997 402.333 158.789C402.16 160.773 401.757 162.73 401.132 164.621C400.668 166.224 399.852 168.035 397.931 168.275C396.666 168.435 394.105 164.798 392.808 163.981C390.729 162.745 388.472 161.837 386.117 161.288L385.188 161.048Z" fill="#454238"/>
<path d="M379.105 165.407C379.141 165.712 379.296 165.99 379.535 166.182C379.775 166.374 380.08 166.464 380.385 166.432C380.537 166.418 380.684 166.374 380.819 166.303C380.954 166.231 381.073 166.134 381.169 166.016C381.266 165.899 381.339 165.763 381.383 165.617C381.427 165.471 381.441 165.318 381.426 165.166C381.379 164.871 381.22 164.605 380.983 164.423C380.747 164.241 380.449 164.157 380.152 164.188C379.855 164.218 379.581 164.362 379.386 164.589C379.191 164.815 379.091 165.108 379.105 165.407Z" fill="#454238"/>
<path d="M380.833 162.074C380.047 161.917 379.231 162.024 378.512 162.378" stroke="#454238" stroke-width="0.75" stroke-miterlimit="10" stroke-linecap="round"/>
<path d="M371.917 167.33C371.953 167.636 372.107 167.916 372.346 168.11C372.585 168.305 372.891 168.398 373.198 168.371C373.423 168.345 373.635 168.253 373.808 168.106C373.982 167.96 374.108 167.766 374.171 167.548C374.235 167.33 374.232 167.098 374.165 166.881C374.097 166.665 373.967 166.473 373.792 166.33C373.616 166.187 373.401 166.099 373.176 166.077C372.95 166.055 372.723 166.1 372.523 166.207C372.323 166.314 372.158 166.477 372.051 166.677C371.943 166.876 371.896 167.104 371.917 167.33Z" fill="#454238"/>
<path d="M373.647 164.013C372.867 163.839 372.05 163.947 371.342 164.317" stroke="#454238" stroke-width="0.75" stroke-miterlimit="10" stroke-linecap="round"/>
<path d="M376.191 167.474C376.426 168.485 376.26 169.548 375.727 170.438C375.559 170.648 375.463 170.907 375.455 171.175C375.493 171.317 375.574 171.443 375.685 171.537C375.797 171.632 375.934 171.69 376.079 171.704C376.368 171.717 376.656 171.673 376.928 171.576" stroke="#454238" stroke-width="0.75" stroke-miterlimit="10" stroke-linecap="round"/>
<path d="M381.986 173.275C381.492 173.798 380.884 174.201 380.209 174.451C379.535 174.701 378.811 174.792 378.096 174.717" stroke="#454238" stroke-width="0.75" stroke-miterlimit="10" stroke-linecap="round"/>
<path d="M398.683 161.288C398.767 162.127 398.601 162.971 398.206 163.715C397.811 164.459 397.204 165.069 396.463 165.468C395.722 165.867 394.879 166.038 394.041 165.958C393.203 165.878 392.408 165.551 391.755 165.019C391.103 164.486 390.623 163.772 390.375 162.967C390.128 162.162 390.125 161.301 390.366 160.494C390.607 159.687 391.082 158.969 391.73 158.432C392.378 157.894 393.171 157.561 394.008 157.475C394.566 157.415 395.13 157.466 395.667 157.626C396.205 157.786 396.705 158.051 397.14 158.405C397.575 158.76 397.935 159.197 398.2 159.692C398.464 160.187 398.629 160.73 398.683 161.288Z" fill="#FFC1A6"/>
<path d="M395.081 159.814C394.766 159.807 394.454 159.879 394.174 160.025C393.894 160.171 393.655 160.385 393.48 160.647C393.313 160.91 393.215 161.211 393.195 161.522C393.175 161.833 393.235 162.144 393.368 162.426C393.537 162.242 393.756 162.112 393.998 162.052C394.24 161.992 394.494 162.005 394.729 162.09C394.963 162.176 395.166 162.33 395.311 162.533C395.457 162.736 395.538 162.978 395.545 163.227" stroke="#454238" stroke-width="0.75" stroke-linecap="round" stroke-linejoin="round"/>
<path d="M497.501 438.542H159.809C152.082 438.542 145.818 444.813 145.818 452.548V642.212C145.818 649.947 152.082 656.218 159.809 656.218H497.501C505.228 656.218 511.492 649.947 511.492 642.212V452.548C511.492 444.813 505.228 438.542 497.501 438.542Z" fill="#DCE4FF" stroke="#454238" stroke-width="0.75" stroke-miterlimit="10"/>
<path d="M538.562 656.49H118.748C118.746 658.785 119.196 661.058 120.072 663.179C120.948 665.3 122.233 667.227 123.853 668.851C125.474 670.475 127.398 671.763 129.516 672.641C131.634 673.52 133.904 673.973 136.197 673.973H521.113C523.405 673.973 525.676 673.52 527.794 672.641C529.912 671.763 531.836 670.475 533.457 668.851C535.077 667.227 536.362 665.3 537.238 663.179C538.114 661.058 538.564 658.785 538.562 656.49Z" fill="#BAC5EF" stroke="#454238" stroke-width="0.75" stroke-miterlimit="10"/>
<path d="M491.785 447.099H165.523C159.485 447.099 154.59 451.999 154.59 458.044V638.446C154.59 644.491 159.485 649.391 165.523 649.391H491.785C497.824 649.391 502.719 644.491 502.719 638.446V458.044C502.719 451.999 497.824 447.099 491.785 447.099Z" fill="#545D78"/>
<path d="M333.514 442.629C333.514 443.164 333.356 443.688 333.058 444.133C332.761 444.578 332.339 444.926 331.844 445.13C331.35 445.335 330.806 445.389 330.281 445.285C329.756 445.18 329.274 444.922 328.896 444.543C328.518 444.165 328.26 443.682 328.156 443.157C328.051 442.631 328.105 442.087 328.309 441.592C328.514 441.097 328.861 440.674 329.306 440.377C329.751 440.079 330.274 439.92 330.809 439.92C331.526 439.92 332.215 440.206 332.722 440.714C333.229 441.221 333.514 441.91 333.514 442.629Z" fill="#333333"/>
<path d="M190.496 241.763L190.496 648.205H466.829V241.763H190.496Z" fill="white"/>
<path d="M354.036 615.964L317.265 570.103L285.281 611.125L257.555 581.127L261.189 577.778L284.961 603.497L317.201 562.138L353.011 606.798L373.806 564.318L417.684 556.546L418.533 561.417L377.136 568.74L354.036 615.964Z" fill="#E6EDFF"/>
<path d="M424.439 558.982C424.439 557.71 424.062 556.468 423.354 555.412C422.647 554.357 421.642 553.535 420.468 553.052C419.293 552.57 418.001 552.448 416.757 552.701C415.513 552.955 414.372 553.574 413.48 554.478C412.588 555.383 411.984 556.532 411.746 557.781C411.508 559.03 411.647 560.321 412.144 561.491C412.64 562.66 413.474 563.656 414.537 564.35C415.601 565.045 416.846 565.407 418.116 565.391C419.8 565.37 421.409 564.686 422.592 563.486C423.776 562.286 424.44 560.668 424.439 558.982Z" fill="url(#paint4_linear_365_10579)"/>
<path d="M360.183 611.381C360.183 610.114 359.808 608.874 359.104 607.82C358.401 606.766 357.401 605.945 356.231 605.459C355.061 604.974 353.773 604.847 352.531 605.095C351.289 605.342 350.148 605.952 349.252 606.849C348.357 607.745 347.747 608.887 347.5 610.131C347.253 611.374 347.38 612.663 347.864 613.834C348.349 615.005 349.17 616.006 350.223 616.711C351.276 617.415 352.514 617.791 353.78 617.791C355.478 617.791 357.107 617.116 358.308 615.914C359.509 614.712 360.183 613.081 360.183 611.381Z" fill="url(#paint5_linear_365_10579)"/>
<path d="M380.994 566.529C380.994 565.258 380.616 564.016 379.909 562.96C379.202 561.904 378.197 561.083 377.022 560.6C375.848 560.117 374.556 559.995 373.312 560.249C372.068 560.503 370.927 561.121 370.035 562.026C369.142 562.93 368.539 564.08 368.301 565.328C368.063 566.577 368.201 567.868 368.698 569.038C369.195 570.208 370.028 571.203 371.092 571.898C372.155 572.592 373.401 572.955 374.671 572.939C376.355 572.918 377.963 572.233 379.147 571.033C380.331 569.834 380.994 568.215 380.994 566.529Z" fill="#FFB861"/>
<path d="M316.994 572.875C320.495 572.875 323.333 570.034 323.333 566.529C323.333 563.024 320.495 559.001 316.994 559.001C313.492 559.001 310.654 563.024 310.654 566.529C310.654 570.034 313.492 572.875 316.994 572.875Z" fill="#FFB861"/>
<path d="M285.874 612.904C289.375 612.904 292.214 610.063 292.214 606.558C292.214 603.053 289.375 600.212 285.874 600.212C282.373 600.212 279.535 603.053 279.535 606.558C279.535 610.063 282.373 612.904 285.874 612.904Z" fill="url(#paint6_linear_365_10579)"/>
<path d="M267.08 580.663C267.08 579.395 266.704 578.156 266.001 577.101C265.297 576.047 264.297 575.226 263.127 574.741C261.957 574.256 260.67 574.129 259.427 574.376C258.185 574.623 257.044 575.234 256.149 576.13C255.253 577.027 254.644 578.169 254.396 579.412C254.149 580.655 254.276 581.944 254.761 583.115C255.246 584.287 256.066 585.288 257.119 585.992C258.172 586.696 259.41 587.072 260.677 587.072C262.375 587.072 264.004 586.397 265.204 585.195C266.405 583.993 267.08 582.362 267.08 580.663Z" fill="#3FD4C7"/>
<path d="M232.854 540.586V627.101H425.72" stroke="#454238" stroke-width="0.75" stroke-miterlimit="10"/>
<path d="M277.646 402.471H248.207V470.912H277.646V402.471Z" fill="#FFB861"/>
<path d="M323.14 368.98H293.701V470.912H323.14V368.98Z" fill="url(#paint7_linear_365_10579)"/>
<path d="M242.715 382.809C278.174 366.618 309.733 342.969 335.242 313.472" stroke="#454238" stroke-width="0.75" stroke-miterlimit="10" stroke-linecap="round"/>
<path d="M337.933 310.347L335.835 316.324L334.971 313.696L332.266 313.151L337.933 310.347Z" fill="#454238"/>
<path d="M368.652 322.75H339.213V470.912H368.652V322.75Z" fill="#3FD4C7"/>
<path d="M414.164 269.055H384.725V470.912H414.164V269.055Z" fill="url(#paint8_linear_365_10579)"/>
<path d="M230.885 325.522V471.136H427.545" stroke="#454238" stroke-width="0.75" stroke-miterlimit="10"/>
<path d="M427.258 485.189H229.766V495.14H427.258V485.189Z" fill="#E6EDFF"/>
<path d="M387.604 288.121H268.92V298.073H387.604V288.121Z" fill="#E6EDFF"/>
<path d="M427.018 270.735H229.525V280.686H427.018V270.735Z" fill="#E6EDFF"/>
<path d="M427.258 503.441H229.766V513.392H427.258V503.441Z" fill="#E6EDFF"/>
<path d="M427.258 521.693H229.766V531.644H427.258V521.693Z" fill="#E6EDFF"/>
<path d="M419.765 182.505C417.46 183.05 415.187 183.69 412.914 184.331C412.519 184.414 412.147 184.583 411.825 184.828C411.452 185.236 411.216 185.752 411.153 186.302C410.455 190.233 410.556 194.264 411.45 198.154C412.344 202.045 414.012 205.715 416.356 208.945C417.764 210.708 419.429 212.15 420.95 213.896C422.471 215.643 424.472 217.005 425.752 218.704C427.353 220.707 427.978 223.944 428.698 226.347C430.41 231.887 431.463 237.61 431.836 243.397C432.092 247.211 432.268 251.538 435.181 253.989C438.095 256.441 442.657 255.8 445.635 253.477C448.474 250.953 450.539 247.675 451.59 244.022C455.018 234.723 456.595 224.843 456.232 214.938C455.8 205.98 453.03 195.196 447.283 188.113C443.409 183.306 437.038 181.239 430.923 181.159C427.162 181.141 423.414 181.593 419.765 182.505Z" fill="#FF6EA1"/>
<path d="M425.24 236.234C427.375 224.729 429.509 213.223 431.643 201.718" stroke="#454238" stroke-width="0.75" stroke-miterlimit="10"/>
<path d="M427.418 203.881C428.154 205.756 428.891 207.647 429.611 209.522" stroke="#454238" stroke-width="0.75" stroke-miterlimit="10"/>
<path d="M384.196 261.024C385.015 260.738 385.873 260.581 386.741 260.559C394.521 260.383 402.093 259.582 409.937 258.797C415.187 258.263 420.427 257.958 425.657 257.883C429.867 257.883 434.749 258.749 438.863 257.579C442.977 256.409 446.163 255.143 448.34 251.538C449.375 249.814 450.321 248.038 451.174 246.218C451.742 245.25 451.999 244.131 451.91 243.013C451.574 241.41 449.829 240.465 448.116 239.808C444.482 238.478 442.225 236.379 438.047 235.962C433.688 235.629 429.304 235.969 425.048 236.972C416.724 238.718 408.4 239.439 400.22 241.875C391.068 244.791 382.116 248.302 373.422 252.387C370.186 253.604 367.201 255.407 364.618 257.707C362.918 259.294 361.879 261.465 361.71 263.786C361.541 266.106 362.253 268.405 363.705 270.222C364.142 270.789 364.718 271.235 365.377 271.515C366.036 271.796 366.755 271.902 367.467 271.825C369.068 271.552 370.028 269.533 368.748 268.94C377.104 272.129 377.328 263.476 384.196 261.024Z" fill="#FFC1A6"/>
<path d="M357.863 262.354V261.841L357.479 262.787L357.863 262.354Z" fill="#FF6EA1"/>
<path d="M379.666 197.295C379.18 196.362 378.442 195.585 377.537 195.052C374.815 193.449 369.116 195.917 366.667 197.263C366.117 197.549 365.582 197.864 365.066 198.209C362.178 200.149 359.562 202.466 357.286 205.099C356.502 205.948 355.685 206.83 354.981 207.695C343.695 220.755 336.396 235.129 338.221 252.563C338.621 256.313 339.357 260.351 342.143 262.867C343.285 263.836 344.631 264.535 346.081 264.909C347.531 265.284 349.047 265.325 350.515 265.03C353.307 264.442 355.876 263.075 357.927 261.088V261.793L358.343 260.784C362.793 256.457 363.834 250.464 364.922 244.647L375.535 218.56C377.232 214.409 382.691 202.984 379.666 197.295Z" fill="#FF6EA1"/>
<path d="M361.625 326.324C366.427 318.311 357.623 317.029 356.326 309.915C356.182 309.055 356.182 308.178 356.326 307.319C357.559 299.563 358.103 291.903 358.711 283.987C359.127 278.699 359.768 273.427 360.648 268.219C361.225 264.694 362.601 260.784 362.761 257.114C362.761 255.944 362.553 254.775 362.361 253.637C361.6 252.203 360.562 250.936 359.305 249.91C358.049 248.884 356.601 248.119 355.045 247.66C352.865 247.009 350.558 246.901 348.327 247.345C346.095 247.789 344.005 248.771 342.239 250.208C341.356 251.575 340.565 252.999 339.87 254.47C339.043 258.306 338.725 262.233 338.925 266.152C339.213 274.677 338.445 283.074 339.469 291.519C340.809 300.993 342.804 310.363 345.44 319.561C346.103 322.933 347.425 326.141 349.33 329C350.772 330.936 352.883 332.264 355.251 332.727C357.619 333.189 360.074 332.751 362.137 331.499C362.787 331.148 363.34 330.641 363.745 330.022C364.15 329.404 364.395 328.695 364.458 327.958C364.378 326.388 362.489 325.122 361.625 326.324Z" fill="#FFC1A6"/>
<path d="M362.312 253.877C364.601 243.413 368.72 233.437 374.479 224.408" stroke="#454238" stroke-width="0.75" stroke-miterlimit="10"/>
<path d="M370.381 230.802L374.543 228.126" stroke="#454238" stroke-width="0.75" stroke-miterlimit="10"/>
<path d="M123.36 431.828C129.315 438.654 131.748 447.852 133.781 456.458C136.396 467.578 139.01 478.705 141.625 489.836C142.331 492.423 142.771 495.076 142.938 497.752C142.803 502.468 142.094 507.15 140.825 511.694C139.528 517.014 136.342 516.677 131.604 516.212C124.112 515.459 113.995 513.2 108.872 507.079C106.471 504.178 105.671 500.3 105.014 496.583C104.054 491.487 103.109 486.391 102.149 481.295C98.259 460.464 94.369 438.975 98.7712 418.239C108.351 419.61 117.097 424.444 123.36 431.828Z" fill="white"/>
<path d="M134.355 497.72C137.669 499.323 140.759 501.31 143.96 503.233C149.019 506.277 154.302 508.425 159.488 511.245C160.909 512.116 162.46 512.754 164.083 513.136C166.852 513.633 169.781 512.575 172.567 512.96C176.313 513.456 179.498 516.789 180.843 521.196C183.132 528.615 177.785 525.859 174.248 525.202L165.971 523.68C155.271 521.795 144.458 520.617 133.603 520.154C127.568 519.85 116.939 519.978 112.424 514.482C110.231 511.806 107.798 500.06 110.679 497.224C111.212 496.752 111.848 496.412 112.536 496.23C118.147 494.308 124.221 494.213 129.889 495.958C131.42 496.433 132.912 497.023 134.355 497.72Z" fill="#9C5240"/>
<path d="M130.435 583.563H24.5572C23.7297 583.565 22.9099 583.404 22.1448 583.088C21.3796 582.773 20.6842 582.309 20.0983 581.724C19.5124 581.139 19.0476 580.444 18.7304 579.679C18.4133 578.914 18.25 578.094 18.25 577.265C18.2479 576.436 18.4096 575.614 18.7258 574.847C19.042 574.08 19.5066 573.383 20.0927 572.796C20.6788 572.21 21.3749 571.745 22.1411 571.428C22.9072 571.112 23.7284 570.95 24.5572 570.952H130.435C131.263 570.952 132.082 571.115 132.846 571.433C133.611 571.75 134.305 572.215 134.889 572.802C135.474 573.388 135.937 574.085 136.252 574.851C136.567 575.616 136.728 576.437 136.726 577.265C136.726 578.936 136.063 580.537 134.884 581.718C133.704 582.9 132.104 583.563 130.435 583.563Z" fill="#454238"/>
<path d="M116.459 500.428V463.22C116.459 457.618 111.922 453.076 106.326 453.076H23.4997C17.9033 453.076 13.3666 457.618 13.3666 463.22V500.428C13.3666 506.031 17.9033 510.572 23.4997 510.572H106.326C111.922 510.572 116.459 506.031 116.459 500.428Z" fill="#454238"/>
<path d="M32.9775 501.23H26.5742V577.73H32.9775V501.23Z" fill="#454238"/>
<path d="M102.052 501.23H95.6484V577.73H102.052V501.23Z" fill="#454238"/>
<path d="M77.3681 580.39H70.9648V673.316H77.3681V580.39Z" fill="#454238"/>
<path d="M29.247 580.39H22.8438V673.316H29.247V580.39Z" fill="#454238"/>
<path d="M131.892 580.39H125.488V673.316H131.892V580.39Z" fill="#454238"/>
<path d="M99.0263 580.39H92.623V673.316H99.0263V580.39Z" fill="#454238"/>
<path d="M195.941 613C192.323 613.769 189.826 613.945 185.535 614.602C179.292 615.484 173.033 616.205 166.758 616.749C168.359 628.047 169.959 637.982 170.264 639.985C171.864 648.638 171 670.319 174.858 678.539C179.548 679.116 183.614 678.347 188.017 677.995C190.338 656.25 192.259 634.504 195.941 613Z" fill="#CF9378"/>
<path d="M163.283 632.037C163.247 633.813 163.381 635.59 163.683 637.341C168.92 642.452 175.886 645.404 183.197 645.609C187.279 645.811 191.363 645.268 195.251 644.007C195.7 635.546 196.201 627.085 196.756 618.624C197.46 607.616 198.021 596.623 199.397 585.678C200.371 575.839 200.424 565.93 199.557 556.081C196.756 545.329 189.616 542.396 189.616 542.396C189.616 542.396 169.67 534.496 154.398 531.179C135.637 527.061 116.571 524 97.7137 519.962C88.653 517.975 73.4933 518.36 68.899 528.263C63.4722 539.736 74.2777 555.007 82.9702 561.626C91.9667 568.484 103.06 571.945 114.106 574.365C129.734 577.718 145.705 579.203 161.682 578.788C161.17 578.788 163.283 628.063 163.283 632.037Z" fill="url(#paint9_linear_365_10579)"/>
<path d="M161.682 578.884C161.682 578.884 161.682 578.884 161.762 578.804C158.288 575.326 154.99 571.657 151.517 568.196C146.33 563.052 141.287 557.732 136.133 552.556C125.904 542.236 115.61 531.98 105.605 521.452L97.7293 519.85C88.6687 517.863 73.509 518.248 68.9146 528.151C63.4879 539.624 74.2934 554.895 82.9858 561.513C91.9824 568.372 103.076 571.833 114.122 574.253C129.74 577.642 145.705 579.165 161.682 578.788C161.677 578.82 161.677 578.852 161.682 578.884Z" fill="#454238"/>
<path d="M161.811 581.928C161.811 576.913 162.499 570.792 162.515 565.776" stroke="#454238" stroke-width="0.4" stroke-miterlimit="10"/>
<path d="M174.681 537.509C161.266 533.182 149.068 529.192 129.33 526.532" stroke="#454238" stroke-width="0.75" stroke-miterlimit="10"/>
<path d="M172.552 684.645H215.486V689.292H174.089C173.665 689.292 173.257 689.123 172.957 688.822C172.657 688.522 172.488 688.114 172.488 687.689V684.581L172.552 684.645Z" fill="#B3B3B3"/>
<path d="M214.894 685.911C215.046 685.693 215.18 685.462 215.294 685.222C215.695 684.021 215.7 682.724 215.308 681.52C214.916 680.317 214.148 679.272 213.117 678.54C210.974 677.043 208.551 675.997 205.993 675.463C200.709 673.842 195.317 672.6 189.857 671.745C188.4 671.537 172.76 670.143 172.84 669.406C172.6 673.348 172.344 677.29 172.104 681.232C171.817 682.778 171.817 684.364 172.104 685.911H214.894Z" fill="#454238"/>
<path d="M179.948 666.153C181.182 665.21 182.68 664.679 184.232 664.636C185.783 664.593 187.309 665.039 188.593 665.912C189.849 666.82 190.857 668.03 191.522 669.43C192.188 670.83 192.491 672.376 192.402 673.925C192.423 674.216 192.384 674.508 192.287 674.783C192.191 675.059 192.039 675.312 191.842 675.527C191.375 675.851 190.807 675.999 190.241 675.944L182.846 676.04C181.245 676.04 179.356 676.408 178.283 675.03C176.362 672.562 178.107 668.044 179.948 666.153Z" fill="#454238"/>
<path d="M196.211 672.851C195.485 672.786 194.757 672.959 194.136 673.343C193.516 673.728 193.036 674.302 192.77 674.982" stroke="#B3B3B3" stroke-width="0.75" stroke-miterlimit="10" stroke-linecap="round"/>
<path d="M197.092 676.633C197.481 676.01 198.018 675.494 198.655 675.131C199.292 674.767 200.009 674.568 200.742 674.549" stroke="#B3B3B3" stroke-width="0.75" stroke-miterlimit="10" stroke-linecap="round"/>
<path d="M202.535 677.225C202.708 676.763 203.016 676.363 203.418 676.077C203.82 675.792 204.299 675.633 204.792 675.623" stroke="#B3B3B3" stroke-width="0.75" stroke-miterlimit="10" stroke-linecap="round"/>
<path d="M124.863 607.151C119.356 607.92 113.844 608.561 108.326 609.074C112.504 629.649 114.425 650.577 117.835 671.28C122.525 671.28 126.8 670.271 131.778 670.383C132.739 664.118 134.644 626.893 137.589 605.068C133.394 606.027 129.144 606.722 124.863 607.151Z" fill="#CF9378"/>
<path d="M109.08 636.443C110.216 641.074 111.545 643.911 116.107 645.722C120.072 647.31 124.361 647.915 128.61 647.484C132.425 646.871 135.995 645.206 138.919 642.677C138.919 642.677 144.81 554.879 137.494 543.63C128.53 529.865 108.936 527.045 93.6478 523.68C80.281 520.747 66.7381 518.344 53.2273 515.668C49.9296 528.183 52.3148 542.909 57.0852 554.447L57.1653 554.623C59.0691 559.069 62.1489 562.911 66.0728 565.735C69.9966 568.559 74.6158 570.257 79.4326 570.647C86.5871 571.256 93.769 571.481 100.948 571.32C100.851 571.4 105.014 619.858 109.08 636.443Z" fill="url(#paint10_linear_365_10579)"/>
<path d="M101.076 574.541C101.076 569.526 101.765 563.404 101.781 558.389" stroke="#454238" stroke-width="0.4" stroke-miterlimit="10"/>
<path d="M116.652 683.972H159.586V688.619H118.189C117.764 688.619 117.357 688.45 117.057 688.15C116.757 687.849 116.588 687.441 116.588 687.016V683.908L116.652 683.972Z" fill="#B3B3B3"/>
<path d="M158.976 685.238C159.139 685.024 159.279 684.793 159.393 684.549C159.796 683.351 159.801 682.055 159.409 680.854C159.017 679.653 158.247 678.611 157.215 677.883C155.077 676.375 152.653 675.322 150.092 674.79C144.808 673.169 139.416 671.927 133.956 671.072C132.499 670.864 116.859 669.47 116.923 668.733L116.203 680.559C115.906 682.104 115.906 683.692 116.203 685.238H158.976Z" fill="#454238"/>
<path d="M124.048 665.48C125.279 664.538 126.775 664.008 128.323 663.965C129.872 663.922 131.395 664.368 132.676 665.239C133.934 666.146 134.944 667.355 135.613 668.755C136.282 670.156 136.587 671.702 136.502 673.251C136.519 673.542 136.478 673.834 136.382 674.109C136.286 674.384 136.136 674.637 135.942 674.854C135.469 675.166 134.905 675.308 134.341 675.255L126.945 675.351C125.344 675.351 123.455 675.719 122.383 674.341C120.462 671.889 122.207 667.306 124.048 665.48Z" fill="#454238"/>
<path d="M140.295 672.21C139.569 672.148 138.842 672.322 138.222 672.706C137.602 673.09 137.123 673.663 136.854 674.341" stroke="#B3B3B3" stroke-width="0.75" stroke-miterlimit="10" stroke-linecap="round"/>
<path d="M141.191 675.96C141.58 675.337 142.117 674.821 142.754 674.458C143.391 674.094 144.108 673.895 144.841 673.876" stroke="#B3B3B3" stroke-width="0.75" stroke-miterlimit="10" stroke-linecap="round"/>
<path d="M146.619 676.552C146.799 676.091 147.11 675.693 147.514 675.408C147.919 675.123 148.398 674.964 148.892 674.95" stroke="#B3B3B3" stroke-width="0.75" stroke-miterlimit="10" stroke-linecap="round"/>
<path d="M51.4187 532.702C51.8029 534.721 52.1871 536.74 52.5553 538.759C59.5188 535.089 67.8591 535.858 75.7351 535.842C93.0382 535.793 110.069 531.531 125.36 523.423C124.341 519.251 123.719 514.99 123.503 510.7C123.503 506.309 121.662 502.063 121.662 497.656C121.374 491.711 121.662 485.75 121.903 479.821C122.463 468.604 123.215 457.179 121.118 446.17C119.852 438.903 116.98 432.01 112.714 425.995C110.713 423.287 107.911 419.778 104.87 418.207C101.828 416.637 96.7217 417.102 93.0719 416.781C90.4147 416.441 87.725 416.441 85.0678 416.781C81.8225 417.496 78.7354 418.799 75.9592 420.627C60.8315 429.665 58.9105 444.343 54.4282 460.159C52.1551 468.043 48.5692 475.511 46.2961 483.411C45.0373 487.821 44.465 492.399 44.5992 496.983C44.6953 501.134 46.2801 504.835 47.0485 508.905C48.4892 516.843 49.9459 524.775 51.4187 532.702Z" fill="white"/>
<path d="M94.3047 431.171C97.1487 433.573 100.803 434.794 104.518 434.584C105.805 434.587 107.062 434.196 108.12 433.463C108.638 433.088 109.027 432.561 109.233 431.955C109.439 431.35 109.453 430.695 109.272 430.081" stroke="#454238" stroke-width="0.4" stroke-miterlimit="10" stroke-linecap="round"/>
<path d="M90.8145 464.261C92.488 469.66 95.3796 474.601 99.2658 478.703C103.152 482.804 107.928 485.955 113.226 487.913" stroke="#454238" stroke-width="0.4" stroke-miterlimit="10" stroke-linecap="round"/>
<path d="M100.643 472.642C103.438 475.965 107.394 478.097 111.704 478.603" stroke="#454238" stroke-width="0.4" stroke-miterlimit="10" stroke-linecap="round"/>
<path d="M81.2891 471.985C85.2107 484.352 92.1291 495.555 101.427 504.595" stroke="#454238" stroke-width="0.4" stroke-miterlimit="10" stroke-linecap="round"/>
<path d="M116.172 430.562C120.526 438.062 120.59 442.34 121.567 448.958C122.663 456.384 123.166 463.886 123.071 471.392C122.895 483.939 120.126 495.429 122.927 507.88" stroke="#454238" stroke-width="0.4" stroke-miterlimit="10"/>
<path d="M107.062 414.394C107.713 412.307 108.621 410.31 109.767 408.449C106.378 408.357 103.096 407.239 100.354 405.244C98.9963 404.25 97.7318 403.134 96.5762 401.911C96.144 401.478 95.5036 400.388 94.8473 399.619C94.1429 407.151 91.3415 414.249 84.9062 418.56C87.2486 422.458 90.608 425.644 94.6232 427.774C97.9689 429.729 106.325 433.479 106.517 426.684C106.517 424.457 105.685 422.406 105.877 420.146C106.055 418.19 106.453 416.261 107.062 414.394Z" fill="#CF9378"/>
<path d="M105.861 420.755C105.861 420.547 105.861 420.355 105.861 420.146C106.265 416.004 107.594 412.006 109.751 408.449C106.362 408.357 103.08 407.239 100.338 405.244C98.9805 404.25 97.7159 403.134 96.5603 401.911C96.1281 401.478 95.4878 400.388 94.8314 399.619C94.7194 400.725 94.5753 401.814 94.3672 402.824C94.7077 406.516 95.9296 410.072 97.9298 413.193C99.9301 416.313 102.65 418.907 105.861 420.755Z" fill="#9C5240"/>
<path d="M56.5558 431.828C50.6008 438.654 48.1516 447.852 46.1345 456.458C43.5199 467.578 40.8999 478.705 38.2745 489.836C37.3781 493.682 35.9213 498.954 36.7698 502.896C37.858 507.277 40.6389 511.046 44.5017 513.376C48.4557 515.748 54.4748 516.837 58.909 514.818C63.3433 512.799 68.0337 510.812 71.1232 507.079C73.5245 504.178 74.3249 500.3 74.9812 496.583C75.9417 491.487 76.8862 486.391 77.8467 481.295C81.7366 460.464 85.6266 438.975 81.2244 418.239C71.6163 419.591 62.8382 424.427 56.5558 431.828Z" fill="white"/>
<path d="M81.353 452.516C72.6926 454.775 73.461 465.864 72.6766 472.706C71.5238 482.811 69.6025 492.812 66.9297 502.624" stroke="#454238" stroke-width="0.4" stroke-miterlimit="10"/>
<path d="M74.8535 458.22C75.8062 455.196 77.6064 452.51 80.0402 450.48" stroke="#454238" stroke-width="0.4" stroke-miterlimit="10"/>
<path d="M69.7308 499.788C74.3731 500.797 78.9354 502.287 83.4818 503.665C90.7174 505.861 98.0492 507.127 105.397 509.082C107.479 509.71 109.629 510.087 111.8 510.203C115.514 510.203 119.116 508.729 122.83 508.601C125.316 508.604 127.762 509.226 129.948 510.412C132.133 511.599 133.989 513.311 135.348 515.395C139.894 522.35 132.355 520.491 127.616 520.411L116.523 520.251C102.207 520.118 87.8935 520.707 73.6367 522.013C65.6327 522.67 51.8977 524.529 44.8221 519.834C41.3963 517.543 35.7455 506.406 38.8991 503.089C39.528 502.503 40.2762 502.06 41.0922 501.791C48.2355 498.958 55.9602 497.907 63.5996 498.73C65.6625 498.96 67.7098 499.314 69.7308 499.788Z" fill="#CF9378"/>
<path d="M191.586 536.035H95.521C94.4512 536.035 93.584 536.903 93.584 537.974V538.647C93.584 539.717 94.4512 540.586 95.521 540.586H191.586C192.656 540.586 193.523 539.717 193.523 538.647V537.974C193.523 536.903 192.656 536.035 191.586 536.035Z" fill="#454238"/>
<path d="M203.624 540.57H118.221L125.648 491.455C125.766 490.637 126.171 489.889 126.79 489.343C127.408 488.796 128.201 488.489 129.026 488.474H207.658C208.136 488.486 208.606 488.6 209.036 488.81C209.465 489.019 209.845 489.319 210.149 489.688C210.452 490.058 210.673 490.488 210.796 490.951C210.919 491.413 210.94 491.897 210.86 492.368L203.624 540.57Z" fill="#919B9B"/>
<path d="M167.974 519.193C171.103 519.193 173.64 516.653 173.64 513.52C173.64 510.387 171.103 507.848 167.974 507.848C164.844 507.848 162.307 510.387 162.307 513.52C162.307 516.653 164.844 519.193 167.974 519.193Z" fill="white"/>
<path d="M123.983 383.13C123.007 379.316 118.925 382.633 115.195 381.351C111.993 380.246 109.496 379.236 106.038 379.845C102.896 380.321 100.044 381.948 98.0339 384.412C97.5057 385.085 97.0254 385.774 96.5932 386.447C95.4226 388.883 94.4742 391.42 93.7598 394.027V394.187C93.9248 399.013 95.5306 403.679 98.3701 407.583C99.6346 409.443 101.373 410.931 103.405 411.892C105.438 412.852 107.69 413.251 109.928 413.047C112.484 412.754 114.848 411.548 116.587 409.65C118.479 407.513 119.975 405.054 121.006 402.391C122.686 398.337 125.056 387.328 123.983 383.13Z" fill="#CF9378"/>
<path d="M105.973 386.864C105.973 386.703 106.005 386.511 106.069 386.287L107.078 381.479C111.096 384.476 115.45 388.755 120.653 390.485C122.597 391.105 124.685 391.109 126.63 390.495C128.576 389.881 130.285 388.68 131.522 387.056C131.954 386.462 132.329 385.829 132.643 385.165C132.846 384.591 133.081 384.03 133.347 383.483C132.596 383.87 131.733 383.984 130.907 383.806C130.081 383.628 129.342 383.168 128.817 382.505C127.82 381.14 127.057 379.618 126.56 378.002C125.068 374.289 122.546 371.081 119.292 368.756C116.028 366.466 112.052 365.426 108.086 365.824C105.595 366.122 103.226 367.072 101.219 368.58C100.218 369.315 99.3376 370.201 98.6096 371.208C98.2734 371.673 96.8487 374.236 97.425 374.717C96.9503 374.402 96.3935 374.234 95.8241 374.234C95.2547 374.234 94.6979 374.402 94.2233 374.717C93.2618 375.375 92.4847 376.269 91.9662 377.313C89.5214 381.662 88.6134 386.709 89.3889 391.639C89.793 393.736 90.4376 395.779 91.3098 397.728C91.9662 399.331 93.0387 401.238 95.0397 401.286C97.8252 401.286 97.505 396.687 98.2414 394.283C98.5455 393.338 98.4815 392.152 99.6021 391.863C100.723 391.575 102.58 393.754 103.46 391.975C103.685 391.294 103.685 390.558 103.46 389.876C103.234 389.197 103.28 388.456 103.588 387.809C103.588 387.809 105.061 387.809 105.285 387.809C105.485 387.745 105.659 387.618 105.783 387.449C105.907 387.279 105.973 387.074 105.973 386.864Z" fill="#454238"/>
<path d="M99.1225 367.554C98.0493 369.019 97.3794 370.74 97.18 372.546C96.9805 374.351 97.2584 376.178 97.9859 377.842" stroke="#454238" stroke-width="0.75" stroke-miterlimit="10" stroke-linecap="round"/>
<path d="M91.4707 373.788C92.3712 373.261 93.4261 373.062 94.4563 373.226C95.4865 373.389 96.4282 373.905 97.1216 374.685" stroke="#454238" stroke-width="0.75" stroke-miterlimit="10" stroke-linecap="round"/>
<path d="M113.53 397.376C114.219 397.376 114.779 396.816 114.779 396.126C114.779 395.435 114.219 394.876 113.53 394.876C112.84 394.876 112.281 395.435 112.281 396.126C112.281 396.816 112.84 397.376 113.53 397.376Z" fill="#454238"/>
<path d="M112.553 392.761C113.367 392.48 114.252 392.48 115.066 392.761" stroke="#454238" stroke-width="0.75" stroke-miterlimit="10" stroke-linecap="round"/>
<path d="M122.654 397.408C122.654 397.739 122.522 398.057 122.288 398.291C122.054 398.526 121.736 398.658 121.405 398.658C121.074 398.658 120.756 398.526 120.522 398.291C120.288 398.057 120.156 397.739 120.156 397.408C120.156 397.076 120.288 396.758 120.522 396.524C120.756 396.289 121.074 396.158 121.405 396.158C121.736 396.158 122.054 396.289 122.288 396.524C122.522 396.758 122.654 397.076 122.654 397.408Z" fill="#454238"/>
<path d="M120.445 394.027C121.254 393.747 122.134 393.747 122.943 394.027" stroke="#454238" stroke-width="0.75" stroke-miterlimit="10" stroke-linecap="round"/>
<path d="M118.172 398.001C118.013 399.135 118.306 400.286 118.989 401.205C119.198 401.411 119.328 401.683 119.357 401.975C119.333 402.125 119.263 402.264 119.157 402.373C119.051 402.482 118.914 402.556 118.764 402.584C118.458 402.648 118.142 402.648 117.836 402.584" stroke="#454238" stroke-width="0.75" stroke-miterlimit="10" stroke-linecap="round"/>
<path d="M112.553 404.843C113.138 405.35 113.834 405.714 114.584 405.906C115.334 406.098 116.118 406.112 116.875 405.949" stroke="#454238" stroke-width="0.75" stroke-miterlimit="10" stroke-linecap="round"/>
<path d="M93.4243 393.866C93.4369 394.77 93.7161 395.65 94.2268 396.395C94.7375 397.14 95.4569 397.717 96.2945 398.054C97.1321 398.392 98.0505 398.473 98.9344 398.289C99.8182 398.105 100.628 397.664 101.262 397.02C101.896 396.377 102.326 395.56 102.497 394.673C102.669 393.786 102.574 392.868 102.226 392.034C101.878 391.2 101.291 390.488 100.539 389.987C99.788 389.487 98.9054 389.219 98.0026 389.219C97.3959 389.219 96.7953 389.34 96.2356 389.574C95.676 389.808 95.1684 390.152 94.7424 390.584C94.3164 391.017 93.9805 391.529 93.7542 392.093C93.5279 392.656 93.4158 393.259 93.4243 393.866Z" fill="#CF9378"/>
<path d="M97.1059 391.895C97.4413 391.85 97.7828 391.891 98.0979 392.015C98.413 392.138 98.6912 392.341 98.9061 392.602C99.1211 392.864 99.2656 393.177 99.326 393.51C99.3863 393.843 99.3605 394.187 99.251 394.507C99.0519 394.321 98.801 394.2 98.5315 394.16C98.262 394.119 97.9866 394.162 97.7419 394.282C97.4972 394.402 97.2946 394.593 97.161 394.831C97.0274 395.069 96.9691 395.341 96.9938 395.613" stroke="#454238" stroke-width="0.75" stroke-linecap="round" stroke-linejoin="round"/>
<path d="M605.859 655.849C605.731 655.272 589.387 658.124 587.578 658.413L587.37 658.573C581.719 663.38 574.563 666.008 567.536 668.54C566.422 668.85 565.404 669.434 564.574 670.239C561.373 673.989 568.144 675.591 570.545 675.799C574.452 675.92 578.358 675.538 582.167 674.662C590.043 673.267 598.063 673.716 605.859 671.793C606.004 671.794 606.147 671.764 606.279 671.706C606.411 671.648 606.53 671.562 606.626 671.454C606.723 671.347 606.796 671.22 606.84 671.082C606.885 670.945 606.9 670.799 606.884 670.655C607.31 665.697 606.964 660.702 605.859 655.849Z" fill="#454238"/>
<path d="M570.066 540.778C574.02 580.166 581.271 620.579 585.722 659.935C594.942 660.72 598.288 660.111 607.237 658.605C613.112 615.788 615.593 595.133 610.294 551.723C609.75 547.268 610.294 510.348 610.07 505.604C609.126 477.385 612.887 445.176 595.967 421.332C591.677 415.323 584.681 410.708 577.557 411.253C575.105 411.492 572.736 412.273 570.621 413.54C568.506 414.806 566.698 416.526 565.327 418.576C556.587 430.466 561.469 462.755 563.022 476.857C565.087 495.541 568.193 521.997 570.066 540.778Z" fill="#919B9B"/>
<path d="M572.851 565.279C574.452 558.453 576.405 551.69 578.326 544.944C585.049 521.356 587.835 497.095 591.212 472.834C592.156 467.102 592.653 461.305 592.701 455.496C592.605 449.615 591.821 443.686 591.356 437.869C590.88 429.841 589.772 421.863 588.043 414.009C584.905 412.058 581.247 411.113 577.557 411.301C575.105 411.54 572.736 412.321 570.621 413.588C568.506 414.854 566.698 416.574 565.327 418.624C556.587 430.514 561.469 462.803 563.022 476.905C565.087 495.589 568.193 522.045 570.066 540.826C570.882 548.806 571.827 557.011 572.851 565.279Z" fill="#545D78"/>
<path d="M542.82 661.313C542.661 661.289 542.499 661.289 542.34 661.313C537.095 661.938 531.792 661.906 526.555 661.217C525.888 661.105 525.206 661.105 524.538 661.217C523.966 661.399 523.426 661.669 522.938 662.018C518.016 665.009 512.591 667.078 506.929 668.124C503.728 668.717 500.206 669.053 497.629 671.12C496.428 672.082 495.484 673.876 496.396 675.11C496.742 675.508 497.175 675.821 497.661 676.024C502.575 678.331 510.003 677.434 515.27 677.145C523.802 676.665 532.254 677.145 540.675 675.543C541.02 675.49 541.348 675.358 541.635 675.158C541.984 674.801 542.209 674.34 542.275 673.844C542.825 671.513 543.247 669.154 543.54 666.778C543.652 665.832 544.18 662.451 543.54 661.666C543.459 661.551 543.351 661.459 543.225 661.397C543.099 661.335 542.96 661.307 542.82 661.313Z" fill="#454238"/>
<path d="M563.695 416.669C544.293 416.349 538.354 436.619 536.049 452.211C531.161 485.136 527.741 518.253 525.788 551.562C524.811 568.083 523.515 582.009 522.97 598.61C522.394 615.596 521.466 645.081 522.202 661.906C522.188 662.247 522.283 662.584 522.474 662.868C522.615 663.001 522.781 663.105 522.962 663.173C523.144 663.242 523.337 663.274 523.531 663.268C530.645 664.034 537.816 664.136 544.95 663.573C545.286 663.572 545.617 663.483 545.91 663.316C546.214 663.092 543.477 662.018 543.589 661.714C549.048 644.84 552.794 614.682 554.506 597.055C558.076 560.199 565.712 524.305 579.463 490.237C593.198 457.98 600.962 417.262 563.695 416.669Z" fill="#919B9B"/>
<path d="M571.65 510.139C579.44 491.523 586.127 472.464 591.677 453.06" stroke="#454238" stroke-width="0.75" stroke-miterlimit="10"/>
<path d="M567.505 460.335H567.697C569.474 460.624 571.251 460.896 573.028 461.121C574.34 461.281 575.653 461.409 576.966 461.537L578.262 461.649C579.351 461.746 580.456 461.826 581.464 461.874L583.337 461.97H584.794C593.172 462.241 601.557 461.651 609.814 460.207C608.582 445.321 605.332 430.979 596.688 418.832C592.414 412.807 585.402 408.192 578.278 408.753C575.828 408.986 573.461 409.763 571.348 411.027C569.235 412.291 567.43 414.01 566.064 416.06C565.386 416.999 564.812 418.009 564.351 419.073C547.495 418.688 540.051 435.69 536.289 450.032C540.122 452.268 544.171 454.11 548.375 455.528C554.599 457.687 561 459.296 567.505 460.335Z" fill="#545D78"/>
<path d="M575.957 310.796C576.076 308.616 575.92 306.43 575.493 304.29C578.705 305.37 582.165 305.47 585.434 304.578C587.051 304.111 588.626 303.505 590.14 302.768C590.684 302.511 591.741 301.726 592.557 301.165C590.588 308.488 590.732 316.116 595.263 322.398C591.71 325.23 587.455 327.042 582.952 327.638C579.127 328.295 569.986 328.903 572.179 322.462C572.899 320.362 574.452 318.744 575.06 316.565C575.563 314.679 575.864 312.745 575.957 310.796Z" fill="#F7B699"/>
<path d="M584.81 304.723C581.725 305.455 578.497 305.305 575.493 304.29C575.921 306.431 576.077 308.616 575.958 310.796C575.868 312.761 575.567 314.712 575.061 316.613L574.869 317.174L575.99 316.997C580.237 314.027 583.348 309.698 584.81 304.723Z" fill="#C46E58"/>
<path d="M571.011 275.59C573.253 272.385 575.926 276.888 579.848 277C583.274 277.081 585.931 277 588.957 278.779C591.726 280.324 593.825 282.842 594.848 285.846C595.109 286.64 595.328 287.448 595.504 288.266C595.743 290.931 595.743 293.612 595.504 296.278V296.454C593.669 300.913 590.541 304.72 586.523 307.383C584.681 308.695 582.522 309.488 580.269 309.68C578.016 309.872 575.754 309.455 573.717 308.472C571.435 307.293 569.647 305.339 568.674 302.96C567.647 300.295 567.105 297.468 567.073 294.611C566.913 290.285 568.53 279.148 571.011 275.59Z" fill="#F7B699"/>
<path d="M575.445 283.09C572.371 283.538 569.858 284.019 567.041 282.369C564.885 281.101 563.28 279.072 562.542 276.68C562.35 275.972 562.221 275.248 562.158 274.517C562.158 274.196 562.158 272.914 562.158 272.706C562.727 273.331 563.496 273.737 564.332 273.854C565.168 273.971 566.019 273.792 566.737 273.347C568.149 272.422 569.399 271.269 570.434 269.934C573.112 266.964 576.593 264.838 580.455 263.812C584.33 262.791 588.442 263.213 592.029 264.998C594.264 266.143 596.154 267.863 597.504 269.982C598.205 271.022 598.745 272.162 599.105 273.363C599.249 273.908 599.681 276.792 598.977 277.065C599.538 276.907 600.134 276.924 600.686 277.113C601.237 277.302 601.719 277.654 602.066 278.122C602.743 279.067 603.162 280.171 603.283 281.327C603.858 285.226 603.365 289.208 601.858 292.849C600.674 295.461 599.425 298.329 597.968 300.861C596.755 303.081 594.918 304.897 592.686 306.085C589.723 307.232 586.518 307.613 583.369 307.19C582.018 307.271 580.676 306.929 579.528 306.211C578.381 305.493 577.485 304.435 576.966 303.184C576.476 301.842 576.205 300.43 576.165 299.002C576.165 298.409 575.845 294.291 576.325 294.05C575.752 294.394 575.115 294.617 574.452 294.707C574.119 294.751 573.779 294.697 573.475 294.552C573.171 294.407 572.916 294.177 572.74 293.89C572.543 293.286 572.571 292.632 572.82 292.047C573.668 289.051 574.548 286.07 575.445 283.09Z" fill="#454238"/>
<path d="M599.729 269.693C600.22 271.438 600.245 273.282 599.801 275.039C599.357 276.797 598.46 278.407 597.199 279.709" stroke="#454238" stroke-width="0.75" stroke-miterlimit="10" stroke-linecap="round"/>
<path d="M604.724 278.202C604.067 277.392 603.148 276.835 602.126 276.628C601.104 276.42 600.042 276.575 599.121 277.065" stroke="#454238" stroke-width="0.75" stroke-miterlimit="10" stroke-linecap="round"/>
<path d="M582.697 296.278C582.383 297.129 581.823 297.867 581.089 298.4C580.356 298.932 579.48 299.235 578.575 299.269C577.669 299.303 576.774 299.067 576.002 298.591C575.23 298.116 574.617 297.422 574.24 296.597C573.862 295.772 573.738 294.853 573.883 293.958C574.028 293.062 574.434 292.23 575.052 291.566C575.67 290.902 576.47 290.436 577.353 290.228C578.235 290.02 579.159 290.079 580.008 290.397C581.142 290.822 582.061 291.679 582.565 292.781C583.069 293.884 583.117 295.141 582.697 296.278Z" fill="#F7B699"/>
<path d="M579.944 293.201C579.648 293.044 579.318 292.962 578.983 292.962C578.649 292.962 578.319 293.044 578.023 293.201C577.745 293.37 577.512 293.604 577.345 293.883C577.177 294.163 577.08 294.478 577.062 294.804C577.313 294.71 577.585 294.69 577.846 294.747C578.107 294.804 578.346 294.935 578.535 295.124C578.715 295.326 578.834 295.575 578.876 295.842C578.919 296.109 578.884 296.383 578.775 296.63" stroke="#454238" stroke-width="0.75" stroke-linecap="round" stroke-linejoin="round"/>
<path d="M519.176 348.261C519.311 347.538 519.631 346.862 520.105 346.301C520.579 345.739 521.191 345.31 521.881 345.056C523.29 344.559 525.675 344.559 526.155 343.133C526.379 342.428 526.619 342.156 526.043 341.675C525.449 341.22 524.726 340.968 523.978 340.954C522.821 340.898 521.672 341.169 520.661 341.736C519.651 342.302 518.82 343.142 518.263 344.159C517.927 344.784 517.447 345.585 516.774 345.393C516.62 345.328 516.48 345.232 516.365 345.11C516.249 344.989 516.16 344.845 516.102 344.688C515.302 342.813 516.406 340.713 517.479 338.983C518.229 337.546 519.331 336.322 520.68 335.425C522.322 334.676 524.15 334.43 525.931 334.72C529.533 334.961 533.327 335.233 536.384 337.396C537.185 337.957 537.985 338.614 538.706 339.175C540.823 340.533 543.133 341.564 545.557 342.236C544.821 344.832 544.068 347.412 543.332 349.992C543.332 350.12 543.236 350.28 543.124 350.344C542.985 350.4 542.83 350.4 542.692 350.344C538.305 349.27 533.247 348.373 528.844 347.684C525.611 347.397 522.352 347.591 519.176 348.261Z" fill="#F7B699"/>
<path d="M543.301 336.515C539.258 341.63 537.144 348.007 537.33 354.526L545.782 357.908C546.758 353.437 547.719 348.966 548.695 344.511C548.984 343.165 550.184 340.297 549.416 339.191C548.647 338.085 544.661 337.108 543.301 336.515Z" fill="white"/>
<path d="M572.355 347.107C570.024 345.669 567.595 344.394 565.087 343.293C560.733 341.338 556.171 339.736 551.801 338.214C550.135 337.568 548.429 337.033 546.694 336.611C541.891 341.691 540.291 350.312 540.851 357.523C545.861 361.93 553.193 364.526 558.716 367.987C561.746 370.046 564.961 371.816 568.321 373.275C571.693 374.75 575.455 375.076 579.03 374.204C579.962 373.992 580.838 373.585 581.602 373.011C582.366 372.436 583.001 371.707 583.465 370.871C583.904 369.762 584.09 368.568 584.009 367.378C583.854 363.307 582.712 359.334 580.682 355.803C578.651 352.271 575.794 349.287 572.355 347.107Z" fill="#545D78"/>
<path d="M489.849 375.294C488.898 373.625 488.322 371.768 488.161 369.852C488.001 367.937 488.26 366.01 488.921 364.205C489.117 363.52 489.463 362.887 489.934 362.352C490.404 361.817 490.988 361.394 491.642 361.112C492.479 360.938 493.349 361.019 494.14 361.345C494.93 361.67 495.605 362.226 496.077 362.939C496.985 364.382 497.711 365.932 498.238 367.554C498.942 369.27 499.868 370.886 500.991 372.362C502.331 373.709 503.33 375.357 503.905 377.169C504.028 377.919 503.972 378.688 503.741 379.412C503.51 380.136 503.111 380.795 502.576 381.335C498.526 385.341 491.77 378.755 489.849 375.294Z" fill="#F7B699"/>
<path d="M535.104 372.858L510.82 384.652L478.676 355.456L502.976 343.662L535.104 372.858Z" fill="#F4AE2D"/>
<path d="M531.135 371.64L510.276 381.768L482.502 356.546L503.377 346.418L531.135 371.64Z" fill="white"/>
<path d="M506.545 351.754L489.209 360.167L487.512 358.629L504.849 350.216L506.545 351.754Z" fill="#C8DDF7"/>
<path d="M515.399 359.798L498.062 368.211L496.365 366.673L513.702 358.26L515.399 359.798Z" fill="#C8DDF7"/>
<path d="M518.328 362.475L500.991 370.887L499.311 369.349L516.647 360.936L518.328 362.475Z" fill="#C8DDF7"/>
<path d="M521.274 365.135L503.937 373.547L502.24 372.009L519.577 363.596L521.274 365.135Z" fill="#C8DDF7"/>
<path d="M524.204 367.795L506.867 376.207L505.17 374.685L522.507 366.272L524.204 367.795Z" fill="#C8DDF7"/>
<path d="M527.131 370.471L509.795 378.884L508.098 377.345L525.45 368.932L527.131 370.471Z" fill="#C8DDF7"/>
<path d="M502.335 348.79L487.752 355.873L481.557 350.232L496.14 343.165L502.335 348.79Z" fill="#454238"/>
<path d="M492.331 372.634C492.09 372.916 491.87 373.216 491.675 373.531C489.834 376.48 493.388 379.236 495.661 380.822C500.784 384.444 507.059 386.175 513.03 387.905C516.392 388.899 526.125 386.495 523.435 381.207C521.594 377.586 516.168 375.518 512.598 374.541C508.884 373.852 505.714 372.298 504.322 368.548C503.713 366.945 503.457 365.087 502.913 363.388C502.816 362.957 502.6 362.563 502.288 362.25C502.135 362.092 501.932 361.991 501.714 361.965C501.495 361.939 501.274 361.989 501.088 362.106C500.908 362.281 500.78 362.503 500.72 362.747C499.679 365.647 501.536 367.795 497.966 369.493C496.782 370.054 495.485 370.375 494.332 371.016C493.574 371.431 492.896 371.979 492.331 372.634Z" fill="#F7B699"/>
<path d="M510.227 369.477C506.758 375 505.341 381.57 506.225 388.033L514.998 390.469L516.438 376.832C516.582 375.47 517.463 372.506 516.598 371.48C515.734 370.455 511.652 369.99 510.227 369.477Z" fill="white"/>
<path d="M570.323 316.533C572.214 315.183 574.484 314.471 576.806 314.498L594.607 312.895C595.728 316.869 596.854 320.843 597.985 324.817C597.985 324.641 578.775 325.41 576.902 325.346C575.029 325.282 568.722 325.923 567.922 324.112C567.121 322.301 568.85 317.863 570.323 316.533Z" fill="white"/>
<path d="M609.334 415.595C609.334 409.186 609.702 402.936 610.102 396.622C610.631 388.402 611.255 380.181 611.351 371.945C611.612 361.697 610.932 351.446 609.318 341.322C608.891 338.801 608.357 336.317 607.717 333.871C607.589 333.374 607.461 332.845 607.317 332.269C605.412 327.718 601.826 321.692 597.04 319.016C596.246 318.96 595.449 318.96 594.654 319.016C589.148 319.38 583.673 319.983 578.23 320.827C574.484 321.404 571.827 321.885 569.073 324.753C562.046 332.092 555.45 348.501 553.61 358.581C551.865 368.195 552.553 368.772 551.545 378.499C550.36 390.068 548.679 401.574 546.502 413.015C544.661 422.63 541.924 433.11 533.936 438.783C547.19 444.343 560.605 450 574.804 452.179C589.004 454.358 604.291 452.916 616.426 445.128C610.679 436.411 609.302 426.075 609.334 415.595Z" fill="#919B9B"/>
<path d="M576.549 350.424C576.063 349.325 575.302 348.37 574.339 347.652C573.242 346.993 571.964 346.701 570.69 346.819C565.135 347.059 560.733 351.626 557.771 356.305C554.809 360.984 552.504 366.336 548.278 369.958C540.898 376.255 523.113 371.112 514.853 369.269C508.562 375.438 507.89 382.553 511.155 390.854C522.233 395.661 545.541 407.295 557.579 401.526C561.701 399.353 565.141 396.081 567.52 392.072C568.997 389.772 570.344 387.391 571.554 384.941C574.51 379.651 576.754 373.994 578.229 368.115C579.717 362.2 579.123 355.953 576.549 350.424Z" fill="#919B9B"/>
<path d="M581.479 330.394C579.604 328.55 577.165 327.39 574.553 327.099C571.94 326.809 569.306 327.404 567.072 328.791C564.463 330.394 563.134 333.807 561.789 336.483C560.145 339.767 558.743 343.168 557.595 346.658C556.411 350.264 555.498 353.966 554.394 357.587C552.569 363.548 550.2 369.333 548.839 375.406C547.478 381.479 547.238 388.001 549.447 393.786C552.649 402.071 563.582 397.664 568.433 393.065C572.595 389.107 574.596 383.45 576.437 377.986C578.278 372.522 580.183 367.041 582.04 361.561C584.006 356.205 585.255 350.612 585.754 344.928C586.01 339.544 585.049 334.208 581.479 330.394Z" fill="#919B9B"/>
<path d="M552.025 364.75C554.624 352.598 559.159 340.944 565.456 330.233" stroke="#454238" stroke-width="0.75" stroke-miterlimit="10"/>
<path d="M585.225 354.366L578.069 373.595C576.356 378.21 574.74 384.107 571.49 387.921C568.24 391.735 565.231 395.853 561.261 398.978C557.477 402.183 552.62 403.832 547.67 403.593" stroke="#454238" stroke-width="0.75" stroke-miterlimit="10"/>
<path d="M587.836 356.081C585.668 357.307 583.888 359.116 582.697 361.305" stroke="#454238" stroke-width="0.75" stroke-miterlimit="10"/>
<path d="M513.045 353.261L510.18 354.863L511.636 351.947L528.909 334.047C528.999 333.955 529.106 333.882 529.224 333.832C529.342 333.782 529.469 333.756 529.598 333.756C529.726 333.756 529.853 333.782 529.971 333.832C530.089 333.882 530.196 333.955 530.286 334.047C530.468 334.23 530.57 334.478 530.57 334.736C530.57 334.995 530.468 335.242 530.286 335.425L513.045 353.261Z" fill="#454238"/>
</g>
<defs>
<linearGradient id="paint0_linear_365_10579" x1="601.205" y1="256.656" x2="692.019" y2="287.76" gradientUnits="userSpaceOnUse">
<stop stop-color="#FF403E"/>
<stop offset="1" stop-color="#FF8145"/>
</linearGradient>
<linearGradient id="paint1_linear_365_10579" x1="61.7203" y1="179.845" x2="61.7203" y2="245.208" gradientUnits="userSpaceOnUse">
<stop stop-color="#236FDA"/>
<stop offset="1" stop-color="#2A7FF8"/>
</linearGradient>
<linearGradient id="paint2_linear_365_10579" x1="84.1699" y1="203.509" x2="128.112" y2="222.726" gradientUnits="userSpaceOnUse">
<stop stop-color="#FF403E"/>
<stop offset="1" stop-color="#FF8145"/>
</linearGradient>
<linearGradient id="paint3_linear_365_10579" x1="466.42" y1="113.494" x2="585.425" y2="154.25" gradientUnits="userSpaceOnUse">
<stop stop-color="#FF403E"/>
<stop offset="1" stop-color="#FF8145"/>
</linearGradient>
<linearGradient id="paint4_linear_365_10579" x1="413.234" y1="555.136" x2="424.442" y2="558.975" gradientUnits="userSpaceOnUse">
<stop stop-color="#FF403E"/>
<stop offset="1" stop-color="#FF8145"/>
</linearGradient>
<linearGradient id="paint5_linear_365_10579" x1="353.78" y1="604.971" x2="353.78" y2="617.791" gradientUnits="userSpaceOnUse">
<stop stop-color="#236FDA"/>
<stop offset="1" stop-color="#2A7FF8"/>
</linearGradient>
<linearGradient id="paint6_linear_365_10579" x1="281.12" y1="602.751" x2="292.216" y2="606.551" gradientUnits="userSpaceOnUse">
<stop stop-color="#FF403E"/>
<stop offset="1" stop-color="#FF8145"/>
</linearGradient>
<linearGradient id="paint7_linear_365_10579" x1="297.381" y1="389.367" x2="325.889" y2="392.189" gradientUnits="userSpaceOnUse">
<stop stop-color="#FF403E"/>
<stop offset="1" stop-color="#FF8145"/>
</linearGradient>
<linearGradient id="paint8_linear_365_10579" x1="399.444" y1="269.055" x2="399.444" y2="470.912" gradientUnits="userSpaceOnUse">
<stop stop-color="#236FDA"/>
<stop offset="1" stop-color="#2A7FF8"/>
</linearGradient>
<linearGradient id="paint9_linear_365_10579" x1="133.804" y1="519.006" x2="133.804" y2="645.65" gradientUnits="userSpaceOnUse">
<stop stop-color="#236FDA"/>
<stop offset="1" stop-color="#2A7FF8"/>
</linearGradient>
<linearGradient id="paint10_linear_365_10579" x1="96.4301" y1="515.668" x2="96.4301" y2="647.619" gradientUnits="userSpaceOnUse">
<stop stop-color="#236FDA"/>
<stop offset="1" stop-color="#2A7FF8"/>
</linearGradient>
<clipPath id="clip0_365_10579">
<rect width="692" height="692" fill="white"/>
</clipPath>
</defs>
</svg>
