<svg width="752" height="567" viewBox="0 0 752 567" fill="none" xmlns="http://www.w3.org/2000/svg">
<g clip-path="url(#clip0_3211_1694)">
<path d="M623.201 553.257H138.587C135.572 553.257 132.68 552.057 130.548 549.923C128.416 547.788 127.218 544.893 127.218 541.874C127.216 540.379 127.509 538.898 128.08 537.517C128.651 536.135 129.488 534.879 130.544 533.822C131.6 532.765 132.854 531.927 134.234 531.355C135.614 530.784 137.093 530.491 138.587 530.492H623.201C626.217 530.492 629.108 531.691 631.241 533.826C633.373 535.961 634.571 538.856 634.571 541.874C634.567 544.892 633.368 547.785 631.237 549.919C629.105 552.053 626.216 553.253 623.201 553.257Z" fill="#E6EDFF"/>
<path d="M627.404 329.986L626.791 329.615C612.088 321.046 594.753 317.747 578.045 313.629C562.524 309.792 545.1 304.676 533.182 293.32C518.696 279.559 520.714 260.593 526.284 243.353C532.134 225.269 537.653 207.058 535.072 187.848C532.04 165.542 522.084 144.753 506.611 128.418C482.34 102.942 444.759 89.4368 408.748 93.2607C360.424 98.3763 320.734 131.743 290.6 167.872C270.825 191.583 259.163 218.517 236.603 241.025C214.312 263.278 189.275 283.331 170.51 308.551C145.523 342.123 133.375 384.928 141.474 425.264C149.573 465.601 179.196 502.408 219.754 516.962C245.584 526.246 273.917 526.426 301.509 526.502C358.891 526.656 416.349 526.796 473.539 522.448C511.172 519.571 549.316 514.583 583.602 499.62C617.887 484.656 648.252 458.375 659.493 424.254C670.709 390.35 659.097 348.901 627.404 329.986Z" fill="white"/>
<path d="M166.371 250.016C165.487 246.814 163.788 243.897 161.44 241.55L157.608 238.557C154.676 236.835 151.337 235.93 147.938 235.935H146.992C144.428 235.815 141.878 236.384 139.609 237.585C137.244 238.349 135.118 239.715 133.439 241.55C131.607 243.231 130.242 245.359 129.479 247.727C128.281 249.999 127.712 252.552 127.831 255.119C128.048 256.82 128.278 258.521 128.508 260.234C129.389 263.434 131.089 266.347 133.439 268.688L137.271 271.693C140.209 273.395 143.548 274.278 146.941 274.251H147.886C150.463 274.394 153.03 273.842 155.321 272.653C157.685 271.887 159.807 270.515 161.478 268.675C163.316 267.002 164.686 264.877 165.451 262.511C166.648 260.238 167.216 257.686 167.099 255.119L166.371 250.016Z" fill="#919B9B"/>
<path d="M638.019 272.064C660.885 272.064 679.421 253.507 679.421 230.615C679.421 207.723 660.885 189.166 638.019 189.166C615.154 189.166 596.618 207.723 596.618 230.615C596.618 253.507 615.154 272.064 638.019 272.064Z" fill="url(#paint0_linear_3211_1694)"/>
<path d="M486.858 18.2839C485.108 18.629 483.397 19.1474 481.749 19.8314C481.854 19.9537 481.952 20.0818 482.043 20.215C482.362 20.7264 482.578 21.2959 482.678 21.8908C482.777 22.4857 482.759 23.0944 482.624 23.6823C482.489 24.2701 482.239 24.8256 481.89 25.3168C481.54 25.8081 481.097 26.2257 480.586 26.5456C480.075 26.8656 479.507 27.0816 478.913 27.1815C478.318 27.2814 477.71 27.2631 477.123 27.1277C475.937 26.8543 474.908 26.1205 474.263 25.0877C474.172 24.9353 474.091 24.7772 474.02 24.6145C472.667 25.8054 471.426 27.1198 470.316 28.5407C470.483 28.5956 470.645 28.6641 470.801 28.7453C471.361 29.0136 471.86 29.3925 472.269 29.8591C472.679 30.3257 472.99 30.8704 473.183 31.4604C473.377 32.0504 473.449 32.6735 473.396 33.2923C473.343 33.911 473.165 34.5126 472.874 35.0608C472.582 35.609 472.183 36.0925 471.7 36.4823C471.217 36.872 470.66 37.1598 470.063 37.3285C469.466 37.4972 468.842 37.5432 468.226 37.4638C467.611 37.3844 467.018 37.1811 466.484 36.8664L465.998 36.5339C465.403 38.2534 464.975 40.0266 464.721 41.8285C464.912 41.8285 465.091 41.7646 465.296 41.7518C466.484 41.7576 467.623 42.2235 468.476 43.052C469.329 43.8804 469.828 45.007 469.869 46.1958C469.91 47.3846 469.49 48.5432 468.697 49.4289C467.904 50.3146 466.8 50.8587 465.615 50.9471C465.398 50.9662 465.18 50.9662 464.963 50.9471C465.308 52.7506 465.83 54.5156 466.522 56.2162C466.688 56.0697 466.863 55.9331 467.046 55.8069C468.077 55.2276 469.291 55.0681 470.436 55.3616C471.582 55.6551 472.57 56.379 473.197 57.3829C473.823 58.3869 474.039 59.5938 473.8 60.7531C473.561 61.9123 472.885 62.9348 471.913 63.6082C471.709 63.7326 471.495 63.8395 471.274 63.928C472.489 65.3329 473.837 66.6177 475.298 67.7647C475.371 67.5408 475.46 67.3228 475.566 67.1124C476.137 66.0355 477.112 65.2298 478.276 64.8724C479.44 64.515 480.699 64.6354 481.774 65.2069C482.85 65.7784 483.655 66.7543 484.012 67.92C484.369 69.0856 484.248 70.3454 483.678 71.4224C483.555 71.6428 483.414 71.8524 483.256 72.049C485.009 72.6581 486.82 73.0866 488.66 73.3279C488.61 73.0877 488.58 72.844 488.57 72.5989C488.549 71.996 488.647 71.3948 488.858 70.8298C489.069 70.2647 489.389 69.7468 489.8 69.3056C490.631 68.4146 491.78 67.8902 492.996 67.8478C494.213 67.8054 495.396 68.2485 496.286 69.0795C496.727 69.491 497.082 69.9854 497.332 70.5344C497.582 71.0834 497.721 71.6763 497.742 72.2792C497.768 72.5301 497.768 72.7829 497.742 73.0338C499.567 72.6775 501.352 72.1376 503.069 71.4224C502.902 71.2452 502.752 71.0525 502.622 70.8468C501.966 69.8191 501.745 68.5728 502.008 67.3819C502.27 66.1911 502.994 65.1534 504.021 64.4971C505.047 63.8408 506.292 63.6196 507.481 63.8822C508.671 64.1448 509.707 64.8698 510.363 65.8975C510.494 66.104 510.605 66.3224 510.695 66.5497C512.077 65.3216 513.339 63.9641 514.463 62.4956C514.243 62.4292 514.03 62.3436 513.825 62.2398C513.265 61.9715 512.766 61.5927 512.356 61.1261C511.947 60.6595 511.636 60.1148 511.443 59.5248C511.249 58.9348 511.177 58.3116 511.23 57.6929C511.283 57.0741 511.461 56.4725 511.752 55.9243C512.044 55.3761 512.443 54.8926 512.926 54.5029C513.409 54.1132 513.965 53.8253 514.562 53.6566C515.159 53.488 515.784 53.442 516.4 53.5214C517.015 53.6008 517.608 53.804 518.142 54.1188C518.339 54.2274 518.527 54.3515 518.704 54.4897C519.301 52.7531 519.729 50.9628 519.982 49.1438C519.775 49.1828 519.566 49.2084 519.356 49.2206C518.71 49.2744 518.06 49.191 517.449 48.9759C516.838 48.7607 516.279 48.4186 515.809 47.972C515.339 47.5255 514.968 46.9845 514.722 46.3845C514.475 45.7846 514.358 45.1393 514.378 44.4908C514.398 43.8424 514.554 43.2055 514.837 42.6218C515.12 42.0382 515.523 41.5211 516.02 41.1043C516.516 40.6875 517.095 40.3804 517.719 40.2033C518.342 40.0262 518.996 39.9829 519.637 40.0764C519.275 38.2878 518.736 36.5398 518.027 34.8585C517.874 34.9736 517.746 35.1015 517.58 35.2038C516.549 35.7831 515.335 35.9426 514.19 35.6491C513.044 35.3556 512.056 34.6318 511.429 33.6278C510.803 32.6238 510.587 31.4169 510.826 30.2577C511.065 29.0984 511.741 28.0759 512.713 27.4025L513.199 27.1595C512.003 25.8089 510.681 24.5756 509.252 23.4762C509.201 23.6349 509.137 23.7889 509.06 23.9366C508.777 24.4699 508.392 24.9422 507.928 25.3265C507.463 25.7109 506.926 25.9998 506.35 26.1767C505.774 26.3536 505.168 26.4152 504.568 26.3578C503.967 26.3004 503.384 26.1252 502.852 25.8422C502.319 25.5592 501.847 25.174 501.463 24.7085C501.08 24.243 500.791 23.7063 500.614 23.1291C500.438 22.552 500.376 21.9456 500.433 21.3447C500.491 20.7437 500.666 20.16 500.948 19.6267C501.035 19.4812 501.128 19.3404 501.229 19.2047C499.526 18.6331 497.773 18.2262 495.992 17.9897C496.026 18.1412 496.047 18.2952 496.056 18.4502C496.078 19.0531 495.981 19.6544 495.77 20.2198C495.56 20.7852 495.24 21.3036 494.83 21.7454C494.42 22.1871 493.926 22.5437 493.378 22.7946C492.83 23.0455 492.238 23.1858 491.636 23.2077C491.034 23.2295 490.433 23.1324 489.868 22.9218C489.304 22.7112 488.786 22.3914 488.345 21.9805C487.903 21.5696 487.547 21.0757 487.297 20.527C487.046 19.9783 486.906 19.3856 486.884 18.7827C486.862 18.6173 486.854 18.4506 486.858 18.2839ZM491.7 29.6406C494.856 29.5288 497.974 30.3563 500.66 32.0185C503.346 33.6807 505.479 36.103 506.791 38.9791C508.102 41.8551 508.532 45.0559 508.026 48.1765C507.521 51.2972 506.102 54.1977 503.95 56.5114C501.798 58.825 499.009 60.4479 495.936 61.1748C492.863 61.9018 489.643 61.7001 486.684 60.5953C483.726 59.4905 481.161 57.5323 479.313 54.9681C477.466 52.4039 476.42 49.349 476.307 46.1896C476.23 44.0905 476.568 41.9969 477.3 40.0286C478.032 38.0603 479.145 36.2559 480.575 34.7187C482.005 33.1816 483.723 31.9418 485.632 31.0704C487.541 30.199 489.603 29.7131 491.7 29.6406Z" fill="#919B9B"/>
<path d="M188.061 204.142C216.62 204.142 239.771 182.87 239.771 156.63C239.771 130.391 216.62 109.119 188.061 109.119C159.503 109.119 136.351 130.391 136.351 156.63C136.351 182.87 159.503 204.142 188.061 204.142Z" fill="#E6EDFF"/>
<path d="M186.835 157.372L146.507 144.443C144.93 148.571 144.12 152.953 144.118 157.372C144.118 178.896 163.407 196.609 186.835 196.609C194.516 196.625 202.077 194.703 208.819 191.02L186.835 157.372Z" fill="url(#paint1_linear_3211_1694)"/>
<path d="M189.045 156.63L211.31 190.125C217.448 186.727 222.612 181.808 226.307 175.84C229.854 170.069 231.741 163.431 231.762 156.656L189.045 156.63Z" fill="url(#paint2_linear_3211_1694)"/>
<path d="M189.287 154.751L231.966 154.239C231.881 148.869 230.611 143.585 228.248 138.764C225.821 133.816 222.383 129.433 218.157 125.898L189.287 154.751Z" fill="#FEFEFF"/>
<path d="M529.422 70.4247C525.963 71.0978 522.576 72.0955 519.304 73.4045C519.496 73.6603 519.713 73.8905 519.879 74.1591C521.15 76.1942 521.561 78.6512 521.022 80.9897C520.483 83.3281 519.038 85.3564 517.005 86.6284C514.972 87.9003 512.518 88.3117 510.182 87.7721C507.847 87.2325 505.821 85.786 504.55 83.7509C504.372 83.4527 504.218 83.1404 504.09 82.8173C501.425 85.1371 498.987 87.7066 496.809 90.4907C497.116 90.6186 497.435 90.7209 497.742 90.8744C498.789 91.4311 499.717 92.189 500.472 93.1047C501.227 94.0205 501.795 95.0761 502.142 96.2114C502.49 97.3468 502.611 98.5395 502.498 99.7216C502.385 100.904 502.041 102.052 501.484 103.101C500.928 104.15 500.171 105.078 499.257 105.834C498.342 106.59 497.288 107.158 496.154 107.506C495.02 107.854 493.828 107.975 492.648 107.862C491.467 107.749 490.32 107.405 489.272 106.848C488.936 106.662 488.615 106.448 488.314 106.208C487.153 109.593 486.327 113.085 485.849 116.631C486.215 116.554 486.587 116.503 486.96 116.478C488.155 116.42 489.348 116.601 490.473 117.009C491.597 117.417 492.629 118.044 493.509 118.854C494.389 119.665 495.1 120.642 495.599 121.73C496.099 122.817 496.378 123.993 496.421 125.19C496.463 126.386 496.268 127.579 495.846 128.699C495.424 129.819 494.784 130.844 493.964 131.715C493.143 132.586 492.158 133.285 491.065 133.771C489.973 134.257 488.794 134.522 487.599 134.549C487.171 134.551 486.744 134.521 486.322 134.459C487 138.007 488.031 141.477 489.4 144.819C489.717 144.534 490.055 144.274 490.409 144.038C492.442 142.766 494.896 142.355 497.232 142.895C499.568 143.434 501.594 144.881 502.864 146.916C504.135 148.951 504.546 151.408 504.006 153.747C503.467 156.085 502.023 158.113 499.99 159.385C499.58 159.622 499.153 159.827 498.713 159.999C501.1 162.739 503.748 165.241 506.62 167.468C506.755 167.028 506.925 166.6 507.131 166.189C507.707 165.07 508.511 164.084 509.49 163.295C510.469 162.505 511.602 161.928 512.817 161.602C514.031 161.276 515.3 161.207 516.543 161.401C517.785 161.594 518.974 162.045 520.032 162.724C521.091 163.404 521.996 164.297 522.689 165.347C523.383 166.397 523.85 167.581 524.06 168.822C524.271 170.063 524.22 171.334 523.912 172.555C523.603 173.775 523.043 174.917 522.268 175.909C525.72 177.088 529.28 177.923 532.896 178.403C532.793 177.936 532.729 177.461 532.705 176.983C532.647 175.787 532.827 174.592 533.235 173.466C533.642 172.341 534.269 171.308 535.078 170.427C535.888 169.546 536.864 168.834 537.95 168.334C539.036 167.833 540.211 167.554 541.406 167.511C542.601 167.469 543.793 167.665 544.911 168.087C546.03 168.509 547.054 169.15 547.924 169.972C548.794 170.793 549.492 171.78 549.978 172.873C550.463 173.967 550.728 175.147 550.755 176.344C550.759 176.844 550.725 177.344 550.652 177.84C554.234 177.134 557.735 176.067 561.102 174.655C560.781 174.305 560.491 173.929 560.233 173.53C559.604 172.522 559.179 171.4 558.983 170.228C558.787 169.056 558.824 167.857 559.091 166.699C559.358 165.541 559.85 164.448 560.539 163.48C561.228 162.513 562.101 161.69 563.107 161.061C564.114 160.431 565.234 160.006 566.405 159.809C567.576 159.613 568.773 159.65 569.93 159.917C572.266 160.457 574.292 161.903 575.562 163.938C575.803 164.348 576.013 164.775 576.188 165.217C578.916 162.819 581.398 160.154 583.597 157.262C583.16 157.121 582.733 156.95 582.32 156.751C581.216 156.225 580.231 155.48 579.424 154.562C578.616 153.643 578.003 152.57 577.622 151.408C577.241 150.246 577.099 149.018 577.206 147.799C577.312 146.58 577.665 145.396 578.242 144.317C578.819 143.239 579.609 142.289 580.563 141.525C581.518 140.761 582.617 140.199 583.795 139.873C584.973 139.547 586.204 139.463 587.415 139.627C588.626 139.792 589.791 140.2 590.84 140.828C591.225 141.046 591.593 141.294 591.939 141.57C593.089 138.15 593.898 134.625 594.353 131.045C593.952 131.122 593.547 131.173 593.139 131.198C591.945 131.256 590.751 131.075 589.627 130.667C588.503 130.26 587.471 129.632 586.591 128.822C585.711 128.011 585 127.034 584.5 125.947C584 124.859 583.721 123.683 583.679 122.487C583.637 121.29 583.832 120.097 584.254 118.977C584.676 117.857 585.315 116.832 586.136 115.961C586.957 115.091 587.942 114.392 589.034 113.905C590.127 113.419 591.305 113.154 592.501 113.127C592.898 113.127 593.295 113.153 593.689 113.204C592.985 109.699 591.937 106.271 590.559 102.973C590.286 103.216 589.996 103.438 589.69 103.638C587.658 104.91 585.203 105.321 582.868 104.782C580.532 104.242 578.506 102.795 577.235 100.76C575.965 98.7252 575.554 96.2681 576.093 93.9297C576.632 91.5912 578.077 89.5629 580.11 88.291C580.421 88.1062 580.746 87.9438 581.08 87.805C578.736 85.1823 576.149 82.7885 573.352 80.6559C573.224 80.9628 573.135 81.2698 572.982 81.5639C571.845 83.6821 569.914 85.2616 567.615 85.9547C565.315 86.6478 562.834 86.3979 560.718 85.26C558.603 84.122 557.025 82.1892 556.333 79.8867C555.64 77.5842 555.89 75.1007 557.027 72.9825C557.199 72.6915 557.387 72.4097 557.589 72.1384C554.242 71.0125 550.794 70.2158 547.293 69.7596C547.293 70.0666 547.408 70.3607 547.421 70.6677C547.462 71.8551 547.27 73.0391 546.855 74.1522C546.44 75.2652 545.81 76.2856 545.001 77.1549C544.192 78.0242 543.22 78.7254 542.14 79.2186C541.061 79.7118 539.895 79.9873 538.708 80.0292C537.522 80.0712 536.34 79.8789 535.228 79.4633C534.116 79.0477 533.097 78.417 532.229 77.607C530.475 75.9713 529.442 73.7052 529.358 71.3071C529.364 71.0121 529.385 70.7175 529.422 70.4247ZM538.76 87.3574C546.036 87.1009 553.226 89.0112 559.418 92.8466C565.61 96.6821 570.526 102.27 573.545 108.904C576.564 115.538 577.549 122.919 576.377 130.114C575.204 137.308 571.926 143.993 566.957 149.322C561.989 154.651 555.553 158.384 548.464 160.05C541.376 161.716 533.953 161.239 527.135 158.68C520.317 156.121 514.41 151.594 510.163 145.673C505.915 139.753 503.518 132.703 503.273 125.418C503.102 120.581 503.885 115.759 505.576 111.225C507.267 106.692 509.833 102.537 513.129 98.9964C516.424 95.4561 520.384 92.6004 524.781 90.5924C529.179 88.5844 533.929 87.4634 538.76 87.2934V87.3574Z" fill="url(#paint3_linear_3211_1694)"/>
<path d="M472.645 138.061C471.533 137.255 470.09 136.564 469.732 135.26C469.029 133.15 471.29 130.95 470.728 128.865C470.269 127.062 468.174 126.307 466.283 126.052C464.392 125.796 462.336 125.527 461.288 123.993C460.407 122.714 460.611 121.013 460.407 119.478C460.176 117.927 459.509 116.473 458.485 115.287C457.46 114.1 456.12 113.23 454.62 112.777C451.427 111.869 448.642 114.772 445.972 115.936C444.58 116.554 443.362 117.509 442.428 118.714C441.494 119.919 440.873 121.337 440.62 122.842C440.143 125.89 440.308 129.005 441.105 131.986C441.898 134.955 442.483 137.977 442.855 141.028C442.981 144.283 442.509 147.534 441.463 150.619C440.687 153.01 440.828 155.604 441.859 157.896C443.021 159.879 445.359 160.799 447.569 161.439C451.827 162.817 456.334 163.253 460.777 162.718C465.004 162.168 468.89 160.111 471.725 156.924C473.682 155.342 475.185 153.267 476.081 150.914C477.678 146.425 476.464 140.861 472.645 138.061Z" fill="#454238"/>
<path d="M450.469 122.573C450.735 123.505 450.813 124.48 450.696 125.442C450.58 126.404 450.273 127.333 449.792 128.175C449.473 128.725 448.975 129.287 448.336 129.249C447.697 129.211 447.212 128.392 446.982 127.702C446.34 125.789 445.937 123.805 445.781 121.793C445.679 120.514 445.909 118.34 447.659 118.775C449.013 119.107 450.112 121.397 450.469 122.573Z" fill="#FF6EA1"/>
<path d="M450.405 152.691C449.128 157.18 441.872 159.354 437.631 154.239C437.107 153.599 436.634 152.96 436.175 152.257C431.64 153.152 424.908 155.121 421.88 158.805C420.981 160.055 420.338 161.472 419.99 162.974C418.418 168.358 417.103 173.819 416.068 179.318C415.902 179.942 415.902 180.599 416.068 181.224C416.416 181.931 416.956 182.525 417.626 182.937C423.886 187.887 425.534 195.854 427.59 203.067C430.72 214.002 432.151 229.144 435.255 240.079C445.474 240.872 488.14 231.127 493.275 226.689C485.917 213.414 479.952 189.485 477.627 172.834C476.63 165.787 473.871 159.06 471.176 152.461C470.537 150.914 469.975 147.346 468.8 146.335C467.241 145.056 452.385 147.256 450.814 147.307C450.865 148.16 450.903 149.042 450.929 149.955C450.898 150.889 450.721 151.812 450.405 152.691Z" fill="#FF6EA1"/>
<path d="M435.255 145.453C434.773 143.904 434.099 142.422 433.249 141.041C435.767 140.952 438.203 140.12 440.25 138.649C441.259 137.909 442.2 137.078 443.06 136.168C443.379 135.848 443.852 135.043 444.337 134.454C443.66 135.247 445.321 139.685 445.615 140.58C446.282 142.516 447.309 144.308 448.642 145.862C449.983 147.358 450.865 147.601 451.108 149.699C451.288 151.999 450.952 154.311 450.124 156.464C449.747 157.804 448.95 158.988 447.85 159.84C447.136 160.226 446.351 160.462 445.543 160.534C444.735 160.607 443.921 160.514 443.149 160.263C440.505 159.559 436.877 157.359 435.932 154.584C435.434 153.139 435.996 152.397 436.123 150.914C436.193 149.054 435.897 147.199 435.255 145.453Z" fill="#FFC1A6"/>
<path d="M436.149 150.185C436.149 150.031 436.149 149.89 436.149 149.737C436.015 148.28 435.72 146.843 435.267 145.453C434.786 143.904 434.112 142.421 433.262 141.04C435.78 140.952 438.215 140.12 440.262 138.649C441.272 137.908 442.212 137.078 443.072 136.168C443.392 135.848 443.864 135.042 444.35 134.454C444.426 135.285 444.541 136.091 444.682 136.897C444.426 139.634 443.518 142.27 442.033 144.582C440.548 146.894 438.53 148.816 436.149 150.185Z" fill="#E3856D"/>
<path d="M419.299 131.218C420.329 135.372 422.689 139.073 426.019 141.757C426.892 142.522 427.92 143.089 429.033 143.419C429.589 143.581 430.175 143.614 430.746 143.517C431.317 143.419 431.858 143.193 432.329 142.856C433.607 141.833 433.836 139.992 433.926 138.355C434.206 135.281 434.107 132.184 433.632 129.134C433.155 126.064 431.709 123.227 429.506 121.038C427.654 119.325 422.582 116.844 420.347 119.197C417.92 121.793 418.546 128.175 419.299 131.218Z" fill="#454238"/>
<path d="M421.944 123.993C422.379 121.103 425.649 123.251 428.331 122.023C430.644 120.949 432.394 120.028 435 120.207C437.352 120.332 439.576 121.32 441.246 122.983C441.681 123.443 442.077 123.916 442.447 124.389C443.509 126.079 444.411 127.865 445.142 129.723V129.85C445.395 133.454 444.558 137.05 442.741 140.171C441.944 141.645 440.768 142.878 439.335 143.744C437.902 144.609 436.264 145.076 434.591 145.095C432.677 145.061 430.838 144.345 429.405 143.074C427.833 141.64 426.535 139.933 425.572 138.035C424.052 135.145 421.459 127.19 421.944 123.993Z" fill="#FFC1A6"/>
<path d="M434.591 129.441C431.436 128.686 428.204 128.239 425.278 126.793C423.078 125.771 421.302 124.011 420.258 121.818C419.287 119.58 419.952 117.982 421.242 116.076C423.124 113.29 425.952 111.282 429.2 110.423C432.406 109.579 436.418 110.833 439.496 111.894C441.666 112.587 443.608 113.856 445.117 115.565C447.672 118.583 448.476 123.814 448.272 127.637C448.134 129.221 447.813 130.783 447.314 132.293C446.943 133.572 446.292 135.017 444.759 135.209C443.75 135.336 441.706 132.433 440.671 131.781C439.012 130.795 437.211 130.07 435.332 129.633L434.591 129.441Z" fill="#454238"/>
<path d="M429.736 132.919C429.765 133.163 429.889 133.385 430.08 133.538C430.271 133.692 430.515 133.763 430.758 133.738C430.879 133.727 430.997 133.692 431.104 133.635C431.212 133.578 431.307 133.5 431.384 133.406C431.461 133.312 431.519 133.204 431.554 133.087C431.589 132.971 431.601 132.849 431.589 132.728C431.551 132.492 431.425 132.28 431.236 132.135C431.046 131.989 430.809 131.922 430.572 131.947C430.335 131.971 430.116 132.086 429.961 132.267C429.805 132.448 429.725 132.681 429.736 132.919Z" fill="#454238"/>
<path d="M431.116 130.259C430.489 130.135 429.838 130.22 429.264 130.502" stroke="#454238" stroke-width="0.75" stroke-miterlimit="10" stroke-linecap="round"/>
<path d="M424.001 134.454C424.03 134.699 424.152 134.922 424.343 135.077C424.534 135.232 424.778 135.307 425.023 135.285C425.202 135.265 425.372 135.191 425.51 135.074C425.648 134.957 425.749 134.802 425.8 134.628C425.85 134.454 425.848 134.269 425.795 134.096C425.741 133.923 425.637 133.77 425.497 133.656C425.356 133.542 425.185 133.472 425.005 133.454C424.825 133.437 424.644 133.473 424.484 133.558C424.324 133.643 424.193 133.774 424.107 133.933C424.021 134.093 423.984 134.274 424.001 134.454Z" fill="#454238"/>
<path d="M425.38 131.807C424.758 131.668 424.106 131.755 423.541 132.05" stroke="#454238" stroke-width="0.75" stroke-miterlimit="10" stroke-linecap="round"/>
<path d="M427.412 134.569C427.599 135.376 427.466 136.224 427.041 136.935C426.907 137.102 426.831 137.309 426.824 137.524C426.855 137.636 426.919 137.737 427.008 137.812C427.097 137.888 427.206 137.934 427.322 137.946C427.553 137.956 427.782 137.921 427.999 137.843" stroke="#454238" stroke-width="0.75" stroke-miterlimit="10" stroke-linecap="round"/>
<path d="M432.036 139.199C431.642 139.617 431.157 139.938 430.618 140.138C430.08 140.338 429.503 140.41 428.932 140.35" stroke="#454238" stroke-width="0.75" stroke-miterlimit="10" stroke-linecap="round"/>
<path d="M445.359 129.633C445.426 130.302 445.294 130.976 444.979 131.57C444.663 132.163 444.179 132.65 443.588 132.969C442.997 133.287 442.324 133.423 441.655 133.359C440.987 133.295 440.352 133.035 439.831 132.61C439.311 132.185 438.928 131.615 438.73 130.972C438.533 130.33 438.53 129.643 438.723 128.999C438.915 128.354 439.294 127.782 439.811 127.353C440.328 126.924 440.961 126.658 441.629 126.589C442.074 126.541 442.524 126.582 442.953 126.71C443.382 126.837 443.782 127.049 444.128 127.332C444.475 127.615 444.763 127.964 444.974 128.359C445.185 128.754 445.316 129.187 445.359 129.633Z" fill="#FFC1A6"/>
<path d="M442.484 128.456C442.233 128.45 441.984 128.508 441.76 128.624C441.537 128.741 441.347 128.911 441.207 129.121C441.073 129.331 440.995 129.571 440.979 129.819C440.964 130.068 441.011 130.316 441.118 130.541C441.252 130.394 441.427 130.29 441.62 130.242C441.813 130.194 442.016 130.205 442.203 130.272C442.39 130.341 442.552 130.464 442.668 130.626C442.784 130.788 442.849 130.981 442.855 131.18" stroke="#454238" stroke-width="0.75" stroke-linecap="round" stroke-linejoin="round"/>
<path d="M524.214 350.909H254.743C248.576 350.909 243.578 355.913 243.578 362.086V513.457C243.578 519.631 248.576 524.635 254.743 524.635H524.214C530.38 524.635 535.379 519.631 535.379 513.457V362.086C535.379 355.913 530.38 350.909 524.214 350.909Z" fill="#DCE4FF" stroke="#454238" stroke-width="0.75" stroke-miterlimit="10"/>
<path d="M556.98 524.853H221.977C221.975 526.684 222.334 528.498 223.033 530.191C223.732 531.884 224.757 533.422 226.05 534.718C227.344 536.014 228.879 537.042 230.569 537.743C232.259 538.444 234.071 538.805 235.901 538.805H543.056C544.886 538.805 546.697 538.444 548.388 537.743C550.078 537.042 551.613 536.014 552.906 534.718C554.2 533.422 555.225 531.884 555.924 530.191C556.623 528.498 556.982 526.684 556.98 524.853Z" fill="#BAC5EF" stroke="#454238" stroke-width="0.75" stroke-miterlimit="10"/>
<path d="M519.654 357.738H259.303C254.484 357.738 250.578 361.649 250.578 366.473V510.452C250.578 515.276 254.484 519.187 259.303 519.187H519.654C524.472 519.187 528.379 515.276 528.379 510.452V366.473C528.379 361.649 524.472 357.738 519.654 357.738Z" fill="#545D78"/>
<path d="M393.356 354.17C393.356 354.598 393.229 355.015 392.992 355.371C392.755 355.726 392.418 356.003 392.023 356.167C391.629 356.331 391.195 356.373 390.776 356.29C390.357 356.207 389.972 356.001 389.67 355.698C389.368 355.396 389.163 355.011 389.08 354.592C388.996 354.173 389.039 353.738 389.202 353.343C389.366 352.948 389.643 352.611 389.998 352.373C390.353 352.136 390.77 352.009 391.197 352.009C391.769 352.009 392.319 352.237 392.723 352.642C393.128 353.047 393.356 353.597 393.356 354.17Z" fill="#333333"/>
<path d="M279.23 193.859V518.24H499.739V193.859H279.23Z" fill="white"/>
<path d="M409.732 492.509L380.39 455.907L354.867 488.647L332.742 464.706L335.642 462.033L354.612 482.559L380.339 449.551L408.915 485.194L425.508 451.29L460.522 445.087L461.2 448.975L428.165 454.82L409.732 492.509Z" fill="#E6EDFF"/>
<path d="M465.913 447.031C465.913 446.017 465.611 445.025 465.047 444.183C464.483 443.34 463.681 442.684 462.743 442.299C461.806 441.914 460.775 441.816 459.782 442.019C458.79 442.222 457.879 442.715 457.167 443.437C456.455 444.159 455.974 445.076 455.784 446.073C455.594 447.07 455.704 448.1 456.101 449.034C456.497 449.967 457.162 450.762 458.011 451.316C458.86 451.87 459.854 452.16 460.867 452.147C462.211 452.13 463.494 451.584 464.439 450.626C465.383 449.669 465.913 448.377 465.913 447.031Z" fill="url(#paint4_linear_3211_1694)"/>
<path d="M414.637 488.851C414.637 487.84 414.337 486.851 413.776 486.009C413.214 485.168 412.416 484.512 411.483 484.125C410.549 483.738 409.522 483.637 408.531 483.834C407.539 484.031 406.629 484.519 405.914 485.234C405.2 485.949 404.713 486.861 404.516 487.853C404.319 488.846 404.42 489.874 404.807 490.809C405.193 491.744 405.848 492.543 406.689 493.105C407.529 493.667 408.517 493.967 409.527 493.967C410.883 493.967 412.182 493.428 413.14 492.469C414.099 491.509 414.637 490.208 414.637 488.851Z" fill="url(#paint5_linear_3211_1694)"/>
<path d="M431.244 453.055C431.244 452.04 430.942 451.049 430.378 450.206C429.814 449.364 429.012 448.708 428.074 448.323C427.137 447.938 426.106 447.84 425.114 448.043C424.121 448.245 423.21 448.739 422.498 449.461C421.786 450.183 421.305 451.1 421.115 452.097C420.925 453.093 421.035 454.124 421.432 455.057C421.829 455.991 422.493 456.785 423.342 457.34C424.191 457.894 425.185 458.183 426.198 458.171C427.542 458.154 428.825 457.607 429.77 456.65C430.714 455.692 431.244 454.401 431.244 453.055Z" fill="#FFB861"/>
<path d="M380.173 458.119C382.967 458.119 385.231 455.852 385.231 453.055C385.231 450.258 382.967 447.047 380.173 447.047C377.379 447.047 375.114 450.258 375.114 453.055C375.114 455.852 377.379 458.119 380.173 458.119Z" fill="#FFB861"/>
<path d="M355.34 490.066C358.134 490.066 360.398 487.799 360.398 485.002C360.398 482.205 358.134 479.938 355.34 479.938C352.546 479.938 350.281 482.205 350.281 485.002C350.281 487.799 352.546 490.066 355.34 490.066Z" fill="url(#paint6_linear_3211_1694)"/>
<path d="M340.342 464.335C340.342 463.323 340.043 462.334 339.481 461.493C338.92 460.651 338.122 459.996 337.188 459.609C336.254 459.221 335.227 459.12 334.236 459.317C333.245 459.515 332.334 460.002 331.62 460.717C330.905 461.433 330.418 462.344 330.221 463.337C330.024 464.329 330.125 465.358 330.512 466.292C330.899 467.227 331.554 468.026 332.394 468.588C333.234 469.15 334.222 469.45 335.233 469.45C336.588 469.45 337.888 468.911 338.846 467.952C339.804 466.993 340.342 465.691 340.342 464.335Z" fill="#3FD4C7"/>
<path d="M313.031 432.35V501.398H466.935" stroke="#454238" stroke-width="0.75" stroke-miterlimit="10"/>
<path d="M348.773 322.121H325.281V376.743H348.773V322.121Z" fill="#FFB861"/>
<path d="M385.078 295.391H361.586V376.743H385.078V295.391Z" fill="url(#paint7_linear_3211_1694)"/>
<path d="M320.9 306.429C349.197 293.506 374.38 274.632 394.735 251.09" stroke="#454238" stroke-width="0.75" stroke-miterlimit="10" stroke-linecap="round"/>
<path d="M396.881 248.596L395.208 253.366L394.518 251.269L392.359 250.834L396.881 248.596Z" fill="#454238"/>
<path d="M421.395 258.495H397.903V376.743H421.395V258.495Z" fill="#3FD4C7"/>
<path d="M457.711 215.641H434.22V376.742H457.711V215.641Z" fill="url(#paint8_linear_3211_1694)"/>
<path d="M311.46 260.708V376.922H468.391" stroke="#454238" stroke-width="0.75" stroke-miterlimit="10"/>
<path d="M468.161 388.138H310.565V396.08H468.161V388.138Z" fill="#E6EDFF"/>
<path d="M436.519 230.858H341.812V238.8H436.519V230.858Z" fill="#E6EDFF"/>
<path d="M467.97 216.982H310.374V224.924H467.97V216.982Z" fill="#E6EDFF"/>
<path d="M468.161 402.704H310.565V410.646H468.161V402.704Z" fill="#E6EDFF"/>
<path d="M468.161 417.271H310.565V425.213H468.161V417.271Z" fill="#E6EDFF"/>
<path d="M462.183 146.565C460.344 147 458.53 147.512 456.716 148.023C456.4 148.089 456.103 148.224 455.847 148.42C455.549 148.746 455.361 149.157 455.311 149.596C454.754 152.733 454.834 155.95 455.548 159.055C456.261 162.16 457.592 165.089 459.462 167.667C460.586 169.074 461.915 170.225 463.128 171.619C464.342 173.013 465.939 174.1 466.961 175.456C468.238 177.054 468.736 179.638 469.311 181.556C470.677 185.978 471.518 190.545 471.815 195.164C472.019 198.208 472.16 201.661 474.485 203.617C476.81 205.574 480.45 205.062 482.826 203.208C485.092 201.194 486.74 198.578 487.578 195.663C490.314 188.241 491.572 180.356 491.283 172.45C490.938 165.301 488.728 156.694 484.142 151.042C481.051 147.205 475.966 145.555 471.087 145.491C468.086 145.477 465.095 145.838 462.183 146.565Z" fill="#FF6EA1"/>
<path d="M466.552 189.447C468.255 180.264 469.958 171.082 471.661 161.899" stroke="#454238" stroke-width="0.75" stroke-miterlimit="10"/>
<path d="M468.289 163.626C468.876 165.122 469.464 166.631 470.039 168.128" stroke="#454238" stroke-width="0.75" stroke-miterlimit="10"/>
<path d="M433.799 209.232C434.452 209.003 435.137 208.878 435.83 208.861C442.038 208.72 448.08 208.081 454.339 207.454C458.529 207.028 462.711 206.785 466.884 206.725C470.243 206.725 474.139 207.416 477.422 206.482C480.705 205.548 483.247 204.538 484.985 201.661C485.811 200.285 486.565 198.868 487.246 197.415C487.699 196.643 487.904 195.75 487.833 194.857C487.565 193.578 486.173 192.823 484.806 192.299C481.906 191.238 480.105 189.562 476.771 189.23C473.293 188.964 469.794 189.235 466.398 190.035C459.756 191.429 453.113 192.005 446.585 193.949C439.282 196.276 432.139 199.078 425.201 202.338C422.619 203.309 420.237 204.749 418.176 206.584C416.819 207.851 415.99 209.583 415.855 211.436C415.72 213.288 416.289 215.122 417.448 216.573C417.797 217.025 418.256 217.381 418.782 217.605C419.307 217.829 419.882 217.914 420.449 217.852C421.727 217.634 422.493 216.023 421.471 215.549C428.14 218.094 428.318 211.188 433.799 209.232Z" fill="#FFC1A6"/>
<path d="M412.785 210.293V209.884L412.479 210.639L412.785 210.293Z" fill="#FF6EA1"/>
<path d="M430.184 158.37C429.796 157.625 429.208 157.005 428.485 156.579C426.313 155.301 421.766 157.27 419.811 158.344C419.372 158.572 418.945 158.824 418.534 159.099C416.229 160.647 414.141 162.497 412.325 164.598C411.7 165.276 411.048 165.979 410.486 166.67C401.48 177.093 395.655 188.565 397.111 202.479C397.431 205.472 398.018 208.695 400.241 210.703C401.152 211.476 402.227 212.034 403.384 212.333C404.541 212.632 405.75 212.665 406.922 212.429C409.15 211.959 411.2 210.869 412.836 209.283V209.846L413.169 209.04C416.72 205.587 417.55 200.804 418.419 196.162L426.888 175.341C428.242 172.029 432.598 162.91 430.184 158.37Z" fill="#FF6EA1"/>
<path d="M415.787 261.347C419.619 254.953 412.593 253.929 411.559 248.251C411.443 247.565 411.443 246.865 411.559 246.179C412.542 239.989 412.976 233.876 413.462 227.558C413.794 223.338 414.305 219.13 415.008 214.974C415.467 212.16 416.566 209.04 416.694 206.111C416.694 205.178 416.528 204.244 416.374 203.336C415.767 202.192 414.938 201.181 413.936 200.361C412.934 199.542 411.778 198.932 410.537 198.566C408.797 198.046 406.956 197.96 405.175 198.314C403.394 198.668 401.727 199.453 400.317 200.599C399.613 201.69 398.981 202.827 398.427 204.001C397.767 207.062 397.513 210.197 397.673 213.324C397.903 220.128 397.29 226.829 398.107 233.569C399.176 241.131 400.768 248.609 402.872 255.95C403.401 258.641 404.456 261.201 405.976 263.483C407.127 265.028 408.811 266.089 410.701 266.457C412.59 266.826 414.549 266.477 416.196 265.478C416.714 265.198 417.155 264.793 417.479 264.299C417.802 263.806 417.998 263.24 418.048 262.652C417.984 261.398 416.477 260.388 415.787 261.347Z" fill="#FFC1A6"/>
<path d="M416.336 203.528C418.162 195.177 421.449 187.214 426.045 180.009" stroke="#454238" stroke-width="0.75" stroke-miterlimit="10"/>
<path d="M422.774 185.112L426.096 182.976" stroke="#454238" stroke-width="0.75" stroke-miterlimit="10"/>
<path d="M225.655 345.55C230.407 350.998 232.349 358.339 233.971 365.207C236.058 374.083 238.144 382.962 240.231 391.847C240.795 393.911 241.146 396.028 241.278 398.164C241.171 401.928 240.605 405.665 239.592 409.291C238.557 413.537 236.015 413.268 232.234 412.897C226.256 412.296 218.183 410.493 214.095 405.608C212.179 403.293 211.54 400.198 211.016 397.231C210.25 393.164 209.496 389.097 208.73 385.03C205.626 368.404 202.521 351.254 206.034 334.705C213.678 335.799 220.658 339.657 225.655 345.55Z" fill="white"/>
<path d="M234.432 398.139C237.076 399.418 239.541 401.003 242.096 402.538C246.133 404.968 250.348 406.682 254.487 408.933C255.621 409.628 256.859 410.137 258.153 410.442C260.363 410.838 262.701 409.994 264.924 410.301C267.913 410.697 270.455 413.358 271.528 416.875C273.354 422.796 269.088 420.596 266.265 420.072L259.661 418.857C251.122 417.352 242.493 416.412 233.831 416.043C229.015 415.8 220.533 415.903 216.931 411.516C215.181 409.38 213.239 400.006 215.538 397.742C215.964 397.366 216.471 397.094 217.02 396.949C221.497 395.416 226.345 395.339 230.868 396.732C232.089 397.112 233.28 397.582 234.432 398.139Z" fill="#9C5240"/>
<path d="M231.302 466.65H146.813C146.153 466.651 145.499 466.523 144.888 466.271C144.278 466.019 143.723 465.649 143.255 465.182C142.788 464.715 142.417 464.16 142.164 463.55C141.911 462.939 141.78 462.285 141.78 461.623C141.779 460.961 141.908 460.305 142.16 459.693C142.412 459.081 142.783 458.525 143.251 458.057C143.718 457.588 144.274 457.217 144.885 456.965C145.497 456.712 146.152 456.583 146.813 456.585H231.302C231.962 456.585 232.616 456.715 233.226 456.968C233.836 457.222 234.39 457.593 234.856 458.061C235.323 458.529 235.692 459.085 235.944 459.696C236.195 460.307 236.324 460.962 236.322 461.623C236.322 462.956 235.793 464.235 234.852 465.177C233.91 466.12 232.633 466.65 231.302 466.65Z" fill="#454238"/>
<path d="M220.15 400.3V370.604C220.15 366.133 216.53 362.508 212.064 362.508H145.971C141.505 362.508 137.885 366.133 137.885 370.604V400.3C137.885 404.771 141.505 408.395 145.971 408.395H212.064C216.53 408.395 220.15 404.771 220.15 400.3Z" fill="#454238"/>
<path d="M153.533 400.939H148.423V461.994H153.533V400.939Z" fill="#454238"/>
<path d="M208.654 400.939H203.544V461.994H208.654V400.939Z" fill="#454238"/>
<path d="M188.955 464.117H183.846V538.281H188.955V464.117Z" fill="#454238"/>
<path d="M150.556 464.117H145.447V538.281H150.556V464.117Z" fill="#454238"/>
<path d="M232.464 464.117H227.355V538.281H232.464V464.117Z" fill="#454238"/>
<path d="M206.239 464.117H201.129V538.281H206.239V464.117Z" fill="#454238"/>
<path d="M283.573 490.143C280.687 490.757 278.694 490.898 275.27 491.422C270.288 492.125 265.294 492.701 260.286 493.136C261.564 502.152 262.841 510.081 263.084 511.68C264.361 518.586 263.671 535.889 266.75 542.45C270.493 542.911 273.737 542.297 277.25 542.015C279.103 524.661 280.635 507.306 283.573 490.143Z" fill="#CF9378"/>
<path d="M257.514 505.337C257.486 506.755 257.592 508.172 257.834 509.57C262.012 513.649 267.571 516.005 273.405 516.169C276.662 516.329 279.922 515.896 283.024 514.89C283.382 508.137 283.782 501.385 284.225 494.632C284.787 485.846 285.234 477.073 286.333 468.338C287.11 460.485 287.152 452.577 286.46 444.716C284.225 436.135 278.528 433.795 278.528 433.795C278.528 433.795 262.611 427.49 250.424 424.842C235.453 421.556 220.239 419.113 205.191 415.89C197.961 414.304 185.864 414.611 182.197 422.515C177.867 431.672 186.49 443.86 193.426 449.141C200.605 454.615 209.458 457.378 218.272 459.309C230.743 461.985 243.487 463.17 256.237 462.839C255.828 462.839 257.514 502.165 257.514 505.337Z" fill="url(#paint9_linear_3211_1694)"/>
<path d="M256.238 462.915C256.238 462.915 256.238 462.915 256.302 462.851C253.53 460.076 250.898 457.147 248.126 454.385C243.987 450.279 239.963 446.033 235.85 441.903C227.687 433.666 219.474 425.481 211.49 417.079L205.205 415.8C197.975 414.214 185.877 414.521 182.211 422.425C177.881 431.582 186.503 443.77 193.44 449.052C200.619 454.525 209.471 457.288 218.286 459.219C230.749 461.924 243.488 463.139 256.238 462.838C256.234 462.864 256.234 462.889 256.238 462.915Z" fill="#454238"/>
<path d="M256.339 465.345C256.339 461.342 256.888 456.457 256.901 452.454" stroke="#454238" stroke-width="0.4" stroke-miterlimit="10"/>
<path d="M266.61 429.894C255.905 426.441 246.171 423.256 230.421 421.133" stroke="#454238" stroke-width="0.75" stroke-miterlimit="10"/>
<path d="M264.91 547.323H299.171V551.031H266.137C265.798 551.031 265.473 550.897 265.234 550.657C264.994 550.417 264.859 550.092 264.859 549.753V547.271L264.91 547.323Z" fill="#B3B3B3"/>
<path d="M298.699 548.333C298.82 548.159 298.927 547.975 299.018 547.783C299.339 546.826 299.343 545.79 299.03 544.829C298.717 543.869 298.104 543.035 297.281 542.45C295.571 541.256 293.637 540.421 291.596 539.995C287.38 538.702 283.077 537.71 278.72 537.028C277.558 536.862 265.077 535.749 265.141 535.161C264.949 538.307 264.745 541.453 264.553 544.599C264.325 545.833 264.325 547.099 264.553 548.333H298.699Z" fill="#454238"/>
<path d="M270.812 532.564C271.796 531.812 272.992 531.388 274.23 531.354C275.468 531.319 276.686 531.676 277.71 532.372C278.713 533.097 279.517 534.062 280.048 535.18C280.58 536.298 280.821 537.531 280.75 538.767C280.767 538.999 280.735 539.233 280.658 539.453C280.582 539.672 280.461 539.874 280.303 540.046C279.93 540.305 279.478 540.423 279.026 540.378L273.124 540.455C271.847 540.455 270.339 540.749 269.484 539.649C267.951 537.68 269.343 534.073 270.812 532.564Z" fill="#454238"/>
<path d="M283.791 537.91C283.212 537.859 282.631 537.996 282.136 538.303C281.64 538.61 281.258 539.068 281.045 539.611" stroke="#B3B3B3" stroke-width="0.75" stroke-miterlimit="10" stroke-linecap="round"/>
<path d="M284.494 540.928C284.804 540.432 285.233 540.02 285.741 539.73C286.25 539.439 286.822 539.28 287.407 539.266" stroke="#B3B3B3" stroke-width="0.75" stroke-miterlimit="10" stroke-linecap="round"/>
<path d="M288.837 541.401C288.975 541.032 289.22 540.713 289.541 540.485C289.862 540.257 290.245 540.131 290.638 540.123" stroke="#B3B3B3" stroke-width="0.75" stroke-miterlimit="10" stroke-linecap="round"/>
<path d="M226.857 485.475C222.463 486.089 218.064 486.601 213.661 487.01C216.995 503.431 218.528 520.133 221.249 536.657C224.992 536.657 228.403 535.851 232.375 535.941C233.142 530.94 234.662 501.231 237.012 483.812C233.665 484.578 230.273 485.133 226.857 485.475Z" fill="#CF9378"/>
<path d="M214.261 508.853C215.168 512.549 216.228 514.813 219.869 516.258C223.033 517.526 226.455 518.009 229.846 517.665C232.891 517.176 235.739 515.847 238.072 513.828C238.072 513.828 242.773 443.757 236.935 434.779C229.782 423.793 214.146 421.543 201.947 418.857C191.28 416.517 180.473 414.598 169.692 412.462C167.061 422.451 168.964 434.204 172.771 443.412L172.834 443.553C174.354 447.101 176.811 450.167 179.942 452.421C183.074 454.675 186.76 456.03 190.603 456.342C196.313 456.827 202.044 457.007 207.772 456.879C207.695 456.943 211.017 495.617 214.261 508.853Z" fill="url(#paint10_linear_3211_1694)"/>
<path d="M207.874 459.449C207.874 455.446 208.423 450.561 208.436 446.558" stroke="#454238" stroke-width="0.4" stroke-miterlimit="10"/>
<path d="M220.303 546.786H254.563V550.494H221.529C221.191 550.494 220.866 550.36 220.626 550.12C220.387 549.88 220.252 549.555 220.252 549.215V546.734L220.303 546.786Z" fill="#B3B3B3"/>
<path d="M254.078 547.796C254.208 547.625 254.32 547.441 254.41 547.246C254.732 546.29 254.737 545.256 254.424 544.297C254.11 543.339 253.497 542.507 252.673 541.926C250.967 540.722 249.032 539.882 246.989 539.458C242.772 538.164 238.469 537.173 234.112 536.491C232.95 536.324 220.469 535.212 220.52 534.623L219.946 544.062C219.709 545.295 219.709 546.562 219.946 547.796H254.078Z" fill="#454238"/>
<path d="M226.205 532.027C227.187 531.276 228.381 530.853 229.616 530.818C230.852 530.784 232.067 531.14 233.09 531.835C234.094 532.559 234.9 533.524 235.433 534.641C235.967 535.759 236.211 536.993 236.143 538.23C236.156 538.462 236.124 538.694 236.047 538.914C235.97 539.133 235.851 539.335 235.696 539.509C235.319 539.758 234.868 539.871 234.418 539.828L228.517 539.905C227.239 539.905 225.732 540.199 224.876 539.099C223.343 537.143 224.736 533.485 226.205 532.027Z" fill="#454238"/>
<path d="M239.171 537.398C238.592 537.349 238.012 537.488 237.517 537.794C237.022 538.101 236.639 538.558 236.425 539.099" stroke="#B3B3B3" stroke-width="0.75" stroke-miterlimit="10" stroke-linecap="round"/>
<path d="M239.886 540.391C240.196 539.894 240.625 539.483 241.133 539.193C241.641 538.902 242.213 538.743 242.798 538.729" stroke="#B3B3B3" stroke-width="0.75" stroke-miterlimit="10" stroke-linecap="round"/>
<path d="M244.217 540.864C244.36 540.496 244.608 540.178 244.931 539.951C245.253 539.723 245.636 539.596 246.03 539.585" stroke="#B3B3B3" stroke-width="0.75" stroke-miterlimit="10" stroke-linecap="round"/>
<path d="M168.248 426.057C168.555 427.668 168.861 429.28 169.155 430.891C174.712 427.963 181.367 428.576 187.652 428.564C201.46 428.524 215.05 425.122 227.252 418.652C226.438 415.322 225.942 411.922 225.77 408.498C225.77 404.993 224.301 401.604 224.301 398.087C224.071 393.343 224.301 388.585 224.493 383.853C224.94 374.901 225.54 365.782 223.867 356.996C222.856 351.196 220.565 345.695 217.16 340.895C215.564 338.733 213.328 335.933 210.901 334.679C208.474 333.426 204.399 333.797 201.487 333.541C199.366 333.27 197.22 333.27 195.099 333.541C192.51 334.111 190.046 335.152 187.831 336.61C175.759 343.823 174.226 355.538 170.65 368.161C168.836 374.453 165.974 380.413 164.16 386.718C163.156 390.238 162.699 393.891 162.806 397.55C162.883 400.863 164.148 403.817 164.761 407.065C165.91 413.4 167.073 419.731 168.248 426.057Z" fill="white"/>
<path d="M202.47 345.026C204.74 346.943 207.656 347.917 210.62 347.75C211.647 347.752 212.65 347.44 213.495 346.855C213.908 346.555 214.218 346.135 214.383 345.652C214.548 345.168 214.559 344.646 214.414 344.156" stroke="#454238" stroke-width="0.4" stroke-miterlimit="10" stroke-linecap="round"/>
<path d="M199.686 371.435C201.021 375.744 203.328 379.687 206.43 382.961C209.531 386.234 213.342 388.749 217.569 390.312" stroke="#454238" stroke-width="0.4" stroke-miterlimit="10" stroke-linecap="round"/>
<path d="M207.529 378.124C209.76 380.776 212.917 382.477 216.356 382.882" stroke="#454238" stroke-width="0.4" stroke-miterlimit="10" stroke-linecap="round"/>
<path d="M192.085 377.599C195.215 387.469 200.735 396.41 208.155 403.625" stroke="#454238" stroke-width="0.4" stroke-miterlimit="10" stroke-linecap="round"/>
<path d="M219.92 344.54C223.395 350.525 223.446 353.94 224.225 359.222C225.1 365.149 225.501 371.136 225.426 377.127C225.285 387.14 223.075 396.31 225.311 406.247" stroke="#454238" stroke-width="0.4" stroke-miterlimit="10"/>
<path d="M212.651 331.636C213.171 329.97 213.896 328.376 214.81 326.891C212.106 326.818 209.487 325.926 207.299 324.333C206.215 323.54 205.206 322.65 204.284 321.673C203.939 321.328 203.428 320.458 202.904 319.844C202.342 325.855 200.107 331.521 194.972 334.961C196.841 338.072 199.522 340.614 202.726 342.315C205.395 343.875 212.064 346.867 212.217 341.445C212.217 339.667 211.553 338.03 211.706 336.227C211.848 334.666 212.165 333.126 212.651 331.636Z" fill="#CF9378"/>
<path d="M211.694 336.713C211.694 336.547 211.694 336.393 211.694 336.227C212.016 332.921 213.077 329.73 214.798 326.891C212.093 326.818 209.475 325.926 207.287 324.333C206.203 323.54 205.194 322.65 204.272 321.673C203.927 321.328 203.416 320.458 202.892 319.844C202.803 320.727 202.688 321.596 202.522 322.402C202.793 325.349 203.768 328.187 205.365 330.677C206.961 333.168 209.131 335.238 211.694 336.713Z" fill="#9C5240"/>
<path d="M172.349 345.55C167.597 350.998 165.642 358.339 164.033 365.207C161.946 374.083 159.856 382.962 157.761 391.847C157.045 394.916 155.883 399.123 156.56 402.27C157.428 405.766 159.647 408.774 162.73 410.634C165.885 412.526 170.688 413.396 174.227 411.785C177.765 410.173 181.508 408.587 183.973 405.608C185.889 403.293 186.528 400.198 187.052 397.231C187.818 393.164 188.572 389.097 189.338 385.03C192.443 368.404 195.547 351.254 192.034 334.705C184.367 335.784 177.362 339.643 172.349 345.55Z" fill="white"/>
<path d="M192.137 362.061C185.226 363.864 185.839 372.714 185.213 378.175C184.293 386.239 182.76 394.221 180.627 402.052" stroke="#454238" stroke-width="0.4" stroke-miterlimit="10"/>
<path d="M186.95 366.614C187.71 364.2 189.147 362.056 191.089 360.437" stroke="#454238" stroke-width="0.4" stroke-miterlimit="10"/>
<path d="M182.862 399.789C186.567 400.594 190.207 401.784 193.835 402.884C199.609 404.636 205.46 405.646 211.323 407.206C212.985 407.708 214.7 408.009 216.433 408.102C219.396 408.102 222.271 406.925 225.234 406.823C227.218 406.825 229.17 407.322 230.914 408.268C232.658 409.215 234.139 410.582 235.224 412.245C238.852 417.796 232.835 416.312 229.054 416.248L220.201 416.12C208.778 416.015 197.356 416.484 185.979 417.527C179.592 418.051 168.632 419.535 162.986 415.788C160.252 413.959 155.743 405.071 158.259 402.423C158.761 401.956 159.358 401.602 160.009 401.387C165.709 399.126 171.874 398.288 177.97 398.945C179.616 399.129 181.25 399.411 182.862 399.789Z" fill="#CF9378"/>
<path d="M280.099 428.717H203.441C202.588 428.717 201.896 429.41 201.896 430.265V430.802C201.896 431.657 202.588 432.349 203.441 432.349H280.099C280.953 432.349 281.645 431.657 281.645 430.802V430.265C281.645 429.41 280.953 428.717 280.099 428.717Z" fill="#454238"/>
<path d="M289.706 432.336H221.556L227.483 393.138C227.577 392.486 227.9 391.888 228.393 391.452C228.887 391.016 229.52 390.771 230.178 390.759H292.925C293.306 390.769 293.681 390.86 294.024 391.027C294.367 391.194 294.67 391.433 294.912 391.728C295.155 392.023 295.331 392.367 295.429 392.736C295.527 393.105 295.544 393.491 295.48 393.867L289.706 432.336Z" fill="#919B9B"/>
<path d="M261.257 415.276C263.755 415.276 265.779 413.249 265.779 410.749C265.779 408.248 263.755 406.221 261.257 406.221C258.76 406.221 256.735 408.248 256.735 410.749C256.735 413.249 258.76 415.276 261.257 415.276Z" fill="white"/>
<path d="M226.154 306.684C225.375 303.64 222.117 306.288 219.141 305.265C216.586 304.382 214.593 303.576 211.834 304.062C209.327 304.442 207.051 305.741 205.447 307.707C205.025 308.244 204.642 308.794 204.297 309.332C203.363 311.276 202.606 313.3 202.036 315.381V315.509C202.168 319.36 203.449 323.084 205.715 326.2C206.724 327.685 208.111 328.872 209.733 329.639C211.355 330.406 213.152 330.724 214.938 330.561C216.978 330.327 218.864 329.364 220.252 327.85C221.762 326.144 222.956 324.182 223.778 322.057C225.119 318.821 227.01 310.035 226.154 306.684Z" fill="#CF9378"/>
<path d="M211.783 309.664C211.783 309.536 211.809 309.383 211.86 309.204L212.665 305.367C215.871 307.758 219.346 311.173 223.497 312.554C225.048 313.049 226.714 313.052 228.267 312.562C229.82 312.072 231.183 311.113 232.171 309.817C232.515 309.343 232.815 308.838 233.065 308.308C233.227 307.851 233.415 307.402 233.627 306.966C233.028 307.275 232.339 307.366 231.68 307.224C231.021 307.081 230.431 306.714 230.012 306.185C229.217 305.096 228.608 303.881 228.211 302.592C227.02 299.628 225.008 297.068 222.411 295.212C219.807 293.385 216.634 292.554 213.469 292.872C211.481 293.11 209.591 293.869 207.989 295.072C207.191 295.658 206.488 296.366 205.907 297.169C205.639 297.54 204.502 299.586 204.962 299.97C204.583 299.719 204.139 299.585 203.684 299.585C203.23 299.585 202.786 299.719 202.407 299.97C201.64 300.495 201.02 301.208 200.606 302.042C198.655 305.513 197.93 309.541 198.549 313.475C198.872 315.149 199.386 316.779 200.082 318.335C200.606 319.614 201.462 321.136 203.059 321.174C205.281 321.174 205.026 317.504 205.613 315.585C205.856 314.831 205.805 313.884 206.699 313.654C207.593 313.424 209.075 315.163 209.778 313.744C209.957 313.2 209.957 312.612 209.778 312.068C209.598 311.526 209.634 310.935 209.88 310.419C209.88 310.419 211.055 310.419 211.234 310.419C211.394 310.367 211.533 310.266 211.631 310.131C211.73 309.995 211.783 309.832 211.783 309.664Z" fill="#454238"/>
<path d="M206.316 294.253C205.46 295.422 204.925 296.796 204.766 298.237C204.607 299.678 204.829 301.136 205.409 302.464" stroke="#454238" stroke-width="0.75" stroke-miterlimit="10" stroke-linecap="round"/>
<path d="M200.21 299.228C200.929 298.808 201.77 298.649 202.592 298.78C203.414 298.91 204.166 299.322 204.719 299.945" stroke="#454238" stroke-width="0.75" stroke-miterlimit="10" stroke-linecap="round"/>
<path d="M217.813 318.054C218.363 318.054 218.809 317.607 218.809 317.056C218.809 316.505 218.363 316.059 217.813 316.059C217.263 316.059 216.816 316.505 216.816 317.056C216.816 317.607 217.263 318.054 217.813 318.054Z" fill="#454238"/>
<path d="M217.033 314.37C217.683 314.146 218.389 314.146 219.039 314.37" stroke="#454238" stroke-width="0.75" stroke-miterlimit="10" stroke-linecap="round"/>
<path d="M225.093 318.079C225.093 318.344 224.988 318.597 224.802 318.784C224.615 318.972 224.361 319.077 224.097 319.077C223.833 319.077 223.579 318.972 223.392 318.784C223.206 318.597 223.101 318.344 223.101 318.079C223.101 317.815 223.206 317.561 223.392 317.374C223.579 317.187 223.833 317.082 224.097 317.082C224.361 317.082 224.615 317.187 224.802 317.374C224.988 317.561 225.093 317.815 225.093 318.079Z" fill="#454238"/>
<path d="M223.331 315.381C223.976 315.158 224.678 315.158 225.324 315.381" stroke="#454238" stroke-width="0.75" stroke-miterlimit="10" stroke-linecap="round"/>
<path d="M221.517 318.552C221.39 319.457 221.624 320.376 222.169 321.11C222.336 321.274 222.44 321.491 222.463 321.724C222.444 321.844 222.388 321.955 222.303 322.042C222.219 322.129 222.109 322.188 221.99 322.21C221.746 322.261 221.493 322.261 221.249 322.21" stroke="#454238" stroke-width="0.75" stroke-miterlimit="10" stroke-linecap="round"/>
<path d="M217.033 324.013C217.5 324.418 218.055 324.708 218.654 324.862C219.252 325.015 219.878 325.026 220.482 324.896" stroke="#454238" stroke-width="0.75" stroke-miterlimit="10" stroke-linecap="round"/>
<path d="M201.768 315.253C201.778 315.974 202.001 316.676 202.408 317.271C202.816 317.866 203.39 318.326 204.058 318.595C204.727 318.864 205.46 318.93 206.165 318.783C206.87 318.636 207.516 318.284 208.022 317.77C208.528 317.257 208.871 316.605 209.008 315.897C209.145 315.189 209.069 314.456 208.792 313.79C208.514 313.125 208.045 312.557 207.446 312.157C206.846 311.757 206.142 311.544 205.421 311.544C204.937 311.544 204.458 311.64 204.011 311.827C203.565 312.014 203.16 312.288 202.82 312.633C202.48 312.978 202.212 313.388 202.031 313.837C201.851 314.287 201.761 314.768 201.768 315.253Z" fill="#CF9378"/>
<path d="M204.706 313.68C204.974 313.643 205.246 313.676 205.498 313.775C205.749 313.874 205.971 314.035 206.143 314.244C206.314 314.453 206.43 314.702 206.478 314.968C206.526 315.235 206.505 315.509 206.418 315.764C206.259 315.616 206.059 315.519 205.844 315.487C205.629 315.455 205.409 315.489 205.214 315.584C205.018 315.68 204.857 315.833 204.75 316.023C204.644 316.212 204.597 316.43 204.617 316.647" stroke="#454238" stroke-width="0.75" stroke-linecap="round" stroke-linejoin="round"/>
<path d="M610.682 524.341C610.58 523.881 597.538 526.157 596.094 526.387L595.928 526.515C591.419 530.352 585.709 532.449 580.101 534.47C579.212 534.717 578.4 535.183 577.738 535.826C575.183 538.818 580.586 540.097 582.503 540.263C585.62 540.36 588.737 540.055 591.777 539.355C598.062 538.243 604.461 538.601 610.682 537.066C610.798 537.067 610.912 537.043 611.017 536.996C611.123 536.95 611.217 536.881 611.295 536.796C611.372 536.71 611.43 536.609 611.465 536.499C611.501 536.389 611.513 536.273 611.5 536.158C611.84 532.201 611.564 528.214 610.682 524.341Z" fill="#454238"/>
<path d="M582.12 432.503C585.275 463.938 591.062 496.192 594.613 527.602C601.971 528.229 604.641 527.743 611.781 526.541C616.469 492.368 618.449 475.883 614.221 441.238C613.787 437.682 614.221 408.216 614.042 404.431C613.289 381.909 616.291 356.203 602.788 337.173C599.365 332.377 593.783 328.694 588.098 329.129C586.141 329.32 584.25 329.944 582.563 330.954C580.875 331.965 579.432 333.338 578.339 334.974C571.364 344.463 575.26 370.233 576.499 381.487C578.147 396.399 580.625 417.514 582.12 432.503Z" fill="#919B9B"/>
<path d="M584.342 452.057C585.62 446.609 587.178 441.212 588.711 435.828C594.076 417.002 596.299 397.64 598.994 378.277C599.747 373.702 600.144 369.076 600.182 364.439C600.106 359.746 599.48 355.014 599.109 350.372C598.729 343.964 597.845 337.597 596.465 331.329C593.961 329.771 591.042 329.017 588.098 329.167C586.141 329.358 584.25 329.982 582.563 330.992C580.875 332.003 579.432 333.376 578.339 335.012C571.364 344.501 575.26 370.271 576.499 381.526C578.147 396.438 580.625 417.552 582.12 432.541C582.771 438.91 583.525 445.458 584.342 452.057Z" fill="#545D78"/>
<path d="M560.378 528.702C560.251 528.683 560.122 528.683 559.995 528.702C555.81 529.201 551.579 529.175 547.4 528.625C546.867 528.536 546.323 528.536 545.79 528.625C545.334 528.77 544.903 528.986 544.513 529.265C540.585 531.652 536.257 533.303 531.739 534.137C529.184 534.61 526.373 534.879 524.317 536.529C523.359 537.296 522.605 538.729 523.333 539.713C523.609 540.031 523.954 540.28 524.342 540.442C528.264 542.284 534.191 541.568 538.394 541.337C545.203 540.954 551.947 541.337 558.667 540.059C558.942 540.016 559.204 539.911 559.433 539.752C559.712 539.466 559.891 539.098 559.944 538.703C560.382 536.843 560.719 534.96 560.953 533.063C561.043 532.308 561.464 529.61 560.953 528.983C560.889 528.892 560.802 528.818 560.702 528.769C560.601 528.72 560.49 528.697 560.378 528.702Z" fill="#454238"/>
<path d="M577.036 333.452C561.554 333.196 556.814 349.374 554.975 361.818C551.075 388.095 548.345 414.526 546.787 441.11C546.007 454.295 544.973 465.409 544.538 478.658C544.079 492.215 543.338 515.747 543.925 529.175C543.914 529.448 543.99 529.716 544.142 529.942C544.255 530.049 544.387 530.132 544.532 530.187C544.677 530.241 544.831 530.267 544.986 530.262C550.663 530.874 556.385 530.955 562.077 530.505C562.346 530.504 562.61 530.434 562.844 530.301C563.087 530.122 560.902 529.265 560.992 529.022C565.348 515.555 568.337 491.486 569.704 477.418C572.552 448.003 578.646 419.356 589.619 392.166C600.579 366.422 606.774 333.925 577.036 333.452Z" fill="#919B9B"/>
<path d="M583.385 408.05C589.601 393.193 594.937 377.982 599.365 362.496" stroke="#454238" stroke-width="0.75" stroke-miterlimit="10"/>
<path d="M580.076 368.302H580.229C581.647 368.532 583.065 368.749 584.483 368.928C585.531 369.056 586.578 369.159 587.625 369.261L588.66 369.351C589.529 369.427 590.41 369.491 591.215 369.53L592.71 369.606H593.872C600.558 369.823 607.248 369.352 613.838 368.2C612.855 356.318 610.261 344.872 603.363 335.178C599.953 330.37 594.357 326.686 588.673 327.134C586.718 327.32 584.828 327.94 583.142 328.949C581.456 329.958 580.016 331.33 578.926 332.966C578.385 333.715 577.927 334.521 577.559 335.37C564.108 335.063 558.168 348.632 555.166 360.078C558.225 361.863 561.456 363.333 564.811 364.465C569.777 366.188 574.885 367.472 580.076 368.302Z" fill="#545D78"/>
<path d="M586.82 248.954C586.915 247.215 586.791 245.47 586.45 243.762C589.013 244.624 591.774 244.704 594.383 243.992C595.674 243.619 596.93 243.135 598.138 242.547C598.573 242.342 599.416 241.716 600.067 241.268C598.496 247.113 598.611 253.2 602.226 258.214C599.391 260.474 595.996 261.92 592.403 262.396C589.35 262.92 582.056 263.406 583.806 258.265C584.38 256.589 585.62 255.298 586.105 253.558C586.506 252.053 586.746 250.51 586.82 248.954Z" fill="#F7B699"/>
<path d="M593.885 244.108C591.423 244.692 588.847 244.572 586.45 243.762C586.791 245.471 586.916 247.215 586.821 248.955C586.749 250.523 586.509 252.08 586.105 253.597L585.952 254.045L586.846 253.904C590.236 251.533 592.718 248.078 593.885 244.108Z" fill="#C46E58"/>
<path d="M582.874 220.857C584.662 218.299 586.795 221.893 589.925 221.982C592.659 222.046 594.779 221.982 597.194 223.402C599.404 224.634 601.079 226.644 601.895 229.042C602.104 229.676 602.278 230.32 602.418 230.973C602.609 233.1 602.609 235.24 602.418 237.367V237.508C600.954 241.067 598.458 244.105 595.252 246.23C593.782 247.278 592.059 247.911 590.261 248.064C588.464 248.217 586.658 247.884 585.033 247.1C583.212 246.159 581.785 244.599 581.009 242.7C580.189 240.574 579.756 238.317 579.731 236.037C579.604 232.584 580.894 223.696 582.874 220.857Z" fill="#F7B699"/>
<path d="M586.412 226.842C583.959 227.2 581.954 227.584 579.706 226.267C577.985 225.255 576.705 223.635 576.116 221.727C575.962 221.161 575.86 220.584 575.81 220C575.81 219.744 575.81 218.721 575.81 218.555C576.263 219.054 576.877 219.378 577.544 219.471C578.211 219.565 578.89 219.421 579.463 219.066C580.591 218.328 581.588 217.408 582.414 216.342C584.55 213.973 587.328 212.275 590.41 211.457C593.502 210.642 596.784 210.978 599.646 212.403C601.429 213.317 602.937 214.69 604.015 216.381C604.574 217.211 605.005 218.12 605.292 219.079C605.407 219.514 605.752 221.816 605.19 222.034C605.638 221.908 606.114 221.921 606.554 222.072C606.994 222.223 607.378 222.504 607.656 222.878C608.195 223.631 608.53 224.513 608.626 225.435C609.085 228.547 608.692 231.725 607.49 234.631C606.544 236.715 605.548 239.005 604.385 241.025C603.417 242.797 601.951 244.246 600.17 245.194C597.805 246.11 595.248 246.414 592.735 246.077C591.658 246.141 590.586 245.868 589.671 245.295C588.755 244.722 588.04 243.878 587.626 242.88C587.235 241.809 587.019 240.682 586.987 239.542C586.987 239.069 586.731 235.782 587.115 235.59C586.657 235.864 586.149 236.042 585.62 236.114C585.354 236.149 585.083 236.106 584.84 235.99C584.598 235.875 584.394 235.691 584.253 235.462C584.096 234.98 584.119 234.458 584.317 233.991C584.994 231.6 585.697 229.221 586.412 226.842Z" fill="#454238"/>
<path d="M605.79 216.15C606.182 217.543 606.202 219.014 605.848 220.417C605.494 221.82 604.778 223.105 603.771 224.144" stroke="#454238" stroke-width="0.75" stroke-miterlimit="10" stroke-linecap="round"/>
<path d="M609.776 222.942C609.251 222.295 608.519 221.851 607.703 221.685C606.887 221.519 606.04 221.643 605.305 222.034" stroke="#454238" stroke-width="0.75" stroke-miterlimit="10" stroke-linecap="round"/>
<path d="M592.198 237.368C591.948 238.047 591.501 238.636 590.916 239.061C590.33 239.486 589.632 239.727 588.909 239.755C588.186 239.782 587.472 239.594 586.856 239.214C586.24 238.834 585.751 238.28 585.45 237.622C585.149 236.964 585.05 236.231 585.165 235.516C585.28 234.801 585.605 234.137 586.098 233.607C586.591 233.077 587.23 232.705 587.934 232.539C588.638 232.373 589.375 232.42 590.052 232.674C590.957 233.013 591.691 233.697 592.093 234.577C592.496 235.457 592.533 236.46 592.198 237.368Z" fill="#F7B699"/>
<path d="M590.001 234.912C589.765 234.787 589.502 234.721 589.235 234.721C588.968 234.721 588.705 234.787 588.469 234.912C588.247 235.047 588.061 235.234 587.927 235.457C587.794 235.68 587.716 235.932 587.702 236.191C587.902 236.116 588.119 236.101 588.327 236.146C588.536 236.191 588.727 236.296 588.877 236.447C589.021 236.608 589.116 236.807 589.15 237.02C589.184 237.233 589.156 237.451 589.069 237.649" stroke="#454238" stroke-width="0.75" stroke-linecap="round" stroke-linejoin="round"/>
<path d="M541.51 278.855C541.618 278.278 541.873 277.739 542.252 277.291C542.63 276.842 543.119 276.5 543.669 276.298C544.793 275.901 546.696 275.901 547.08 274.763C547.258 274.2 547.45 273.983 546.99 273.599C546.516 273.236 545.939 273.035 545.342 273.024C544.419 272.979 543.502 273.195 542.696 273.648C541.889 274.1 541.226 274.77 540.782 275.581C540.514 276.08 540.13 276.72 539.594 276.566C539.471 276.514 539.359 276.438 539.267 276.341C539.175 276.244 539.103 276.129 539.057 276.003C538.419 274.507 539.3 272.832 540.156 271.45C540.755 270.304 541.634 269.327 542.711 268.611C544.021 268.013 545.479 267.817 546.901 268.049C549.775 268.24 552.802 268.458 555.242 270.184C555.881 270.632 556.52 271.156 557.095 271.604C558.785 272.687 560.628 273.511 562.562 274.047C561.974 276.118 561.374 278.178 560.786 280.237C560.786 280.339 560.71 280.467 560.62 280.518C560.51 280.563 560.386 280.563 560.275 280.518C556.775 279.661 552.739 278.945 549.226 278.395C546.645 278.166 544.045 278.321 541.51 278.855Z" fill="#F7B699"/>
<path d="M560.761 269.481C557.535 273.563 555.848 278.653 555.997 283.856L562.741 286.554C563.521 282.986 564.287 279.418 565.066 275.863C565.296 274.788 566.254 272.499 565.641 271.617C565.028 270.734 561.847 269.954 560.761 269.481Z" fill="white"/>
<path d="M583.946 277.934C582.086 276.786 580.148 275.769 578.147 274.891C574.672 273.33 571.032 272.051 567.544 270.837C566.215 270.322 564.854 269.894 563.469 269.558C559.637 273.612 558.36 280.492 558.807 286.247C562.805 289.764 568.656 291.836 573.063 294.599C575.48 296.242 578.046 297.655 580.727 298.819C583.418 299.996 586.42 300.257 589.273 299.561C590.016 299.391 590.716 299.066 591.325 298.608C591.935 298.15 592.441 297.568 592.812 296.901C593.162 296.015 593.31 295.063 593.246 294.113C593.122 290.863 592.211 287.693 590.591 284.874C588.971 282.056 586.69 279.674 583.946 277.934Z" fill="#545D78"/>
<path d="M518.109 300.43C517.349 299.098 516.889 297.616 516.761 296.087C516.633 294.559 516.84 293.021 517.368 291.58C517.524 291.033 517.8 290.528 518.176 290.101C518.551 289.675 519.017 289.337 519.539 289.112C520.207 288.973 520.901 289.038 521.532 289.297C522.163 289.557 522.701 290.001 523.078 290.57C523.803 291.722 524.382 292.959 524.802 294.253C525.364 295.623 526.103 296.913 526.999 298.09C528.068 299.165 528.865 300.481 529.324 301.927C529.423 302.525 529.378 303.139 529.194 303.717C529.009 304.295 528.691 304.821 528.264 305.252C525.032 308.449 519.641 303.193 518.109 300.43Z" fill="#F7B699"/>
<path d="M554.22 298.486L534.842 307.899L509.191 284.597L528.583 275.185L554.22 298.486Z" fill="#F4AE2D"/>
<path d="M551.053 297.515L534.408 305.597L512.245 285.467L528.903 277.385L551.053 297.515Z" fill="white"/>
<path d="M531.432 281.643L517.597 288.358L516.243 287.13L530.078 280.416L531.432 281.643Z" fill="#C8DDF7"/>
<path d="M538.496 288.063L524.662 294.777L523.308 293.55L537.142 286.835L538.496 288.063Z" fill="#C8DDF7"/>
<path d="M540.834 290.199L526.999 296.913L525.658 295.685L539.493 288.971L540.834 290.199Z" fill="#C8DDF7"/>
<path d="M543.184 292.322L529.349 299.036L527.995 297.808L541.83 291.094L543.184 292.322Z" fill="#C8DDF7"/>
<path d="M545.522 294.445L531.687 301.159L530.333 299.944L544.167 293.23L545.522 294.445Z" fill="#C8DDF7"/>
<path d="M547.859 296.581L534.025 303.295L532.671 302.067L546.518 295.353L547.859 296.581Z" fill="#C8DDF7"/>
<path d="M528.072 279.277L516.435 284.93L511.491 280.428L523.128 274.788L528.072 279.277Z" fill="#454238"/>
<path d="M520.088 298.307C519.895 298.532 519.72 298.772 519.564 299.024C518.095 301.377 520.931 303.576 522.745 304.843C526.833 307.733 531.84 309.114 536.605 310.495C539.287 311.288 547.054 309.37 544.908 305.149C543.439 302.259 539.109 300.609 536.26 299.829C533.296 299.279 530.767 298.039 529.656 295.046C529.17 293.767 528.966 292.284 528.532 290.928C528.454 290.584 528.282 290.27 528.033 290.02C527.911 289.894 527.749 289.814 527.575 289.793C527.4 289.772 527.224 289.811 527.075 289.905C526.932 290.045 526.83 290.222 526.781 290.416C525.951 292.731 527.433 294.445 524.584 295.801C523.639 296.248 522.604 296.504 521.685 297.016C521.079 297.347 520.539 297.785 520.088 298.307Z" fill="#F7B699"/>
<path d="M534.37 295.788C531.602 300.196 530.471 305.439 531.176 310.598L538.176 312.542L539.326 301.658C539.441 300.571 540.144 298.205 539.454 297.387C538.764 296.568 535.507 296.197 534.37 295.788Z" fill="white"/>
<path d="M582.324 253.533C583.833 252.456 585.645 251.887 587.498 251.909L601.702 250.63C602.597 253.802 603.495 256.973 604.398 260.145C604.398 260.004 589.069 260.618 587.574 260.567C586.08 260.516 581.047 261.027 580.408 259.582C579.769 258.137 581.149 254.594 582.324 253.533Z" fill="white"/>
<path d="M613.455 332.595C613.455 327.479 613.748 322.492 614.068 317.453C614.489 310.892 614.987 304.331 615.064 297.758C615.273 289.579 614.73 281.397 613.442 273.318C613.101 271.306 612.675 269.323 612.164 267.371C612.062 266.974 611.96 266.552 611.845 266.092C610.325 262.46 607.463 257.651 603.644 255.515C603.01 255.471 602.374 255.471 601.741 255.515C597.346 255.805 592.977 256.287 588.634 256.961C585.645 257.421 583.525 257.805 581.327 260.094C575.72 265.951 570.457 279.047 568.988 287.092C567.595 294.765 568.144 295.225 567.34 302.988C566.394 312.222 565.053 321.405 563.316 330.536C561.847 338.209 559.662 346.573 553.288 351.101C563.865 355.539 574.57 360.053 585.901 361.792C597.231 363.532 609.431 362.381 619.114 356.165C614.528 349.208 613.429 340.959 613.455 332.595Z" fill="#919B9B"/>
<path d="M587.293 280.582C586.905 279.705 586.298 278.943 585.53 278.369C584.654 277.843 583.634 277.611 582.617 277.704C578.185 277.896 574.672 281.541 572.309 285.276C569.945 289.01 568.106 293.281 564.734 296.172C558.845 301.198 544.653 297.093 538.061 295.622C533.041 300.546 532.504 306.224 535.11 312.849C543.95 316.685 562.549 325.97 572.155 321.366C575.444 319.632 578.19 317.02 580.088 313.821C581.267 311.985 582.341 310.085 583.307 308.13C585.666 303.908 587.457 299.393 588.634 294.701C589.821 289.98 589.347 284.994 587.293 280.582Z" fill="#919B9B"/>
<path d="M591.227 264.595C589.731 263.124 587.785 262.198 585.7 261.966C583.615 261.734 581.513 262.21 579.731 263.317C577.649 264.595 576.588 267.319 575.515 269.455C574.203 272.077 573.084 274.791 572.168 277.576C571.223 280.454 570.495 283.408 569.614 286.298C568.157 291.056 566.267 295.673 565.181 300.52C564.095 305.367 563.904 310.572 565.666 315.189C568.221 321.801 576.946 318.284 580.817 314.613C584.138 311.454 585.735 306.94 587.204 302.579C588.673 298.218 590.193 293.844 591.675 289.47C593.244 285.196 594.24 280.732 594.638 276.195C594.843 271.898 594.076 267.639 591.227 264.595Z" fill="#919B9B"/>
<path d="M567.723 292.015C569.797 282.317 573.415 273.015 578.44 264.468" stroke="#454238" stroke-width="0.75" stroke-miterlimit="10"/>
<path d="M594.217 283.728L588.507 299.075C587.14 302.758 585.85 307.464 583.257 310.508C580.664 313.552 578.262 316.839 575.094 319.333C572.075 321.891 568.199 323.207 564.249 323.016" stroke="#454238" stroke-width="0.75" stroke-miterlimit="10"/>
<path d="M596.299 285.096C594.569 286.075 593.149 287.519 592.198 289.266" stroke="#454238" stroke-width="0.75" stroke-miterlimit="10"/>
<path d="M536.618 282.846L534.331 284.124L535.493 281.797L549.277 267.512C549.348 267.438 549.434 267.38 549.528 267.34C549.622 267.3 549.724 267.279 549.826 267.279C549.929 267.279 550.03 267.3 550.124 267.34C550.219 267.38 550.304 267.438 550.375 267.512C550.521 267.658 550.602 267.855 550.602 268.061C550.602 268.267 550.521 268.465 550.375 268.611L536.618 282.846Z" fill="#454238"/>
</g>
<defs>
<linearGradient id="paint0_linear_3211_1694" x1="606.968" y1="205.745" x2="679.438" y2="230.563" gradientUnits="userSpaceOnUse">
<stop stop-color="#FF403E"/>
<stop offset="1" stop-color="#FF8145"/>
</linearGradient>
<linearGradient id="paint1_linear_3211_1694" x1="176.469" y1="144.443" x2="176.469" y2="196.609" gradientUnits="userSpaceOnUse">
<stop stop-color="#236FDA"/>
<stop offset="1" stop-color="#2A7FF8"/>
</linearGradient>
<linearGradient id="paint2_linear_3211_1694" x1="194.385" y1="163.329" x2="229.451" y2="178.662" gradientUnits="userSpaceOnUse">
<stop stop-color="#FF403E"/>
<stop offset="1" stop-color="#FF8145"/>
</linearGradient>
<linearGradient id="paint3_linear_3211_1694" x1="499.412" y1="91.4882" x2="594.378" y2="124.007" gradientUnits="userSpaceOnUse">
<stop stop-color="#FF403E"/>
<stop offset="1" stop-color="#FF8145"/>
</linearGradient>
<linearGradient id="paint4_linear_3211_1694" x1="456.971" y1="443.962" x2="465.915" y2="447.025" gradientUnits="userSpaceOnUse">
<stop stop-color="#FF403E"/>
<stop offset="1" stop-color="#FF8145"/>
</linearGradient>
<linearGradient id="paint5_linear_3211_1694" x1="409.527" y1="483.736" x2="409.527" y2="493.967" gradientUnits="userSpaceOnUse">
<stop stop-color="#236FDA"/>
<stop offset="1" stop-color="#2A7FF8"/>
</linearGradient>
<linearGradient id="paint6_linear_3211_1694" x1="351.546" y1="481.963" x2="360.401" y2="484.996" gradientUnits="userSpaceOnUse">
<stop stop-color="#FF403E"/>
<stop offset="1" stop-color="#FF8145"/>
</linearGradient>
<linearGradient id="paint7_linear_3211_1694" x1="364.522" y1="311.662" x2="387.271" y2="313.914" gradientUnits="userSpaceOnUse">
<stop stop-color="#FF403E"/>
<stop offset="1" stop-color="#FF8145"/>
</linearGradient>
<linearGradient id="paint8_linear_3211_1694" x1="445.966" y1="215.641" x2="445.966" y2="376.742" gradientUnits="userSpaceOnUse">
<stop stop-color="#236FDA"/>
<stop offset="1" stop-color="#2A7FF8"/>
</linearGradient>
<linearGradient id="paint9_linear_3211_1694" x1="233.99" y1="415.127" x2="233.99" y2="516.201" gradientUnits="userSpaceOnUse">
<stop stop-color="#236FDA"/>
<stop offset="1" stop-color="#2A7FF8"/>
</linearGradient>
<linearGradient id="paint10_linear_3211_1694" x1="204.167" y1="412.462" x2="204.167" y2="517.773" gradientUnits="userSpaceOnUse">
<stop stop-color="#236FDA"/>
<stop offset="1" stop-color="#2A7FF8"/>
</linearGradient>
<clipPath id="clip0_3211_1694">
<rect width="552.203" height="552.284" fill="white" transform="translate(127.218 0.908691)"/>
</clipPath>
</defs>
</svg>
