<svg width="772" height="795" viewBox="0 0 772 795" fill="none" xmlns="http://www.w3.org/2000/svg">
<g clip-path="url(#clip0_1032_11442)">
<path d="M772 608.016H-23V608.413H772V608.016Z" fill="#EBEBEB"/>
<path d="M682.786 623.153H630.125V623.55H682.786V623.153Z" fill="#EBEBEB"/>
<path d="M265.315 628.543H186.037V628.94H265.315V628.543Z" fill="#EBEBEB"/>
<path d="M628.535 637.924H581.582V638.321H628.535V637.924Z" fill="#EBEBEB"/>
<path d="M94.7561 635.253H60.4121V635.65H94.7561V635.253Z" fill="#EBEBEB"/>
<path d="M169.915 635.253H108.906V635.65H169.915V635.253Z" fill="#EBEBEB"/>
<path d="M503.641 618.844H354.689V619.241H503.641V618.844Z" fill="#EBEBEB"/>
<path d="M353.83 537.102H46.8169C44.4118 537.098 42.1066 536.139 40.4074 534.437C38.7082 532.735 37.7539 530.428 37.7539 528.023V96.4494C37.7748 94.0581 38.7384 91.7716 40.4354 90.0866C42.1323 88.4016 44.4255 87.4541 46.8169 87.45H353.83C356.238 87.45 358.547 88.4065 360.25 90.1092C361.952 91.8118 362.909 94.121 362.909 96.5289V528.023C362.909 530.431 361.952 532.74 360.25 534.443C358.547 536.146 356.238 537.102 353.83 537.102ZM46.8169 87.768C44.5172 87.7722 42.3131 88.6887 40.6885 90.3163C39.0639 91.944 38.1514 94.1497 38.1514 96.4494V528.023C38.1514 530.323 39.0639 532.529 40.6885 534.156C42.3131 535.784 44.5172 536.7 46.8169 536.704H353.83C356.131 536.7 358.337 535.784 359.964 534.157C361.591 532.53 362.507 530.324 362.511 528.023V96.4494C362.507 94.1483 361.591 91.9425 359.964 90.3154C358.337 88.6882 356.131 87.7722 353.83 87.768H46.8169Z" fill="#EBEBEB"/>
<path d="M697.762 537.102H390.733C388.327 537.098 386.02 536.14 384.318 534.438C382.616 532.737 381.659 530.43 381.654 528.023V96.4494C381.679 94.0566 382.647 91.7702 384.346 90.0856C386.045 88.401 388.34 87.4541 390.733 87.45H697.762C700.151 87.4583 702.44 88.4076 704.134 90.0922C705.827 91.7767 706.788 94.0608 706.809 96.4494V528.023C706.809 530.425 705.857 532.73 704.161 534.432C702.466 536.133 700.165 537.094 697.762 537.102ZM390.733 87.768C388.432 87.7722 386.226 88.6882 384.599 90.3154C382.972 91.9425 382.056 94.1483 382.052 96.4494V528.023C382.056 530.324 382.972 532.53 384.599 534.157C386.226 535.784 388.432 536.7 390.733 536.704H697.762C700.063 536.7 702.269 535.784 703.896 534.157C705.523 532.53 706.439 530.324 706.444 528.023V96.4494C706.439 94.1483 705.523 91.9425 703.896 90.3154C702.269 88.6882 700.063 87.7722 697.762 87.768H390.733Z" fill="#EBEBEB"/>
<path d="M275.697 378.69H449.5L449.5 131.159L275.697 131.159V378.69Z" fill="#E6E6E6"/>
<path d="M269.051 378.69H442.854L442.854 131.159L269.051 131.159V378.69Z" fill="#F5F5F5"/>
<path d="M430.914 367.544V142.305H280.993V367.544H430.914Z" fill="white"/>
<path d="M286.033 367.529V142.289H281.009V367.529H286.033Z" fill="#E6E6E6"/>
<path d="M273.997 315.615H437.926V300.653H273.997V315.615Z" fill="#F5F5F5"/>
<path d="M273.997 176.903L437.926 176.903V161.942L273.997 161.942V176.903Z" fill="#F5F5F5"/>
<path d="M64.0057 378.69H237.809L237.809 131.159L64.0057 131.159L64.0057 378.69Z" fill="#E6E6E6"/>
<path d="M57.3592 378.69H231.162L231.162 131.159L57.3592 131.159L57.3592 378.69Z" fill="#F5F5F5"/>
<path d="M219.221 367.528V142.289H69.2996V367.528H219.221Z" fill="white"/>
<path d="M74.3242 367.544L74.3242 142.305H69.2998L69.2998 367.544H74.3242Z" fill="#E6E6E6"/>
<path d="M62.2878 315.615H226.217V300.653H62.2878V315.615Z" fill="#F5F5F5"/>
<path d="M62.2878 176.903L226.217 176.903V161.942L62.2878 161.942V176.903Z" fill="#F5F5F5"/>
<path d="M653.068 497.607C662.004 492.296 668.602 483.297 667.458 462.627C665.518 428.076 639.092 424.053 633.114 409.092C635.299 406.644 637.042 403.836 638.265 400.792C647.058 380.503 627.803 373.062 637.613 362.028C643.544 355.35 639.203 346.43 632.207 341.978C625.211 337.526 621.236 336.397 624.702 329.369C628.407 321.832 619.821 306.33 606.751 307.602C592.123 309.033 591.996 299 582.25 302.911C572.503 306.823 583.76 316.697 569.259 322.309C567.887 322.754 566.618 323.468 565.526 324.41C564.434 325.352 563.541 326.503 562.899 327.795C553.614 323.709 542.42 323.025 532.689 329.178C508.696 344.283 499.808 327.095 486.388 342.264C472.969 357.432 500.921 364.699 480.76 386.911C467.308 401.746 477.31 415.944 491.731 423.561C475.831 424.356 468.374 444.406 474.13 452.737C479.504 460.528 475.084 462.532 467.388 469.146C459.692 475.76 456.258 487.129 464.478 494.061C478.152 505.509 456.528 517.816 470.552 540.505C490.459 572.559 521.83 517.386 537.332 573.1C539.351 580.366 535.965 599.097 541.355 600.464C551.388 613.438 577.05 608.796 589.595 602.324C590.994 601.656 588.816 591.496 590.072 590.59C594.986 587.323 599.335 583.28 602.951 578.617C616.562 571.59 626.404 594.947 643.48 574.658C657.79 557.741 641.413 545.084 653.99 537.325C661.59 532.555 660.048 522.872 654.563 516.576C649.077 510.279 645.659 508.085 650.985 502.266C652.078 500.924 652.797 499.316 653.068 497.607Z" fill="#E6E6E6"/>
<path d="M524.404 589.572C524.404 589.572 525.549 647.989 570.228 647.989C614.907 647.989 616.036 589.572 616.036 589.572H524.404Z" fill="#F0F0F0"/>
<path d="M216.693 608.016V401.92H88.3009V608.016H216.693Z" fill="#F0F0F0"/>
<path d="M209.633 467.762V407.088H95.3436V467.762H209.633Z" fill="#E6E6E6"/>
<path d="M209.633 533.874V473.2H95.3436V533.874H209.633Z" fill="#E6E6E6"/>
<path d="M209.633 599.986V539.312H95.3436V599.986H209.633Z" fill="#E6E6E6"/>
<path d="M140.293 467.762V407.088H95.3437V467.762H140.293Z" fill="#E0E0E0"/>
<path d="M140.293 533.874V473.2H95.3436V533.874H140.293Z" fill="#E0E0E0"/>
<path d="M160.422 533.874H191.57V509.643H160.422V533.874Z" fill="#F0F0F0"/>
<path d="M204.72 509.627H191.57V533.858H204.72V509.627Z" fill="#E0E0E0"/>
<path d="M110.116 533.874H141.264V509.643H110.116V533.874Z" fill="#F0F0F0"/>
<path d="M154.413 509.627H141.264V533.858H154.413V509.627Z" fill="#E0E0E0"/>
<path d="M140.293 599.987V539.312H95.3437V599.987H140.293Z" fill="#E0E0E0"/>
<path d="M251.545 608.016V401.92H216.676V608.016H251.545Z" fill="#F5F5F5"/>
<path d="M125.698 599.987H195.912V548.057H125.698V599.987Z" fill="#F0F0F0"/>
<path d="M209.65 548.057H195.912V599.987H209.65V548.057Z" fill="#E0E0E0"/>
<path d="M103.086 467.746H195.895V415.817H103.086V467.746Z" fill="#FAFAFA"/>
<path d="M209.65 415.833H195.912V467.762H209.65V415.833Z" fill="#F0F0F0"/>
<path d="M354.609 608V401.904H226.217V608H354.609Z" fill="#F0F0F0"/>
<path d="M347.549 467.762V407.088H233.26V467.762H347.549Z" fill="#E6E6E6"/>
<path d="M347.549 533.874V473.2H233.26V533.874H347.549Z" fill="#E6E6E6"/>
<path d="M347.549 599.987V539.312H233.26V599.987H347.549Z" fill="#E6E6E6"/>
<path d="M278.225 467.762V407.088H233.275V467.762H278.225Z" fill="#E0E0E0"/>
<path d="M278.225 533.874V473.2H233.275V533.874H278.225Z" fill="#E0E0E0"/>
<path d="M250.401 467.762H281.549V443.531H250.401V467.762Z" fill="#F0F0F0"/>
<path d="M294.698 443.515H281.549V467.746H294.698V443.515Z" fill="#E0E0E0"/>
<path d="M288.131 467.746H328.119V436.614H288.131V467.746Z" fill="#F0F0F0"/>
<path d="M345.005 436.63H328.119V467.762H345.005V436.63Z" fill="#E0E0E0"/>
<path d="M278.225 599.987V539.312H233.275V599.987H278.225Z" fill="#E0E0E0"/>
<path d="M389.461 608.016V401.92H354.592V608.016H389.461Z" fill="#F5F5F5"/>
<path d="M246.075 599.971H330.965V586.694H246.075V599.971Z" fill="#F0F0F0"/>
<path d="M347.564 586.71H330.965V599.987H347.564V586.71Z" fill="#E0E0E0"/>
<path d="M260.975 533.874H336.404V491.676H260.975V533.874Z" fill="#FAFAFA"/>
<path d="M347.566 491.66H336.404V533.858H347.566V491.66Z" fill="#F0F0F0"/>
<path d="M374.5 679.82C544.761 679.82 682.785 671.762 682.785 661.822C682.785 651.881 544.761 643.823 374.5 643.823C204.239 643.823 66.2148 651.881 66.2148 661.822C66.2148 671.762 204.239 679.82 374.5 679.82Z" fill="#F5F5F5"/>
<path d="M421.118 632.55L409.639 629.147L414.44 601.64L425.936 605.027L421.118 632.55Z" fill="#FFB573"/>
<path d="M520.874 649.579H508.886L505.896 621.833H517.885L520.874 649.579Z" fill="#FFB573"/>
<path d="M507.901 648.195H522.513C522.751 648.19 522.983 648.269 523.168 648.417C523.354 648.565 523.482 648.773 523.531 649.006L525.9 659.659C525.958 659.918 525.956 660.188 525.895 660.446C525.833 660.705 525.713 660.946 525.545 661.151C525.376 661.356 525.163 661.521 524.922 661.631C524.68 661.742 524.416 661.796 524.151 661.79C519.381 661.71 516.01 661.44 510.095 661.44C506.454 661.44 495.467 661.822 490.443 661.822C485.418 661.822 484.751 656.845 486.802 656.4C496.04 654.38 503.004 651.63 505.961 648.927C506.494 648.45 507.186 648.19 507.901 648.195Z" fill="#263238"/>
<path d="M410.099 627.843L422.66 631.564C422.887 631.632 423.084 631.773 423.219 631.967C423.355 632.16 423.421 632.393 423.408 632.629L422.645 643.521C422.632 643.787 422.559 644.047 422.43 644.28C422.302 644.513 422.122 644.715 421.905 644.868C421.687 645.021 421.437 645.123 421.174 645.165C420.911 645.207 420.641 645.189 420.387 645.111C415.887 643.696 409.432 641.486 403.739 639.816C397.077 637.844 391.226 636.509 383.419 634.203C378.649 632.804 378.808 627.653 380.907 627.843C390.447 628.543 397.888 630.499 407.078 628.002C408.052 627.672 409.097 627.617 410.099 627.843Z" fill="#263238"/>
<path d="M493.591 283.72C487.438 288.092 481.268 292.099 474.892 296.01C468.517 299.922 462.061 303.595 455.335 307.045L452.807 308.333L452.108 308.683L450.947 309.223C450.16 309.54 449.352 309.806 448.53 310.018C445.528 310.759 442.39 310.759 439.388 310.018C434.857 308.807 430.639 306.638 427.018 303.658C420.839 298.623 415.536 292.601 411.324 285.834L418.273 280.126C423.378 284.646 428.916 288.651 434.809 292.083C437.116 293.465 439.67 294.383 442.329 294.786C442.933 294.88 443.551 294.78 444.094 294.5C444.154 294.466 444.207 294.423 444.253 294.373L444.333 294.293L444.826 293.991L447.099 292.576C453.141 288.776 459.183 284.817 465.193 280.81L483.256 268.837L493.591 283.72Z" fill="#FFB573"/>
<path d="M459.199 280.142L472.237 308.285C529.938 289.205 512.162 244.86 459.199 280.142Z" fill="#263238"/>
<path opacity="0.2" d="M489.838 281.573C482.435 288.775 477 297.752 474.049 307.649C485.783 303.579 494.21 298.427 499.743 293.196L489.838 281.573Z" fill="black"/>
<path d="M419.559 282.766L415.314 270.713L405.17 280.253C405.893 281.914 406.957 283.404 408.294 284.626C409.631 285.847 411.21 286.774 412.929 287.345L419.559 282.766Z" fill="#FFB573"/>
<path d="M408.445 267.486L400.543 276.247L405.17 280.237L415.314 270.713L408.445 267.486Z" fill="#FFB573"/>
<path opacity="0.2" d="M414.439 601.64L411.959 615.823L423.455 619.226L425.935 605.043L414.439 601.64Z" fill="black"/>
<path opacity="0.2" d="M517.885 621.833H505.896L507.439 636.143H519.427L517.885 621.833Z" fill="black"/>
<path d="M548.317 277.232C549.193 277.549 549.997 278.037 550.681 278.668C551.366 279.299 551.917 280.061 552.304 280.908C552.69 281.755 552.904 282.67 552.932 283.601C552.96 284.532 552.802 285.458 552.467 286.327C548.567 296.674 545.27 307.239 542.593 317.968C540.32 327.047 538.539 335.76 537.108 343.678C533.769 362.25 532.338 376.544 531.225 381.298L468.309 368.88C480.059 275.404 489.058 267.374 489.058 267.374C494.194 267.053 499.345 267.053 504.481 267.374C505.541 267.438 506.638 267.533 507.772 267.661C516.781 268.896 525.711 270.653 534.516 272.923C536.106 273.337 537.871 273.798 539.509 274.291C542.736 275.293 545.789 276.326 548.317 277.232Z" fill="#263238"/>
<path opacity="0.2" d="M536.902 294.913C535.568 304.632 537.098 314.529 541.306 323.39C541.704 321.593 542.149 319.797 542.594 317.984C544.311 311.163 546.315 304.135 548.668 297.076L536.902 294.913Z" fill="black"/>
<path d="M537.84 242.364L518.648 253.144C519.014 260.156 517.853 267.311 507.804 267.708C505.594 270.252 503.384 276.247 510.635 281.573L509.045 286.518C523.355 285.469 531.511 277.662 534.485 272.987C529.651 266.055 534.453 250.632 537.84 242.364Z" fill="#FFB573"/>
<path d="M490.57 373.65C490.467 373.634 490.374 373.579 490.312 373.496C490.249 373.412 490.222 373.308 490.236 373.205C497.121 319.908 510.111 281.78 510.238 281.398C510.277 281.301 510.351 281.221 510.444 281.175C510.538 281.128 510.646 281.117 510.747 281.144C510.846 281.18 510.928 281.253 510.976 281.347C511.023 281.442 511.032 281.551 511.001 281.653C510.858 282.034 497.9 320.099 491.015 373.3C491.011 373.353 490.996 373.405 490.972 373.452C490.947 373.5 490.912 373.541 490.87 373.574C490.828 373.607 490.78 373.631 490.728 373.644C490.676 373.657 490.622 373.659 490.57 373.65Z" fill="white"/>
<path d="M501.302 286.2C504.236 284.324 507.365 282.772 510.635 281.573C508.918 279.745 507.868 271.159 509.188 267.184H506.008C506.008 267.184 498.726 269.775 501.302 286.2Z" fill="white"/>
<path d="M521.75 291.304C520.674 288.641 518.886 286.325 516.582 284.61C521.75 283.02 530.59 278.6 533.595 270.745C534.819 271.747 536.775 273.146 536.775 273.146C536.775 273.146 539.86 284.944 521.75 291.304Z" fill="white"/>
<path d="M512.465 290.318C512.258 291.304 511.606 292.099 511.018 292.099C510.429 292.099 510.095 291.288 510.286 290.302C510.477 289.316 511.129 288.521 511.733 288.521C512.337 288.521 512.655 289.38 512.465 290.318Z" fill="white"/>
<path opacity="0.2" d="M530.017 246.768L518.664 253.128C518.771 254.766 518.734 256.41 518.553 258.041C522.321 258.232 528.093 255.211 529.301 251.443C529.818 249.94 530.06 248.356 530.017 246.768Z" fill="black"/>
<path d="M518.585 206.493C510.38 208.481 506.469 225.287 516.74 230.979C536.79 226.464 541.719 200.881 518.585 206.493Z" fill="#263238"/>
<path d="M544.248 228.849C540.862 240.249 539.478 247.086 532.244 251.681C521.4 258.582 508.394 249.98 508.251 237.8C508.171 226.829 513.72 210.023 526.107 208.036C528.836 207.587 531.634 207.843 534.237 208.78C536.839 209.717 539.159 211.303 540.976 213.388C542.793 215.473 544.048 217.987 544.621 220.693C545.193 223.399 545.065 226.206 544.248 228.849Z" fill="#FFB573"/>
<path d="M546.522 213.06C534.868 210.246 531.37 234.748 541.625 240.44C565.3 235.081 558.797 215.97 546.522 213.06Z" fill="#263238"/>
<path d="M543.708 206.159C530.908 203.774 523.038 193.439 523.038 193.439C523.038 193.439 512.337 201.707 515.39 208.131C518.442 214.555 532.784 221.789 539.669 222.059C539.669 222.059 536.489 237.196 550.115 228.674C568.384 217.305 555.76 208.417 543.708 206.159Z" fill="#263238"/>
<path d="M554.504 221.9C557.735 223.666 560.231 226.523 561.548 229.962C562.549 221.01 556.348 221.662 554.504 221.9Z" fill="#263238"/>
<path d="M524.596 214.65C518.792 212.866 513.818 209.065 510.572 203.933C511.876 218.641 521.702 215.588 524.596 214.65Z" fill="#263238"/>
<path d="M518.904 239.788C520.262 240.128 521.681 240.139 523.044 239.821C524.408 239.503 525.675 238.865 526.743 237.959C526.796 237.901 526.826 237.824 526.826 237.745C526.826 237.665 526.796 237.589 526.743 237.53C526.715 237.502 526.681 237.479 526.644 237.464C526.608 237.448 526.568 237.441 526.528 237.441C526.488 237.441 526.449 237.448 526.412 237.464C526.375 237.479 526.342 237.502 526.313 237.53C525.318 238.359 524.142 238.942 522.88 239.232C521.617 239.522 520.304 239.511 519.047 239.2C518.975 239.199 518.904 239.222 518.847 239.267C518.79 239.311 518.75 239.374 518.733 239.444C518.716 239.515 518.724 239.589 518.755 239.654C518.786 239.719 518.839 239.772 518.904 239.804V239.788Z" fill="#263238"/>
<path d="M545.296 240.662C543.541 242.574 541.126 243.75 538.539 243.954C535.279 244.129 534.755 240.774 536.583 237.928C538.173 235.32 541.926 232.108 544.756 233.301C547.586 234.493 547.554 238.23 545.296 240.662Z" fill="#FFB573"/>
<path d="M408.43 611.896L427.907 617.651C427.907 617.651 447.385 551.348 459.485 510.247C462.665 499.355 467.594 484.028 473.429 467.778C480.791 447.299 489.567 425.261 496.659 408.026C504.116 389.868 509.681 377.053 509.681 377.053L468.309 368.88C468.309 368.88 433.583 463.803 425.904 499.578C417.954 536.8 408.43 611.896 408.43 611.896Z" fill="url(#paint0_linear_1032_11442)"/>
<path opacity="0.2" d="M473.43 467.778C480.791 447.299 489.568 425.261 496.66 408.026L493.48 398.152C481.602 409.155 474.034 446.79 473.43 467.778Z" fill="black"/>
<path d="M490.57 373.3C490.57 373.3 482.254 475.998 482.223 511.121C482.223 549.568 501.843 633.376 501.843 633.376H523.801C523.801 633.376 515.215 559.219 515.04 521.504C514.849 478.797 531.163 381.314 531.163 381.314L490.57 373.3Z" fill="url(#paint1_linear_1032_11442)"/>
<path d="M499.283 633.838H525.137V626.126L496.23 625.617L499.283 633.838Z" fill="#263238"/>
<path d="M407.078 611.991L429.052 618.494L432.375 610.942L407.333 603.5L407.078 611.991Z" fill="#263238"/>
<path d="M525.947 228.022C525.741 228.96 525.057 229.612 524.437 229.469C523.817 229.326 523.499 228.451 523.721 227.513C523.944 226.575 524.612 225.923 525.232 226.066C525.852 226.209 526.17 227.084 525.947 228.022Z" fill="#263238"/>
<path d="M515.311 225.557C515.088 226.511 514.42 227.147 513.8 227.004C513.18 226.861 512.862 225.987 513.085 225.049C513.307 224.11 513.975 223.459 514.579 223.602C515.183 223.745 515.517 224.619 515.311 225.557Z" fill="#263238"/>
<path d="M518.585 226.813C516.797 229.432 514.656 231.791 512.225 233.825C513.528 235.765 516.708 235.511 516.708 235.511L518.585 226.813Z" fill="#ED893E"/>
<path d="M530.049 225.351C529.945 225.342 529.845 225.307 529.759 225.249C529.672 225.19 529.603 225.11 529.556 225.017C529.282 224.347 528.849 223.755 528.295 223.289C527.742 222.824 527.083 222.5 526.376 222.346C526.23 222.318 526.099 222.235 526.013 222.113C525.927 221.992 525.892 221.841 525.915 221.694C525.939 221.544 526.02 221.41 526.143 221.321C526.265 221.231 526.417 221.194 526.567 221.217C527.446 221.415 528.265 221.82 528.956 222.398C529.647 222.976 530.191 223.71 530.542 224.54C530.602 224.679 530.606 224.837 530.553 224.979C530.499 225.121 530.393 225.237 530.256 225.303C530.189 225.328 530.12 225.344 530.049 225.351Z" fill="#263238"/>
<path d="M511.588 220.835C511.469 220.827 511.355 220.789 511.255 220.724C511.139 220.625 511.066 220.485 511.052 220.334C511.037 220.183 511.081 220.032 511.175 219.913C511.733 219.188 512.458 218.61 513.289 218.227C514.12 217.845 515.032 217.671 515.945 217.719C516.027 217.716 516.108 217.73 516.184 217.761C516.259 217.792 516.327 217.839 516.383 217.899C516.439 217.958 516.482 218.029 516.508 218.106C516.534 218.184 516.544 218.266 516.536 218.347C516.528 218.428 516.502 218.507 516.461 218.577C516.421 218.648 516.365 218.709 516.298 218.757C516.232 218.804 516.156 218.837 516.076 218.852C515.996 218.868 515.913 218.866 515.834 218.848C515.122 218.831 514.416 218.984 513.775 219.294C513.134 219.603 512.575 220.061 512.145 220.628C512.08 220.71 511.994 220.773 511.896 220.81C511.797 220.846 511.691 220.855 511.588 220.835Z" fill="#263238"/>
<path d="M503.941 650.31C503.125 650.373 502.311 650.154 501.636 649.69C501.421 649.509 501.255 649.278 501.152 649.017C501.05 648.756 501.014 648.474 501.048 648.195C501.047 648.03 501.091 647.867 501.175 647.724C501.259 647.582 501.38 647.464 501.525 647.384C502.86 646.701 506.724 649.086 507.153 649.356C507.202 649.385 507.24 649.427 507.262 649.479C507.285 649.53 507.292 649.587 507.28 649.642C507.273 649.698 507.25 649.75 507.213 649.792C507.176 649.835 507.128 649.866 507.074 649.881C506.048 650.137 504.998 650.281 503.941 650.31ZM502.161 647.83C502.04 647.801 501.915 647.801 501.795 647.83C501.734 647.861 501.683 647.909 501.65 647.968C501.616 648.027 501.6 648.095 501.604 648.163C501.583 648.355 501.608 648.549 501.678 648.728C501.747 648.908 501.858 649.069 502.002 649.197C503.339 649.802 504.857 649.876 506.247 649.404C505 648.615 503.613 648.075 502.161 647.814V647.83Z" fill="url(#paint2_linear_1032_11442)"/>
<path d="M507.009 649.865H506.866C505.626 649.197 503.225 646.558 503.48 645.222C503.526 645.016 503.641 644.831 503.806 644.699C503.97 644.566 504.175 644.493 504.386 644.491C504.602 644.459 504.822 644.475 505.031 644.538C505.24 644.601 505.432 644.71 505.594 644.856C506.994 645.985 507.28 649.451 507.296 649.626C507.298 649.665 507.292 649.704 507.279 649.741C507.265 649.777 507.244 649.811 507.218 649.839C507.191 649.867 507.159 649.89 507.123 649.905C507.087 649.921 507.048 649.928 507.009 649.928V649.865ZM504.593 644.999H504.465C504.084 644.999 504.052 645.206 504.052 645.286C503.893 646.081 505.419 648.052 506.66 648.99C506.57 647.627 506.077 646.321 505.245 645.238C505.059 645.089 504.83 645.005 504.593 644.999Z" fill="url(#paint3_linear_1032_11442)"/>
<path d="M408.509 629.099C406.553 628.925 403.119 628.4 402.149 626.905C402.012 626.69 401.929 626.444 401.906 626.189C401.884 625.935 401.924 625.678 402.022 625.442C402.072 625.294 402.16 625.162 402.277 625.059C402.394 624.956 402.536 624.885 402.69 624.854C404.28 624.504 408.239 628.193 408.684 628.607C408.717 628.656 408.734 628.714 408.734 628.773C408.734 628.833 408.717 628.891 408.684 628.94C408.67 628.979 408.646 629.014 408.616 629.041C408.585 629.069 408.549 629.089 408.509 629.099ZM402.896 625.395H402.817C402.757 625.409 402.702 625.438 402.658 625.48C402.613 625.522 402.58 625.575 402.562 625.633C402.48 625.785 402.437 625.954 402.437 626.126C402.437 626.298 402.48 626.468 402.562 626.619C403.087 627.446 404.947 628.114 407.603 628.448C406.092 627.017 403.834 625.299 402.896 625.395Z" fill="url(#paint4_linear_1032_11442)"/>
<path d="M408.508 629.099C408.442 629.127 408.368 629.127 408.302 629.099C407.109 628.066 405.122 624.775 405.678 623.534C405.821 623.232 406.155 622.93 406.918 623.073C407.197 623.12 407.463 623.225 407.698 623.381C407.934 623.537 408.134 623.741 408.286 623.98C409.399 625.57 408.795 628.75 408.763 628.94C408.756 628.988 408.736 629.032 408.705 629.069C408.674 629.105 408.634 629.133 408.588 629.147L408.508 629.099ZM406.489 623.534C406.428 623.535 406.368 623.551 406.315 623.581C406.262 623.612 406.218 623.656 406.187 623.709C405.837 624.457 407.125 626.889 408.286 628.225C408.552 626.879 408.391 625.484 407.825 624.234C407.591 623.889 407.232 623.649 406.823 623.566C406.713 623.543 406.601 623.532 406.489 623.534Z" fill="url(#paint5_linear_1032_11442)"/>
<path d="M550.99 280.476C551.912 281.398 552.58 282.066 553.279 282.845C553.979 283.624 554.662 284.435 555.33 285.167C556.666 286.757 557.97 288.347 559.226 289.937C561.736 293.177 564.066 296.553 566.206 300.049C568.379 303.602 570.317 307.294 572.009 311.099C573.762 315.004 575.156 319.059 576.175 323.215L576.557 324.805L576.922 326.665C577.081 327.89 577.24 329.114 577.288 330.307C577.394 332.615 577.314 334.928 577.05 337.223C576.541 341.48 575.577 345.67 574.172 349.72C571.488 357.417 567.742 364.701 563.042 371.36L555.092 367.02L556.809 361.9C557.381 360.167 557.858 358.402 558.399 356.669C559.363 353.239 560.153 349.763 560.768 346.254C561.365 342.965 561.668 339.628 561.674 336.285C561.673 334.782 561.546 333.282 561.293 331.801C561.192 331.121 561.054 330.447 560.879 329.782L560.609 328.86L560.227 327.731C557.918 321.351 554.814 315.288 550.99 309.684C549.05 306.79 546.967 303.944 544.789 301.178C543.729 299.779 542.616 298.411 541.45 297.076L539.86 295.104L538.27 293.307L550.99 280.476Z" fill="#FFB573"/>
<path d="M533.196 297.823C536.933 308.365 541.29 316.378 547.427 322.277L570.434 300.351C549.399 259.281 527.488 281.748 533.196 297.823Z" fill="#263238"/>
<path d="M556.634 365.128L547.65 373.332L561.738 379.31C561.738 379.31 567.843 370.629 563.598 366.877L556.634 365.128Z" fill="#FFB573"/>
<path d="M545.918 383.19L557.795 387.578L561.738 379.31L547.651 373.332L545.918 383.19Z" fill="#FFB573"/>
<path d="M333.032 150.796L239.842 173.692L233.737 160.717C233.482 160.169 233.044 159.727 232.499 159.466C231.953 159.205 231.334 159.141 230.748 159.286L173.031 173.469C172.444 173.615 171.926 173.959 171.564 174.443C171.202 174.927 171.018 175.52 171.043 176.124L171.647 190.434L134.409 199.593C133.369 199.852 132.474 200.513 131.92 201.431C131.365 202.349 131.197 203.448 131.452 204.49L162.171 329.48C162.296 329.997 162.522 330.485 162.836 330.915C163.15 331.345 163.546 331.709 164.001 331.985C164.456 332.261 164.961 332.445 165.488 332.525C166.014 332.606 166.551 332.581 167.068 332.453L365.659 283.64C366.702 283.384 367.601 282.725 368.159 281.807C368.716 280.888 368.886 279.787 368.632 278.743L337.929 153.753C337.67 152.713 337.009 151.818 336.091 151.263C335.174 150.709 334.074 150.541 333.032 150.796Z" fill="url(#paint6_linear_1032_11442)"/>
<path opacity="0.5" d="M333.032 150.796L239.842 173.692L233.737 160.717C233.482 160.169 233.044 159.727 232.499 159.466C231.953 159.205 231.334 159.141 230.748 159.286L173.031 173.469C172.444 173.615 171.926 173.959 171.564 174.443C171.202 174.927 171.018 175.52 171.043 176.124L171.647 190.434L134.409 199.593C133.369 199.852 132.474 200.513 131.92 201.431C131.365 202.349 131.197 203.448 131.452 204.49L162.171 329.48C162.296 329.997 162.522 330.485 162.836 330.915C163.15 331.345 163.546 331.709 164.001 331.985C164.456 332.261 164.961 332.445 165.488 332.525C166.014 332.606 166.551 332.581 167.068 332.453L365.659 283.64C366.702 283.384 367.601 282.725 368.159 281.807C368.716 280.888 368.886 279.787 368.632 278.743L337.929 153.753C337.67 152.713 337.009 151.818 336.091 151.263C335.174 150.709 334.074 150.541 333.032 150.796Z" fill="white"/>
<path d="M227.028 165.124L179.039 176.92L180.607 183.297L228.595 171.501L227.028 165.124Z" fill="white"/>
<path d="M335.814 192.39L235.644 217.003L229.538 204.029C229.283 203.481 228.846 203.038 228.3 202.777C227.755 202.516 227.136 202.453 226.549 202.598L168.832 216.781C168.247 216.923 167.729 217.264 167.367 217.745C167.005 218.226 166.82 218.818 166.845 219.42L167.449 233.73L137.239 241.155C136.196 241.411 135.297 242.071 134.739 242.989C134.182 243.907 134.011 245.009 134.266 246.052L164.984 371.042C165.24 372.086 165.9 372.985 166.818 373.542C167.736 374.1 168.838 374.27 169.882 374.016L368.488 325.203C369.005 325.076 369.491 324.849 369.919 324.534C370.347 324.219 370.709 323.823 370.984 323.368C371.259 322.913 371.441 322.408 371.52 321.883C371.599 321.357 371.574 320.821 371.446 320.305L340.743 195.316C340.477 194.274 339.808 193.381 338.884 192.832C337.96 192.284 336.856 192.125 335.814 192.39Z" fill="url(#paint7_linear_1032_11442)"/>
<path opacity="0.4" d="M335.814 192.39L235.644 217.003L229.538 204.029C229.283 203.481 228.846 203.038 228.3 202.777C227.755 202.516 227.136 202.453 226.549 202.598L168.832 216.781C168.247 216.923 167.729 217.264 167.367 217.745C167.005 218.226 166.82 218.818 166.845 219.42L167.449 233.73L137.239 241.155C136.196 241.411 135.297 242.071 134.739 242.989C134.182 243.907 134.011 245.009 134.266 246.052L164.984 371.042C165.24 372.086 165.9 372.985 166.818 373.542C167.736 374.1 168.838 374.27 169.882 374.016L368.488 325.203C369.005 325.076 369.491 324.849 369.919 324.534C370.347 324.219 370.709 323.823 370.984 323.368C371.259 322.913 371.441 322.408 371.52 321.883C371.599 321.357 371.574 320.821 371.446 320.305L340.743 195.316C340.477 194.274 339.808 193.381 338.884 192.832C337.96 192.284 336.856 192.125 335.814 192.39Z" fill="white"/>
<path d="M222.829 208.378L174.84 220.174L176.407 226.551L224.396 214.755L222.829 208.378Z" fill="white"/>
<path d="M338.613 233.857L231.4 260.188L225.294 247.213C225.039 246.665 224.601 246.223 224.056 245.962C223.511 245.701 222.892 245.637 222.305 245.782L164.62 259.965C164.032 260.108 163.512 260.451 163.149 260.936C162.787 261.42 162.604 262.016 162.632 262.62L163.236 276.93L140.006 282.638C138.963 282.894 138.064 283.554 137.507 284.472C136.949 285.39 136.779 286.492 137.033 287.536L167.8 412.541C168.056 413.585 168.715 414.484 169.633 415.041C170.551 415.599 171.653 415.769 172.697 415.515L371.32 366.702C371.837 366.577 372.325 366.351 372.755 366.037C373.185 365.723 373.549 365.327 373.825 364.872C374.101 364.416 374.285 363.911 374.365 363.385C374.446 362.858 374.421 362.321 374.293 361.805L343.574 236.815C343.45 236.29 343.222 235.797 342.903 235.362C342.585 234.928 342.182 234.562 341.72 234.286C341.257 234.01 340.744 233.83 340.21 233.757C339.676 233.683 339.133 233.717 338.613 233.857Z" fill="url(#paint8_linear_1032_11442)"/>
<path opacity="0.3" d="M338.613 233.857L231.4 260.188L225.294 247.213C225.039 246.665 224.601 246.223 224.056 245.962C223.511 245.701 222.892 245.637 222.305 245.782L164.62 259.965C164.032 260.108 163.512 260.451 163.149 260.936C162.787 261.42 162.604 262.016 162.632 262.62L163.236 276.93L140.006 282.638C138.963 282.894 138.064 283.554 137.507 284.472C136.949 285.39 136.779 286.492 137.033 287.536L167.8 412.541C168.056 413.585 168.715 414.484 169.633 415.041C170.551 415.599 171.653 415.769 172.697 415.515L371.32 366.702C371.837 366.577 372.325 366.351 372.755 366.037C373.185 365.723 373.549 365.327 373.825 364.872C374.101 364.416 374.285 363.911 374.365 363.385C374.446 362.858 374.421 362.321 374.293 361.805L343.574 236.815C343.45 236.29 343.222 235.797 342.903 235.362C342.585 234.928 342.182 234.562 341.72 234.286C341.257 234.01 340.744 233.83 340.21 233.757C339.676 233.683 339.133 233.717 338.613 233.857Z" fill="white"/>
<path d="M218.645 251.617L170.656 263.413L172.224 269.79L220.212 257.994L218.645 251.617Z" fill="white"/>
<path d="M418.368 278.647L300.978 284.61L297.433 270.713C297.283 270.127 296.935 269.611 296.449 269.251C295.962 268.892 295.366 268.712 294.762 268.742L235.407 271.763C234.802 271.793 234.227 272.03 233.778 272.436C233.328 272.842 233.033 273.39 232.942 273.989L230.828 288.172L214.133 289.03C213.601 289.055 213.079 289.184 212.597 289.411C212.115 289.638 211.683 289.958 211.326 290.352C210.968 290.747 210.692 291.208 210.513 291.71C210.335 292.212 210.257 292.744 210.285 293.275L216.836 421.811C216.889 422.884 217.366 423.892 218.162 424.613C218.958 425.335 220.008 425.711 221.081 425.659L425.38 415.276C426.453 415.223 427.461 414.746 428.182 413.95C428.904 413.154 429.28 412.104 429.228 411.031L422.677 282.479C422.651 281.943 422.518 281.417 422.286 280.933C422.054 280.449 421.728 280.016 421.327 279.659C420.926 279.302 420.457 279.029 419.949 278.855C419.441 278.682 418.904 278.611 418.368 278.647Z" fill="url(#paint9_linear_1032_11442)"/>
<path opacity="0.2" d="M418.368 278.647L300.978 284.61L297.433 270.713C297.283 270.127 296.935 269.611 296.449 269.251C295.962 268.892 295.366 268.712 294.762 268.742L235.407 271.763C234.802 271.793 234.227 272.03 233.778 272.436C233.328 272.842 233.033 273.39 232.942 273.989L230.828 288.172L214.133 289.03C213.601 289.055 213.079 289.184 212.597 289.411C212.115 289.638 211.683 289.958 211.326 290.352C210.968 290.747 210.692 291.208 210.513 291.71C210.335 292.212 210.257 292.744 210.285 293.275L216.836 421.811C216.889 422.884 217.366 423.892 218.162 424.613C218.958 425.335 220.008 425.711 221.081 425.659L425.38 415.276C426.453 415.223 427.461 414.746 428.182 413.95C428.904 413.154 429.28 412.104 429.228 411.031L422.677 282.479C422.651 281.943 422.518 281.417 422.286 280.933C422.054 280.449 421.728 280.016 421.327 279.659C420.926 279.302 420.457 279.029 419.949 278.855C419.441 278.682 418.904 278.611 418.368 278.647Z" fill="white"/>
<path d="M289.988 273.825L240.635 276.333L240.968 282.892L290.322 280.383L289.988 273.825Z" fill="white"/>
<path d="M344.194 316.903L223.052 346.62L216.962 333.646C216.685 333.106 216.23 332.678 215.673 332.435C215.117 332.192 214.494 332.148 213.91 332.31L156.193 346.493C155.605 346.636 155.085 346.979 154.722 347.464C154.36 347.948 154.177 348.544 154.205 349.148L154.809 363.458L145.54 365.7C144.496 365.956 143.597 366.615 143.04 367.534C142.482 368.452 142.312 369.554 142.566 370.597L173.285 495.587C173.545 496.632 174.207 497.531 175.128 498.088C176.049 498.645 177.153 498.815 178.198 498.56L376.789 449.747C377.83 449.488 378.725 448.827 379.279 447.909C379.833 446.992 380.001 445.892 379.747 444.85L349.06 319.876C348.8 318.842 348.144 317.951 347.235 317.395C346.325 316.839 345.233 316.662 344.194 316.903Z" fill="url(#paint10_linear_1032_11442)"/>
<path opacity="0.1" d="M344.194 316.903L223.052 346.62L216.962 333.646C216.685 333.106 216.23 332.678 215.673 332.435C215.117 332.192 214.494 332.148 213.91 332.31L156.193 346.493C155.605 346.636 155.085 346.979 154.722 347.464C154.36 347.948 154.177 348.544 154.205 349.148L154.809 363.458L145.54 365.7C144.496 365.956 143.597 366.615 143.04 367.534C142.482 368.452 142.312 369.554 142.566 370.597L173.285 495.587C173.545 496.632 174.207 497.531 175.128 498.088C176.049 498.645 177.153 498.815 178.198 498.56L376.789 449.747C377.83 449.488 378.725 448.827 379.279 447.909C379.833 446.992 380.001 445.892 379.747 444.85L349.06 319.876C348.8 318.842 348.144 317.951 347.235 317.395C346.325 316.839 345.233 316.662 344.194 316.903Z" fill="white"/>
<path d="M210.246 338.125L162.258 349.921L163.825 356.298L211.814 344.502L210.246 338.125Z" fill="white"/>
<path d="M346.994 358.428L148.416 407.24C146.241 407.775 144.912 409.971 145.446 412.145L176.166 537.12C176.701 539.294 178.897 540.624 181.071 540.089L379.65 491.277C381.824 490.742 383.154 488.546 382.619 486.372L351.9 361.397C351.365 359.223 349.169 357.893 346.994 358.428Z" fill="url(#paint11_linear_1032_11442)"/>
<path d="M217.28 393.938L153.918 409.504C153.546 409.586 153.16 409.585 152.788 409.502C152.417 409.419 152.067 409.257 151.764 409.025C151.462 408.794 151.213 408.499 151.036 408.162C150.859 407.824 150.757 407.452 150.738 407.072L150.118 392.364C150.09 391.76 150.273 391.164 150.635 390.68C150.998 390.195 151.518 389.852 152.106 389.709L209.823 375.526C210.412 375.383 211.032 375.448 211.579 375.708C212.126 375.969 212.567 376.41 212.828 376.957L219.092 390.265C219.256 390.622 219.338 391.011 219.332 391.403C219.326 391.795 219.233 392.181 219.06 392.533C218.886 392.885 218.636 393.194 218.328 393.437C218.02 393.68 217.662 393.851 217.28 393.938Z" fill="url(#paint12_linear_1032_11442)"/>
<path d="M206.047 381.363L158.059 393.159L159.626 399.536L207.615 387.74L206.047 381.363Z" fill="white"/>
</g>
<defs>
<linearGradient id="paint0_linear_1032_11442" x1="459.055" y1="368.88" x2="459.055" y2="617.651" gradientUnits="userSpaceOnUse">
<stop stop-color="#236FDA"/>
<stop offset="1" stop-color="#2A7FF8"/>
</linearGradient>
<linearGradient id="paint1_linear_1032_11442" x1="506.693" y1="373.3" x2="506.693" y2="633.376" gradientUnits="userSpaceOnUse">
<stop stop-color="#236FDA"/>
<stop offset="1" stop-color="#2A7FF8"/>
</linearGradient>
<linearGradient id="paint2_linear_1032_11442" x1="504.16" y1="647.262" x2="504.16" y2="650.321" gradientUnits="userSpaceOnUse">
<stop stop-color="#236FDA"/>
<stop offset="1" stop-color="#2A7FF8"/>
</linearGradient>
<linearGradient id="paint3_linear_1032_11442" x1="505.379" y1="644.475" x2="505.379" y2="649.928" gradientUnits="userSpaceOnUse">
<stop stop-color="#236FDA"/>
<stop offset="1" stop-color="#2A7FF8"/>
</linearGradient>
<linearGradient id="paint4_linear_1032_11442" x1="405.317" y1="624.831" x2="405.317" y2="629.099" gradientUnits="userSpaceOnUse">
<stop stop-color="#236FDA"/>
<stop offset="1" stop-color="#2A7FF8"/>
</linearGradient>
<linearGradient id="paint5_linear_1032_11442" x1="407.268" y1="623.037" x2="407.268" y2="629.147" gradientUnits="userSpaceOnUse">
<stop stop-color="#236FDA"/>
<stop offset="1" stop-color="#2A7FF8"/>
</linearGradient>
<linearGradient id="paint6_linear_1032_11442" x1="161.012" y1="187.058" x2="354.432" y2="273.615" gradientUnits="userSpaceOnUse">
<stop stop-color="#FF403E"/>
<stop offset="1" stop-color="#FF8145"/>
</linearGradient>
<linearGradient id="paint7_linear_1032_11442" x1="163.827" y1="228.638" x2="357.24" y2="315.205" gradientUnits="userSpaceOnUse">
<stop stop-color="#FF403E"/>
<stop offset="1" stop-color="#FF8145"/>
</linearGradient>
<linearGradient id="paint8_linear_1032_11442" x1="166.605" y1="270.101" x2="360.075" y2="356.702" gradientUnits="userSpaceOnUse">
<stop stop-color="#FF403E"/>
<stop offset="1" stop-color="#FF8145"/>
</linearGradient>
<linearGradient id="paint9_linear_1032_11442" x1="237.648" y1="300.124" x2="411.881" y2="383.473" gradientUnits="userSpaceOnUse">
<stop stop-color="#FF403E"/>
<stop offset="1" stop-color="#FF8145"/>
</linearGradient>
<linearGradient id="paint10_linear_1032_11442" x1="172.128" y1="353.174" x2="365.542" y2="439.735" gradientUnits="userSpaceOnUse">
<stop stop-color="#FF403E"/>
<stop offset="1" stop-color="#FF8145"/>
</linearGradient>
<linearGradient id="paint11_linear_1032_11442" x1="176.816" y1="428.434" x2="354.652" y2="473.564" gradientUnits="userSpaceOnUse">
<stop stop-color="#FF403E"/>
<stop offset="1" stop-color="#FF8145"/>
</linearGradient>
<linearGradient id="paint12_linear_1032_11442" x1="158.767" y1="382.274" x2="204.378" y2="414.005" gradientUnits="userSpaceOnUse">
<stop stop-color="#FF403E"/>
<stop offset="1" stop-color="#FF8145"/>
</linearGradient>
<clipPath id="clip0_1032_11442">
<rect width="772" height="795" fill="white"/>
</clipPath>
</defs>
</svg>
