<svg width="746" height="612" viewBox="0 0 746 612" fill="none" xmlns="http://www.w3.org/2000/svg">
<path d="M671.251 522.547H621.836V522.92H671.251V522.547Z" fill="#EBEBEB"/>
<path d="M494.18 526.605H481.215V526.978H494.18V526.605Z" fill="#EBEBEB"/>
<path d="M620.344 508.701H591.713V509.074H620.344V508.701Z" fill="#EBEBEB"/>
<path d="M142.709 511.209H78.2695V511.582H142.709V511.209Z" fill="#EBEBEB"/>
<path d="M165.448 511.209H156.004V511.582H165.448V511.209Z" fill="#EBEBEB"/>
<path d="M335.923 517.504H196.152V517.877H335.923V517.504Z" fill="#EBEBEB"/>
<path d="M353.604 431.998H65.5142C63.2573 431.994 61.0942 431.095 59.4997 429.498C57.9053 427.9 57.0098 425.736 57.0098 423.479V18.5053C57.0294 16.2613 57.9336 14.1158 59.5259 12.5346C61.1183 10.9534 63.2702 10.0644 65.5142 10.0605H353.604C355.864 10.0605 358.031 10.9581 359.629 12.5558C361.226 14.1535 362.124 16.3204 362.124 18.5799V423.479C362.124 425.738 361.226 427.905 359.629 429.503C358.031 431.101 355.864 431.998 353.604 431.998ZM65.5142 10.3589C63.3562 10.3629 61.288 11.2229 59.7635 12.7502C58.239 14.2775 57.3828 16.3473 57.3828 18.5053V423.479C57.3828 425.637 58.239 427.707 59.7635 429.234C61.288 430.761 63.3562 431.621 65.5142 431.625H353.604C355.764 431.621 357.834 430.762 359.36 429.235C360.887 427.708 361.747 425.638 361.751 423.479V18.5053C361.747 16.3459 360.887 14.2762 359.36 12.7493C357.834 11.2224 355.764 10.3629 353.604 10.3589H65.5142Z" fill="#EBEBEB"/>
<path d="M676.339 431.998H388.234C385.976 431.994 383.811 431.095 382.214 429.499C380.618 427.902 379.719 425.737 379.715 423.479V18.5053C379.738 16.26 380.646 14.1144 382.241 12.5337C383.835 10.9529 385.989 10.0643 388.234 10.0605H676.339C678.581 10.0683 680.729 10.9591 682.318 12.5398C683.907 14.1206 684.809 16.2639 684.829 18.5053V423.479C684.829 425.733 683.935 427.896 682.344 429.492C680.753 431.089 678.594 431.99 676.339 431.998ZM388.234 10.3589C386.075 10.3629 384.005 11.2224 382.478 12.7493C380.951 14.2762 380.092 16.3459 380.088 18.5053V423.479C380.092 425.638 380.951 427.708 382.478 429.235C384.005 430.762 386.075 431.621 388.234 431.625H676.339C678.499 431.621 680.568 430.762 682.095 429.235C683.622 427.708 684.482 425.638 684.486 423.479V18.5053C684.482 16.3459 683.622 14.2762 682.095 12.7493C680.568 11.2224 678.499 10.3629 676.339 10.3589H388.234Z" fill="#EBEBEB"/>
<path d="M746 498.541H0V498.914H746V498.541Z" fill="#EBEBEB"/>
<path d="M616.285 344.567L622.805 349.342C622.85 349.39 622.907 349.426 622.969 349.446L629.31 344.134C649.02 327.021 671.4 308.147 653.809 292.75C641.589 282.052 627.415 292.019 620.269 298.494C612.704 292.526 596.785 275.488 583.387 296.167C572.211 313.399 595.502 328.737 616.285 344.567Z" fill="#EBEBEB"/>
<path opacity="0.5" d="M652.84 299.359C652.327 299.387 651.845 299.613 651.497 299.99C651.149 300.367 650.962 300.865 650.975 301.378C650.989 301.891 651.202 302.379 651.57 302.737C651.938 303.095 652.431 303.295 652.944 303.295C653.457 303.295 653.95 303.095 654.318 302.737C654.686 302.379 654.899 301.891 654.913 301.378C654.926 300.865 654.739 300.367 654.391 299.99C654.043 299.613 653.561 299.387 653.049 299.359H652.84Z" fill="white"/>
<path opacity="0.5" d="M645.096 322.619C650.542 319.083 645.096 306.714 651.899 305.67C656.927 307.729 651.825 318.218 645.096 322.619Z" fill="white"/>
<path d="M156.432 334.455L120.349 349.608C112.129 353.06 108.263 362.522 111.715 370.743L112.755 373.219C116.207 381.439 125.67 385.304 133.89 381.852L169.973 366.699C178.193 363.247 182.058 353.785 178.606 345.565L177.566 343.088C174.114 334.868 164.652 331.003 156.432 334.455Z" fill="#EBEBEB"/>
<path d="M127.895 363.098L125.179 364.247L124.508 362.65L131.968 359.547L132.639 361.143L129.924 362.277L132.788 369.17L130.819 369.991L127.895 363.098Z" fill="white"/>
<path d="M143.74 356.876L144.113 364.336L142.292 365.097L139.129 361.665L139.308 366.35L137.488 367.111L132.4 361.576L134.191 360.83L137.578 364.605L137.264 359.576L138.861 358.905L142.263 362.665L142.009 357.577L143.74 356.876Z" fill="white"/>
<path d="M152.379 357.697L147.455 359.771C147.729 360.133 148.123 360.384 148.567 360.48C149.01 360.576 149.473 360.51 149.872 360.293C150.179 360.179 150.459 360.005 150.695 359.779C150.931 359.553 151.118 359.281 151.245 358.98L152.737 359.651C152.426 360.351 151.928 360.951 151.297 361.386C150.666 361.82 149.928 362.071 149.163 362.111C148.398 362.151 147.638 361.979 146.965 361.613C146.292 361.247 145.734 360.703 145.351 360.039C145.157 359.588 145.057 359.102 145.057 358.611C145.057 358.12 145.157 357.634 145.351 357.183C145.545 356.732 145.829 356.325 146.186 355.988C146.542 355.65 146.964 355.389 147.425 355.22C147.865 355.007 148.345 354.889 148.834 354.873C149.323 354.857 149.809 354.944 150.262 355.128C150.715 355.313 151.124 355.59 151.463 355.943C151.802 356.295 152.063 356.715 152.23 357.174C152.295 357.344 152.344 357.519 152.379 357.697ZM146.963 358.681L150.171 357.324C149.951 356.963 149.609 356.693 149.207 356.564C148.805 356.434 148.37 356.454 147.981 356.618C147.592 356.783 147.275 357.082 147.088 357.461C146.901 357.839 146.857 358.273 146.963 358.681Z" fill="white"/>
<path d="M160.031 354.503L155.167 356.577C155.441 356.939 155.835 357.191 156.279 357.287C156.723 357.383 157.186 357.316 157.584 357.099C157.892 356.989 158.173 356.814 158.41 356.588C158.646 356.362 158.833 356.089 158.957 355.786L160.449 356.443C160.145 357.148 159.65 357.753 159.02 358.192C158.391 358.63 157.651 358.884 156.884 358.924C156.118 358.965 155.355 358.79 154.683 358.42C154.011 358.05 153.455 357.5 153.079 356.831C152.882 356.381 152.78 355.896 152.779 355.405C152.778 354.915 152.878 354.429 153.073 353.978C153.267 353.528 153.552 353.122 153.91 352.786C154.268 352.451 154.691 352.192 155.153 352.027C155.593 351.814 156.073 351.695 156.561 351.68C157.05 351.664 157.537 351.751 157.989 351.935C158.442 352.119 158.851 352.397 159.19 352.749C159.529 353.102 159.79 353.521 159.957 353.981C159.912 354.115 159.972 354.339 160.031 354.503ZM154.615 355.473L157.823 354.13C157.613 353.767 157.274 353.495 156.874 353.369C156.474 353.242 156.041 353.269 155.66 353.444C155.261 353.587 154.931 353.876 154.737 354.252C154.543 354.629 154.5 355.066 154.615 355.473Z" fill="white"/>
<path d="M166.552 354.608C166.206 355.087 165.729 355.455 165.179 355.668C164.875 355.845 164.535 355.952 164.183 355.979C163.832 356.007 163.479 355.955 163.151 355.828C162.822 355.7 162.527 355.5 162.287 355.242C162.046 354.985 161.867 354.676 161.763 354.34L160.644 351.669L159.629 352.087L159.017 350.595L160.032 350.162L159.36 348.581L161.255 347.79L161.927 349.372L163.538 348.685L164.15 350.177L162.538 350.864L163.643 353.504C163.673 353.625 163.731 353.736 163.811 353.831C163.891 353.926 163.992 354.001 164.105 354.051C164.219 354.102 164.342 354.126 164.466 354.121C164.59 354.117 164.712 354.085 164.821 354.027C165.089 353.911 165.318 353.719 165.478 353.475L166.552 354.608Z" fill="white"/>
<path d="M174.623 315.134L75.7328 302.606C72.5364 302.201 69.6171 304.464 69.2121 307.661L66.5363 328.783C66.1314 331.979 68.3943 334.898 71.5906 335.303L170.481 347.831C173.677 348.236 176.596 345.973 177.001 342.777L179.677 321.655C180.082 318.458 177.819 315.539 174.623 315.134Z" fill="#E6E6E6"/>
<path d="M100.695 318.442L100.337 321.247L105.261 321.874L105.007 323.843L100.099 323.217L99.6063 327.096L97.1445 326.782L98.4873 316.145L106.529 317.174L106.276 319.143L100.695 318.442Z" fill="white"/>
<path d="M106.365 323.798C106.431 322.912 106.759 322.065 107.309 321.366C107.858 320.667 108.603 320.147 109.449 319.873C110.294 319.599 111.202 319.583 112.057 319.827C112.912 320.071 113.675 320.565 114.248 321.244C114.822 321.923 115.18 322.758 115.277 323.641C115.375 324.525 115.207 325.418 114.795 326.206C114.383 326.993 113.745 327.641 112.964 328.065C112.183 328.489 111.293 328.671 110.408 328.587C109.819 328.563 109.242 328.417 108.712 328.158C108.183 327.899 107.713 327.532 107.333 327.082C106.953 326.632 106.671 326.107 106.504 325.542C106.337 324.977 106.29 324.383 106.365 323.798ZM112.944 324.634C113.009 324.349 113.013 324.054 112.956 323.768C112.899 323.481 112.782 323.21 112.613 322.972C112.444 322.734 112.227 322.535 111.975 322.387C111.724 322.238 111.444 322.145 111.154 322.112C110.609 322.127 110.088 322.337 109.684 322.703C109.28 323.068 109.021 323.567 108.952 324.107C108.884 324.648 109.011 325.195 109.311 325.65C109.611 326.105 110.063 326.438 110.587 326.588C110.872 326.628 111.163 326.608 111.44 326.529C111.717 326.45 111.975 326.315 112.197 326.131C112.418 325.947 112.599 325.719 112.728 325.461C112.857 325.203 112.93 324.921 112.944 324.634Z" fill="white"/>
<path d="M117.868 317.949L120.226 318.248L118.734 329.527L116.361 329.229L117.868 317.949Z" fill="white"/>
<path d="M122.344 318.531L124.716 318.83L123.224 330.109L120.852 329.811L122.344 318.531Z" fill="white"/>
<path d="M125.447 326.215C125.515 325.326 125.847 324.477 126.4 323.778C126.954 323.079 127.704 322.561 128.554 322.291C129.404 322.02 130.315 322.01 131.171 322.261C132.026 322.512 132.788 323.013 133.357 323.7C133.926 324.387 134.277 325.228 134.364 326.115C134.452 327.003 134.273 327.896 133.849 328.681C133.426 329.466 132.778 330.107 131.988 330.521C131.198 330.935 130.302 331.103 129.416 331.005C128.833 330.973 128.262 330.821 127.741 330.558C127.219 330.295 126.757 329.927 126.385 329.477C126.012 329.028 125.736 328.506 125.575 327.944C125.414 327.383 125.37 326.794 125.447 326.215ZM132.027 327.051C132.047 326.639 131.947 326.23 131.738 325.874C131.529 325.518 131.221 325.232 130.851 325.048C130.481 324.865 130.066 324.794 129.657 324.844C129.247 324.893 128.861 325.061 128.545 325.327C128.23 325.593 127.999 325.945 127.881 326.34C127.763 326.735 127.762 327.157 127.88 327.552C127.998 327.947 128.229 328.3 128.544 328.566C128.859 328.832 129.245 329 129.655 329.05C129.945 329.092 130.24 329.073 130.522 328.992C130.804 328.912 131.066 328.773 131.29 328.584C131.514 328.395 131.696 328.161 131.823 327.896C131.95 327.632 132.019 327.344 132.027 327.051Z" fill="white"/>
<path d="M149.425 325.112L145.426 332.9L143.143 332.616L141.95 327.305L139.398 332.139L137.13 331.855L135.221 323.381L137.444 323.664L138.757 329.349L141.457 324.067L143.457 324.321L144.71 330.11L147.395 324.828L149.425 325.112Z" fill="white"/>
<path d="M189.844 308.942L101.164 241.581L81.2193 267.838L169.9 335.199L189.844 308.942Z" fill="#E0E0E0"/>
<path d="M96.6211 263.551L98.4264 262.581C98.8337 263.766 99.581 264.804 100.575 265.565C101.739 266.446 102.514 266.416 102.902 265.894C104.126 264.297 98.322 261.627 100.739 258.434C101.843 256.942 103.932 256.658 106.349 258.434C107.401 259.193 108.227 260.224 108.736 261.418L106.99 262.447C106.59 261.484 105.954 260.637 105.14 259.985C103.962 259.105 103.186 259.195 102.768 259.732C101.575 261.298 107.363 263.984 104.976 267.192C103.902 268.684 101.798 268.937 99.3514 267.087C98.1087 266.208 97.1577 264.976 96.6211 263.551Z" fill="white"/>
<path d="M107.215 266.998L110.84 262.224L112.824 263.716L109.244 268.43C108.005 270.042 108.214 271.25 109.408 272.16C110.601 273.07 111.81 272.936 113.048 271.31L116.629 266.61L118.569 268.102L114.883 272.877C114.497 273.384 114.015 273.81 113.464 274.132C112.914 274.453 112.305 274.662 111.673 274.748C111.041 274.834 110.399 274.795 109.782 274.632C109.166 274.47 108.587 274.188 108.08 273.802C107.572 273.416 107.146 272.933 106.825 272.383C106.504 271.832 106.294 271.223 106.208 270.591C106.122 269.96 106.162 269.317 106.324 268.701C106.487 268.084 106.769 267.506 107.155 266.998H107.215Z" fill="white"/>
<path d="M123.628 281.724C122.509 283.216 120.644 283.216 118.451 281.456L113.975 278.099L120.465 269.564L124.627 272.742C126.761 274.354 127.179 276.085 126.119 277.412C125.83 277.806 125.436 278.109 124.982 278.289C124.528 278.468 124.033 278.516 123.553 278.427C123.938 278.887 124.155 279.463 124.169 280.063C124.182 280.662 123.991 281.248 123.628 281.724ZM121.345 272.548L119.853 274.563L121.823 276.055C122.777 276.786 123.568 276.845 124.075 276.174C124.583 275.503 124.314 274.772 123.344 274.04L121.345 272.548ZM121.808 280.008C122.345 279.277 122.061 278.516 121.032 277.756L118.734 275.995L117.123 278.114L119.435 279.859C120.45 280.635 121.241 280.74 121.808 280.008Z" fill="white"/>
<path d="M123.328 283.828L125.119 282.858C125.523 284.044 126.271 285.082 127.267 285.842C128.431 286.737 129.207 286.707 129.609 286.17C130.818 284.574 125.029 281.903 127.431 278.71C128.535 277.218 130.624 276.935 133.041 278.71C134.098 279.465 134.924 280.498 135.428 281.694L133.683 282.738C133.287 281.769 132.65 280.916 131.833 280.262C130.654 279.381 129.878 279.471 129.46 280.008C128.267 281.59 134.056 284.275 131.683 287.468C130.594 288.885 128.49 289.214 126.044 287.349C124.802 286.478 123.854 285.25 123.328 283.828Z" fill="white"/>
<path d="M133.833 286.409C134.284 285.806 134.853 285.302 135.506 284.927C136.159 284.553 136.882 284.316 137.631 284.233C138.379 284.149 139.136 284.219 139.856 284.439C140.576 284.66 141.243 285.025 141.816 285.514C142.498 285.992 143.066 286.616 143.476 287.342C143.886 288.067 144.13 288.875 144.188 289.706L142.024 289.9C142.001 289.387 141.865 288.886 141.625 288.432C141.385 287.978 141.048 287.582 140.637 287.274C140.28 286.98 139.868 286.76 139.424 286.629C138.981 286.497 138.515 286.457 138.056 286.51C137.596 286.563 137.152 286.709 136.751 286.938C136.349 287.167 135.997 287.475 135.718 287.843C135.438 288.212 135.235 288.633 135.122 289.081C135.01 289.53 134.989 289.997 135.061 290.454C135.133 290.911 135.296 291.348 135.542 291.74C135.787 292.132 136.11 292.471 136.489 292.735C136.902 293.067 137.388 293.296 137.906 293.405C138.425 293.514 138.961 293.499 139.473 293.362L139.861 295.495C138.728 295.673 137.568 295.52 136.519 295.056C135.471 294.591 134.578 293.834 133.949 292.876C133.319 291.917 132.979 290.797 132.969 289.65C132.959 288.504 133.28 287.378 133.893 286.409H133.833Z" fill="white"/>
<path d="M145.5 302L145.65 298.374L145.56 298.3L143.844 297.002L142.039 299.374L140.055 297.882L146.545 289.348L150.23 292.168C152.513 293.898 153.05 296.166 151.588 298.136C151.176 298.732 150.587 299.183 149.904 299.427C149.222 299.671 148.48 299.694 147.783 299.493L147.619 303.686L145.5 302ZM148.902 293.674L147.291 292.451L145.038 295.435L146.649 296.658C147.858 297.583 148.887 297.479 149.633 296.554C150.379 295.629 150.111 294.585 148.902 293.674Z" fill="white"/>
<path d="M155.496 296.137L157.466 297.629L150.99 306.163L149.006 304.671L155.496 296.137Z" fill="white"/>
<path d="M162.627 311.325C161.493 312.817 159.643 312.817 157.435 311.071L152.959 307.714L159.449 299.18L163.612 302.343C165.745 303.969 166.178 305.685 165.104 307.013C164.817 307.409 164.423 307.715 163.969 307.898C163.515 308.08 163.019 308.13 162.538 308.042C162.923 308.498 163.142 309.071 163.159 309.668C163.175 310.264 162.988 310.849 162.627 311.325ZM160.344 302.164L158.852 304.163L160.822 305.655C161.777 306.386 162.567 306.446 163.075 305.774C163.582 305.103 163.313 304.387 162.344 303.641L160.344 302.164ZM160.792 309.624C161.344 308.908 161.046 308.132 160.016 307.371L157.718 305.625L156.122 307.729L158.42 309.474C159.434 310.25 160.225 310.34 160.777 309.609L160.792 309.624Z" fill="white"/>
<path d="M170.088 318.233L168.879 319.814L162.27 314.801L168.76 306.252L175.205 311.161L173.997 312.742L169.521 309.34L168.118 311.19L172.087 314.174L170.908 315.666L166.954 312.682L165.462 314.652L170.088 318.233Z" fill="white"/>
<path d="M307.859 113.382C306.777 113.382 305.74 112.953 304.973 112.19C304.207 111.426 303.775 110.39 303.771 109.309V99.2675H301.801C300.414 99.2635 299.084 98.7105 298.103 97.7293C297.121 96.748 296.568 95.4183 296.564 94.0306V46.4805C296.572 45.0994 297.125 43.7772 298.104 42.802C299.082 41.8267 300.405 41.2774 301.786 41.2734H375.984C377.366 41.2734 378.692 41.8216 379.671 42.7977C380.65 43.7737 381.202 45.0982 381.206 46.4805V94.0306C381.202 95.4183 380.649 96.748 379.667 97.7293C378.686 98.7105 377.356 99.2635 375.969 99.2675H327.494L310.336 112.561C309.624 113.103 308.753 113.392 307.859 113.382ZM301.786 42.7654C300.801 42.7693 299.857 43.1615 299.158 43.857C298.46 44.5524 298.064 45.4951 298.056 46.4805V94.0306C298.06 95.0226 298.456 95.9728 299.158 96.6743C299.859 97.3757 300.809 97.7716 301.801 97.7755H305.263V109.309C305.267 109.995 305.542 110.651 306.028 111.135C306.515 111.618 307.173 111.89 307.859 111.89C308.399 111.878 308.921 111.695 309.351 111.368L326.942 97.7755H375.984C376.976 97.7716 377.926 97.3757 378.627 96.6743C379.329 95.9728 379.725 95.0226 379.729 94.0306V46.4805C379.725 45.4939 379.33 44.5489 378.631 43.8527C377.932 43.1564 376.985 42.7654 375.999 42.7654H301.786Z" fill="#E0E0E0"/>
<path d="M334.895 35.3203H325.6V36.4542H334.895V35.3203Z" fill="#E0E0E0"/>
<path d="M291.432 48.7185H290.283V43.1086C290.291 41.0402 291.118 39.0593 292.584 37.5996C294.049 36.1399 296.033 35.3203 298.101 35.3203H318.825V36.4542H298.101C296.335 36.4542 294.641 37.1548 293.391 38.4023C292.14 39.6498 291.436 41.3423 291.432 43.1086V48.7185Z" fill="#E0E0E0"/>
<path d="M358.975 63.4446H318.214C317.697 63.3407 317.232 63.061 316.898 62.653C316.563 62.245 316.381 61.7339 316.381 61.2066C316.381 60.6792 316.563 60.1682 316.898 59.7602C317.232 59.3522 317.697 59.0725 318.214 58.9686H358.975C359.307 58.902 359.648 58.9098 359.976 58.9914C360.304 59.073 360.61 59.2264 360.871 59.4405C361.133 59.6547 361.344 59.9241 361.488 60.2295C361.633 60.535 361.708 60.8687 361.708 61.2066C361.708 61.5445 361.633 61.8782 361.488 62.1836C361.344 62.489 361.133 62.7585 360.871 62.9726C360.61 63.1867 360.304 63.3401 359.976 63.4218C359.648 63.5034 359.307 63.5112 358.975 63.4446Z" fill="#E0E0E0"/>
<path d="M358.975 72.4407H318.214C317.697 72.3368 317.232 72.0571 316.898 71.6491C316.563 71.2411 316.381 70.73 316.381 70.2027C316.381 69.6753 316.563 69.1643 316.898 68.7563C317.232 68.3483 317.697 68.0686 318.214 67.9647H358.975C359.307 67.8981 359.648 67.9059 359.976 67.9875C360.304 68.0691 360.61 68.2225 360.871 68.4366C361.133 68.6507 361.344 68.9202 361.488 69.2256C361.633 69.531 361.708 69.8648 361.708 70.2027C361.708 70.5406 361.633 70.8743 361.488 71.1797C361.344 71.4851 361.133 71.7546 360.871 71.9687C360.61 72.1828 360.304 72.3363 359.976 72.4179C359.648 72.4995 359.307 72.5073 358.975 72.4407Z" fill="#E0E0E0"/>
<path d="M358.975 81.4378H318.214C317.697 81.3338 317.232 81.0541 316.898 80.6462C316.563 80.2382 316.381 79.7271 316.381 79.1998C316.381 78.6724 316.563 78.1613 316.898 77.7534C317.232 77.3454 317.697 77.0657 318.214 76.9618H358.975C359.307 76.8952 359.648 76.903 359.976 76.9846C360.304 77.0662 360.61 77.2196 360.871 77.4337C361.133 77.6478 361.344 77.9173 361.488 78.2227C361.633 78.5281 361.708 78.8618 361.708 79.1998C361.708 79.5377 361.633 79.8714 361.488 80.1768C361.344 80.4822 361.133 80.7517 360.871 80.9658C360.61 81.1799 360.304 81.3333 359.976 81.4149C359.648 81.4966 359.307 81.5043 358.975 81.4378Z" fill="#E0E0E0"/>
<path d="M385.01 126.318H425.771C426.103 126.384 426.445 126.376 426.773 126.295C427.1 126.213 427.406 126.06 427.668 125.846C427.929 125.632 428.14 125.362 428.284 125.057C428.429 124.751 428.504 124.418 428.504 124.08C428.504 123.742 428.429 123.408 428.284 123.103C428.14 122.797 427.929 122.528 427.668 122.314C427.406 122.099 427.1 121.946 426.773 121.864C426.445 121.783 426.103 121.775 425.771 121.842H385.01C384.679 121.775 384.337 121.783 384.009 121.864C383.681 121.946 383.375 122.099 383.114 122.314C382.852 122.528 382.642 122.797 382.497 123.103C382.352 123.408 382.277 123.742 382.277 124.08C382.277 124.418 382.352 124.751 382.497 125.057C382.642 125.362 382.852 125.632 383.114 125.846C383.375 126.06 383.681 126.213 384.009 126.295C384.337 126.376 384.679 126.384 385.01 126.318Z" fill="#E0E0E0"/>
<path d="M385.01 135.388H425.771C426.103 135.455 426.445 135.447 426.773 135.365C427.1 135.284 427.406 135.13 427.668 134.916C427.929 134.702 428.14 134.432 428.284 134.127C428.429 133.822 428.504 133.488 428.504 133.15C428.504 132.812 428.429 132.478 428.284 132.173C428.14 131.868 427.929 131.598 427.668 131.384C427.406 131.17 427.1 131.016 426.773 130.935C426.445 130.853 426.103 130.845 425.771 130.912H385.01C384.679 130.845 384.337 130.853 384.009 130.935C383.681 131.016 383.375 131.17 383.114 131.384C382.852 131.598 382.642 131.868 382.497 132.173C382.352 132.478 382.277 132.812 382.277 133.15C382.277 133.488 382.352 133.822 382.497 134.127C382.642 134.432 382.852 134.702 383.114 134.916C383.375 135.13 383.681 135.284 384.009 135.365C384.337 135.447 384.679 135.455 385.01 135.388Z" fill="#E0E0E0"/>
<path d="M385.01 144.341H425.771C426.103 144.408 426.445 144.4 426.773 144.318C427.1 144.237 427.406 144.083 427.668 143.869C427.929 143.655 428.14 143.386 428.284 143.08C428.429 142.775 428.504 142.441 428.504 142.103C428.504 141.765 428.429 141.431 428.284 141.126C428.14 140.821 427.929 140.551 427.668 140.337C427.406 140.123 427.1 139.97 426.773 139.888C426.445 139.806 426.103 139.798 425.771 139.865H385.01C384.679 139.798 384.337 139.806 384.009 139.888C383.681 139.97 383.375 140.123 383.114 140.337C382.852 140.551 382.642 140.821 382.497 141.126C382.352 141.431 382.277 141.765 382.277 142.103C382.277 142.441 382.352 142.775 382.497 143.08C382.642 143.386 382.852 143.655 383.114 143.869C383.375 144.083 383.681 144.237 384.009 144.318C384.337 144.4 384.679 144.408 385.01 144.341Z" fill="#E0E0E0"/>
<path d="M447.422 133.479C447.422 140.626 443.333 147.131 436.59 152.07V168.482C436.609 168.836 436.518 169.188 436.328 169.488C436.138 169.787 435.859 170.02 435.53 170.153C435.201 170.287 434.839 170.313 434.493 170.23C434.148 170.147 433.838 169.959 433.606 169.69L417.85 159.992C413.638 160.859 409.349 161.294 405.049 161.29C381.669 161.29 362.721 148.832 362.721 133.464C362.721 118.097 381.669 105.639 405.049 105.639C428.428 105.639 447.422 118.112 447.422 133.479Z" stroke="#E0E0E0" stroke-miterlimit="10"/>
<path d="M542.208 107.16H535.927C534.478 107.18 533.089 107.745 532.038 108.743C530.987 109.742 530.351 111.1 530.258 112.546L528.766 141.551C528.723 142.245 528.823 142.941 529.06 143.595C529.298 144.25 529.667 144.848 530.146 145.353C530.625 145.858 531.202 146.26 531.842 146.532C532.483 146.804 533.172 146.942 533.868 146.937H540.105C541.554 146.917 542.943 146.352 543.994 145.354C545.045 144.355 545.681 142.997 545.774 141.551L547.266 112.546C547.309 111.855 547.21 111.163 546.975 110.512C546.74 109.861 546.375 109.265 545.901 108.76C545.427 108.256 544.855 107.854 544.22 107.578C543.585 107.303 542.901 107.161 542.208 107.16ZM542.373 141.476C542.339 142.005 542.106 142.502 541.722 142.868C541.337 143.233 540.829 143.439 540.299 143.446H534.017C533.763 143.448 533.51 143.398 533.276 143.299C533.042 143.199 532.83 143.053 532.655 142.868C532.48 142.683 532.345 142.464 532.259 142.224C532.172 141.985 532.136 141.73 532.152 141.476L533.644 112.472C533.675 111.94 533.905 111.439 534.29 111.071C534.675 110.703 535.186 110.494 535.718 110.487H542C542.255 110.487 542.508 110.539 542.742 110.64C542.976 110.741 543.188 110.889 543.362 111.075C543.537 111.261 543.672 111.481 543.758 111.721C543.845 111.962 543.881 112.217 543.865 112.472L542.373 141.476Z" fill="#EBEBEB"/>
<path d="M591.877 107.159H573.48L577.583 97.491C578.033 96.4592 578.203 95.327 578.076 94.2086L577.21 86.5994C577.057 85.1119 576.352 83.7361 575.233 82.7442C574.114 81.7523 572.663 81.2166 571.168 81.2431H563.857L563.245 93.0299L551.384 107.95C550.208 109.426 549.515 111.229 549.4 113.112L547.908 140.252C547.852 141.109 547.974 141.969 548.266 142.776C548.559 143.584 549.015 144.323 549.606 144.946C550.197 145.57 550.91 146.064 551.702 146.399C552.493 146.734 553.345 146.901 554.204 146.891H579.941C581.07 146.874 582.184 146.622 583.211 146.152C584.239 145.682 585.157 145.004 585.909 144.161L588.311 141.49C589.254 140.452 589.912 139.188 590.221 137.82L595.86 112.694L591.877 107.159Z" fill="#EBEBEB"/>
<g opacity="0.5">
<path d="M542.208 107.16H535.927C534.478 107.18 533.089 107.745 532.038 108.743C530.987 109.742 530.351 111.1 530.258 112.546L528.766 141.551C528.723 142.245 528.823 142.941 529.06 143.595C529.298 144.25 529.667 144.848 530.146 145.353C530.625 145.858 531.202 146.26 531.842 146.532C532.483 146.804 533.172 146.942 533.868 146.937H540.105C541.554 146.917 542.943 146.352 543.994 145.354C545.045 144.355 545.681 142.997 545.774 141.551L547.266 112.546C547.309 111.855 547.21 111.163 546.975 110.512C546.74 109.861 546.375 109.265 545.901 108.76C545.427 108.256 544.855 107.854 544.22 107.578C543.585 107.303 542.901 107.161 542.208 107.16ZM542.373 141.476C542.339 142.005 542.106 142.502 541.722 142.868C541.337 143.233 540.829 143.439 540.299 143.446H534.017C533.763 143.448 533.51 143.398 533.276 143.299C533.042 143.199 532.83 143.053 532.655 142.868C532.48 142.683 532.345 142.464 532.259 142.224C532.172 141.985 532.136 141.73 532.152 141.476L533.644 112.472C533.675 111.94 533.905 111.439 534.29 111.071C534.675 110.703 535.186 110.494 535.718 110.487H542C542.255 110.487 542.508 110.539 542.742 110.64C542.976 110.741 543.188 110.889 543.362 111.075C543.537 111.261 543.672 111.481 543.758 111.721C543.845 111.962 543.881 112.217 543.865 112.472L542.373 141.476Z" fill="#EBEBEB"/>
</g>
<path d="M185.262 92.5982L158.451 87.2718L164.315 75.291L184.442 79.2747L185.262 92.5982Z" fill="#EBEBEB"/>
<path d="M184.441 79.2744L178.07 91.1657L185.262 92.598L184.441 79.2744Z" fill="#E0E0E0"/>
<path d="M197.204 94.9832L146.157 84.8572C141.639 83.9609 137.25 86.8971 136.354 91.4152L129.351 126.714C128.455 131.233 131.391 135.622 135.91 136.518L186.956 146.644C191.474 147.54 195.863 144.604 196.76 140.086L203.762 104.787C204.658 100.269 201.722 95.8794 197.204 94.9832Z" fill="#EBEBEB"/>
<path d="M196.287 94.7695L197.751 95.0598C199.765 95.4594 201.538 96.6429 202.68 98.3499C203.822 100.057 204.239 102.148 203.839 104.162L196.605 140.632C196.205 142.646 195.022 144.42 193.315 145.562C191.608 146.703 189.517 147.12 187.503 146.721L186.039 146.431L196.287 94.7695Z" fill="#E0E0E0"/>
<path d="M181.845 116.306C181.128 119.918 179.356 123.237 176.753 125.842C174.15 128.448 170.833 130.223 167.221 130.943C163.609 131.663 159.865 131.295 156.462 129.887C153.059 128.479 150.15 126.094 148.103 123.032C146.055 119.971 144.962 116.371 144.961 112.688C144.959 109.005 146.05 105.405 148.095 102.342C150.141 99.279 153.048 96.8915 156.45 95.4811C159.852 94.0707 163.596 93.7008 167.208 94.4183C172.052 95.3803 176.314 98.2266 179.059 102.331C181.804 106.436 182.806 111.463 181.845 116.306Z" fill="#FAFAFA"/>
<path d="M179.413 115.574C178.787 118.745 177.235 121.659 174.953 123.948C172.67 126.237 169.76 127.797 166.591 128.431C163.422 129.066 160.136 128.746 157.149 127.512C154.161 126.279 151.607 124.186 149.809 121.501C148.01 118.815 147.049 115.656 147.047 112.424C147.044 109.192 148.001 106.032 149.795 103.343C151.589 100.655 154.14 98.559 157.125 97.3208C160.111 96.0825 163.396 95.7576 166.567 96.3871C170.803 97.2485 174.529 99.7469 176.934 103.34C179.34 106.932 180.23 111.329 179.413 115.574Z" fill="#E0E0E0"/>
<path d="M154.079 93.9111L166.567 96.3879L160.211 128.421L144.172 125.348C144.172 125.348 157.122 98.9392 154.079 93.9111Z" fill="#E0E0E0"/>
<path d="M156.846 83.6086L148.373 81.9277L147.633 85.6596L156.106 87.3405L156.846 83.6086Z" fill="#EBEBEB"/>
<path d="M189.485 103.161C189.4 103.586 189.191 103.976 188.885 104.283C188.579 104.589 188.188 104.798 187.763 104.883C187.338 104.968 186.897 104.925 186.497 104.76C186.096 104.594 185.754 104.314 185.512 103.954C185.271 103.594 185.142 103.17 185.141 102.737C185.14 102.303 185.267 101.88 185.507 101.519C185.747 101.158 186.088 100.876 186.488 100.709C186.888 100.542 187.329 100.497 187.754 100.58C188.037 100.635 188.307 100.746 188.548 100.906C188.788 101.065 188.995 101.271 189.156 101.511C189.316 101.751 189.428 102.02 189.485 102.303C189.541 102.586 189.541 102.878 189.485 103.161Z" fill="#FAFAFA"/>
<path d="M156.66 109.875C156.008 113.164 154.609 116.258 152.569 118.918C150.529 121.578 147.903 123.732 144.896 125.214C141.89 126.696 138.582 127.465 135.23 127.462C131.877 127.46 128.571 126.685 125.566 125.198C130.349 124.869 134.891 122.974 138.489 119.807C142.088 116.639 144.544 112.375 145.478 107.673C146.411 102.97 145.771 98.0914 143.655 93.7893C141.54 89.4872 138.067 86.0012 133.772 83.8697C137.116 83.6376 140.467 84.1796 143.567 85.4533C146.667 86.7271 149.431 88.6985 151.645 91.2142C153.859 93.7299 155.464 96.7223 156.333 99.9587C157.203 103.195 157.315 106.589 156.66 109.875Z" fill="#EBEBEB"/>
<path d="M145.486 107.678C147.75 96.2649 142.502 85.6081 133.765 83.8749C125.028 82.1417 116.109 89.9884 113.845 101.401C111.582 112.814 116.829 123.47 125.567 125.204C134.304 126.937 143.222 119.09 145.486 107.678Z" fill="#FAFAFA"/>
<path d="M125.551 125.198C122.206 125.428 118.852 124.885 115.75 123.609C112.649 122.334 109.883 120.361 107.667 117.843C105.452 115.326 103.846 112.332 102.974 109.094C102.103 105.855 101.989 102.46 102.643 99.1706C103.296 95.8813 104.698 92.7867 106.74 90.127C108.783 87.4672 111.411 85.3139 114.42 83.834C117.43 82.3542 120.739 81.5876 124.093 81.5938C127.446 81.6 130.753 82.3788 133.757 83.8698C128.974 84.1989 124.433 86.0936 120.834 89.2611C117.235 92.4286 114.78 96.6928 113.846 101.395C112.912 106.097 113.553 110.976 115.668 115.279C117.784 119.581 121.257 123.067 125.551 125.198Z" fill="#E6E6E6"/>
<path d="M373.001 565.099C532.768 565.099 662.285 557.538 662.285 548.21C662.285 538.882 532.768 531.32 373.001 531.32C213.234 531.32 83.7168 538.882 83.7168 548.21C83.7168 557.538 213.234 565.099 373.001 565.099Z" fill="#F5F5F5"/>
<path d="M548.564 411.005H205.061V524.277H548.564V411.005Z" fill="#407BFF"/>
<path opacity="0.2" d="M548.564 411.02H205.061V524.277H548.564V411.02Z" fill="white"/>
<path d="M447.049 299.09H297.953V412.363H447.049V299.09Z" fill="#407BFF"/>
<path opacity="0.2" d="M447.049 299.09H297.953V412.363H447.049V299.09Z" fill="white"/>
<path d="M386.308 331.242L377.878 373.421H368.106L374.984 339.105H366.539L368.106 331.272L386.308 331.242Z" fill="#263238"/>
<path d="M463.996 257.821L469.8 263.968L510.934 236.59L557.38 251.957L597.799 222.102L600.514 226.966L611.436 208.6L590.085 208.316L592.8 213.165L556.694 244.602L510.144 229.577L463.996 257.821Z" fill="#263238"/>
<path opacity="0.2" d="M488.585 422.672L519.842 421.538C512.472 419.419 504.683 419.538 497.044 418.748C494.835 418.594 492.657 418.143 490.569 417.405C488.6 416.644 486.824 415.435 484.87 414.63C482.309 413.573 479.511 413.223 476.768 413.615C475.885 413.711 475.026 413.964 474.232 414.361C472.735 415.237 471.614 416.634 471.084 418.285C470.594 419.699 470.312 421.177 470.248 422.672C470.248 422.881 470.248 423.104 470.248 423.328C470.288 426.607 470.989 429.845 472.307 432.847C479.558 450.408 538.298 435.413 538.298 435.413C536.239 446.932 539.313 455.615 541.416 467.148L546.922 497.525L541.043 498.167L543.416 506.671H548.593V422.672H488.585Z" fill="black"/>
<path opacity="0.2" d="M548.951 514.012V523.531L548.712 523.247L547.429 516.563C547.422 516.469 547.422 516.374 547.429 516.28C547.427 515.793 547.571 515.316 547.842 514.912C548.113 514.508 548.5 514.194 548.951 514.012Z" fill="black"/>
<path d="M576.418 507L585.624 506L586.519 484.381L577.298 485.38L576.418 507Z" fill="#FF8B7B"/>
<path d="M586.564 502.12L576.12 502.001C575.948 501.984 575.776 502.036 575.642 502.145C575.508 502.254 575.422 502.411 575.403 502.583C575.396 502.607 575.396 502.633 575.403 502.658L574.807 510.864C574.806 511.297 574.974 511.713 575.275 512.025C575.575 512.336 575.985 512.519 576.418 512.535C580.029 512.535 581.55 512.326 586.101 512.057C588.921 511.878 595.62 511.431 599.44 510.714C603.259 509.998 602.424 506.238 600.752 506.238C596.769 506.164 590.667 504.851 588.085 502.762C587.66 502.39 587.127 502.165 586.564 502.12Z" fill="#263238"/>
<path opacity="0.2" d="M577.299 485.395L586.519 484.381L586.087 494.795L576.881 495.481L577.299 485.395Z" fill="black"/>
<path d="M511.756 389.953C511.756 389.953 581.88 386.491 586.52 412.616C588.797 437.172 589.241 461.863 587.848 486.485L574.838 488.992C574.838 488.992 564.692 443.665 565.737 421.389C546.415 419.27 493.807 428.64 485.601 414.242C478.902 402.5 480.155 395.205 480.155 395.205L511.756 389.953Z" fill="#263238"/>
<path d="M570.675 493.198L590.399 492.273L591.756 484.873L569.899 485.619L570.675 493.198Z" fill="#407BFF"/>
<path d="M591.563 503.3C591.708 503.148 591.811 502.961 591.861 502.756C591.911 502.552 591.906 502.338 591.846 502.136C591.822 501.999 591.762 501.871 591.673 501.764C591.584 501.656 591.469 501.574 591.339 501.525C590.205 501.047 587.579 502.823 587.296 503.017C587.269 503.03 587.246 503.048 587.228 503.072C587.21 503.095 587.197 503.122 587.191 503.151C587.185 503.178 587.184 503.207 587.189 503.235C587.193 503.262 587.204 503.289 587.219 503.313C587.234 503.336 587.254 503.357 587.278 503.373C587.301 503.388 587.328 503.399 587.355 503.404C588.16 503.613 588.986 503.733 589.817 503.763C590.436 503.828 591.057 503.663 591.563 503.3ZM591.205 501.912C591.265 501.94 591.317 501.984 591.354 502.039C591.391 502.095 591.411 502.159 591.414 502.226C591.461 502.354 591.472 502.493 591.446 502.627C591.419 502.761 591.357 502.886 591.264 502.987C590.817 503.419 589.608 503.464 587.952 503.106C589.026 502.42 590.578 501.674 591.205 501.912Z" fill="#407BFF"/>
<path d="M587.548 503.36C588.473 502.823 589.876 500.913 589.667 499.898C589.633 499.719 589.539 499.556 589.401 499.437C589.263 499.318 589.088 499.249 588.906 499.242C588.733 499.215 588.557 499.229 588.391 499.284C588.225 499.338 588.074 499.431 587.951 499.555C587.011 500.45 587.175 503.106 587.19 503.225C587.192 503.263 587.204 503.3 587.225 503.332C587.246 503.363 587.275 503.388 587.309 503.405H587.414L587.548 503.36ZM588.772 499.675C589.1 499.675 589.159 499.854 589.189 499.988C589.324 500.644 588.399 502.092 587.578 502.763C587.461 501.725 587.686 500.677 588.22 499.779C588.282 499.717 588.356 499.668 588.439 499.637C588.521 499.606 588.609 499.594 588.697 499.6L588.772 499.675Z" fill="#407BFF"/>
<path opacity="0.3" d="M557.053 405.021C557.053 405.021 571.689 400.829 574.837 409.647C577.986 418.464 574.3 461.464 569.944 471.087C565.587 480.711 557.575 406.543 557.575 406.543L557.053 405.021Z" fill="black"/>
<path d="M557.321 514.012L566.258 513.774L565.572 492.08L556.635 492.304L557.321 514.012Z" fill="#FF8B7B"/>
<path d="M566.407 511.103L556.037 511.759C555.861 511.767 555.694 511.842 555.571 511.97C555.449 512.098 555.381 512.268 555.381 512.445V520.666C555.419 521.091 555.621 521.484 555.944 521.763C556.267 522.041 556.686 522.183 557.112 522.158C560.707 521.815 562.423 521.532 566.989 521.203C571.055 521.11 575.109 520.722 579.119 520.04C582.893 519.174 581.953 515.474 580.282 515.489C575.904 515.227 571.668 513.834 567.988 511.446C567.512 511.164 566.957 511.043 566.407 511.103Z" fill="#263238"/>
<path d="M571.435 511.894C571.571 511.733 571.661 511.539 571.695 511.331C571.729 511.124 571.707 510.911 571.629 510.715C571.595 510.581 571.528 510.458 571.434 510.356C571.34 510.255 571.223 510.178 571.092 510.133C569.929 509.745 567.437 511.73 567.153 511.953C567.117 511.99 567.091 512.037 567.079 512.088C567.075 512.115 567.076 512.143 567.083 512.17C567.089 512.197 567.102 512.222 567.118 512.245C567.135 512.267 567.156 512.286 567.18 512.3C567.204 512.314 567.23 512.323 567.258 512.326C568.074 512.478 568.905 512.533 569.735 512.49C570.358 512.525 570.97 512.31 571.435 511.894ZM570.958 510.551C571.023 510.571 571.082 510.608 571.129 510.658C571.176 510.707 571.21 510.768 571.227 510.834C571.278 510.962 571.295 511.1 571.277 511.236C571.259 511.372 571.205 511.501 571.122 511.61C570.749 512.073 569.496 512.192 567.825 511.983C568.899 511.222 570.391 510.357 571.003 510.551H570.958Z" fill="#407BFF"/>
<path d="M567.512 512.311C568.392 511.7 569.645 509.641 569.362 508.701C569.314 508.522 569.207 508.366 569.057 508.257C568.908 508.148 568.726 508.094 568.541 508.104C568.367 508.084 568.191 508.106 568.027 508.168C567.864 508.23 567.718 508.331 567.601 508.462C566.736 509.417 567.124 512.058 567.124 512.177C567.129 512.214 567.145 512.249 567.169 512.278C567.192 512.306 567.223 512.328 567.258 512.341H567.348C567.376 512.348 567.405 512.349 567.433 512.343C567.461 512.338 567.488 512.327 567.512 512.311ZM568.467 508.492C568.78 508.492 568.884 508.656 568.899 508.775C569.093 509.432 568.258 510.939 567.497 511.67C567.306 510.655 567.458 509.605 567.929 508.686C567.982 508.621 568.048 508.568 568.123 508.529C568.197 508.491 568.279 508.468 568.362 508.462L568.467 508.492Z" fill="#407BFF"/>
<path opacity="0.2" d="M555.828 492.11L565.824 490.424L565.914 503.986L557.141 505.001L555.828 492.11Z" fill="black"/>
<path d="M498 392.012C498 392.012 567.244 397.174 568.124 417.376C573.227 450.2 569.377 493.468 569.377 493.468L552.786 496.929C552.786 496.929 544.267 456.421 543.044 426.641C526.094 429.491 491.226 434.743 479.276 426.268C468.488 416.525 471.472 396.488 471.472 396.488L498 392.012Z" fill="#263238"/>
<path d="M551.219 502.404L571.495 500.689L571.913 491.826L549.697 494.124L551.219 502.404Z" fill="#407BFF"/>
<path d="M502.803 331.855C503.191 333.436 503.549 334.839 503.966 336.241C504.384 337.644 504.817 339.031 505.294 340.478C506.219 343.268 507.279 346.029 508.428 348.834C510.769 354.672 513.896 360.163 517.723 365.156C518.837 366.549 520.064 367.846 521.393 369.035C522.884 370.376 524.569 371.482 526.391 372.318C529.879 373.886 533.717 374.508 537.522 374.123C540.859 373.786 544.119 372.909 547.175 371.527C548.616 370.887 550.016 370.16 551.367 369.349C552.048 368.954 552.706 368.521 553.337 368.05C553.963 367.558 554.56 367.14 555.291 366.558L551.71 360.59L549.935 361.128L548.07 361.635C546.802 361.948 545.563 362.232 544.28 362.441C541.973 362.865 539.621 362.985 537.283 362.799C535.413 362.668 533.604 362.079 532.016 361.083C531.325 360.631 530.69 360.1 530.121 359.501C529.417 358.729 528.764 357.912 528.167 357.054C526.793 355.04 525.59 352.914 524.571 350.699C523.437 348.401 522.437 345.984 521.483 343.492C520.528 341.001 519.662 338.479 518.797 335.943L517.574 332.093C517.186 330.825 516.768 329.467 516.455 328.363L502.803 331.855Z" fill="#FF8B7B"/>
<path d="M501.506 324.095C507.086 316.516 516.008 318.948 521.35 330.571C524.298 336.755 526.684 343.191 528.481 349.802L508.011 357.695C502.207 346.774 495.762 331.884 501.506 324.095Z" fill="#407BFF"/>
<path opacity="0.1" d="M501.506 324.095C507.086 316.516 516.008 318.948 521.35 330.571C524.298 336.755 526.684 343.191 528.481 349.802L508.011 357.695C502.207 346.774 495.762 331.884 501.506 324.095Z" fill="black"/>
<path opacity="0.3" d="M510.546 336.196C508.8 335.092 505.518 341.925 504.16 349.922C505.384 352.652 506.697 355.263 507.995 357.695L520.304 352.921C518.021 345.551 514.455 338.687 510.546 336.196Z" fill="black"/>
<path d="M552.636 357.516L557.112 354.905L559.021 364.976C559.021 364.976 551.562 369.766 549.309 366.065L549.458 363.454C549.542 362.297 549.868 361.171 550.416 360.148C550.963 359.125 551.72 358.228 552.636 357.516Z" fill="#FF8B7B"/>
<path d="M562.752 354.234L566.975 362.232L558.948 364.977L557.053 354.906L562.752 354.234Z" fill="#FF8B7B"/>
<path d="M501.207 317.486L490.554 316.337L477.439 317.903C475.436 318.14 473.566 319.03 472.118 320.434C470.67 321.839 469.724 323.681 469.427 325.677C468.243 335.349 467.66 345.086 467.682 354.83C467.562 365.812 469.293 381.985 471.531 396.606L515.47 389.863C514.68 351.369 517.201 339.344 517.246 329.123C517.252 327.123 516.606 325.176 515.405 323.576C514.204 321.977 512.514 320.813 510.592 320.261L501.207 317.486Z" fill="#407BFF"/>
<path d="M501.207 317.486L490.554 316.337L477.439 317.903C475.436 318.14 473.566 319.03 472.118 320.434C470.67 321.839 469.724 323.681 469.427 325.677C468.243 335.349 467.66 345.086 467.682 354.83C467.562 365.812 469.293 381.985 471.531 396.606L515.47 389.863C514.68 351.369 517.201 339.344 517.246 329.123C517.252 327.123 516.606 325.176 515.405 323.576C514.204 321.977 512.514 320.813 510.592 320.261L501.207 317.486Z" fill="#407BFF"/>
<path opacity="0.3" d="M473.56 321.887C482.318 320.067 482.512 340.06 478.976 354.801C477.946 359.068 472.873 357.457 471.158 356.412C465.503 352.996 462.832 328.631 473.56 321.887Z" fill="black"/>
<path d="M473.441 351.519C474.053 360.157 471.457 364.768 476.142 367.498C480.827 370.228 508.354 378.404 508.966 377.256C507.713 379.374 506.489 381.194 505.236 383.328C497.358 382.403 489.475 381.567 481.588 380.821C475.829 380.269 466.533 379.091 461.923 375.599C457.746 372.436 458.014 357.979 458.372 347.565C461.983 345.312 473.441 351.519 473.441 351.519Z" fill="#FF8B7B"/>
<path d="M469.979 318.486C478.931 315.502 482.587 322.678 480.229 335.196C479.067 341.949 477.289 348.581 474.918 355.01L455.82 349.639C457.536 337.375 460.863 321.5 469.979 318.486Z" fill="#407BFF"/>
<path d="M483.139 318.009C482.957 319.926 483.488 321.844 484.631 323.395C485.798 324.91 487.146 326.278 488.644 327.468C490.494 329.049 492.672 330.735 495.075 330.333C497.477 329.93 498.521 328.841 499.327 326.14C501.326 329.124 501.475 330.616 503.564 330.795C504.244 330.738 504.902 330.533 505.495 330.196C506.088 329.858 506.6 329.396 506.996 328.841C508.502 327.522 509.425 325.661 509.562 323.663C509.935 319.769 506.667 316.203 502.967 315.025C499.201 313.89 495.305 313.243 491.374 313.1C487.988 312.816 483.705 314.025 483.139 318.009Z" fill="#263238"/>
<path d="M491.807 299.09L496.76 304.476L503.519 311.787C502.935 312.606 502.51 313.527 502.266 314.502C501.85 315.531 501.821 316.677 502.186 317.725C502.551 318.773 503.285 319.653 504.25 320.202C505.264 320.634 505.921 325.812 499.371 325.483C497.505 325.51 495.654 325.153 493.932 324.434C492.209 323.715 490.653 322.651 489.36 321.306C488.106 319.724 487.763 318.874 488.942 317.083C492.359 312.011 492.359 304.804 491.807 299.09Z" fill="#FF8B7B"/>
<path opacity="0.2" d="M501.894 309.951L497.612 304.64C497.612 304.804 497.522 304.983 497.462 305.162C497.294 305.938 497.184 306.726 497.134 307.519C496.97 310.22 499.611 313.592 502.118 314.979L502.297 314.427C502.553 313.519 502.935 312.65 503.43 311.846C503.458 311.796 503.499 311.754 503.55 311.727L501.894 309.951Z" fill="black"/>
<path d="M507.846 297.463C511.8 289.75 510.964 285.378 514.769 281.275C516.813 280.365 520.393 284.14 518.006 290.555C515.619 296.971 507.846 297.463 507.846 297.463Z" fill="#263238"/>
<path d="M491.927 288.899C491.465 297.851 490.808 303.058 494.807 307.997C500.775 315.457 512.263 312.473 515.352 303.73C518.127 295.926 518.336 282.603 510.01 278.276C508.558 277.531 506.973 277.079 505.345 276.947C503.718 276.815 502.081 277.005 500.527 277.507C498.973 278.009 497.534 278.812 496.291 279.871C495.049 280.929 494.027 282.223 493.285 283.677C492.449 285.295 491.985 287.079 491.927 288.899Z" fill="#FF8B7B"/>
<path d="M490.867 296.852L498.163 299.731L496.328 291.898L500.297 289.631L505.146 282.38C505.146 282.38 494.702 279.306 491.524 278.888C490.42 278.739 486.585 281.723 486.018 282.976C485.277 284.737 485.042 286.67 485.34 288.558C485.638 290.445 486.457 292.212 487.704 293.659C488.651 294.825 489.711 295.894 490.867 296.852Z" fill="#263238"/>
<path d="M494.522 269.757C496.82 268.638 499.61 270.04 502.057 270.786C504.458 271.642 506.909 272.349 509.397 272.905C511.566 273.425 513.85 273.144 515.828 272.114C516.789 271.566 517.517 270.687 517.877 269.641C518.237 268.594 518.203 267.453 517.782 266.43C519.124 267.191 520.26 268.268 521.091 269.568C521.922 270.867 522.425 272.349 522.554 273.887C522.683 275.424 522.436 276.969 521.833 278.389C521.23 279.809 520.291 281.061 519.095 282.036C516.802 283.747 514.004 284.645 511.143 284.587C508.308 284.513 505.491 284.123 502.743 283.424C499.058 282.633 493.791 282.513 490.359 280.827C486.928 279.142 487.51 273.144 494.522 269.757Z" fill="#263238"/>
<path d="M487.541 295.33C487.787 297.32 488.753 299.151 490.257 300.477C492.226 302.148 494.494 300.179 494.733 297.643C494.882 295.375 493.643 292.107 491.316 291.406C488.988 290.705 487.243 292.853 487.541 295.33Z" fill="#FF8B7B"/>
<path d="M505.475 293.822C505.37 294.568 505.654 295.24 506.146 295.314C506.638 295.389 507.041 294.882 507.205 294.15C507.302 293.865 507.288 293.553 507.167 293.277C507.045 293.001 506.825 292.78 506.549 292.658C506.057 292.569 505.594 293.091 505.475 293.822Z" fill="#263238"/>
<path d="M513.77 295.375C513.651 296.121 513.95 296.867 514.427 296.867C514.904 296.867 515.382 296.434 515.501 295.718C515.621 295.002 515.307 294.301 514.83 294.226C514.352 294.152 513.875 294.644 513.77 295.375Z" fill="#263238"/>
<path d="M511.025 295.434C511.343 297.521 511.935 299.558 512.785 301.491C512.291 301.684 511.761 301.765 511.232 301.729C510.704 301.693 510.189 301.54 509.727 301.282L511.025 295.434Z" fill="#FF5652"/>
<path d="M508.412 305.475C507.555 305.344 506.733 305.04 505.996 304.581C505.26 304.122 504.625 303.517 504.13 302.805C504.102 302.755 504.094 302.696 504.108 302.641C504.122 302.585 504.157 302.537 504.205 302.506C504.246 302.47 504.299 302.449 504.354 302.449C504.409 302.449 504.462 302.47 504.503 302.506C505.052 303.27 505.77 303.898 506.6 304.34C507.431 304.783 508.352 305.028 509.293 305.058C509.35 305.057 509.404 305.079 509.446 305.118C509.487 305.157 509.513 305.21 509.516 305.266C509.518 305.296 509.515 305.325 509.505 305.353C509.496 305.381 509.481 305.407 509.462 305.429C509.442 305.451 509.419 305.469 509.392 305.483C509.366 305.496 509.337 305.503 509.308 305.505C509.009 305.512 508.71 305.502 508.412 305.475Z" fill="#263238"/>
<path d="M504.295 290.928C504.23 290.897 504.17 290.857 504.116 290.809C504.034 290.725 503.988 290.613 503.988 290.496C503.988 290.378 504.034 290.266 504.116 290.182C504.615 289.707 505.223 289.363 505.887 289.181C506.551 288.998 507.25 288.984 507.921 289.138C508.031 289.166 508.126 289.237 508.185 289.335C508.244 289.432 508.261 289.549 508.234 289.66C508.219 289.717 508.192 289.77 508.156 289.816C508.119 289.862 508.074 289.9 508.022 289.928C507.971 289.956 507.914 289.973 507.855 289.978C507.797 289.983 507.738 289.977 507.682 289.959C507.153 289.851 506.606 289.872 506.086 290.02C505.567 290.168 505.091 290.439 504.698 290.809C504.647 290.863 504.584 290.902 504.513 290.923C504.442 290.944 504.367 290.946 504.295 290.928Z" fill="#263238"/>
<path d="M514.545 290.555C514.529 290.486 514.529 290.415 514.545 290.346C514.573 290.232 514.645 290.133 514.746 290.072C514.846 290.01 514.967 289.991 515.082 290.018C515.749 290.165 516.369 290.472 516.89 290.915C517.41 291.357 517.814 291.92 518.066 292.554C518.082 292.658 518.062 292.765 518.007 292.856C517.952 292.946 517.868 293.014 517.768 293.048C517.668 293.082 517.559 293.08 517.461 293.041C517.362 293.002 517.281 292.93 517.23 292.838C517.02 292.339 516.692 291.899 516.273 291.555C515.855 291.212 515.359 290.976 514.828 290.868C514.759 290.843 514.697 290.802 514.647 290.747C514.598 290.692 514.563 290.626 514.545 290.555Z" fill="#263238"/>
<path d="M538.461 406.455L598.365 398.622C598.513 398.603 598.656 398.556 598.786 398.482C598.915 398.408 599.029 398.31 599.121 398.192C599.212 398.074 599.279 397.939 599.319 397.795C599.358 397.652 599.369 397.501 599.35 397.353C599.309 397.056 599.153 396.787 598.916 396.603C598.679 396.419 598.38 396.335 598.082 396.369L538.163 404.202C537.865 404.246 537.597 404.405 537.416 404.645C537.235 404.885 537.155 405.187 537.193 405.485C537.211 405.632 537.259 405.775 537.333 405.904C537.407 406.032 537.506 406.145 537.624 406.236C537.742 406.326 537.877 406.392 538.02 406.429C538.164 406.467 538.314 406.476 538.461 406.455Z" fill="#407BFF"/>
<path opacity="0.5" d="M538.461 406.455L598.365 398.622C598.513 398.603 598.656 398.556 598.786 398.482C598.915 398.408 599.029 398.31 599.121 398.192C599.212 398.074 599.279 397.939 599.319 397.795C599.358 397.652 599.369 397.501 599.35 397.353C599.309 397.056 599.153 396.787 598.916 396.603C598.679 396.419 598.38 396.335 598.082 396.369L538.163 404.202C537.865 404.246 537.597 404.405 537.416 404.645C537.235 404.885 537.155 405.187 537.193 405.485C537.211 405.632 537.259 405.775 537.333 405.904C537.407 406.032 537.506 406.145 537.624 406.236C537.742 406.326 537.877 406.392 538.02 406.429C538.164 406.467 538.314 406.476 538.461 406.455Z" fill="black"/>
<path d="M508.936 406.111L538 406.469C538.149 406.473 538.298 406.447 538.437 406.392C538.577 406.338 538.704 406.256 538.811 406.152C538.918 406.047 539.003 405.923 539.061 405.785C539.119 405.647 539.149 405.499 539.149 405.35C539.151 405.201 539.123 405.053 539.068 404.915C539.013 404.776 538.931 404.65 538.827 404.544C538.723 404.437 538.599 404.352 538.463 404.293C538.326 404.234 538.179 404.203 538.03 404.201L508.966 403.843C508.666 403.843 508.378 403.96 508.164 404.169C507.949 404.378 507.825 404.662 507.817 404.962C507.813 405.111 507.839 405.26 507.893 405.399C507.948 405.538 508.03 405.665 508.134 405.772C508.238 405.879 508.363 405.965 508.501 406.023C508.638 406.081 508.786 406.111 508.936 406.111Z" fill="#407BFF"/>
<path opacity="0.5" d="M508.936 406.111L538 406.469C538.149 406.473 538.298 406.447 538.437 406.392C538.577 406.338 538.704 406.256 538.811 406.152C538.918 406.047 539.003 405.923 539.061 405.785C539.119 405.647 539.149 405.499 539.149 405.35C539.151 405.201 539.123 405.053 539.068 404.915C539.013 404.776 538.931 404.65 538.827 404.544C538.723 404.437 538.599 404.352 538.463 404.293C538.326 404.234 538.179 404.203 538.03 404.201L508.966 403.843C508.666 403.843 508.378 403.96 508.164 404.169C507.949 404.378 507.825 404.662 507.817 404.962C507.813 405.111 507.839 405.26 507.893 405.399C507.948 405.538 508.03 405.665 508.134 405.772C508.238 405.879 508.363 405.965 508.501 406.023C508.638 406.081 508.786 406.111 508.936 406.111Z" fill="white"/>
<path d="M539.821 405.141L507.817 404.887C507.817 404.887 506.743 404.261 508.892 403.843C511.04 403.425 538.821 399.755 538.821 399.755L539.821 405.141Z" fill="#407BFF"/>
<path d="M539.82 405.141L508.577 404.798C508.577 404.798 507.503 404.156 509.651 403.753C511.8 403.351 538.82 399.755 538.82 399.755L539.82 405.141Z" fill="#407BFF"/>
<path opacity="0.2" d="M539.82 405.141L508.577 404.798C508.577 404.798 507.503 404.156 509.651 403.753C511.8 403.351 538.82 399.755 538.82 399.755L539.82 405.141Z" fill="white"/>
<path d="M539.806 403.948L595.666 396.637C596.637 396.488 597.521 395.992 598.152 395.239C598.784 394.487 599.12 393.531 599.098 392.549L597.874 363.932C597.86 363.471 597.749 363.017 597.547 362.602C597.346 362.186 597.059 361.818 596.706 361.521C596.352 361.224 595.94 361.004 595.496 360.878C595.052 360.751 594.586 360.719 594.129 360.784L538.269 368.14C537.295 368.288 536.41 368.787 535.778 369.542C535.146 370.298 534.812 371.258 534.837 372.243L536.061 400.844C536.079 401.303 536.193 401.752 536.397 402.163C536.6 402.575 536.888 402.939 537.241 403.231C537.594 403.524 538.005 403.739 538.447 403.863C538.889 403.986 539.352 404.015 539.806 403.948Z" fill="#407BFF"/>
<path opacity="0.4" d="M539.806 403.948L595.666 396.637C596.637 396.488 597.521 395.992 598.152 395.239C598.784 394.487 599.12 393.531 599.098 392.549L597.874 363.932C597.86 363.471 597.749 363.017 597.547 362.602C597.346 362.186 597.059 361.818 596.706 361.521C596.352 361.224 595.94 361.004 595.496 360.878C595.052 360.751 594.586 360.719 594.129 360.784L538.269 368.14C537.295 368.288 536.41 368.787 535.778 369.542C535.146 370.298 534.812 371.258 534.837 372.243L536.061 400.844C536.079 401.303 536.193 401.752 536.397 402.163C536.6 402.575 536.888 402.939 537.241 403.231C537.594 403.524 538.005 403.739 538.447 403.863C538.889 403.986 539.352 404.015 539.806 403.948Z" fill="black"/>
<path d="M541.431 403.648L597.291 396.352C598.263 396.201 599.147 395.701 599.779 394.946C600.41 394.192 600.745 393.233 600.723 392.249L599.499 363.663C599.487 363.2 599.377 362.745 599.177 362.328C598.976 361.91 598.69 361.54 598.336 361.242C597.982 360.943 597.569 360.722 597.125 360.594C596.68 360.467 596.213 360.434 595.754 360.5L539.894 367.811C538.922 367.956 538.036 368.452 537.404 369.205C536.772 369.958 536.437 370.916 536.462 371.899L537.686 400.515C537.7 400.976 537.811 401.429 538.013 401.844C538.214 402.259 538.501 402.626 538.855 402.922C539.209 403.218 539.621 403.436 540.065 403.561C540.509 403.686 540.974 403.716 541.431 403.648Z" fill="#407BFF"/>
<path opacity="0.2" d="M541.431 403.648L597.291 396.352C598.263 396.201 599.147 395.701 599.779 394.946C600.41 394.192 600.745 393.233 600.723 392.249L599.499 363.663C599.487 363.2 599.377 362.745 599.177 362.328C598.976 361.91 598.69 361.54 598.336 361.242C597.982 360.943 597.569 360.722 597.125 360.594C596.68 360.467 596.213 360.434 595.754 360.5L539.894 367.811C538.922 367.956 538.036 368.452 537.404 369.205C536.772 369.958 536.437 370.916 536.462 371.899L537.686 400.515C537.7 400.976 537.811 401.429 538.013 401.844C538.214 402.259 538.501 402.626 538.855 402.922C539.209 403.218 539.621 403.436 540.065 403.561C540.509 403.686 540.974 403.716 541.431 403.648Z" fill="white"/>
<path d="M517.813 337.643C511.711 336.36 505.325 342.253 503.549 350.773C501.774 359.292 505.28 367.259 511.382 368.528C517.485 369.796 523.885 363.917 525.661 355.383C527.436 346.849 523.93 338.911 517.813 337.643ZM512.546 367.08C508.652 366.275 506.787 359.426 508.369 351.787C509.95 344.148 514.337 338.613 518.305 339.419C522.274 340.224 524.079 347.088 522.498 354.727C520.916 362.366 516.455 367.886 512.546 367.08Z" fill="#263238"/>
<path opacity="0.5" d="M522.484 354.712C520.902 362.351 516.516 367.886 512.562 367.066C508.608 366.245 506.788 359.412 508.369 351.773C509.951 344.134 514.337 338.598 518.306 339.404C522.275 340.21 524.08 347.088 522.484 354.712Z" fill="white"/>
<path d="M509.353 367.811L502.803 388.46C502.803 388.46 503.146 391.011 506.145 389.743C509.144 388.475 511.337 368.527 511.337 368.527L509.353 367.811Z" fill="#263238"/>
<path d="M502.804 373.451L507.414 371.959V383.403C507.414 383.403 497.403 386.103 496.627 381.478L497.836 378.942C498.82 376.718 500.297 374.107 502.804 373.451Z" fill="#FF8B7B"/>
<path d="M514.486 374.899L513.322 381.359L507.369 383.388L507.429 371.944L514.486 374.899Z" fill="#FF8B7B"/>
<path d="M560.634 315.651L560.589 315.666L560.529 315.651L560.589 315.636L560.634 315.651Z" fill="#F0F0F0"/>
<path d="M217.054 185.445C217.517 185.356 218.024 185.848 218.173 186.549C218.323 187.25 218.084 187.937 217.607 188.041C217.129 188.146 216.637 187.638 216.488 186.922C216.338 186.206 216.577 185.535 217.054 185.445Z" fill="#263238"/>
<path d="M218.516 194.89C219.13 194.915 219.743 194.805 220.31 194.568C220.877 194.331 221.385 193.972 221.799 193.518C219.984 191.956 218.397 190.148 217.084 188.146L218.516 194.89Z" fill="#B74D3C"/>
<path d="M213.355 183.431C213.697 183.013 214.134 182.683 214.63 182.467C215.126 182.252 215.665 182.158 216.205 182.193H216.354C216.468 182.193 216.579 182.147 216.66 182.066C216.741 181.985 216.786 181.875 216.786 181.76C216.786 181.645 216.741 181.535 216.66 181.454C216.579 181.373 216.468 181.327 216.354 181.327C215.676 181.267 214.994 181.371 214.365 181.631C213.737 181.89 213.18 182.298 212.743 182.819C212.679 182.9 212.642 182.999 212.639 183.103C212.642 183.218 212.688 183.328 212.768 183.41C212.848 183.493 212.956 183.543 213.071 183.55C213.175 183.539 213.274 183.498 213.355 183.431Z" fill="#263238"/>
<path d="M208.594 226.968C196.3 227.102 194.42 220.418 194.42 220.418C198.075 216.837 198.254 210.272 197.479 204.424C198.457 205.815 199.699 207.001 201.134 207.915C202.429 208.797 203.896 209.397 205.438 209.674C206.981 209.952 208.564 209.901 210.086 209.526C210.135 209.541 210.187 209.541 210.235 209.526C210.228 209.646 210.228 209.765 210.235 209.885C209.504 214.569 210.161 219.583 215.069 221.06C215.054 221.015 222.141 226.819 208.594 226.968Z" fill="#B25B52"/>
<path d="M210.624 207.75C210.49 208.317 210.37 208.884 210.281 209.481C210.232 209.496 210.18 209.496 210.132 209.481C208.61 209.856 207.026 209.906 205.484 209.629C203.942 209.351 202.475 208.752 201.18 207.87C199.745 206.956 198.503 205.77 197.524 204.378C197.33 202.886 197.062 201.394 196.793 200.111L210.221 207.437L210.624 207.75Z" fill="#B25B52"/>
<path d="M190.676 221.537C190.676 221.537 192.616 215.569 195.555 213.645C198.494 211.72 211.355 213.719 213.369 214.51C215.384 215.301 217.428 219.941 217.428 219.941L190.676 221.537Z" fill="#407BFF"/>
<path d="M183.918 240.515C185.654 240.772 187.423 240.354 188.86 239.347C190.298 238.34 191.295 236.82 191.646 235.101C191.998 233.381 191.677 231.592 190.75 230.102C189.824 228.611 188.361 227.533 186.663 227.087C181.143 225.894 175.458 224.491 169.923 223.074C164.388 221.656 162.463 221.582 157.256 219.762C155.928 219.329 154.645 218.822 153.377 218.27L152.676 218.001C152.561 217.969 152.451 217.924 152.347 217.867C152.009 217.679 151.689 217.46 151.393 217.21C149.647 215.614 137.965 200.41 135.741 195.248L135.667 195.084C135.346 194.319 134.758 193.697 134.012 193.334C133.266 192.971 132.414 192.892 131.613 193.111C130.813 193.33 130.121 193.833 129.664 194.525C129.207 195.218 129.018 196.053 129.132 196.874C129.833 203.141 141.322 224.297 143.664 226.998C144.416 227.807 145.24 228.546 146.126 229.206C146.994 229.852 147.923 230.412 148.901 230.877C150.393 231.578 160.33 234.562 166.238 236.278C172.146 237.994 177.89 239.396 183.978 240.545L183.918 240.515Z" fill="#B25B52"/>
<path d="M134.859 193.413V194.607C134.903 195.178 134.768 195.748 134.474 196.239C134.18 196.731 133.742 197.119 133.218 197.352C131.116 198.184 128.837 198.471 126.594 198.187L128.429 187.893L133.487 191.175C133.877 191.412 134.206 191.738 134.445 192.127C134.683 192.517 134.826 192.958 134.859 193.413Z" fill="#B25B52"/>
<path d="M128.475 187.862L126.64 198.157L119.792 194.114L119.643 184.818L128.475 187.862Z" fill="#B25B52"/>
<path d="M186.051 219.627C183.41 220.015 172.966 222.253 164.297 219.806L163.73 237.516C163.73 237.516 178.785 244.976 185.603 239.59C192.422 234.204 196.704 224.491 186.051 219.627Z" fill="#263238"/>
<path d="M166.655 242.156L159.852 239.097L161.806 217.926L168.147 219.075L166.655 242.156Z" fill="#407BFF"/>
<path d="M221.441 218.941C219.457 218.613 217.219 218.314 214.951 218.12C208.094 217.807 201.225 217.882 194.376 218.344L189.9 218.777C182.738 219.299 175.532 225.521 176.964 232.563C184.917 271.355 182.649 292.959 181.918 299.27L230.303 298.748C235.317 258.912 233.929 238.829 231.974 229.072C231.46 226.511 230.176 224.168 228.293 222.358C226.411 220.547 224.02 219.355 221.441 218.941Z" fill="#263238"/>
<path opacity="0.2" d="M231.856 284.738L230.364 298.793C233.452 273.846 234.079 256.658 233.631 244.887L215.25 232.607C223.501 258.643 226.201 266.864 231.856 284.738Z" fill="black"/>
<path d="M219.427 197.71C219.396 199.813 218.832 201.875 217.789 203.701C216.745 205.527 215.255 207.059 213.459 208.154H213.354C212.436 208.74 211.428 209.174 210.37 209.437C210.322 209.452 210.27 209.452 210.221 209.437C208.699 209.812 207.116 209.862 205.574 209.585C204.031 209.307 202.565 208.708 201.269 207.826C199.834 206.912 198.593 205.726 197.614 204.334C195.197 201.037 194.197 196.621 192.466 190.414C191.943 188.591 191.841 186.673 192.168 184.804C192.749 181.602 194.578 178.761 197.252 176.906C199.927 175.051 203.228 174.334 206.431 174.912C215.637 176.658 219.621 189.414 219.427 197.71Z" fill="#B25B52"/>
<path opacity="0.2" d="M213.355 208.198C212.436 208.785 211.429 209.218 210.371 209.481C210.371 209.481 210.714 204.006 210.714 204.006C210.714 204.006 212.669 208.213 213.355 208.198Z" fill="black"/>
<path d="M214.055 192.98C213.882 194.898 213.303 196.757 212.357 198.434C211.41 200.112 210.117 201.568 208.565 202.708C208.174 203.006 207.727 203.224 207.252 203.349C205.76 203.707 204.268 202.364 203.507 200.917C202.684 199 202.277 196.931 202.313 194.845C202.134 189.936 202.746 184.565 206.192 181.074C206.954 180.191 208.019 179.627 209.176 179.492C213.563 179.328 214.368 190.175 214.055 192.98Z" fill="#263238"/>
<path d="M194.78 170.958C193.843 170.647 192.834 170.631 191.887 170.91C190.941 171.19 190.103 171.753 189.485 172.522C188.868 173.292 188.501 174.233 188.434 175.217C188.367 176.202 188.603 177.184 189.11 178.03C185.216 179.239 181.546 182.163 180.77 186.162C179.994 190.16 183.306 194.83 187.364 194.368C186.753 194.856 186.331 195.543 186.17 196.309C186.009 197.075 186.12 197.873 186.484 198.567C186.847 199.26 187.44 199.805 188.162 200.109C188.883 200.413 189.688 200.456 190.438 200.231C193.601 205.483 203.448 206.632 208.208 202.753C209.327 201.843 208.521 200.888 208.76 199.47C208.902 198.758 208.809 198.019 208.494 197.365C208.179 196.711 207.659 196.177 207.014 195.845L208.043 192.279L205.059 188.937C207.775 186.833 210.625 184.565 211.803 181.342C212.982 178.12 211.624 173.718 208.282 172.928C208.817 172.795 209.315 172.544 209.739 172.194C210.164 171.843 210.505 171.402 210.737 170.903C210.969 170.403 211.086 169.858 211.079 169.307C211.073 168.757 210.943 168.214 210.699 167.72C210.391 167.271 209.99 166.893 209.521 166.614C209.053 166.335 208.53 166.161 207.988 166.104C207.445 166.047 206.897 166.109 206.381 166.285C205.866 166.461 205.394 166.747 205 167.124C204.06 165.826 203.299 164.408 201.702 163.976C195.451 162.245 193.735 168.959 194.78 170.958Z" fill="#263238"/>
<path d="M211.863 186.476C214.459 187.236 215.802 191.041 215.906 193.473C216.04 196.144 214.25 197.83 211.922 196.039C210.162 194.664 208.908 192.743 208.357 190.579C207.67 187.968 209.237 185.73 211.863 186.476Z" fill="#B25B52"/>
<path d="M207.268 528.769C207.22 528.764 207.176 528.744 207.141 528.712C207.106 528.679 207.083 528.637 207.074 528.59C207.066 528.545 207.072 528.498 207.09 528.456C207.109 528.413 207.139 528.377 207.178 528.352C207.357 528.277 210.669 526.293 212.281 526.696C212.435 526.725 212.581 526.787 212.709 526.877C212.838 526.967 212.946 527.083 213.027 527.218C213.131 527.361 213.187 527.533 213.187 527.71C213.187 527.887 213.131 528.059 213.027 528.202C212.639 528.769 211.535 528.963 210.222 528.993C209.232 529.007 208.244 528.932 207.268 528.769ZM211.744 527.069C210.416 527.255 209.138 527.701 207.984 528.381C209.789 528.59 212.221 528.531 212.654 527.904C212.743 527.815 212.803 527.68 212.654 527.397C212.604 527.314 212.536 527.244 212.457 527.19C212.377 527.136 212.286 527.099 212.191 527.083C212.048 527.061 211.902 527.061 211.758 527.083L211.744 527.069Z" fill="#407BFF"/>
<path d="M207.178 528.724C207.143 528.701 207.114 528.67 207.094 528.634C207.073 528.598 207.061 528.557 207.059 528.515C207.101 527.151 207.594 525.84 208.461 524.785C208.636 524.634 208.84 524.52 209.061 524.45C209.281 524.381 209.514 524.358 209.744 524.383C210.371 524.383 210.595 524.741 210.61 524.994C210.818 526.113 208.58 528.202 207.417 528.739H207.387C207.353 528.751 207.317 528.755 207.281 528.753C207.245 528.75 207.21 528.741 207.178 528.724ZM209.595 524.815C209.298 524.827 209.016 524.949 208.804 525.158C208.107 526.007 207.685 527.048 207.596 528.142C208.774 527.396 210.281 525.74 210.162 525.084C210.162 525.084 210.162 524.83 209.699 524.83H209.58L209.595 524.815Z" fill="#407BFF"/>
<path d="M197.137 506.583L206.701 506.404L206.358 528.531L196.734 528.725L197.137 506.583Z" fill="#B25B52"/>
<path d="M208.61 528.128C215.234 532.008 217.263 532.157 224.858 533.664C226.514 533.992 225.559 538.02 221.59 538.14C215.04 538.259 214.339 537.961 208.759 538.14C203.97 538.229 198.479 538.557 194.674 538.692H194.331C194.152 538.654 193.981 538.582 193.829 538.478C193.678 538.375 193.548 538.242 193.448 538.088C193.348 537.934 193.28 537.762 193.247 537.581C193.214 537.4 193.218 537.215 193.257 537.036L194.943 528.442C194.983 528.256 195.084 528.089 195.23 527.967C195.376 527.845 195.559 527.776 195.749 527.77L206.267 527.561C207.085 527.533 207.895 527.729 208.61 528.128Z" fill="#263238"/>
<path opacity="0.2" d="M197.122 506.599L196.928 517.968L206.536 517.789L206.7 506.42L197.122 506.599Z" fill="black"/>
<path d="M126.937 530.217C126.921 530.259 126.892 530.295 126.855 530.321C126.817 530.347 126.773 530.36 126.728 530.36C126.683 530.36 126.638 530.347 126.601 530.321C126.564 530.295 126.535 530.259 126.519 530.217C126.429 530.053 124.52 526.726 125.027 525.129C125.099 524.827 125.287 524.565 125.549 524.398C125.698 524.293 125.875 524.237 126.056 524.237C126.238 524.237 126.415 524.293 126.564 524.398C127.116 524.786 127.28 525.89 127.28 527.203C127.258 528.216 127.143 529.225 126.937 530.217ZM125.34 525.741C125.489 527.055 125.895 528.328 126.534 529.486C126.788 527.695 126.773 525.278 126.146 524.831C126.146 524.741 125.937 524.682 125.654 524.831C125.568 524.878 125.494 524.945 125.437 525.025C125.38 525.105 125.342 525.197 125.325 525.293C125.304 525.437 125.304 525.583 125.325 525.726L125.34 525.741Z" fill="#407BFF"/>
<path d="M126.924 530.306C126.901 530.34 126.87 530.366 126.832 530.382C126.795 530.398 126.755 530.403 126.715 530.396C125.348 530.331 124.044 529.805 123.015 528.904C122.861 528.734 122.747 528.532 122.68 528.313C122.613 528.094 122.595 527.862 122.627 527.636C122.627 527.009 123 526.785 123.253 526.785C124.357 526.591 126.431 528.859 126.953 530.008V530.097C126.968 530.132 126.972 530.169 126.967 530.206C126.962 530.243 126.947 530.277 126.924 530.306ZM123.03 527.859C123.046 528.152 123.162 528.431 123.358 528.65C124.202 529.357 125.244 529.785 126.342 529.874C125.626 528.695 123.999 527.158 123.358 527.278C123.358 527.278 123.104 527.277 123.104 527.725V527.859H123.03Z" fill="#407BFF"/>
<path d="M131.907 507.807L141.247 508.284L136.204 530.694L126.789 530.217L131.907 507.807Z" fill="#B25B52"/>
<path d="M124.521 529.024C121.999 532.008 120.671 533.634 113.316 536.096C111.689 536.633 113.152 540.497 117.105 540.064C123.625 539.363 120.089 539.453 125.58 538.841C130.339 538.334 135.83 537.961 139.62 537.617C139.748 537.639 139.879 537.639 140.008 537.617C140.36 537.498 140.65 537.245 140.815 536.912C140.98 536.579 141.006 536.194 140.888 535.842L138.158 527.546C138.1 527.364 137.98 527.208 137.82 527.104C137.659 527.001 137.467 526.957 137.277 526.98L126.833 528.099C125.971 528.091 125.14 528.423 124.521 529.024Z" fill="#263238"/>
<path opacity="0.2" d="M131.89 507.822L129.279 519.326L138.649 519.818L141.245 508.285L131.89 507.822Z" fill="black"/>
<path d="M181.872 299.315C178.447 305.019 175.603 311.052 173.383 317.324C168.549 331.304 170.518 338.525 168.996 347.939C166.326 364.545 162.073 377.317 159.164 389.924C150.093 429.388 127.295 512.746 127.295 512.746L144.244 516.103C144.244 516.103 177.187 419.123 185.483 390.864C192.943 365.426 212.115 298.629 212.115 298.629L181.872 299.315Z" fill="#407BFF"/>
<path d="M181.872 299.315C178.447 305.019 175.603 311.052 173.383 317.324C168.549 331.304 170.518 338.525 168.996 347.939C166.326 364.545 162.073 377.317 159.164 389.924C150.093 429.388 127.295 512.746 127.295 512.746L144.244 516.103C144.244 516.103 177.187 419.123 185.483 390.864C192.943 365.426 212.115 298.629 212.115 298.629L181.872 299.315Z" fill="#407BFF"/>
<path d="M125.326 509.657V515.625L145.707 517.401C145.707 517.401 147.363 510.806 147.289 510.806L125.326 509.657Z" fill="#407BFF"/>
<path opacity="0.3" d="M203.253 329.349C197.285 350.326 189.571 376.869 185.483 390.789C185.289 391.461 185.08 392.162 184.871 392.908C186.109 369.752 189.839 330.93 201.417 329.259C202.028 329.154 202.655 329.185 203.253 329.349Z" fill="black"/>
<path d="M197.435 298.912C197.435 298.912 193.824 362.68 193.884 392.804C193.958 420.868 194.346 515.819 194.346 515.819L210.624 515.506C210.624 515.506 220.024 418.645 222.306 390.088C224.485 363.053 230.259 298.793 230.259 298.793L197.435 298.912Z" fill="#407BFF"/>
<path d="M197.435 298.912C197.435 298.912 193.824 362.68 193.884 392.804C193.958 420.868 194.346 515.819 194.346 515.819L210.624 515.506C210.624 515.506 220.024 418.645 222.306 390.088C224.485 363.053 230.259 298.793 230.259 298.793L197.435 298.912Z" fill="#407BFF"/>
<path d="M191.824 510.164L192.496 516.132L212.28 515.744C212.28 515.744 213.07 509.045 212.996 509.045L191.824 510.164Z" fill="#407BFF"/>
<path d="M256.951 203.633L261.89 200.217C263.024 205.588 268.126 209.781 272.005 212.272C273.856 213.466 274.542 216.181 273.229 217.091L270.021 219.329C266.127 222.015 256.951 203.633 256.951 203.633Z" fill="#407BFF"/>
<path d="M254.995 204.99L266.305 197.142C268.072 195.915 269.282 194.038 269.668 191.921C270.054 189.803 269.585 187.62 268.363 185.848C267.131 184.082 265.251 182.875 263.133 182.489C261.014 182.104 258.83 182.571 257.054 183.789L245.745 191.637C243.979 192.866 242.773 194.745 242.39 196.862C242.007 198.979 242.478 201.161 243.701 202.931C244.928 204.699 246.805 205.909 248.922 206.294C251.04 206.68 253.223 206.211 254.995 204.99Z" fill="#407BFF"/>
<path opacity="0.3" d="M254.995 204.99L266.305 197.142C268.072 195.915 269.282 194.038 269.668 191.921C270.054 189.803 269.585 187.62 268.363 185.848C267.131 184.082 265.251 182.875 263.133 182.489C261.014 182.104 258.83 182.571 257.054 183.789L245.745 191.637C243.979 192.866 242.773 194.745 242.39 196.862C242.007 198.979 242.478 201.161 243.701 202.931C244.928 204.699 246.805 205.909 248.922 206.294C251.04 206.68 253.223 206.211 254.995 204.99Z" fill="black"/>
<path d="M289.79 192.771L268.573 201.723C266.902 202.887 251.893 181.238 253.653 180.074L269.469 163.349L289.79 192.771Z" fill="#407BFF"/>
<path d="M278.048 179.134C283.688 187.251 288.939 193.368 289.79 192.771C290.64 192.174 286.806 185.117 281.136 176.986C275.467 168.854 270.245 162.752 269.394 163.349C268.544 163.946 272.423 171.003 278.048 179.134Z" fill="#407BFF"/>
<path opacity="0.3" d="M278.048 179.134C283.688 187.251 288.939 193.368 289.79 192.771C290.64 192.174 286.806 185.117 281.136 176.986C275.467 168.854 270.245 162.752 269.394 163.349C268.544 163.946 272.423 171.003 278.048 179.134Z" fill="black"/>
<path d="M283.164 176.493C281.792 174.508 278.897 173.807 277.957 174.464C277.017 175.12 277.361 177.269 278.733 179.253C280.106 181.237 282.001 182.237 282.941 181.655C283.567 180.952 283.931 180.054 283.972 179.114C284.012 178.173 283.727 177.248 283.164 176.493Z" fill="#407BFF"/>
<path d="M255.369 213.48L256.861 209.273C257.796 206.679 259.517 204.441 261.785 202.872L264.948 200.679C265.245 200.476 265.611 200.398 265.965 200.462C266.32 200.527 266.635 200.728 266.843 201.022C268.987 203.91 270.419 207.263 271.02 210.81C271.06 211.25 270.985 211.694 270.802 212.097C270.619 212.499 270.334 212.848 269.976 213.107L263.172 217.673C262.098 218.508 260.83 218.926 259.86 217.971L255.369 213.48Z" fill="#B25B52"/>
<path d="M262.993 214.704L258.114 235.174C257.965 235.845 257.786 236.487 257.622 237.129C253.504 252.407 245.567 260.523 241.926 258.643C238.286 256.763 230.274 247.811 230.274 247.811L239.33 240.665L241.926 242.843L256.1 212.227L258.114 207.96C258.114 207.96 264.47 207.915 262.993 214.704Z" fill="#B25B52"/>
<path d="M258.115 235.174L257.652 237.143C257.772 236.487 257.951 235.845 258.115 235.174Z" fill="#B25B52"/>
<path d="M231.258 223.223C239.554 230.012 244.686 244.454 244.686 244.454L231.258 252.974C231.258 252.974 213.653 240.486 215.025 228.624C216.01 219.538 221.008 214.808 231.258 223.223Z" fill="#263238"/>
<path d="M223.5 250.078L228.245 255.121L246.716 243.245L243.851 237.396L223.5 250.078Z" fill="#407BFF"/>
<path d="M292.863 170.062L302.487 146.996L310.141 151.218L292.863 170.062Z" fill="#263238"/>
<path d="M293.848 178.358L318.809 176.94L317.347 168.316L293.848 178.358Z" fill="#263238"/>
<path d="M300.086 170.286L319.169 148.1L326.718 156.395L300.086 170.286Z" fill="#263238"/>
<path d="M110.094 164.452V184.654L129.042 194.68V172.763L110.094 164.452Z" fill="#407BFF"/>
<path opacity="0.1" d="M110.094 164.452V184.654L129.042 194.68V172.763L110.094 164.452Z" fill="black"/>
<path d="M147.976 164.453V184.655L129.043 194.681V172.764L147.976 164.453Z" fill="#407BFF"/>
<path opacity="0.2" d="M147.976 164.453V184.655L129.043 194.681V172.764L147.976 164.453Z" fill="black"/>
<path d="M110.094 164.453L129.042 172.763L147.976 164.453L129.042 154.934L110.094 164.453Z" fill="#407BFF"/>
<path d="M137.518 169.033V181.581L138.502 179.94L139.099 180.82L139.726 179.403L140.352 180.283V167.795L137.518 169.033Z" fill="#263238"/>
<path d="M137.517 169.033L118.211 160.379L121.329 158.798L140.352 167.795L137.517 169.033Z" fill="#263238"/>
<path d="M415.715 532.007H380.922C380.922 529.634 385.398 527.531 391.634 526.71V511.79H404.988V526.71C411.284 527.56 415.715 529.619 415.715 532.007Z" fill="#407BFF"/>
<path opacity="0.4" d="M415.715 532.007H380.922C380.922 529.634 385.398 527.531 391.634 526.71V511.79H404.988V526.71C411.284 527.56 415.715 529.619 415.715 532.007Z" fill="black"/>
<path d="M455.076 455.273H342.012V516.072H455.076V455.273Z" fill="#407BFF"/>
<path opacity="0.2" d="M455.076 455.273H342.012V516.072H455.076V455.273Z" fill="black"/>
<path opacity="0.2" d="M452.001 458.049H344.637V509.15H452.001V458.049Z" fill="black"/>
<path opacity="0.2" d="M404.988 516.072H391.635V519.295H404.988V516.072Z" fill="black"/>
<path d="M391.635 474.625V496.722L411.255 485.666L391.635 474.625Z" fill="white"/>
<path d="M335.073 446.724C334.998 447.473 334.654 448.17 334.106 448.685C333.557 449.201 332.841 449.5 332.089 449.529H312.245C311.885 449.538 311.528 449.47 311.197 449.328C310.867 449.187 310.57 448.976 310.328 448.71C310.086 448.444 309.904 448.129 309.795 447.786C309.685 447.444 309.651 447.081 309.694 446.724L309.947 443.74H335.401L335.073 446.724Z" fill="#407BFF"/>
<path d="M295.566 450.29L287.957 537.08C287.84 538.143 287.952 539.22 288.283 540.237C288.615 541.255 289.16 542.19 289.881 542.98C290.602 543.771 291.484 544.398 292.467 544.822C293.449 545.245 294.511 545.454 295.581 545.435H331.703C333.976 545.392 336.155 544.519 337.829 542.98C339.503 541.44 340.556 539.342 340.789 537.08L348.383 450.29C348.5 449.226 348.389 448.15 348.057 447.132C347.725 446.115 347.18 445.18 346.459 444.39C345.738 443.599 344.856 442.971 343.874 442.548C342.891 442.125 341.829 441.916 340.759 441.935H304.638C302.367 441.981 300.191 442.856 298.52 444.395C296.849 445.934 295.799 448.03 295.566 450.29Z" fill="#407BFF"/>
<g opacity="0.4">
<path d="M335.074 446.724C334.999 447.473 334.656 448.17 334.107 448.685C333.559 449.201 332.842 449.5 332.09 449.529H312.247C311.887 449.538 311.53 449.47 311.199 449.328C310.868 449.187 310.572 448.976 310.33 448.71C310.088 448.444 309.906 448.129 309.796 447.786C309.687 447.444 309.652 447.081 309.695 446.724L309.949 443.74H335.403L335.074 446.724Z" fill="black"/>
<path d="M295.566 450.29L287.957 537.08C287.84 538.143 287.952 539.22 288.283 540.237C288.615 541.255 289.16 542.19 289.881 542.98C290.602 543.771 291.484 544.398 292.467 544.822C293.449 545.245 294.511 545.454 295.581 545.435H331.703C333.976 545.392 336.155 544.519 337.829 542.98C339.503 541.44 340.556 539.342 340.789 537.08L348.383 450.29C348.5 449.226 348.389 448.15 348.057 447.132C347.725 446.115 347.18 445.18 346.459 444.39C345.738 443.599 344.856 442.971 343.874 442.548C342.891 442.125 341.829 441.916 340.759 441.935H304.638C302.367 441.981 300.191 442.856 298.52 444.395C296.849 445.934 295.799 448.03 295.566 450.29Z" fill="#407BFF"/>
</g>
<path d="M302.265 443.726H338.386C339.227 443.721 340.059 443.894 340.828 444.233C341.598 444.572 342.286 445.07 342.85 445.694C343.413 446.318 343.839 447.054 344.098 447.854C344.357 448.654 344.444 449.499 344.354 450.335L336.775 537.125C336.571 538.907 335.732 540.556 334.411 541.77C333.09 542.984 331.376 543.681 329.583 543.734H293.507C292.666 543.739 291.833 543.566 291.064 543.227C290.295 542.888 289.606 542.39 289.042 541.766C288.479 541.142 288.054 540.406 287.795 539.606C287.535 538.806 287.448 537.961 287.539 537.125L295.133 450.335C295.314 448.554 296.138 446.901 297.451 445.684C298.764 444.467 300.475 443.771 302.265 443.726Z" fill="#407BFF"/>
<path opacity="0.3" d="M302.265 443.726H338.386C339.227 443.721 340.059 443.894 340.828 444.233C341.598 444.572 342.286 445.07 342.85 445.694C343.413 446.318 343.839 447.054 344.098 447.854C344.357 448.654 344.444 449.499 344.354 450.335L336.775 537.125C336.571 538.907 335.732 540.556 334.411 541.77C333.09 542.984 331.376 543.681 329.583 543.734H293.507C292.666 543.739 291.833 543.566 291.064 543.227C290.295 542.888 289.606 542.39 289.042 541.766C288.479 541.142 288.054 540.406 287.795 539.606C287.535 538.806 287.448 537.961 287.539 537.125L295.133 450.335C295.314 448.554 296.138 446.901 297.451 445.684C298.764 444.467 300.475 443.771 302.265 443.726Z" fill="white"/>
<path d="M293.327 450.335L285.733 537.125C285.618 538.188 285.731 539.263 286.064 540.28C286.397 541.296 286.941 542.23 287.662 543.02C288.383 543.81 289.264 544.438 290.245 544.862C291.227 545.286 292.288 545.496 293.357 545.48H329.478C331.751 545.434 333.928 544.559 335.602 543.021C337.275 541.482 338.328 539.385 338.564 537.125L346.144 450.335C346.26 449.271 346.149 448.195 345.818 447.177C345.486 446.16 344.941 445.225 344.22 444.434C343.498 443.644 342.617 443.016 341.634 442.593C340.651 442.17 339.59 441.961 338.52 441.98H302.413C300.14 442.022 297.96 442.896 296.286 444.435C294.612 445.974 293.56 448.073 293.327 450.335ZM295.073 450.335C295.255 448.544 296.088 446.882 297.413 445.664C298.738 444.446 300.464 443.756 302.264 443.725H338.385C339.226 443.721 340.058 443.893 340.828 444.233C341.597 444.572 342.286 445.07 342.849 445.694C343.413 446.318 343.838 447.054 344.097 447.854C344.357 448.653 344.444 449.499 344.353 450.335L336.774 537.125C336.57 538.907 335.731 540.556 334.41 541.77C333.09 542.984 331.376 543.681 329.583 543.734H293.506C292.665 543.739 291.833 543.566 291.064 543.227C290.294 542.888 289.605 542.39 289.042 541.766C288.478 541.142 288.053 540.406 287.794 539.606C287.535 538.806 287.448 537.96 287.538 537.125L295.073 450.335Z" fill="white"/>
<path d="M333.105 443.77C332.964 444.987 332.385 446.113 331.477 446.936C330.569 447.759 329.392 448.225 328.166 448.246H311.829C311.253 448.254 310.683 448.142 310.153 447.915C309.624 447.689 309.149 447.354 308.758 446.932C308.366 446.51 308.068 446.01 307.883 445.465C307.697 444.92 307.629 444.343 307.681 443.77H333.135H333.105Z" fill="white"/>
<path d="M315.335 497.302L308.337 495.93C309.665 502.315 306.099 509.358 303.071 513.834C301.579 516.012 302.175 519.309 304.026 519.682L308.591 520.578C314.111 521.697 315.335 497.302 315.335 497.302Z" fill="#407BFF"/>
<path d="M318.11 497.856L302.056 494.707C299.547 494.206 297.338 492.732 295.912 490.607C294.486 488.483 293.96 485.88 294.447 483.368C294.944 480.86 296.415 478.651 298.538 477.225C300.66 475.799 303.261 475.272 305.771 475.759L321.825 478.907C324.334 479.405 326.544 480.875 327.972 482.997C329.401 485.119 329.931 487.72 329.449 490.231C328.948 492.741 327.474 494.951 325.35 496.38C323.226 497.808 320.623 498.338 318.11 497.856Z" fill="#407BFF"/>
<path opacity="0.3" d="M318.11 497.856L302.056 494.707C299.547 494.206 297.338 492.732 295.912 490.607C294.486 488.483 293.96 485.88 294.447 483.368C294.944 480.86 296.415 478.651 298.538 477.225C300.66 475.799 303.261 475.272 305.771 475.759L321.825 478.907C324.334 479.405 326.544 480.875 327.972 482.997C329.401 485.119 329.931 487.72 329.449 490.231C328.948 492.741 327.474 494.951 325.35 496.38C323.226 497.808 320.623 498.338 318.11 497.856Z" fill="black"/>
<path d="M274.408 501.123L301.771 500.765C304.144 501.228 310.171 470.507 307.739 470.045L282.54 459.377L274.408 501.123Z" fill="#407BFF"/>
<path d="M280.69 480.682C278.437 492.201 275.617 501.362 274.409 501.123C273.2 500.884 274.051 491.35 276.319 479.817C278.586 468.284 281.391 459.138 282.6 459.377C283.808 459.615 282.958 469.149 280.69 480.682Z" fill="#407BFF"/>
<path opacity="0.3" d="M280.69 480.682C278.437 492.201 275.617 501.362 274.409 501.123C273.2 500.884 274.051 491.35 276.319 479.817C278.586 468.284 281.391 459.138 282.6 459.377C283.808 459.615 282.958 469.149 280.69 480.682Z" fill="black"/>
<path d="M273.856 480.25C274.408 477.43 277.228 475.296 278.571 475.55C279.914 475.803 280.555 478.31 280.063 481.13C279.571 483.95 277.974 486.024 276.632 485.77C275.289 485.516 273.304 483.025 273.856 480.25Z" fill="#407BFF"/>
<path d="M322.48 504.823L318.81 500.929C316.55 498.554 313.61 496.939 310.395 496.303L305.919 495.423C305.498 495.344 305.063 495.432 304.706 495.669C304.349 495.905 304.099 496.273 304.009 496.691C303.472 499.362 302.681 504.882 304.128 509.344C304.288 509.846 304.578 510.296 304.969 510.65C305.359 511.004 305.836 511.248 306.352 511.358L315.945 513.088C317.512 513.476 319.093 513.327 319.69 511.82L322.48 504.823Z" fill="#FFC0BA"/>
<path d="M320.377 514.476L336.894 536.363L338.535 517.549L322.481 504.822C322.481 504.822 315.513 507.806 320.377 514.476Z" fill="#FFC0BA"/>
<path d="M266.487 475.654L247.479 459.406L242.57 466.642L266.487 475.654Z" fill="white"/>
<path d="M269.352 483.502L246.45 493.498L243.854 485.158L269.352 483.502Z" fill="white"/>
<path d="M260.145 479.116L233.11 467.926L230.111 478.743L260.145 479.116Z" fill="white"/>
<path d="M317.139 273.516L312.275 299.089H318.363L326.882 278.619C326.882 278.619 326.27 272.293 317.139 273.516Z" fill="#407BFF"/>
<path d="M370.403 273.517L375.267 299.09H369.179L360.66 278.62C360.66 278.62 361.272 272.294 370.403 273.517Z" fill="#407BFF"/>
<path opacity="0.3" d="M317.139 273.516L312.275 299.089H318.363L326.882 278.619C326.882 278.619 326.27 272.293 317.139 273.516Z" fill="black"/>
<path opacity="0.3" d="M370.403 273.517L375.267 299.09H369.179L360.66 278.62C360.66 278.62 361.272 272.294 370.403 273.517Z" fill="black"/>
<path d="M343.711 287.348C368.934 287.348 389.381 266.901 389.381 241.678C389.381 216.455 368.934 196.008 343.711 196.008C318.488 196.008 298.041 216.455 298.041 241.678C298.041 266.901 318.488 287.348 343.711 287.348Z" fill="#407BFF"/>
<path d="M344.294 276.964C363.781 276.964 379.579 261.166 379.579 241.678C379.579 222.191 363.781 206.393 344.294 206.393C324.806 206.393 309.008 222.191 309.008 241.678C309.008 261.166 324.806 276.964 344.294 276.964Z" fill="white"/>
<path d="M343.711 270.026C359.367 270.026 372.059 257.334 372.059 241.678C372.059 226.022 359.367 213.33 343.711 213.33C328.055 213.33 315.363 226.022 315.363 241.678C315.363 257.334 328.055 270.026 343.711 270.026Z" fill="#407BFF"/>
<path d="M343.711 263.581C355.808 263.581 365.614 253.774 365.614 241.678C365.614 229.582 355.808 219.775 343.711 219.775C331.615 219.775 321.809 229.582 321.809 241.678C321.809 253.774 331.615 263.581 343.711 263.581Z" fill="white"/>
<path d="M343.711 248.004C347.205 248.004 350.037 245.171 350.037 241.678C350.037 238.184 347.205 235.352 343.711 235.352C340.217 235.352 337.385 238.184 337.385 241.678C337.385 245.171 340.217 248.004 343.711 248.004Z" fill="#407BFF"/>
<path d="M394.394 169.51V181.088L381.935 196.008H381.921L379.578 186.966L394.394 169.51Z" fill="#407BFF"/>
<path d="M393.76 180.566L343.062 241.135L344.367 242.226L395.064 181.657L393.76 180.566Z" fill="#263238"/>
<path d="M404.718 181.297L392.365 196.008H381.936L394.394 181.088L404.718 181.297Z" fill="#407BFF"/>
<path opacity="0.2" d="M404.718 181.297L392.365 196.008H381.936L394.394 181.088L404.718 181.297Z" fill="black"/>
<path d="M405.824 247.288L401.855 239.828C401.855 239.828 404.839 234.352 408.555 234.144C412.27 233.935 416.015 237.128 416.015 237.128L420.685 235.188L417.178 248.377C417.178 248.377 410.822 253.629 405.824 247.288Z" fill="#407BFF"/>
<path d="M436.604 275.189C436.604 291.929 426.07 298.733 413.075 298.733C406.831 298.733 400.842 296.252 396.427 291.837C392.012 287.422 389.531 281.433 389.531 275.189C389.531 262.194 400.065 245.603 413.075 245.603C413.075 245.603 436.604 259.866 436.604 275.189Z" fill="#407BFF"/>
<path opacity="0.2" d="M436.604 275.189C436.604 291.929 426.07 298.733 413.075 298.733C406.831 298.733 400.842 296.252 396.427 291.837C392.012 287.422 389.531 281.433 389.531 275.189C389.531 262.194 400.065 245.603 413.075 245.603C413.075 245.603 436.604 259.866 436.604 275.189Z" fill="black"/>
<path d="M420.998 277.919C420.998 281.291 418.283 283.559 414.031 283.887L413.464 286.677H410.927L411.48 283.887C409.393 283.744 407.379 283.065 405.631 281.917L407.347 278.769C408.758 279.789 410.417 280.412 412.151 280.575L413.016 276.278C410.644 275.562 408.048 274.622 408.048 271.548C408.048 268.161 410.823 265.878 415.15 265.58L415.702 262.79H418.253L417.686 265.61C419.34 265.751 420.94 266.261 422.371 267.102L420.879 270.265C419.743 269.519 418.442 269.063 417.089 268.937L416.194 273.413C418.477 274.144 420.998 274.98 420.998 277.919ZM413.718 272.652L414.464 268.997C412.972 269.28 412.196 270.056 412.166 271.026C412.136 271.996 412.807 272.294 413.718 272.652ZM416.881 278.62C416.881 277.874 416.299 277.427 415.389 277.128L414.702 280.605C416.09 280.246 416.881 279.545 416.881 278.62Z" fill="white"/>
</svg>
