<svg width="404" height="431" viewBox="0 0 404 431" fill="none" xmlns="http://www.w3.org/2000/svg">
<path d="M301.819 397.044H156.802C142.539 397.044 130.868 385.361 130.868 371.082V52.002C130.868 37.723 142.539 26.0378 156.802 26.0378H301.819C316.082 26.0378 327.753 37.723 327.753 52.002V371.082C327.753 385.361 316.082 397.044 301.819 397.044Z" fill="white"/>
<path opacity="0.1" d="M318.803 54.1952V365.632C318.803 376.196 310.183 384.84 299.653 384.84H159.776C149.246 384.84 140.63 376.196 140.63 365.632V54.1952C140.63 43.6309 149.246 34.9875 159.776 34.9875H299.653C310.183 34.9875 318.803 43.6309 318.803 54.1952Z" fill="#454238"/>
<rect x="168.292" y="132.621" width="214.783" height="65.0888" rx="32.5444" fill="white"/>
<rect x="180.515" y="140.769" width="48.8853" height="48.8853" rx="24.4427" fill="#454238"/>
<g opacity="0.4">
<rect x="237.547" y="169.285" width="79.0312" height="9.77706" rx="4.88853" fill="#454238"/>
</g>
<g opacity="0.4">
<rect x="320.652" y="169.285" width="40.7378" height="9.77706" rx="4.88853" fill="#454238"/>
</g>
<rect x="237.547" y="151.36" width="57.0329" height="9.77706" rx="4.88853" fill="#454238"/>
<rect x="298.653" y="151.36" width="47.2558" height="9.77706" rx="4.88853" fill="#454238"/>
<rect x="79.6136" y="221.304" width="214.783" height="65.0888" rx="32.5444" fill="white"/>
<rect x="233.603" y="229.452" width="48.8853" height="48.8853" rx="24.4427" fill="#454238"/>
<g opacity="0.4">
<rect x="101.612" y="257.968" width="79.0312" height="9.77706" rx="4.88853" fill="#454238"/>
</g>
<g opacity="0.4">
<rect x="184.717" y="257.968" width="40.7378" height="9.77706" rx="4.88853" fill="#454238"/>
</g>
<rect x="117.092" y="240.043" width="57.0329" height="9.77706" rx="4.88853" fill="#454238"/>
<rect x="178.198" y="240.043" width="47.2558" height="9.77706" rx="4.88853" fill="#454238"/>
<rect x="344.838" y="311.615" width="59.1622" height="59.1648" rx="20" fill="white" fill-opacity="0.3"/>
<path d="M386.586 332.766H366.944C366.499 332.768 366.067 332.912 365.709 333.177C365.351 333.442 365.087 333.815 364.953 334.242L359.519 351.372C359.47 351.519 359.471 351.678 359.521 351.824C359.572 351.97 359.669 352.095 359.798 352.18C359.927 352.264 360.08 352.303 360.233 352.29C360.387 352.278 360.531 352.214 360.645 352.11L363.932 349.198H381.741C382.186 349.2 382.621 349.058 382.979 348.792C383.338 348.526 383.602 348.151 383.732 347.722L387.909 334.545C387.965 334.338 387.973 334.122 387.933 333.911C387.893 333.701 387.806 333.503 387.678 333.331C387.551 333.16 387.386 333.02 387.197 332.922C387.008 332.824 386.799 332.771 386.586 332.766ZM370.178 341.99C369.96 342.223 369.682 342.389 369.374 342.469C369.067 342.549 368.743 342.541 368.44 342.445C368.137 342.348 367.868 342.168 367.662 341.925C367.456 341.681 367.323 341.384 367.277 341.068C367.232 340.751 367.276 340.429 367.404 340.136C367.533 339.844 367.74 339.594 368.004 339.415C368.267 339.236 368.575 339.136 368.892 339.125C369.21 339.114 369.524 339.194 369.798 339.355C370 339.506 370.17 339.697 370.298 339.915C370.427 340.133 370.511 340.375 370.546 340.626C370.582 340.877 370.567 341.132 370.504 341.378C370.441 341.623 370.33 341.854 370.178 342.056V341.99ZM375.757 341.99C375.539 342.223 375.26 342.389 374.953 342.469C374.645 342.549 374.322 342.541 374.019 342.445C373.716 342.348 373.446 342.168 373.24 341.925C373.035 341.681 372.901 341.384 372.856 341.068C372.81 340.751 372.854 340.429 372.983 340.136C373.111 339.844 373.319 339.594 373.582 339.415C373.845 339.236 374.153 339.136 374.471 339.125C374.788 339.114 375.102 339.194 375.377 339.355C375.58 339.505 375.751 339.695 375.881 339.913C376.01 340.132 376.095 340.373 376.13 340.625C376.166 340.877 376.151 341.133 376.087 341.378C376.023 341.624 375.91 341.854 375.757 342.056V341.99ZM381.335 341.99C381.264 342.238 381.138 342.466 380.967 342.658C380.795 342.85 380.582 343 380.345 343.097C380.107 343.193 379.851 343.234 379.595 343.216C379.339 343.199 379.091 343.122 378.868 342.994C378.646 342.865 378.456 342.687 378.312 342.473C378.169 342.259 378.075 342.016 378.039 341.76C378.003 341.505 378.025 341.244 378.104 340.999C378.183 340.753 378.316 340.529 378.494 340.343C378.698 339.887 379.069 339.527 379.531 339.341C379.992 339.154 380.507 339.154 380.968 339.341C381.173 339.493 381.344 339.685 381.474 339.904C381.603 340.124 381.687 340.368 381.721 340.621C381.756 340.874 381.739 341.131 381.673 341.378C381.606 341.624 381.492 341.855 381.335 342.056V341.99Z" fill="#F6F9FB"/>
<rect x="42.1886" y="56.9529" width="59.1622" height="59.1648" rx="20" fill="white" fill-opacity="0.3"/>
<path d="M57.9873 84.7053C59.4233 88.4915 71.7403 98.4393 71.7403 98.4393C71.7403 98.4393 75.7571 95.1758 79.474 91.6607C82.2561 89.0613 84.8583 86.3226 85.4751 84.7053C86.9336 80.9406 85.3819 75.5554 80.0009 74.6418C74.638 73.7293 71.7403 79.3416 71.7403 79.3416C71.7403 79.3416 68.8458 73.7293 63.4615 74.6418C62.5266 74.8036 61.7042 75.1002 60.9975 75.5083C57.6446 77.3816 56.7997 81.6015 57.9873 84.7053Z" fill="white"/>
<path opacity="0.3" d="M401.989 24.8094C401.989 38.5844 390.814 49.6304 377.169 49.6304C376.26 49.6304 375.35 49.6304 374.44 49.5005C369.762 48.9807 365.344 47.1613 361.576 44.1724L350.53 45.8618L355.078 36.3752C348.711 24.1596 353.389 9.21504 365.474 2.84734C377.689 -3.52036 392.633 1.15795 399 13.2436C401.08 16.7523 401.989 20.7809 401.989 24.8094Z" fill="white"/>
<path d="M368.965 24.2327L374.293 29.4309L384.169 19.5544" stroke="white" stroke-width="2" stroke-linecap="round" stroke-linejoin="round"/>
<g clip-path="url(#clip0_3099_534)">
<rect x="0.695312" y="320.564" width="110.436" height="110.441" rx="55.218" fill="white" fill-opacity="0.3"/>
<path d="M82.2434 402.202C80.6388 414.647 69.5304 412.306 64.7167 411.443C64.3465 414.154 64.2231 416.865 64.4699 419.699C64.8402 424.011 66.4447 427.092 68.543 431.281C68.543 431.281 63.1122 440.768 50.1524 439.167C49.7821 439.167 49.4118 439.043 49.0415 439.043C41.6359 437.811 34.724 434.484 29.1698 429.556C30.7744 428.447 32.2555 427.215 33.6132 425.736C42.4999 416.125 43.7342 401.217 43.7342 401.217C40.2782 398.999 37.5628 395.795 35.7114 392.099C33.2429 387.047 35.7114 384.336 35.7114 384.336C35.7114 384.336 41.5125 379.9 47.5604 390.127C48.9181 384.706 48.301 379.161 45.9559 374.109L46.4496 374.233C49.9055 375.218 70.5178 380.64 76.6892 368.565C76.6892 368.565 78.664 370.166 79.6514 374.849C82.7371 383.843 83.6011 393.084 82.2434 402.202Z" fill="#FFACAB"/>
<path d="M29.5483 372.589C30.0394 375.77 31.39 378.462 35.6874 383.968C35.6874 383.968 41.4581 379.563 47.4744 389.719C48.825 384.335 48.2111 378.829 45.8783 373.813C45.8783 373.813 69.6978 381.399 76.4508 368.307C79.3976 364.636 79.3975 358.029 79.3975 358.029C79.3975 358.029 80.8709 352.034 76.0824 348.363C72.0307 345.182 64.6638 346.895 62.8221 348.853C62.8221 348.853 45.7555 344.448 35.4418 353.624C30.5306 358.519 28.1977 365.615 29.5483 372.589Z" fill="#741648"/>
<path d="M75.5436 356.361C75.5436 356.361 75.5436 375.74 51.1364 369.913" stroke="#571036" stroke-linecap="round" stroke-linejoin="round"/>
<path d="M58.4592 352.475C58.4592 352.475 43.4969 350.606 37.3648 358.83C30.4969 368.052 36.2611 377.273 37.3648 379.142" stroke="#571036" stroke-linecap="round" stroke-linejoin="round"/>
<path d="M53.5782 405.991C53.5782 405.991 56.7777 414.873 64.7123 419.822C64.4564 417.031 64.5843 414.112 64.9683 411.32C64.9683 411.32 57.6735 409.544 53.5782 405.991Z" fill="#F78489"/>
<path d="M45.4401 372.633C45.4401 372.633 48.659 377.71 56.8301 379.142" stroke="#741648" stroke-linecap="round" stroke-linejoin="round"/>
<path d="M50.3227 439.349C49.9494 439.349 49.5761 439.222 49.2028 439.222C41.7371 437.953 34.7691 434.527 29.1698 429.451C30.7874 428.309 32.2805 427.04 33.6492 425.517C37.7554 431.481 43.6036 436.303 50.3227 439.349Z" fill="#F78489"/>
</g>
<g clip-path="url(#clip1_3099_534)">
<rect x="79.6121" y="327.073" width="68.4816" height="28.1091" rx="14.0545" fill="white"/>
<rect x="94.6121" y="336.823" width="15.5172" height="15" rx="7.5" fill="#454238"/>
<g opacity="0.7">
<rect x="113.879" y="336.823" width="15.5172" height="15" rx="7.5" fill="#454238"/>
</g>
<g opacity="0.3">
<rect x="133.146" y="336.823" width="15.5172" height="15" rx="7.5" fill="#454238"/>
</g>
</g>
<defs>
<clipPath id="clip0_3099_534">
<rect x="0.695312" y="320.564" width="110.436" height="110.441" rx="55.218" fill="white"/>
</clipPath>
<clipPath id="clip1_3099_534">
<rect x="79.6121" y="327.073" width="68.4816" height="28.1091" rx="14.0545" fill="white"/>
</clipPath>
</defs>
</svg>
