<svg width="750" height="500" viewBox="0 0 750 500" fill="none" xmlns="http://www.w3.org/2000/svg">
<path d="M692.37 304.22L679.25 304.5L672.59 304.61C670.36 304.66 668.12 304.61 665.89 304.67H665.45V304.22L665.39 293V292.5H665.89L679.13 292.56C683.55 292.56 687.96 292.67 692.37 292.72H692.65V293C692.65 294.9 692.57 296.79 692.52 298.66L692.37 304.22ZM692.37 304.22L692.23 298.57C692.18 296.71 692.12 294.87 692.1 293.03L692.37 293.31C687.96 293.36 683.55 293.47 679.13 293.47L665.89 293.53L666.39 293.03V304.22L665.94 303.78C668.12 303.78 670.3 303.78 672.49 303.83L679 304L692.37 304.22Z" fill="#EBEBEB"/>
<path d="M677.6 318.33L664.48 318.61L657.81 318.72C655.59 318.72 653.35 318.72 651.12 318.78H650.68V318.33V307.14V306.64H651.18L664.42 306.71C668.83 306.71 673.25 306.82 677.66 306.87H677.94V307.14C677.94 309.04 677.86 310.93 677.81 312.8L677.6 318.33ZM677.6 318.33L677.46 312.68C677.41 310.82 677.35 308.98 677.33 307.14L677.6 307.42C673.19 307.47 668.77 307.58 664.36 307.58L651.12 307.64L651.62 307.14V318.33L651.17 317.89C653.35 317.89 655.53 317.89 657.72 317.94L664.29 318.06L677.6 318.33Z" fill="#EBEBEB"/>
<path d="M707.14 318.33L694.02 318.61L687.36 318.72C685.13 318.72 682.89 318.72 680.66 318.78H680.22V318.33L680.16 307.14V306.64H680.66L693.9 306.71C698.32 306.71 702.73 306.82 707.14 306.87H707.42V307.14C707.42 309.04 707.33 310.93 707.29 312.8L707.14 318.33ZM707.14 318.33L707 312.68C707 310.82 706.89 308.98 706.87 307.14L707.14 307.42C702.73 307.47 698.32 307.58 693.9 307.58L680.66 307.64L681.16 307.14V318.33L680.71 317.89C682.9 317.89 685.07 317.89 687.26 317.94L693.84 318.06L707.14 318.33Z" fill="#EBEBEB"/>
<path d="M314.79 171.07L301.67 171.35L295.01 171.46C292.78 171.46 290.54 171.46 288.31 171.46H287.87V171.01L287.81 159.82V159.32H288.31L301.55 159.38C305.97 159.38 310.38 159.49 314.79 159.54H315.07V159.81C315.07 161.71 314.98 163.59 314.93 165.46L314.79 171.07ZM314.79 171.07L314.65 165.41C314.65 163.55 314.54 161.71 314.52 159.88L314.79 160.15C310.38 160.15 305.97 160.31 301.55 160.31L288.31 160.38L288.81 159.88L288.76 171.07L288.31 170.62C290.49 170.62 292.67 170.62 294.86 170.68L301.44 170.79L314.79 171.07Z" fill="#EBEBEB"/>
<path d="M300 185.18L286.88 185.46L280.21 185.57C277.99 185.57 275.75 185.57 273.52 185.62H273.08V185.17L273 174V173.5H273.5L286.74 173.56C291.15 173.56 295.57 173.67 299.98 173.72H300.26V174C300.26 175.9 300.18 177.78 300.13 179.65L300 185.18ZM300 185.18L299.86 179.52C299.81 177.66 299.75 175.82 299.73 173.99L300 174.26C295.59 174.31 291.17 174.42 286.76 174.42L273.52 174.49L274.02 173.99L274 185.18L273.55 184.73C275.73 184.73 277.91 184.73 280.1 184.79L286.67 184.9L300 185.18Z" fill="#EBEBEB"/>
<path d="M329.56 185.18L316.44 185.46L309.78 185.57C307.55 185.57 305.32 185.57 303.08 185.62H302.64V185.17L302.58 174V173.5H303.08L316.32 173.56C320.74 173.56 325.15 173.67 329.56 173.72H329.84V174C329.84 175.9 329.75 177.78 329.71 179.65L329.56 185.18ZM329.56 185.18L329.42 179.52C329.42 177.66 329.31 175.82 329.29 173.99L329.56 174.26C325.15 174.31 320.74 174.42 316.32 174.42L303.08 174.49L303.58 173.99L303.53 185.18L303.08 184.73C305.27 184.73 307.44 184.73 309.63 184.79L316.21 184.9L329.56 185.18Z" fill="#EBEBEB"/>
<path d="M98.88 245.11L85.76 245.39L79.09 245.5C76.87 245.5 74.63 245.5 72.4 245.55H72V245.1V233.91V233.41H72.5L85.74 233.47C90.15 233.47 94.57 233.58 98.98 233.63H99.26V233.9C99.26 235.8 99.18 237.68 99.13 239.55L98.88 245.11ZM98.88 245.11L98.74 239.45C98.74 237.59 98.63 235.75 98.61 233.92L98.88 234.19C94.47 234.24 90.05 234.35 85.64 234.35L72.4 234.42L72.9 233.92L72.85 245.11L72.4 244.66C74.58 244.66 76.76 244.66 78.95 244.72L85.52 244.83L98.88 245.11Z" fill="#EBEBEB"/>
<path d="M537.86 171.06L524.74 171.34L518.08 171.45C515.85 171.5 513.61 171.45 511.38 171.5H510.94V171.05L510.88 159.86V159.36H511.38L524.62 159.42C529.04 159.42 533.45 159.54 537.86 159.59H538.14V159.86C538.14 161.76 538.06 163.65 538.01 165.51L537.86 171.06ZM537.86 171.06L537.72 165.41C537.67 163.54 537.61 161.7 537.59 159.87L537.86 160.14C533.45 160.19 529.04 160.3 524.62 160.31L511.38 160.37L511.88 159.87L511.83 171.06L511.38 170.61C513.56 170.61 515.74 170.61 517.93 170.67L524.51 170.78L537.86 171.06Z" fill="#EBEBEB"/>
<path d="M690.84 62.3799L677.72 62.6599L671.05 62.7699C668.83 62.7699 666.59 62.7699 664.36 62.8299H663.92V62.3799V51.1899V50.6899H664.42L677.66 50.7499C682.07 50.7499 686.49 50.8699 690.9 50.9199H691.18V51.1899C691.18 53.0899 691.1 54.9799 691.05 56.8399L690.84 62.3799ZM690.84 62.3799L690.7 56.7299C690.65 54.8599 690.59 53.0199 690.57 51.1899L690.84 51.4599C686.43 51.4599 682.01 51.6199 677.6 51.6299L664.36 51.6899L664.86 51.1899L664.81 62.3799L664.36 61.9299C666.54 61.9299 668.72 61.9299 670.91 61.9899L677.48 62.0999L690.84 62.3799Z" fill="#EBEBEB"/>
<path d="M705.61 76.4898L692.49 76.7698L685.83 76.8798C683.6 76.9298 681.36 76.8798 679.13 76.9398H678.69V76.4898L678.63 65.2998V64.7998H679.13L692.37 64.8598C696.79 64.8598 701.2 64.9798 705.61 65.0298H705.89V65.2998C705.89 67.1998 705.8 69.0898 705.75 70.9498L705.61 76.4898ZM705.61 76.4898L705.47 70.8398C705.47 68.9698 705.36 67.1298 705.34 65.2998L705.61 65.5698C701.2 65.6198 696.79 65.7298 692.37 65.7398L679.13 65.7998L679.63 65.2998V76.4898L679.18 76.0398C681.36 76.0398 683.54 76.0398 685.73 76.0998L692.31 76.2098L705.61 76.4898Z" fill="#EBEBEB"/>
<path d="M69.3399 62.3897L56.2099 62.6697L49.5499 62.7797C47.3299 62.7797 45.0899 62.7797 42.8599 62.8397H42.4099V62.3897V51.1997V50.6997H42.9199L56.1599 50.7697C60.5699 50.7697 64.9799 50.8797 69.3999 50.9297H69.6699V51.1997C69.6699 53.0997 69.5799 54.9897 69.5399 56.8597L69.3399 62.3897ZM69.3399 62.3897L69.1899 56.7397C69.1899 54.8797 69.0799 53.0297 69.0599 51.1997L69.3399 51.4697C64.9199 51.5297 60.5099 51.6297 56.0999 51.6397L42.8599 51.6997L43.3599 51.1997L43.2999 62.3897L42.8599 61.9997C45.0399 61.9997 47.2099 61.9997 49.3999 61.9997L55.9799 62.1097L69.3399 62.3897Z" fill="#EBEBEB"/>
<path d="M691.62 179.82L697.51 170.33L694.6 168.53C694.184 168.268 693.848 167.895 693.631 167.454C693.414 167.013 693.324 166.52 693.37 166.03C693.4 165.474 693.4 164.916 693.37 164.36C693.355 163.869 693.478 163.384 693.723 162.958C693.969 162.532 694.328 162.183 694.76 161.95L697.76 160.33L692.48 150.49L689.48 152.1C689.046 152.332 688.555 152.438 688.064 152.407C687.573 152.375 687.1 152.206 686.7 151.92C686.25 151.61 685.77 151.31 685.28 151.04C684.847 150.809 684.487 150.462 684.24 150.038C683.993 149.615 683.868 149.131 683.88 148.64L683.99 145.22L672.83 144.87L672.73 148.3C672.709 148.792 672.552 149.268 672.277 149.676C672.001 150.084 671.618 150.407 671.17 150.61L670.44 150.98C670.19 151.11 669.95 151.25 669.72 151.39C669.304 151.648 668.824 151.784 668.335 151.784C667.845 151.784 667.366 151.648 666.95 151.39L664.02 149.58L658.13 159.07L661.05 160.87C661.464 161.134 661.798 161.507 662.015 161.948C662.232 162.389 662.324 162.881 662.28 163.37C662.23 163.925 662.21 164.483 662.22 165.04C662.234 165.529 662.113 166.012 661.87 166.436C661.626 166.859 661.27 167.207 660.84 167.44L657.84 169.06L663.12 178.91L666.12 177.29C666.553 177.062 667.041 176.958 667.53 176.99C668.019 177.022 668.489 177.188 668.89 177.47C669.344 177.785 669.815 178.075 670.3 178.34C670.736 178.569 671.099 178.917 671.347 179.344C671.595 179.77 671.717 180.257 671.7 180.75L671.6 184.17L682.76 184.52L682.87 181.09C682.889 180.601 683.045 180.126 683.318 179.72C683.592 179.314 683.974 178.992 684.42 178.79L685.16 178.42L685.88 178.01C686.298 177.753 686.779 177.616 687.27 177.616C687.761 177.616 688.242 177.753 688.66 178.01L691.62 179.82ZM682.17 172.82C680.575 173.675 678.762 174.038 676.961 173.863C675.16 173.688 673.451 172.982 672.051 171.836C670.651 170.69 669.622 169.154 669.094 167.423C668.567 165.692 668.564 163.844 669.087 162.112C669.61 160.379 670.635 158.841 672.032 157.691C673.429 156.541 675.136 155.831 676.937 155.651C678.737 155.471 680.551 155.829 682.148 156.68C683.745 157.53 685.054 158.836 685.91 160.43C687.044 162.564 687.288 165.06 686.587 167.372C685.886 169.684 684.298 171.625 682.17 172.77V172.82Z" fill="#EBEBEB"/>
<path d="M157.21 377.9L153.3 371.12L151.22 372.32C150.921 372.491 150.579 372.575 150.235 372.563C149.89 372.551 149.556 372.442 149.27 372.25C148.947 372.039 148.613 371.846 148.27 371.67C147.967 371.512 147.713 371.273 147.537 370.981C147.36 370.688 147.268 370.352 147.27 370.01V367.62H139.4V370C139.402 370.342 139.31 370.678 139.133 370.971C138.957 371.263 138.703 371.502 138.4 371.66C138.05 371.84 137.71 372.03 137.4 372.24C137.108 372.442 136.765 372.556 136.41 372.569C136.056 372.581 135.705 372.491 135.4 372.31L133.33 371.11L129.42 377.89L131.5 379.09C131.796 379.264 132.039 379.517 132.199 379.821C132.36 380.125 132.433 380.467 132.41 380.81C132.41 381 132.41 381.2 132.41 381.39C132.41 381.58 132.41 381.77 132.41 381.97C132.433 382.311 132.361 382.651 132.202 382.953C132.044 383.255 131.804 383.507 131.51 383.68L129.42 384.89L133.33 391.67L135.41 390.47C135.715 390.289 136.066 390.199 136.42 390.211C136.775 390.224 137.118 390.338 137.41 390.54C137.733 390.751 138.067 390.944 138.41 391.12C138.712 391.277 138.964 391.514 139.141 391.805C139.317 392.096 139.41 392.43 139.41 392.77V395.17H147.24V392.77C147.239 392.43 147.331 392.096 147.508 391.804C147.684 391.513 147.938 391.277 148.24 391.12C148.58 390.94 148.92 390.75 149.24 390.54C149.526 390.348 149.86 390.24 150.205 390.227C150.549 390.215 150.891 390.299 151.19 390.47L153.27 391.67L157.18 384.89L155.1 383.69C154.803 383.516 154.561 383.263 154.401 382.959C154.24 382.656 154.167 382.313 154.19 381.97C154.19 381.78 154.19 381.58 154.19 381.39C154.19 381.2 154.19 381 154.19 380.81C154.167 380.467 154.24 380.125 154.401 379.821C154.561 379.517 154.803 379.264 155.1 379.09L157.21 377.9ZM149.73 381.4C149.73 382.668 149.354 383.907 148.65 384.961C147.945 386.015 146.944 386.837 145.773 387.322C144.602 387.807 143.313 387.934 142.069 387.687C140.826 387.44 139.684 386.829 138.787 385.933C137.891 385.036 137.28 383.894 137.033 382.651C136.786 381.407 136.913 380.118 137.398 378.947C137.883 377.776 138.705 376.775 139.759 376.07C140.813 375.366 142.052 374.99 143.32 374.99C145.02 374.99 146.65 375.665 147.852 376.868C149.055 378.07 149.73 379.7 149.73 381.4Z" fill="#EBEBEB"/>
<path d="M89.8999 301.229C83.8711 301.228 77.9771 303.013 72.9634 306.361C67.9497 309.709 64.0414 314.469 61.7329 320.038C59.4245 325.608 58.8194 331.736 59.9944 337.65C61.1693 343.563 64.0715 348.995 68.3338 353.259C72.5961 357.522 78.0271 360.426 83.9399 361.603C89.8527 362.78 95.9817 362.177 101.552 359.87C107.122 357.564 111.883 353.657 115.232 348.644C118.582 343.632 120.37 337.738 120.37 331.709C120.371 327.707 119.584 323.744 118.053 320.046C116.523 316.348 114.279 312.988 111.449 310.157C108.619 307.327 105.26 305.082 101.563 303.55C97.8652 302.018 93.9021 301.229 89.8999 301.229ZM89.8999 345.929C87.0851 345.929 84.3334 345.095 81.9931 343.531C79.6528 341.967 77.8289 339.744 76.7522 337.143C75.6754 334.542 75.3942 331.68 75.9441 328.92C76.494 326.159 77.8502 323.624 79.8413 321.634C81.8324 319.644 84.3689 318.29 87.1299 317.742C89.8909 317.194 92.7524 317.477 95.3524 318.556C97.9525 319.634 100.174 321.46 101.737 323.801C103.299 326.142 104.132 328.895 104.13 331.709C104.127 335.482 102.627 339.099 99.9585 341.765C97.2902 344.432 93.6722 345.929 89.8999 345.929Z" fill="#EBEBEB"/>
<path d="M95.7598 302.5H84.0398L84.6898 294.2H95.1098L95.7598 302.5Z" fill="#EBEBEB"/>
<path d="M73.45 306.44L65.17 314.73L59.76 308.41L67.13 301.04L73.45 306.44Z" fill="#EBEBEB"/>
<path d="M60.4699 325.01V336.73L52.1799 336.08V325.66L60.4699 325.01Z" fill="#EBEBEB"/>
<path d="M64.42 347.31L72.71 355.6L66.39 361L59.02 353.63L64.42 347.31Z" fill="#EBEBEB"/>
<path d="M82.98 360.29H94.7L94.06 368.59H83.63L82.98 360.29Z" fill="#EBEBEB"/>
<path d="M105.29 356.34L113.58 348.06L118.98 354.38L111.61 361.75L105.29 356.34Z" fill="#EBEBEB"/>
<path d="M118.27 337.78V326.06L126.56 326.71V337.13L118.27 337.78Z" fill="#EBEBEB"/>
<path d="M114.32 315.48L106.03 307.19L112.36 301.78L119.73 309.15L114.32 315.48Z" fill="#EBEBEB"/>
<path d="M93.87 118C93.87 116.75 94.04 113.42 94.04 112C94.04 105.92 91.87 103.17 86.21 103C83.54 102.84 81.96 101.26 81.96 99C81.96 96.74 83.54 95.17 86.21 95C91.87 94.78 94 92.12 94 86C94 84.59 93.83 81.26 93.83 80C93.83 71.92 97.24 66.76 110.15 63.93C112.73 63.34 114.73 64.93 114.73 67.34C114.755 68.0824 114.543 68.8134 114.124 69.4267C113.704 70.0399 113.101 70.5035 112.4 70.75C104.32 73.25 103.15 75.83 103.15 81.5C103.15 83.16 103.32 85.91 103.32 87.66C103.32 94.15 100.16 97.32 94.66 99.07C100.24 100.9 103.32 103.98 103.32 110.48C103.32 112.22 103.15 114.97 103.15 116.64C103.15 122.3 104.32 124.88 112.4 127.38C113.101 127.626 113.704 128.09 114.124 128.703C114.543 129.317 114.755 130.048 114.73 130.79C114.73 133.21 112.73 134.79 110.15 134.21C97.28 131.34 93.87 126.17 93.87 118Z" fill="#EBEBEB"/>
<path d="M142.67 79.9998C142.67 81.2498 142.5 84.5798 142.5 85.9998C142.5 92.1698 144.75 94.8298 150.41 95.0798C152.99 95.2498 154.57 96.8298 154.57 99.0798C154.57 101.33 152.99 102.91 150.41 103.08C144.75 103.25 142.5 106 142.5 112.08C142.5 113.49 142.67 116.82 142.67 118.08C142.67 126.24 139.25 131.41 126.34 134.24C123.76 134.82 121.77 133.24 121.77 130.82C121.744 130.066 121.965 129.325 122.4 128.709C122.836 128.093 123.461 127.637 124.18 127.41C132.18 124.91 133.34 122.33 133.34 116.67C133.34 115 133.17 112.25 133.17 110.51C133.17 104.01 136.34 100.85 141.83 99.0998C136.25 97.2698 133.17 94.1798 133.17 87.6898C133.17 85.9398 133.34 83.1898 133.34 81.5298C133.34 75.8598 132.17 73.2798 124.18 70.7798C123.461 70.5529 122.836 70.0966 122.4 69.4808C121.965 68.865 121.744 68.1235 121.77 67.3698C121.77 64.9598 123.77 63.3698 126.34 63.9598C139.25 66.7198 142.67 71.8798 142.67 79.9998Z" fill="#EBEBEB"/>
<path d="M50.72 447.25L131.79 447.01L212.86 446.92L375 446.75L537.14 446.92L618.21 447.01L699.28 447.25L618.21 447.5L537.14 447.59L375 447.75L212.86 447.58L131.79 447.5L50.72 447.25Z" fill="#263238"/>
<path d="M649.89 427.23H100.11V447.25H649.89V427.23Z" fill="#C7C7C7"/>
<path d="M593.08 135.47H156.92V427.23H593.08V135.47Z" fill="#DBDBDB"/>
<path d="M589.92 139.03H160.09V423.67H589.92V139.03Z" fill="#263238"/>
<path d="M570.88 157.32H179.12V405.37H570.88V157.32Z" fill="#455A64"/>
<path d="M263.12 166.87H179.12V405.38H263.12V166.87Z" fill="#37474F"/>
<path d="M188.11 166.87H179.12V405.38H188.11V166.87Z" fill="#455A64"/>
<path d="M263.13 248.44H188.11V251.99H263.13V248.44Z" fill="url(#paint0_linear_3211_838)"/>
<path d="M225.64 178.71H196.47V180.3H225.64V178.71Z" fill="white"/>
<path d="M192.74 179H194.62L193.68 180L192.74 179Z" fill="white"/>
<path d="M202.68 184.6H198.81V186.19H202.68V184.6Z" fill="white"/>
<path d="M196.47 186.33V184.45L197.47 185.39L196.47 186.33Z" fill="white"/>
<path d="M202.68 190.49H198.81V192.08H202.68V190.49Z" fill="white"/>
<path d="M196.03 190.78H197.91L196.97 191.78L196.03 190.78Z" fill="white"/>
<path d="M202.68 196.38H198.81V197.97H202.68V196.38Z" fill="white"/>
<path d="M196.03 196.67H197.91L196.97 197.68L196.03 196.67Z" fill="white"/>
<path d="M205.03 202.27H201.16V203.86H205.03V202.27Z" fill="white"/>
<path d="M198.81 204V202.12L199.82 203.06L198.81 204Z" fill="white"/>
<path d="M207.38 208.17H203.51V209.76H207.38V208.17Z" fill="white"/>
<path d="M201.16 209.9V208.02L202.17 208.96L201.16 209.9Z" fill="white"/>
<path d="M207.38 267.07H203.51V268.66H207.38V267.07Z" fill="white"/>
<path d="M201.16 268.8V266.92L202.17 267.86L201.16 268.8Z" fill="white"/>
<path d="M209.73 214.05H205.86V215.64H209.73V214.05Z" fill="white"/>
<path d="M203.51 215.78V213.9L204.52 214.84L203.51 215.78Z" fill="white"/>
<path d="M209.73 261.181H205.86V262.771H209.73V261.181Z" fill="white"/>
<path d="M203.51 262.91V261.03L204.52 261.97L203.51 262.91Z" fill="white"/>
<path d="M212.08 219.94H208.21V221.53H212.08V219.94Z" fill="white"/>
<path d="M205.86 221.67V219.79L206.87 220.73L205.86 221.67Z" fill="white"/>
<path d="M212.08 255.28H208.21V256.87H212.08V255.28Z" fill="white"/>
<path d="M205.86 257.021V255.141L206.87 256.081L205.86 257.021Z" fill="white"/>
<path d="M214.43 225.84H210.56V227.43H214.43V225.84Z" fill="white"/>
<path d="M208.21 227.57V225.69L209.22 226.63L208.21 227.57Z" fill="white"/>
<path d="M214.87 231.72H211V233.31H214.87V231.72Z" fill="white"/>
<path d="M208.21 232.01H210.09L209.15 233.02L208.21 232.01Z" fill="white"/>
<path d="M214.87 237.61H211V239.2H214.87V237.61Z" fill="white"/>
<path d="M208.21 237.9H210.09L209.15 238.91L208.21 237.9Z" fill="white"/>
<path d="M214.87 243.5H211V245.09H214.87V243.5Z" fill="white"/>
<path d="M208.21 243.79H210.09L209.15 244.8L208.21 243.79Z" fill="white"/>
<path d="M214.87 249.391H211V250.981H214.87V249.391Z" fill="white"/>
<path d="M208.21 249.681H210.09L209.15 250.691L208.21 249.681Z" fill="white"/>
<path d="M202.68 272.96H198.81V274.55H202.68V272.96Z" fill="white"/>
<path d="M196.47 274.691V272.811L197.47 273.751L196.47 274.691Z" fill="white"/>
<path d="M202.68 278.851H198.81V280.441H202.68V278.851Z" fill="white"/>
<path d="M196.03 279.141H197.91L196.97 280.151L196.03 279.141Z" fill="white"/>
<path d="M202.68 284.74H198.81V286.33H202.68V284.74Z" fill="white"/>
<path d="M196.03 285.03H197.91L196.97 286.04L196.03 285.03Z" fill="white"/>
<path d="M205.03 290.63H201.16V292.22H205.03V290.63Z" fill="white"/>
<path d="M198.81 292.37V290.49L199.82 291.43L198.81 292.37Z" fill="white"/>
<path d="M207.38 296.53H203.51V298.12H207.38V296.53Z" fill="white"/>
<path d="M201.16 298.26V296.38L202.17 297.32L201.16 298.26Z" fill="white"/>
<path d="M207.38 302.42H203.51V304.01H207.38V302.42Z" fill="white"/>
<path d="M201.16 304.16V302.28L202.17 303.22L201.16 304.16Z" fill="white"/>
<path d="M207.82 308.311H203.95V309.901H207.82V308.311Z" fill="white"/>
<path d="M201.16 308.601H203.04L202.1 309.611L201.16 308.601Z" fill="white"/>
<path d="M207.82 314.2H203.95V315.79H207.82V314.2Z" fill="white"/>
<path d="M201.16 314.49H203.04L202.1 315.5L201.16 314.49Z" fill="white"/>
<path d="M207.82 320.09H203.95V321.68H207.82V320.09Z" fill="white"/>
<path d="M201.16 320.38H203.04L202.1 321.39L201.16 320.38Z" fill="white"/>
<path d="M207.82 325.98H203.95V327.57H207.82V325.98Z" fill="white"/>
<path d="M201.16 326.271H203.04L202.1 327.281L201.16 326.271Z" fill="white"/>
<path d="M570.88 157.32H179.12V166.86H570.88V157.32Z" fill="url(#paint1_linear_3211_838)"/>
<path d="M188.11 162.1C188.11 162.458 188.004 162.808 187.805 163.106C187.606 163.403 187.324 163.635 186.993 163.772C186.662 163.909 186.298 163.945 185.947 163.875C185.596 163.805 185.274 163.633 185.02 163.38C184.767 163.127 184.595 162.804 184.525 162.453C184.455 162.102 184.491 161.738 184.628 161.407C184.765 161.077 184.997 160.794 185.295 160.595C185.592 160.396 185.942 160.29 186.3 160.29C186.78 160.29 187.241 160.481 187.58 160.82C187.92 161.16 188.11 161.62 188.11 162.1Z" fill="#C7C7C7"/>
<path d="M195.48 162.1C195.48 162.458 195.374 162.808 195.175 163.106C194.976 163.403 194.694 163.635 194.363 163.772C194.032 163.909 193.668 163.945 193.317 163.875C192.966 163.805 192.643 163.633 192.39 163.38C192.137 163.127 191.965 162.804 191.895 162.453C191.825 162.102 191.861 161.738 191.998 161.407C192.135 161.077 192.367 160.794 192.665 160.595C192.962 160.396 193.312 160.29 193.67 160.29C194.15 160.29 194.611 160.481 194.95 160.82C195.289 161.16 195.48 161.62 195.48 162.1Z" fill="white"/>
<path d="M202.86 162.1C202.86 162.458 202.754 162.808 202.555 163.106C202.356 163.403 202.074 163.635 201.743 163.772C201.412 163.909 201.048 163.945 200.697 163.875C200.346 163.805 200.024 163.633 199.77 163.38C199.517 163.127 199.345 162.804 199.275 162.453C199.205 162.102 199.241 161.738 199.378 161.407C199.515 161.077 199.747 160.794 200.045 160.595C200.342 160.396 200.692 160.29 201.05 160.29C201.53 160.29 201.991 160.481 202.33 160.82C202.67 161.16 202.86 161.62 202.86 162.1Z" fill="#455A64"/>
<path d="M289.93 209.28H282.86V211.01H289.93V209.28Z" fill="#EBEBEB"/>
<path d="M454.93 209.28H298.26V211.01H454.93V209.28Z" fill="#EBEBEB"/>
<path d="M472.7 209.28H459.28V211.01H472.7V209.28Z" fill="url(#paint2_linear_3211_838)"/>
<path d="M526.07 250.26H480.76V251.99H526.07V250.26Z" fill="#EBEBEB"/>
<path d="M542.14 209.28H475.62V211.01H542.14V209.28Z" fill="#A6A6A6"/>
<path d="M289.93 217.47H282.86V219.2H289.93V217.47Z" fill="#EBEBEB"/>
<path d="M358.36 217.47H305.15V219.2H358.36V217.47Z" fill="#A6A6A6"/>
<path d="M477.58 250.26H457.45V251.99H477.58V250.26Z" fill="#A6A6A6"/>
<path d="M349.08 242.061H298.26V243.791H349.08V242.061Z" fill="#A6A6A6"/>
<path d="M340.8 225.67H305.15V227.4H340.8V225.67Z" fill="url(#paint3_linear_3211_838)"/>
<path d="M535.8 233.86H468.26V235.59H535.8V233.86Z" fill="#A6A6A6"/>
<path d="M454.94 274.09H387.4V275.82H454.94V274.09Z" fill="#A6A6A6"/>
<path d="M477.29 225.67H344.76V227.4H477.29V225.67Z" fill="#A6A6A6"/>
<path d="M452.84 250.26H298.26V251.99H452.84V250.26Z" fill="url(#paint4_linear_3211_838)"/>
<path d="M471.21 217.47H361.7V219.2H471.21V217.47Z" fill="#EBEBEB"/>
<path d="M505.88 225.67H482.96V227.4H505.88V225.67Z" fill="#EBEBEB"/>
<path d="M289.93 225.67H282.86V227.4H289.93V225.67Z" fill="#EBEBEB"/>
<path d="M289.93 233.86H282.86V235.59H289.93V233.86Z" fill="#A6A6A6"/>
<path d="M340.03 233.86H298.26V235.59H340.03V233.86Z" fill="#EBEBEB"/>
<path d="M346.92 258.45H305.15V260.18H346.92V258.45Z" fill="#EBEBEB"/>
<path d="M516.96 266.65H458.64V268.38H516.96V266.65Z" fill="url(#paint5_linear_3211_838)"/>
<path d="M454.99 266.65H342.93V268.38H454.99V266.65Z" fill="#EBEBEB"/>
<path d="M336.55 266.65H305.15V268.38H336.55V266.65Z" fill="#A6A6A6"/>
<path d="M472.7 242.061H351.96V243.791H472.7V242.061Z" fill="#EBEBEB"/>
<path d="M547.66 242.061H475.62V243.791H547.66V242.061Z" fill="url(#paint6_linear_3211_838)"/>
<path d="M464.97 233.86H344.28V235.59H464.97V233.86Z" fill="url(#paint7_linear_3211_838)"/>
<path d="M289.93 242.061H282.86V243.791H289.93V242.061Z" fill="#EBEBEB"/>
<path d="M289.93 250.26H282.86V251.99H289.93V250.26Z" fill="#EBEBEB"/>
<path d="M289.93 258.45H282.86V260.18H289.93V258.45Z" fill="#A6A6A6"/>
<path d="M289.93 266.65H282.86V268.38H289.93V266.65Z" fill="#EBEBEB"/>
<path d="M289.93 274.09H282.86V275.82H289.93V274.09Z" fill="#EBEBEB"/>
<path d="M381.13 274.09H298.26V275.82H381.13V274.09Z" fill="#EBEBEB"/>
<path d="M289.93 282.29H282.86V284.02H289.93V282.29Z" fill="#EBEBEB"/>
<path d="M358.36 282.29H305.15V284.02H358.36V282.29Z" fill="#A6A6A6"/>
<path d="M349.08 306.87H298.26V308.6H349.08V306.87Z" fill="#A6A6A6"/>
<path d="M340.8 290.48H305.15V292.21H340.8V290.48Z" fill="url(#paint8_linear_3211_838)"/>
<path d="M422.45 323.271H386.8V325.001H422.45V323.271Z" fill="url(#paint9_linear_3211_838)"/>
<path d="M340.8 339.66H305.15V341.39H340.8V339.66Z" fill="url(#paint10_linear_3211_838)"/>
<path d="M477.29 290.48H344.76V292.21H477.29V290.48Z" fill="#A6A6A6"/>
<path d="M452.84 315.07H298.26V316.8H452.84V315.07Z" fill="url(#paint11_linear_3211_838)"/>
<path d="M471.21 282.29H361.7V284.02H471.21V282.29Z" fill="#EBEBEB"/>
<path d="M494.39 298.681H471.51V300.411H494.39V298.681Z" fill="#EBEBEB"/>
<path d="M289.93 290.48H282.86V292.21H289.93V290.48Z" fill="#EBEBEB"/>
<path d="M289.93 298.681H282.86V300.411H289.93V298.681Z" fill="#A6A6A6"/>
<path d="M340.03 298.681H298.26V300.411H340.03V298.681Z" fill="#EBEBEB"/>
<path d="M472.7 306.87H351.96V308.6H472.7V306.87Z" fill="#EBEBEB"/>
<path d="M464.97 298.681H344.28V300.411H464.97V298.681Z" fill="url(#paint12_linear_3211_838)"/>
<path d="M289.93 306.87H282.86V308.6H289.93V306.87Z" fill="#EBEBEB"/>
<path d="M289.93 323.271H282.86V325.001H289.93V323.271Z" fill="#EBEBEB"/>
<path d="M381.13 323.271H298.26V325.001H381.13V323.271Z" fill="#EBEBEB"/>
<path d="M289.93 331.46H282.86V333.19H289.93V331.46Z" fill="#EBEBEB"/>
<path d="M358.36 331.46H305.15V333.19H358.36V331.46Z" fill="#A6A6A6"/>
<path d="M349.08 356.05H298.26V357.78H349.08V356.05Z" fill="#A6A6A6"/>
<path d="M477.29 339.66H344.76V341.39H477.29V339.66Z" fill="#A6A6A6"/>
<path d="M494.39 347.851H471.51V349.581H494.39V347.851Z" fill="#EBEBEB"/>
<path d="M289.93 339.66H282.86V341.39H289.93V339.66Z" fill="#EBEBEB"/>
<path d="M289.93 347.851H282.86V349.581H289.93V347.851Z" fill="#A6A6A6"/>
<path d="M340.03 347.851H298.26V349.581H340.03V347.851Z" fill="#EBEBEB"/>
<path d="M472.7 356.05H351.96V357.78H472.7V356.05Z" fill="#EBEBEB"/>
<path d="M464.97 347.851H344.28V349.581H464.97V347.851Z" fill="url(#paint13_linear_3211_838)"/>
<path d="M289.93 356.05H282.86V357.78H289.93V356.05Z" fill="#EBEBEB"/>
<path d="M287.22 193.44C287.279 193.497 287.326 193.564 287.358 193.639C287.39 193.714 287.407 193.794 287.407 193.875C287.407 193.957 287.39 194.037 287.358 194.112C287.326 194.187 287.279 194.254 287.22 194.31C287.166 194.367 287.1 194.412 287.028 194.443C286.956 194.474 286.878 194.49 286.8 194.49C286.632 194.492 286.471 194.427 286.35 194.31L283.62 191.55C283.62 191.55 283.62 191.55 283.62 191.49C283.616 191.464 283.616 191.437 283.62 191.41C283.62 191.41 283.62 191.36 283.62 191.35C283.62 191.34 283.62 191.35 283.62 191.3V191.23C283.62 191.23 283.62 191.23 283.62 191.17C283.62 191.11 283.62 191.17 283.62 191.12V191C283.62 191 283.62 190.95 283.62 190.92C283.635 190.889 283.651 190.859 283.67 190.83C283.67 190.83 283.67 190.83 283.72 190.77L286.45 188C286.567 187.889 286.723 187.826 286.885 187.826C287.047 187.826 287.203 187.889 287.32 188C287.379 188.057 287.426 188.124 287.458 188.199C287.49 188.274 287.507 188.354 287.507 188.435C287.507 188.517 287.49 188.597 287.458 188.672C287.426 188.747 287.379 188.814 287.32 188.87L285.02 191.19L287.22 193.44Z" fill="url(#paint14_linear_3211_838)"/>
<path d="M289.69 193.75L292.07 188.1C292.097 188.034 292.138 187.974 292.188 187.924C292.239 187.874 292.299 187.834 292.365 187.807C292.431 187.78 292.501 187.767 292.573 187.767C292.644 187.768 292.714 187.782 292.78 187.81C292.843 187.837 292.901 187.877 292.949 187.926C292.997 187.976 293.034 188.034 293.06 188.099C293.085 188.163 293.097 188.231 293.095 188.3C293.094 188.369 293.078 188.437 293.05 188.5L290.67 194.17C290.629 194.266 290.56 194.347 290.473 194.404C290.386 194.461 290.284 194.491 290.18 194.49C290.114 194.504 290.046 194.504 289.98 194.49C289.909 194.464 289.845 194.424 289.791 194.371C289.738 194.319 289.696 194.256 289.668 194.186C289.641 194.116 289.628 194.041 289.632 193.965C289.636 193.89 289.656 193.817 289.69 193.75Z" fill="url(#paint15_linear_3211_838)"/>
<path d="M297.74 191.47C297.74 191.47 297.74 191.52 297.68 191.54L294.95 194.3C294.892 194.358 294.823 194.403 294.748 194.434C294.672 194.465 294.592 194.481 294.51 194.48C294.39 194.477 294.273 194.439 294.174 194.371C294.075 194.302 293.998 194.207 293.953 194.096C293.907 193.984 293.895 193.862 293.918 193.744C293.94 193.626 293.997 193.517 294.08 193.43L296.38 191.11L294.08 188.79C294.021 188.734 293.974 188.667 293.942 188.592C293.91 188.517 293.893 188.437 293.893 188.355C293.893 188.274 293.91 188.193 293.942 188.119C293.974 188.044 294.021 187.976 294.08 187.92C294.197 187.809 294.353 187.746 294.515 187.746C294.677 187.746 294.833 187.809 294.95 187.92L297.68 190.69C297.68 190.69 297.68 190.69 297.74 190.75C297.74 190.75 297.8 190.81 297.74 190.75C297.758 190.779 297.775 190.809 297.79 190.84C297.787 190.87 297.787 190.9 297.79 190.93V190.99C297.79 190.99 297.79 190.99 297.79 191.04V191.17C297.789 191.2 297.789 191.23 297.79 191.26L297.74 191.47Z" fill="url(#paint16_linear_3211_838)"/>
<path d="M169.25 210.71H118.26V144.11H156.7L169.25 156.66V210.71Z" fill="url(#paint17_linear_3211_838)"/>
<path opacity="0.6" d="M169.25 210.71H118.26V144.11H156.7L169.25 156.66V210.71Z" fill="white"/>
<path d="M169.25 156.66H156.7V144.11L169.25 156.66Z" fill="url(#paint18_linear_3211_838)"/>
<path d="M130.05 167.58C130.052 168.332 130.277 169.066 130.696 169.689C131.115 170.313 131.71 170.799 132.405 171.085C133.1 171.37 133.864 171.444 134.601 171.295C135.338 171.146 136.014 170.783 136.544 170.25C137.074 169.717 137.434 169.039 137.579 168.302C137.724 167.564 137.646 166.8 137.357 166.107C137.068 165.413 136.579 164.821 135.953 164.405C135.327 163.989 134.592 163.768 133.84 163.77C133.341 163.77 132.846 163.869 132.385 164.06C131.924 164.252 131.505 164.533 131.153 164.887C130.801 165.241 130.522 165.661 130.333 166.124C130.144 166.586 130.047 167.081 130.05 167.58Z" fill="url(#paint19_linear_3211_838)"/>
<path d="M135.91 184.47H161.7L148.81 168.73L135.91 184.47Z" fill="url(#paint20_linear_3211_838)"/>
<path d="M125.8 184.47H147.09L136.45 174.22L125.8 184.47Z" fill="url(#paint21_linear_3211_838)"/>
<path opacity="0.1" d="M125.8 184.47H147.09L136.45 174.22L125.8 184.47Z" fill="black"/>
<path d="M161.69 159.28H125.8V184.47H161.69V159.28Z" stroke="url(#paint22_linear_3211_838)" stroke-width="2" stroke-miterlimit="10"/>
<path d="M142.5 187.19H105.87V202.35H142.5V187.19Z" fill="#455A64"/>
<path d="M116.63 191.32V198.67H115.21V195.53H111.87V198.67H110.44V191.32H111.87V194.32H115.21V191.32H116.63Z" fill="white"/>
<path d="M123.65 192.57H121.3V198.67H119.89V192.57H117.54V191.32H123.65V192.57Z" fill="white"/>
<path d="M130.56 198.67V193.8L128.66 197.43H127.89L126 193.8V198.67H124.58V191.32H126.11L128.28 195.5L130.48 191.32H132V198.67H130.56Z" fill="white"/>
<path d="M133.52 198.67V191.32H135V197.42H138.75V198.67H133.52Z" fill="white"/>
<path d="M169.25 291.61H118.2V224.94H156.69L169.25 237.5V291.61Z" fill="url(#paint23_linear_3211_838)"/>
<path opacity="0.6" d="M169.25 291.61H118.2V224.94H156.69L169.25 237.5V291.61Z" fill="white"/>
<path d="M169.25 237.5H156.69V224.94L169.25 237.5Z" fill="url(#paint24_linear_3211_838)"/>
<path d="M130 248.43C130.002 249.184 130.227 249.92 130.648 250.545C131.068 251.171 131.664 251.658 132.361 251.944C133.058 252.231 133.824 252.304 134.563 252.155C135.302 252.006 135.98 251.642 136.511 251.107C137.043 250.573 137.404 249.893 137.549 249.154C137.694 248.414 137.616 247.649 137.326 246.953C137.036 246.258 136.546 245.664 135.918 245.247C135.291 244.83 134.554 244.608 133.8 244.61C132.79 244.616 131.824 245.02 131.112 245.736C130.4 246.452 130 247.421 130 248.43Z" fill="url(#paint25_linear_3211_838)"/>
<path d="M135.88 265.34H161.69L148.78 249.58L135.88 265.34Z" fill="url(#paint26_linear_3211_838)"/>
<path d="M125.76 265.34H147.07L136.41 255.08L125.76 265.34Z" fill="url(#paint27_linear_3211_838)"/>
<path opacity="0.1" d="M125.76 265.34H147.07L136.41 255.08L125.76 265.34Z" fill="black"/>
<path d="M161.69 240.13H125.76V265.34H161.69V240.13Z" stroke="url(#paint28_linear_3211_838)" stroke-width="2" stroke-miterlimit="10"/>
<path d="M142.47 268.061H105.81V283.231H142.47V268.061Z" fill="#455A64"/>
<path d="M114.47 275.82C114.471 275.366 114.552 274.915 114.71 274.49C114.87 274.055 115.111 273.654 115.42 273.31C115.743 272.96 116.13 272.675 116.56 272.47C117.04 272.252 117.563 272.142 118.09 272.15C118.707 272.133 119.317 272.289 119.85 272.6C120.32 272.874 120.701 273.276 120.95 273.76L119.85 274.52C119.694 274.15 119.415 273.846 119.06 273.66C118.903 273.573 118.735 273.509 118.56 273.47C118.392 273.438 118.221 273.422 118.05 273.42C117.724 273.412 117.402 273.484 117.11 273.63C116.855 273.775 116.631 273.969 116.45 274.2C116.268 274.435 116.132 274.703 116.05 274.99C115.864 275.579 115.864 276.211 116.05 276.8C116.148 277.087 116.297 277.355 116.49 277.59C116.68 277.818 116.915 278.005 117.18 278.14C117.448 278.281 117.747 278.354 118.05 278.35C118.225 278.349 118.399 278.329 118.57 278.29C118.749 278.248 118.921 278.181 119.08 278.09C119.251 278.002 119.403 277.884 119.53 277.74C119.673 277.592 119.789 277.419 119.87 277.23L121.04 277.9C120.922 278.175 120.748 278.424 120.53 278.63C120.315 278.846 120.069 279.028 119.8 279.17C119.52 279.312 119.225 279.423 118.92 279.5C118.623 279.575 118.317 279.612 118.01 279.61C117.511 279.615 117.017 279.502 116.57 279.28C116.146 279.065 115.766 278.774 115.45 278.42C115.132 278.061 114.882 277.647 114.71 277.2C114.542 276.759 114.461 276.291 114.47 275.82Z" fill="white"/>
<path d="M126.4 274.12C126.321 274.044 126.234 273.977 126.14 273.92C125.81 273.723 125.453 273.575 125.08 273.48C124.865 273.424 124.643 273.397 124.42 273.4C124.112 273.379 123.805 273.453 123.54 273.61C123.445 273.683 123.37 273.777 123.319 273.885C123.269 273.993 123.245 274.111 123.25 274.23C123.246 274.362 123.285 274.492 123.36 274.6C123.448 274.71 123.557 274.802 123.68 274.87C123.847 274.953 124.021 275.02 124.2 275.07C124.41 275.14 124.66 275.2 124.93 275.27C125.2 275.34 125.62 275.47 125.93 275.58C126.202 275.677 126.455 275.819 126.68 276C126.879 276.159 127.04 276.361 127.15 276.59C127.27 276.861 127.328 277.155 127.32 277.45C127.326 277.797 127.247 278.141 127.09 278.45C126.945 278.72 126.739 278.953 126.49 279.13C126.225 279.309 125.931 279.437 125.62 279.51C125.291 279.581 124.956 279.618 124.62 279.62C124.065 279.62 123.512 279.539 122.98 279.38C122.461 279.224 121.972 278.984 121.53 278.67L122.16 277.44C122.268 277.528 122.381 277.608 122.5 277.68C122.909 277.925 123.35 278.114 123.81 278.24C124.081 278.309 124.36 278.342 124.64 278.34C125.43 278.34 125.82 278.09 125.82 277.58C125.826 277.436 125.78 277.294 125.69 277.18C125.583 277.056 125.45 276.957 125.3 276.89C125.107 276.796 124.906 276.719 124.7 276.66L123.91 276.43C123.599 276.35 123.295 276.246 123 276.12C122.763 276.019 122.543 275.881 122.35 275.71C122.181 275.562 122.048 275.377 121.96 275.17C121.872 274.937 121.827 274.69 121.83 274.44C121.822 274.095 121.894 273.753 122.04 273.44C122.175 273.159 122.369 272.91 122.61 272.71C122.868 272.513 123.159 272.364 123.47 272.27C123.794 272.172 124.131 272.122 124.47 272.12C124.958 272.116 125.443 272.2 125.9 272.37C126.29 272.537 126.659 272.749 127 273L126.4 274.12Z" fill="white"/>
<path d="M132.76 274.12C132.675 274.047 132.585 273.981 132.49 273.92C132.162 273.718 131.804 273.57 131.43 273.48C131.218 273.424 130.999 273.397 130.78 273.4C130.472 273.377 130.164 273.45 129.9 273.61C129.804 273.682 129.727 273.776 129.677 273.884C129.626 273.992 129.603 274.111 129.61 274.23C129.603 274.361 129.638 274.491 129.71 274.6C129.798 274.71 129.907 274.802 130.03 274.87C130.197 274.953 130.371 275.02 130.55 275.07C130.76 275.14 131.01 275.2 131.28 275.27C131.55 275.34 131.97 275.47 132.28 275.58C132.553 275.675 132.807 275.817 133.03 276C133.229 276.159 133.39 276.361 133.5 276.59C133.619 276.861 133.678 277.155 133.67 277.45C133.676 277.798 133.597 278.141 133.44 278.45C133.302 278.725 133.095 278.959 132.84 279.13C132.575 279.309 132.28 279.437 131.97 279.51C131.641 279.582 131.306 279.619 130.97 279.62C130.415 279.62 129.862 279.539 129.33 279.38C128.812 279.222 128.323 278.982 127.88 278.67L128.52 277.44C128.621 277.532 128.732 277.612 128.85 277.68C129.038 277.791 129.231 277.891 129.43 277.98C129.665 278.088 129.909 278.175 130.16 278.24C130.431 278.309 130.71 278.342 130.99 278.34C131.78 278.34 132.17 278.09 132.17 277.58C132.176 277.436 132.13 277.294 132.04 277.18C131.935 277.058 131.805 276.96 131.66 276.891C131.463 276.798 131.259 276.721 131.05 276.66L130.27 276.43C129.956 276.352 129.648 276.248 129.35 276.12C129.113 276.019 128.893 275.881 128.7 275.71C128.531 275.562 128.398 275.377 128.31 275.17C128.221 274.937 128.177 274.69 128.18 274.44C128.172 274.095 128.244 273.753 128.39 273.44C128.525 273.156 128.724 272.907 128.97 272.71C129.224 272.513 129.512 272.364 129.82 272.27C130.145 272.174 130.481 272.123 130.82 272.12C131.308 272.114 131.793 272.199 132.25 272.37C132.651 272.516 133.033 272.707 133.39 272.94L132.76 274.12Z" fill="white"/>
<path d="M113.39 257.59H112.39" stroke="#263238" stroke-width="0.75" stroke-miterlimit="10"/>
<path d="M110.56 257.59H104.16" stroke="#263238" stroke-width="0.75" stroke-miterlimit="10" stroke-dasharray="1.83 1.83"/>
<path d="M103.25 257.59H102.25V256.59" stroke="#263238" stroke-width="0.75" stroke-miterlimit="10"/>
<path d="M102.25 254.61V168.46" stroke="#263238" stroke-width="0.75" stroke-miterlimit="10" stroke-dasharray="1.98 1.98"/>
<path d="M102.25 167.47V166.47H103.25" stroke="#263238" stroke-width="0.75" stroke-miterlimit="10"/>
<path d="M104.86 166.47H110.53" stroke="#263238" stroke-width="0.75" stroke-miterlimit="10" stroke-dasharray="1.62 1.62"/>
<path d="M111.33 166.47H112.33" stroke="#263238" stroke-width="0.75" stroke-miterlimit="10"/>
<path d="M113.34 256.46C113.563 256.46 113.782 256.526 113.968 256.65C114.154 256.775 114.298 256.951 114.384 257.158C114.469 257.364 114.492 257.591 114.448 257.81C114.405 258.03 114.297 258.231 114.139 258.389C113.981 258.547 113.78 258.655 113.56 258.698C113.341 258.742 113.114 258.719 112.908 258.634C112.701 258.548 112.525 258.404 112.4 258.218C112.276 258.032 112.21 257.813 112.21 257.59C112.213 257.291 112.332 257.005 112.544 256.794C112.755 256.582 113.041 256.463 113.34 256.46Z" fill="#263238"/>
<path d="M112.28 167.6C112.904 167.6 113.41 167.094 113.41 166.47C113.41 165.846 112.904 165.34 112.28 165.34C111.656 165.34 111.15 165.846 111.15 166.47C111.15 167.094 111.656 167.6 112.28 167.6Z" fill="#263238"/>
<path d="M102.25 211.97H90.01V107.64H220.83" stroke="#263238" stroke-width="0.75" stroke-miterlimit="10" stroke-dasharray="2 2"/>
<path d="M220.39 109.13L222.98 107.64L220.39 106.14V109.13Z" fill="#263238"/>
<path d="M687.75 78.77H309.02V318.57H687.75V78.77Z" fill="white"/>
<path d="M687.87 318.69H308.87V78.6899H687.87V318.69ZM309.14 318.44H687.62V78.8899H309.14V318.44Z" fill="#263238"/>
<path d="M687.75 78.77H309.02V88H687.75V78.77Z" fill="url(#paint29_linear_3211_838)"/>
<path d="M317.7 83.3799C317.702 83.7285 317.6 84.0698 317.406 84.3598C317.213 84.6499 316.937 84.8757 316.615 85.0081C316.292 85.1405 315.938 85.1735 315.596 85.103C315.255 85.0324 314.942 84.8615 314.698 84.6121C314.455 84.3627 314.291 84.0463 314.229 83.7033C314.166 83.3603 314.207 83.0065 314.347 82.6871C314.487 82.3678 314.719 82.0975 315.014 81.9109C315.308 81.7243 315.652 81.6299 316 81.6399C316.455 81.6503 316.887 81.8383 317.205 82.1634C317.522 82.4886 317.7 82.9252 317.7 83.3799Z" fill="#C7C7C7"/>
<path d="M324.83 83.3802C324.832 83.7271 324.731 84.0668 324.539 84.3562C324.348 84.6455 324.075 84.8713 323.754 85.005C323.434 85.1387 323.082 85.1742 322.741 85.107C322.401 85.0398 322.088 84.8729 321.843 84.6276C321.597 84.3822 321.43 84.0695 321.363 83.7291C321.296 83.3887 321.332 83.036 321.465 82.7158C321.599 82.3957 321.825 82.1225 322.114 81.9309C322.403 81.7394 322.743 81.6382 323.09 81.6402C323.552 81.6402 323.994 81.8235 324.32 82.1498C324.647 82.4761 324.83 82.9187 324.83 83.3802Z" fill="white"/>
<path d="M332 83.3802C332.002 83.7271 331.901 84.0668 331.709 84.3562C331.518 84.6455 331.245 84.8713 330.925 85.005C330.604 85.1387 330.252 85.1742 329.911 85.107C329.571 85.0398 329.258 84.8729 329.013 84.6276C328.767 84.3822 328.601 84.0695 328.533 83.7291C328.466 83.3887 328.502 83.036 328.635 82.7158C328.769 82.3957 328.995 82.1225 329.284 81.9309C329.574 81.7394 329.913 81.6382 330.26 81.6402C330.722 81.6402 331.164 81.8235 331.491 82.1498C331.817 82.4761 332 82.9187 332 83.3802Z" fill="#455A64"/>
<path d="M347.79 87.9897H319.79V212.38H347.79V87.9897Z" fill="#EBEBEB"/>
<path d="M664.26 103.33H332.51V133.46H664.26V103.33Z" fill="url(#paint30_linear_3211_838)"/>
<path d="M355.43 114.99H347.79V116.23H355.43V114.99Z" fill="white"/>
<path d="M355.43 120.56H347.79V121.8H355.43V120.56Z" fill="white"/>
<path d="M355.43 117.81H347.79V119.05H355.43V117.81Z" fill="white"/>
<path d="M446.06 113.87H372.52V122.93H446.06V113.87Z" fill="white"/>
<path d="M446.15 123H372.43V113.75H446.15V123Z" fill="white"/>
<path d="M446.15 113.77H436.9V123.02H446.15V113.77Z" fill="#455A64"/>
<path d="M444.4 120.94L443.56 121.57L442.01 119.57L441.45 118.82C441.564 118.77 441.672 118.706 441.77 118.63C441.96 118.488 442.108 118.298 442.2 118.08L442.8 118.87L444.4 120.94Z" fill="white"/>
<path d="M442.75 116.12C442.485 115.776 442.127 115.516 441.718 115.369C441.309 115.222 440.867 115.194 440.444 115.29C440.02 115.385 439.633 115.6 439.327 115.908C439.021 116.217 438.81 116.606 438.718 117.03C438.626 117.455 438.657 117.897 438.807 118.304C438.958 118.711 439.221 119.067 439.567 119.33C439.913 119.592 440.327 119.751 440.759 119.786C441.192 119.822 441.626 119.733 442.01 119.53C442.123 119.47 442.23 119.399 442.33 119.32C442.511 119.182 442.67 119.017 442.8 118.83C443.084 118.433 443.233 117.955 443.224 117.467C443.215 116.979 443.049 116.506 442.75 116.12ZM441.75 118.59C441.652 118.667 441.544 118.73 441.43 118.78C441.123 118.902 440.782 118.909 440.47 118.799C440.158 118.69 439.896 118.471 439.733 118.183C439.57 117.896 439.516 117.559 439.582 117.235C439.647 116.911 439.828 116.621 440.09 116.42C440.327 116.239 440.617 116.141 440.915 116.139C441.213 116.138 441.504 116.234 441.742 116.413C441.981 116.592 442.155 116.843 442.237 117.13C442.32 117.416 442.307 117.722 442.2 118C442.114 118.233 441.965 118.437 441.77 118.59H441.75Z" fill="white"/>
<path d="M374.91 115.65H374.42V121.15H374.91V115.65Z" fill="#C7C7C7"/>
<path d="M648.93 117.02H617.15V119.78H648.93V117.02Z" fill="white"/>
<path d="M600.16 117.02H568.38V119.78H600.16V117.02Z" fill="white"/>
<path opacity="0.1" d="M551.39 117.02H519.61V119.78H551.39V117.02Z" fill="black"/>
<path d="M502.62 117.02H470.84V119.78H502.62V117.02Z" fill="white"/>
<path d="M687.75 227.34H309.02V257.47H687.75V227.34Z" fill="url(#paint31_linear_3211_838)"/>
<path d="M405.81 271.7H332.51V275.09H405.81V271.7Z" fill="#455A64"/>
<path d="M332.51 283.319L344.27 283.139L356.03 283.029L379.55 282.939L403.07 283.029L414.83 283.129L426.59 283.319L414.83 283.499L403.07 283.609L379.55 283.689L356.03 283.609L344.27 283.499L332.51 283.319Z" fill="#A6A6A6"/>
<path d="M332.51 287.94L344.27 287.76L356.03 287.66L379.55 287.57L403.07 287.65L414.83 287.76L426.59 287.94L414.83 288.13L403.07 288.23L379.55 288.32L356.03 288.23L344.27 288.13L332.51 287.94Z" fill="#A6A6A6"/>
<path d="M332.51 292.569L344.27 292.389L356.03 292.279L379.55 292.189L403.07 292.279L414.83 292.389L426.59 292.569L414.83 292.749L403.07 292.859L379.55 292.939L356.03 292.859L344.27 292.749L332.51 292.569Z" fill="#A6A6A6"/>
<path d="M332.51 297.19L344.27 297.01L356.03 296.91L379.55 296.82L403.07 296.91L414.83 297.01L426.59 297.19L414.83 297.38L403.07 297.48L379.55 297.57L356.03 297.48L344.27 297.38L332.51 297.19Z" fill="#A6A6A6"/>
<path d="M332.51 301.82C336.43 301.67 340.35 301.59 344.27 301.53L356.03 301.45L367.79 301.53C371.71 301.59 375.63 301.66 379.55 301.82C375.63 301.98 371.71 302.05 367.79 302.11L356 302.2L344.24 302.11C340.35 302.05 336.43 302 332.51 301.82Z" fill="#A6A6A6"/>
<path d="M524.64 271.7H451.34V275.09H524.64V271.7Z" fill="#455A64"/>
<path d="M451.34 283.319L463.1 283.139L474.86 283.029L498.38 282.939L521.9 283.029L533.66 283.129L545.42 283.319L533.66 283.499L521.9 283.609L498.38 283.689L474.86 283.609L463.1 283.499L451.34 283.319Z" fill="#A6A6A6"/>
<path d="M451.34 287.94L463.1 287.76L474.86 287.66L498.38 287.57L521.9 287.65L533.66 287.76L545.42 287.94L533.66 288.13L521.9 288.23L498.38 288.32L474.86 288.23L463.1 288.13L451.34 287.94Z" fill="#A6A6A6"/>
<path d="M451.34 292.569L463.1 292.389L474.86 292.279L498.38 292.189L521.9 292.279L533.66 292.389L545.42 292.569L533.66 292.749L521.9 292.859L498.38 292.939L474.86 292.859L463.1 292.749L451.34 292.569Z" fill="#A6A6A6"/>
<path d="M451.34 297.19L463.1 297.01L474.86 296.91L498.38 296.82L521.9 296.91L533.66 297.01L545.42 297.19L533.66 297.38L521.9 297.48L498.38 297.57L474.86 297.48L463.1 297.38L451.34 297.19Z" fill="#A6A6A6"/>
<path d="M451.34 301.82C455.26 301.67 459.18 301.59 463.1 301.53L474.86 301.45L486.62 301.53C490.54 301.59 494.46 301.66 498.38 301.82C494.46 301.98 490.54 302.05 486.62 302.11L474.86 302.2L463.1 302.11C459.18 302.05 455.26 302 451.34 301.82Z" fill="#A6A6A6"/>
<path d="M643.47 271.7H570.17V275.09H643.47V271.7Z" fill="#455A64"/>
<path d="M570.17 283.319L581.93 283.139L593.69 283.029L617.21 282.939L640.74 283.029L652.5 283.129L664.26 283.319L652.5 283.499L640.74 283.609L617.21 283.689L593.69 283.609L581.93 283.499L570.17 283.319Z" fill="#A6A6A6"/>
<path d="M570.17 287.94L581.93 287.76L593.69 287.66L617.21 287.57L640.74 287.65L652.5 287.76L664.26 287.94L652.5 288.13L640.74 288.23L617.21 288.32L593.69 288.23L581.93 288.13L570.17 287.94Z" fill="#A6A6A6"/>
<path d="M570.17 292.569L581.93 292.389L593.69 292.279L617.21 292.189L640.74 292.279L652.5 292.389L664.26 292.569L652.5 292.749L640.74 292.859L617.21 292.939L593.69 292.859L581.93 292.749L570.17 292.569Z" fill="#A6A6A6"/>
<path d="M570.17 297.19L581.93 297.01L593.69 296.91L617.21 296.82L640.74 296.91L652.5 297.01L664.26 297.19L652.5 297.38L640.74 297.48L617.21 297.57L593.69 297.48L581.93 297.38L570.17 297.19Z" fill="#A6A6A6"/>
<path d="M570.17 301.82C574.09 301.67 578.01 301.59 581.93 301.53L593.69 301.45L605.45 301.53C609.37 301.59 613.29 301.66 617.21 301.82C613.29 301.98 609.37 302.05 605.45 302.11L593.69 302.2L581.93 302.11C578 302.05 574.09 302 570.17 301.82Z" fill="#A6A6A6"/>
<path d="M374.22 216.15H438.32V152.05H374.22V216.15Z" fill="#EBEBEB"/>
<path d="M377.99 212.38H434.55V155.82H377.99V212.38Z" fill="#455A64"/>
<path d="M387.1 169.31C386.876 170.434 387.018 171.6 387.508 172.637C387.997 173.673 388.807 174.524 389.817 175.065C390.828 175.606 391.985 175.807 393.119 175.639C394.253 175.471 395.302 174.943 396.113 174.133C396.923 173.322 397.451 172.273 397.619 171.139C397.787 170.005 397.586 168.848 397.045 167.837C396.504 166.827 395.653 166.017 394.616 165.528C393.58 165.038 392.414 164.896 391.29 165.12C390.256 165.327 389.306 165.835 388.561 166.581C387.815 167.326 387.307 168.276 387.1 169.31Z" fill="#37474F"/>
<path d="M393.67 197.7H434.55L414.11 174.78L393.67 197.7Z" fill="#37474F"/>
<path d="M377.99 197.7H411.74L394.86 182.77L377.99 197.7Z" fill="#263238"/>
<path d="M434.55 197.7H377.99V212.38H434.55V197.7Z" fill="#263238"/>
<path d="M558.45 216.15H622.55V152.05H558.45V216.15Z" fill="#EBEBEB"/>
<path d="M562.22 212.38H618.78V155.82H562.22V212.38Z" fill="#455A64"/>
<path d="M571.33 169.31C571.107 170.432 571.251 171.595 571.74 172.628C572.229 173.662 573.038 174.51 574.046 175.049C575.055 175.588 576.21 175.788 577.341 175.62C578.471 175.452 579.518 174.925 580.327 174.117C581.135 173.309 581.662 172.262 581.83 171.131C581.998 170 581.798 168.845 581.259 167.836C580.72 166.828 579.872 166.02 578.838 165.53C577.805 165.041 576.642 164.897 575.52 165.12C574.485 165.326 573.535 165.833 572.789 166.579C572.043 167.325 571.535 168.275 571.33 169.31Z" fill="#37474F"/>
<path d="M577.9 197.7H618.78L598.34 174.78L577.9 197.7Z" fill="#37474F"/>
<path d="M562.21 197.7H595.96L579.09 182.77L562.21 197.7Z" fill="#263238"/>
<path d="M618.77 197.7H562.21V212.38H618.77V197.7Z" fill="#263238"/>
<path d="M466.32 216.15H530.43V152.05H466.32V216.15Z" fill="#EBEBEB"/>
<path d="M470.1 212.38H526.66V155.82H470.1V212.38Z" fill="url(#paint32_linear_3211_838)"/>
<path opacity="0.1" d="M479.21 169.31C478.985 170.434 479.128 171.6 479.618 172.637C480.107 173.673 480.917 174.524 481.927 175.065C482.938 175.606 484.095 175.807 485.229 175.639C486.362 175.471 487.412 174.943 488.222 174.133C489.033 173.322 489.561 172.273 489.729 171.139C489.897 170.005 489.695 168.848 489.155 167.837C488.614 166.827 487.763 166.017 486.726 165.528C485.69 165.038 484.524 164.896 483.4 165.12C482.366 165.327 481.416 165.835 480.671 166.581C479.925 167.326 479.417 168.276 479.21 169.31Z" fill="black"/>
<path opacity="0.1" d="M485.78 197.7H526.66L506.22 174.78L485.78 197.7Z" fill="black"/>
<path d="M470.1 197.7H503.85L486.98 182.77L470.1 197.7Z" fill="url(#paint33_linear_3211_838)"/>
<g opacity="0.2">
<path d="M470.1 197.7H503.85L486.98 182.77L470.1 197.7Z" fill="black"/>
</g>
<path d="M526.66 197.7H470.1V212.38H526.66V197.7Z" fill="url(#paint34_linear_3211_838)"/>
<path opacity="0.2" d="M526.66 197.7H470.1V212.38H526.66V197.7Z" fill="black"/>
<path d="M377.99 235.47L393.64 235.29L409.29 235.18L440.6 235.09L471.9 235.18L487.55 235.28L503.21 235.47L487.55 235.65L471.9 235.76L440.6 235.84L409.29 235.76L393.64 235.65L377.99 235.47Z" fill="white"/>
<path d="M377.99 240.09L393.64 239.91L409.29 239.81L440.6 239.72L471.9 239.81L487.55 239.91L503.21 240.09L487.55 240.28L471.9 240.38L440.6 240.47L409.29 240.38L393.64 240.28L377.99 240.09Z" fill="white"/>
<path d="M377.99 244.72L393.64 244.54L409.29 244.43L440.6 244.35L471.9 244.43L487.55 244.54L503.21 244.72L487.55 244.9L471.9 245.01L440.6 245.09L409.29 245.01L393.64 244.9L377.99 244.72Z" fill="white"/>
<path d="M378 249.35C383.21 249.19 388.43 249.12 393.65 249.06L409.3 248.97L424.95 249.06C430.17 249.12 435.39 249.19 440.61 249.35C435.39 249.5 430.17 249.57 424.95 249.63L409.3 249.72L393.65 249.63C388.42 249.57 383.2 249.5 378 249.35Z" fill="white"/>
<path d="M337.08 247V237.82L332.62 242.08L337.08 247Z" fill="white"/>
<path d="M659.92 237.82V247L664.38 242.74L659.92 237.82Z" fill="white"/>
<path d="M251.67 101.18C251.67 105.027 252.811 108.788 254.949 111.987C257.086 115.185 260.125 117.678 263.679 119.15C267.234 120.622 271.145 121.006 274.918 120.255C278.691 119.504 282.157 117.65 284.877 114.929C287.597 112.208 289.448 108.742 290.198 104.968C290.947 101.194 290.56 97.2834 289.087 93.7295C287.613 90.1757 285.119 87.1387 281.919 85.0027C278.719 82.8667 274.957 81.7277 271.11 81.7297C265.955 81.7376 261.013 83.7897 257.369 87.4358C253.725 91.0819 251.675 96.0245 251.67 101.18ZM255.81 101.18C255.808 98.1508 256.705 95.1894 258.386 92.6701C260.068 90.1509 262.459 88.187 265.257 87.027C268.055 85.867 271.134 85.5629 274.104 86.1533C277.075 86.7438 279.804 88.2021 281.946 90.3439C284.088 92.4856 285.546 95.2145 286.136 98.1853C286.727 101.156 286.423 104.235 285.263 107.033C284.103 109.831 282.139 112.222 279.62 113.904C277.1 115.585 274.139 116.482 271.11 116.48C267.052 116.48 263.161 114.868 260.291 111.998C257.422 109.129 255.81 105.237 255.81 101.18ZM251.67 101.18C251.67 105.027 252.811 108.788 254.949 111.987C257.086 115.185 260.125 117.678 263.679 119.15C267.234 120.622 271.145 121.006 274.918 120.255C278.691 119.504 282.157 117.65 284.877 114.929C287.597 112.208 289.448 108.742 290.198 104.968C290.947 101.194 290.56 97.2834 289.087 93.7295C287.613 90.1757 285.119 87.1387 281.919 85.0027C278.719 82.8667 274.957 81.7277 271.11 81.7297C265.955 81.7376 261.013 83.7897 257.369 87.4358C253.725 91.0819 251.675 96.0245 251.67 101.18ZM255.81 101.18C255.808 98.1508 256.705 95.1894 258.386 92.6701C260.068 90.1509 262.459 88.187 265.257 87.027C268.055 85.867 271.134 85.5629 274.104 86.1533C277.075 86.7438 279.804 88.2021 281.946 90.3439C284.088 92.4856 285.546 95.2145 286.136 98.1853C286.727 101.156 286.423 104.235 285.263 107.033C284.103 109.831 282.139 112.222 279.62 113.904C277.1 115.585 274.139 116.482 271.11 116.48C267.052 116.48 263.161 114.868 260.291 111.998C257.422 109.129 255.81 105.237 255.81 101.18ZM238.34 101.18C238.342 107.663 240.267 114 243.87 119.39C247.474 124.779 252.594 128.979 258.585 131.458C264.575 133.937 271.167 134.585 277.525 133.318C283.883 132.051 289.723 128.927 294.306 124.342C298.889 119.756 302.009 113.914 303.272 107.555C304.535 101.196 303.884 94.6051 301.401 88.6161C298.918 82.627 294.715 77.5088 289.323 73.9085C283.932 70.3083 277.593 68.3877 271.11 68.3896C266.805 68.3896 262.542 69.2379 258.565 70.886C254.588 72.5341 250.974 74.9497 247.931 77.9948C244.888 81.0399 242.474 84.6548 240.829 88.633C239.183 92.6111 238.337 96.8745 238.34 101.18ZM249.81 101.18C249.81 96.9645 251.06 92.844 253.402 89.3394C255.744 85.8348 259.073 83.1034 262.967 81.4908C266.862 79.8782 271.147 79.4568 275.281 80.2798C279.415 81.1029 283.212 83.1335 286.192 86.1147C289.172 89.096 291.201 92.894 292.022 97.0284C292.843 101.163 292.42 105.448 290.805 109.342C289.191 113.235 286.458 116.563 282.952 118.903C279.446 121.243 275.325 122.492 271.11 122.49C265.462 122.479 260.049 120.23 256.057 116.236C252.064 112.241 249.818 106.827 249.81 101.18ZM251.67 101.18C251.67 105.027 252.811 108.788 254.949 111.987C257.086 115.185 260.125 117.678 263.679 119.15C267.234 120.622 271.145 121.006 274.918 120.255C278.691 119.504 282.157 117.65 284.877 114.929C287.597 112.208 289.448 108.742 290.198 104.968C290.947 101.194 290.56 97.2834 289.087 93.7295C287.613 90.1757 285.119 87.1387 281.919 85.0027C278.719 82.8667 274.957 81.7277 271.11 81.7297C265.955 81.7376 261.013 83.7897 257.369 87.4358C253.725 91.0819 251.675 96.0245 251.67 101.18ZM255.81 101.18C255.808 98.1508 256.705 95.1894 258.386 92.6701C260.068 90.1509 262.459 88.187 265.257 87.027C268.055 85.867 271.134 85.5629 274.104 86.1533C277.075 86.7438 279.804 88.2021 281.946 90.3439C284.088 92.4856 285.546 95.2145 286.136 98.1853C286.727 101.156 286.423 104.235 285.263 107.033C284.103 109.831 282.139 112.222 279.62 113.904C277.1 115.585 274.139 116.482 271.11 116.48C267.052 116.48 263.161 114.868 260.291 111.998C257.422 109.129 255.81 105.237 255.81 101.18Z" fill="url(#paint35_linear_3211_838)"/>
<path d="M267.27 68.99H274.77L274.02 61.5H268.01L267.27 68.99Z" fill="url(#paint36_linear_3211_838)"/>
<path d="M283.88 71.3798L290.38 75.1298L293.47 68.2698L288.27 65.2598L283.88 71.3798Z" fill="url(#paint37_linear_3211_838)"/>
<path d="M297.07 81.7499L300.82 88.2499L306.93 83.8499L303.93 78.6499L297.07 81.7499Z" fill="url(#paint38_linear_3211_838)"/>
<path d="M303.3 97.3198V104.83L310.79 104.08V98.0698L303.3 97.3198Z" fill="url(#paint39_linear_3211_838)"/>
<path d="M300.92 113.93L297.16 120.43L304.02 123.53L307.03 118.33L300.92 113.93Z" fill="url(#paint40_linear_3211_838)"/>
<path d="M290.54 127.12L284.04 130.88L288.44 136.99L293.64 133.98L290.54 127.12Z" fill="url(#paint41_linear_3211_838)"/>
<path d="M274.97 133.36H267.46L268.21 140.85H274.22L274.97 133.36Z" fill="url(#paint42_linear_3211_838)"/>
<path d="M258.36 130.97L251.86 127.22L248.76 134.08L253.97 137.09L258.36 130.97Z" fill="url(#paint43_linear_3211_838)"/>
<path d="M245.17 120.6L241.41 114.1L235.3 118.49L238.31 123.7L245.17 120.6Z" fill="url(#paint44_linear_3211_838)"/>
<path d="M238.93 105.02V97.52L231.44 98.27V104.28L238.93 105.02Z" fill="url(#paint45_linear_3211_838)"/>
<path d="M241.32 88.4198L245.07 81.9198L238.21 78.8198L235.2 84.0198L241.32 88.4198Z" fill="url(#paint46_linear_3211_838)"/>
<path d="M251.69 75.2199L258.19 71.4699L253.8 65.3599L248.59 68.3599L251.69 75.2199Z" fill="url(#paint47_linear_3211_838)"/>
<path d="M189.31 71.4C189.211 75.1726 190.232 78.8901 192.245 82.0821C194.259 85.2742 197.173 87.7976 200.621 89.333C204.068 90.8684 207.894 91.347 211.613 90.7082C215.333 90.0693 218.779 88.3418 221.517 85.7441C224.254 83.1464 226.16 79.7951 226.993 76.1142C227.826 72.4333 227.548 68.588 226.196 65.0648C224.843 61.5416 222.476 58.4987 219.394 56.3209C216.312 54.143 212.653 52.9282 208.88 52.83C206.376 52.7634 203.883 53.1911 201.543 54.0885C199.204 54.9858 197.065 56.3354 195.247 58.0599C193.43 59.7845 191.97 61.8502 190.951 64.1392C189.933 66.4281 189.375 68.8954 189.31 71.4ZM199.47 71.67C199.516 69.9082 200.084 68.1996 201.101 66.7604C202.118 65.3212 203.539 64.216 205.185 63.5846C206.83 62.9532 208.626 62.8239 210.345 63.2131C212.064 63.6023 213.629 64.4925 214.841 65.7712C216.054 67.0498 216.861 68.6595 217.159 70.3965C217.457 72.1335 217.233 73.9199 216.516 75.5297C215.798 77.1395 214.62 78.5004 213.129 79.4403C211.638 80.3802 209.902 80.8568 208.14 80.81C205.779 80.7471 203.539 79.749 201.913 78.035C200.287 76.3211 199.408 74.0316 199.47 71.67Z" fill="#EBEBEB"/>
<path d="M205.2 53.5198L212.53 53.7198L212.26 48.5198L205.74 48.3398L205.2 53.5198Z" fill="#EBEBEB"/>
<path d="M219.09 56.3598L224.14 61.6898L227.63 57.8198L223.14 53.0898L219.09 56.3598Z" fill="#EBEBEB"/>
<path d="M226.91 68.1997L226.71 75.5297L231.91 75.2597L232.09 68.7397L226.91 68.1997Z" fill="#EBEBEB"/>
<path d="M224.07 82.0898L218.74 87.1398L222.61 90.6298L227.35 86.1398L224.07 82.0898Z" fill="#EBEBEB"/>
<path d="M212.23 89.91L204.9 89.71L205.17 94.92L211.69 95.09L212.23 89.91Z" fill="#EBEBEB"/>
<path d="M198.34 87.0697L193.29 81.7397L189.8 85.6097L194.29 90.3497L198.34 87.0697Z" fill="#EBEBEB"/>
<path d="M190.52 75.2299L190.72 67.8999L185.52 68.1699L185.34 74.6899L190.52 75.2299Z" fill="#EBEBEB"/>
<path d="M193.36 61.3398L198.69 56.2898L194.82 52.7998L190.08 57.2998L193.36 61.3398Z" fill="#EBEBEB"/>
<path d="M213.45 67.2296L207.19 65.3696L202.46 69.8596L204 76.1996L210.25 78.0596L215 73.5696L213.45 67.2296ZM208.66 73.7796C208.25 73.7695 207.852 73.6378 207.517 73.4011C207.182 73.1645 206.925 72.8337 206.778 72.4507C206.632 72.0676 206.602 71.6496 206.693 71.2497C206.785 70.8498 206.993 70.486 207.291 70.2046C207.589 69.9231 207.965 69.7366 208.369 69.6688C208.774 69.6009 209.189 69.6548 209.563 69.8236C209.937 69.9923 210.252 70.2684 210.469 70.6166C210.686 70.9649 210.794 71.3697 210.78 71.7796C210.762 72.3252 210.529 72.8414 210.132 73.216C209.735 73.5905 209.206 73.7931 208.66 73.7796Z" fill="#EBEBEB"/>
<path d="M271.02 56.2197V50.9897H389.13V70.9397" stroke="#263238" stroke-width="0.75" stroke-miterlimit="10" stroke-dasharray="2 2"/>
<path d="M387.63 70.5098L389.13 73.0998L390.62 70.5098H387.63Z" fill="#263238"/>
<path d="M655.12 373.36C656.095 376.927 656.741 380.575 657.05 384.26C656.95 384.44 656.97 385.12 657.05 384.93C657.05 385.53 657.98 385.42 657.98 384.83C657.98 384.45 657.98 384.06 657.98 383.69C660.11 381.04 663.21 379.37 665.7 377.07C667.714 375.268 669.18 372.936 669.93 370.34C672.01 363.2 670.06 355.63 672.56 348.5C674.71 342.36 678.56 337.02 681.82 331.45C685.26 325.57 687.82 319.38 688.06 312.45C688.26 307.17 687.63 300.14 683.61 296.18C679.35 291.99 674.07 295.13 670.8 298.87C661.34 309.73 656.96 323.45 655.19 337.48C654.19 345.25 653.19 353.06 653.44 360.9C653.586 365.099 654.148 369.273 655.12 373.36Z" fill="url(#paint48_linear_3211_838)"/>
<path d="M657 387.11C656.482 379.782 656.569 372.424 657.26 365.11C657.26 365.11 657.26 365.11 657.26 365.03C657.14 359.09 656.67 353.16 656.9 347.21C657.192 340.77 658.069 334.371 659.52 328.09C659.52 328.02 659.65 328.09 659.64 328.09C658.476 334.262 657.784 340.513 657.57 346.79C657.45 350.15 657.47 353.51 657.65 356.86C657.71 357.96 657.81 359.06 657.88 360.16C660.355 343.466 666.388 327.499 675.57 313.34C675.7 313.15 676.04 313.34 675.92 313.55C669.356 324.31 664.499 336.023 661.52 348.27C666.07 339.84 672.94 332.9 678.04 324.8C678.04 324.8 678.14 324.8 678.12 324.85C673.54 333.85 665.97 340.98 661.12 349.85C660.28 353.48 659.59 357.13 659.12 360.85C658.435 365.872 658.061 370.932 658 376C660.77 370.82 663.64 365.87 665.91 360.39C665.97 360.25 666.18 360.34 666.13 360.49C664.2 366.18 661.61 372.31 657.98 377.16C657.98 380.77 658.07 384.37 658.28 387.97C658.85 397.57 660.49 407.05 661.28 416.62C661.28 416.678 661.257 416.734 661.216 416.776C661.174 416.817 661.118 416.84 661.06 416.84C661.002 416.84 660.946 416.817 660.905 416.776C660.863 416.734 660.84 416.678 660.84 416.62C658.89 406.882 657.607 397.023 657 387.11Z" fill="#263238"/>
<path d="M667.21 313C667.21 312.93 667.34 313 667.31 313C665.56 317.85 664.57 322.77 663.31 327.74C663.302 327.788 663.276 327.83 663.236 327.858C663.197 327.886 663.148 327.898 663.1 327.89C663.052 327.882 663.01 327.855 662.982 327.816C662.954 327.777 662.942 327.728 662.95 327.68C663.45 322.72 665.26 317.69 667.21 313Z" fill="#263238"/>
<path d="M622.66 333.37C623.821 336.213 625.157 338.981 626.66 341.66C629.82 347.4 633.12 352.66 633.66 359.33C633.766 362.32 634.192 365.29 634.93 368.19C635.768 370.657 636.957 372.991 638.46 375.12C641.89 380.12 646.17 384.4 649.34 389.58C652.668 394.971 655.135 400.848 656.65 407C656.72 407.34 657.25 407.25 657.17 406.91C657.17 406.91 657.17 406.86 657.17 406.84C657.175 406.817 657.175 406.793 657.17 406.77C657.67 392.44 656.53 378.01 652.17 364.29C650.239 358.257 647.921 352.354 645.23 346.62C643.029 341.551 639.845 336.969 635.86 333.14C633.19 330.74 627.41 326.19 623.62 328.6C621.81 329.76 621.94 331.59 622.66 333.37Z" fill="url(#paint49_linear_3211_838)"/>
<path d="M637.05 365.84C639.575 370.009 642.357 374.017 645.38 377.84C646.76 379.65 648.17 381.44 649.56 383.26C650.21 384.11 650.94 384.97 651.56 385.89C651.18 384.38 650.82 382.89 650.43 381.37C648.58 374.13 646.81 366.83 644.05 359.87C641.236 353.131 637.913 346.615 634.11 340.38C634.01 340.21 634.28 340.09 634.38 340.25C637.38 345.25 640.48 350.2 643.02 355.45C644.425 358.373 645.651 361.378 646.69 364.45C645.523 357.922 643.892 351.486 641.81 345.19C641.81 345.13 641.87 345.09 641.89 345.19C644.62 351.549 646.331 358.298 646.96 365.19C647.58 367.05 648.154 368.927 648.68 370.82C650.94 378.82 652.92 386.93 654.76 395.05C654.791 389.712 654.329 384.383 653.38 379.13C653.38 379 653.53 378.98 653.56 379.13C654.96 384.609 655.43 390.285 654.95 395.92C655.64 399.01 656.32 402.11 656.95 405.2C658.35 411.8 660.08 418.52 660.95 425.2C660.942 425.23 660.925 425.256 660.9 425.274C660.876 425.293 660.846 425.303 660.815 425.303C660.785 425.303 660.755 425.293 660.73 425.274C660.706 425.256 660.688 425.23 660.68 425.2C659.68 421.59 659.11 417.84 658.3 414.2C657.49 410.56 656.67 406.87 655.81 403.2C654.57 397.867 653.28 392.533 651.94 387.2C651.05 385.25 649.34 383.52 648.05 381.89C646.64 380.1 645.23 378.31 643.86 376.49C641.284 373.122 638.98 369.554 636.97 365.82C636.89 365.82 637 365.77 637.05 365.84Z" fill="#263238"/>
<path d="M636.44 359.72C639.594 363.742 642.326 368.078 644.59 372.66C644.59 372.72 644.53 372.78 644.49 372.72C641.75 368.43 639.05 364.1 636.32 359.8C636.27 359.73 636.39 359.65 636.44 359.72Z" fill="#263238"/>
<path d="M697.41 347C695.56 350.2 693.41 354 694.24 357.88C694.74 360.31 696.52 362.28 696.84 364.76C697.56 370.23 692.11 373.84 688.16 376.43C678.33 382.88 664.84 388.63 663.05 401.81C662.98 402.28 662.18 402.16 662.24 401.7C662.24 401.7 662.24 401.7 662.24 401.62C662.24 401.54 662.24 401.62 662.24 401.54C660.944 394.887 661.006 388.04 662.42 381.41C663.89 374.62 666.85 368.52 670.35 362.55C676.27 352.45 682.54 342.11 691.49 334.38C693.97 332.24 699.04 328.38 701.01 333.22C702.98 338.06 699.69 343.06 697.41 347Z" fill="url(#paint50_linear_3211_838)"/>
<path d="M688.41 368.36C681.89 375.42 671.53 379.36 665.91 387.28C669.045 375.245 674.972 364.117 683.21 354.8C683.42 354.56 683.08 354.21 682.85 354.44C676.845 360.275 672.042 367.229 668.71 374.91C670.265 369.55 672.304 364.342 674.8 359.35C674.89 359.16 674.62 358.99 674.51 359.18C671.431 364.63 669.234 370.533 668 376.67C660.61 394.57 659.92 415.57 661.47 434.44C661.481 434.489 661.508 434.533 661.547 434.565C661.586 434.596 661.635 434.614 661.685 434.614C661.735 434.614 661.784 434.596 661.823 434.565C661.862 434.533 661.89 434.489 661.9 434.44C661.47 419.57 661.71 404.44 665.28 389.92C665.35 389.61 665.43 389.31 665.51 389.01C671.62 380.5 681.94 376.56 688.58 368.47C688.59 368.4 688.48 368.28 688.41 368.36Z" fill="#263238"/>
<path d="M689.92 362.3C686.5 365.44 683.13 368.65 679.7 371.79C679.7 371.79 679.7 371.88 679.7 371.85C683.583 369.238 687.078 366.09 690.08 362.5C690.089 362.476 690.091 362.45 690.087 362.424C690.083 362.399 690.072 362.375 690.056 362.355C690.04 362.335 690.019 362.319 689.995 362.31C689.972 362.3 689.946 362.297 689.92 362.3Z" fill="#263238"/>
<path d="M690.47 348.69C687.442 353.657 684.014 358.369 680.22 362.78C680.215 362.785 680.211 362.792 680.208 362.8C680.206 362.807 680.204 362.815 680.205 362.823C680.205 362.831 680.207 362.839 680.211 362.846C680.214 362.853 680.219 362.859 680.225 362.865C680.231 362.87 680.238 362.874 680.245 362.876C680.253 362.879 680.261 362.88 680.269 362.88C680.276 362.879 680.284 362.877 680.291 362.874C680.298 362.87 680.305 362.865 680.31 362.86C684.563 358.823 688.064 354.062 690.65 348.8C690.71 348.68 690.54 348.57 690.47 348.69Z" fill="#263238"/>
<path d="M675.05 447.75H645.07L649.11 407.41H670.44L675.05 447.75Z" fill="#455A64"/>
<path d="M671.19 413.97H648.45L649.11 407.41H670.44L671.19 413.97Z" fill="#263238"/>
<path d="M674.11 402.939H646.01V409.379H674.11V402.939Z" fill="#455A64"/>
<defs>
<linearGradient id="paint0_linear_3211_838" x1="225.62" y1="248.44" x2="225.62" y2="251.99" gradientUnits="userSpaceOnUse">
<stop stop-color="#144CA1"/>
<stop offset="1" stop-color="#67A3FF"/>
</linearGradient>
<linearGradient id="paint1_linear_3211_838" x1="375" y1="157.32" x2="375" y2="166.86" gradientUnits="userSpaceOnUse">
<stop stop-color="#144CA1"/>
<stop offset="1" stop-color="#67A3FF"/>
</linearGradient>
<linearGradient id="paint2_linear_3211_838" x1="465.99" y1="209.28" x2="465.99" y2="211.01" gradientUnits="userSpaceOnUse">
<stop stop-color="#144CA1"/>
<stop offset="1" stop-color="#67A3FF"/>
</linearGradient>
<linearGradient id="paint3_linear_3211_838" x1="322.975" y1="225.67" x2="322.975" y2="227.4" gradientUnits="userSpaceOnUse">
<stop stop-color="#144CA1"/>
<stop offset="1" stop-color="#67A3FF"/>
</linearGradient>
<linearGradient id="paint4_linear_3211_838" x1="375.55" y1="250.26" x2="375.55" y2="251.99" gradientUnits="userSpaceOnUse">
<stop stop-color="#144CA1"/>
<stop offset="1" stop-color="#67A3FF"/>
</linearGradient>
<linearGradient id="paint5_linear_3211_838" x1="487.8" y1="266.65" x2="487.8" y2="268.38" gradientUnits="userSpaceOnUse">
<stop stop-color="#144CA1"/>
<stop offset="1" stop-color="#67A3FF"/>
</linearGradient>
<linearGradient id="paint6_linear_3211_838" x1="511.64" y1="242.061" x2="511.64" y2="243.791" gradientUnits="userSpaceOnUse">
<stop stop-color="#144CA1"/>
<stop offset="1" stop-color="#67A3FF"/>
</linearGradient>
<linearGradient id="paint7_linear_3211_838" x1="404.625" y1="233.86" x2="404.625" y2="235.59" gradientUnits="userSpaceOnUse">
<stop stop-color="#144CA1"/>
<stop offset="1" stop-color="#67A3FF"/>
</linearGradient>
<linearGradient id="paint8_linear_3211_838" x1="322.975" y1="290.48" x2="322.975" y2="292.21" gradientUnits="userSpaceOnUse">
<stop stop-color="#144CA1"/>
<stop offset="1" stop-color="#67A3FF"/>
</linearGradient>
<linearGradient id="paint9_linear_3211_838" x1="404.625" y1="323.271" x2="404.625" y2="325.001" gradientUnits="userSpaceOnUse">
<stop stop-color="#144CA1"/>
<stop offset="1" stop-color="#67A3FF"/>
</linearGradient>
<linearGradient id="paint10_linear_3211_838" x1="322.975" y1="339.66" x2="322.975" y2="341.39" gradientUnits="userSpaceOnUse">
<stop stop-color="#144CA1"/>
<stop offset="1" stop-color="#67A3FF"/>
</linearGradient>
<linearGradient id="paint11_linear_3211_838" x1="375.55" y1="315.07" x2="375.55" y2="316.8" gradientUnits="userSpaceOnUse">
<stop stop-color="#144CA1"/>
<stop offset="1" stop-color="#67A3FF"/>
</linearGradient>
<linearGradient id="paint12_linear_3211_838" x1="404.625" y1="298.681" x2="404.625" y2="300.411" gradientUnits="userSpaceOnUse">
<stop stop-color="#144CA1"/>
<stop offset="1" stop-color="#67A3FF"/>
</linearGradient>
<linearGradient id="paint13_linear_3211_838" x1="404.625" y1="347.851" x2="404.625" y2="349.581" gradientUnits="userSpaceOnUse">
<stop stop-color="#144CA1"/>
<stop offset="1" stop-color="#67A3FF"/>
</linearGradient>
<linearGradient id="paint14_linear_3211_838" x1="285.562" y1="187.826" x2="285.562" y2="194.49" gradientUnits="userSpaceOnUse">
<stop stop-color="#144CA1"/>
<stop offset="1" stop-color="#67A3FF"/>
</linearGradient>
<linearGradient id="paint15_linear_3211_838" x1="291.363" y1="187.767" x2="291.363" y2="194.501" gradientUnits="userSpaceOnUse">
<stop stop-color="#144CA1"/>
<stop offset="1" stop-color="#67A3FF"/>
</linearGradient>
<linearGradient id="paint16_linear_3211_838" x1="295.842" y1="187.746" x2="295.842" y2="194.48" gradientUnits="userSpaceOnUse">
<stop stop-color="#144CA1"/>
<stop offset="1" stop-color="#67A3FF"/>
</linearGradient>
<linearGradient id="paint17_linear_3211_838" x1="143.755" y1="144.11" x2="143.755" y2="210.71" gradientUnits="userSpaceOnUse">
<stop stop-color="#144CA1"/>
<stop offset="1" stop-color="#67A3FF"/>
</linearGradient>
<linearGradient id="paint18_linear_3211_838" x1="162.975" y1="144.11" x2="162.975" y2="156.66" gradientUnits="userSpaceOnUse">
<stop stop-color="#144CA1"/>
<stop offset="1" stop-color="#67A3FF"/>
</linearGradient>
<linearGradient id="paint19_linear_3211_838" x1="133.85" y1="163.77" x2="133.85" y2="171.37" gradientUnits="userSpaceOnUse">
<stop stop-color="#144CA1"/>
<stop offset="1" stop-color="#67A3FF"/>
</linearGradient>
<linearGradient id="paint20_linear_3211_838" x1="148.805" y1="168.73" x2="148.805" y2="184.47" gradientUnits="userSpaceOnUse">
<stop stop-color="#144CA1"/>
<stop offset="1" stop-color="#67A3FF"/>
</linearGradient>
<linearGradient id="paint21_linear_3211_838" x1="136.445" y1="174.22" x2="136.445" y2="184.47" gradientUnits="userSpaceOnUse">
<stop stop-color="#144CA1"/>
<stop offset="1" stop-color="#67A3FF"/>
</linearGradient>
<linearGradient id="paint22_linear_3211_838" x1="143.745" y1="159.28" x2="143.745" y2="184.47" gradientUnits="userSpaceOnUse">
<stop stop-color="#144CA1"/>
<stop offset="1" stop-color="#67A3FF"/>
</linearGradient>
<linearGradient id="paint23_linear_3211_838" x1="143.725" y1="224.94" x2="143.725" y2="291.61" gradientUnits="userSpaceOnUse">
<stop stop-color="#144CA1"/>
<stop offset="1" stop-color="#67A3FF"/>
</linearGradient>
<linearGradient id="paint24_linear_3211_838" x1="162.97" y1="224.94" x2="162.97" y2="237.5" gradientUnits="userSpaceOnUse">
<stop stop-color="#144CA1"/>
<stop offset="1" stop-color="#67A3FF"/>
</linearGradient>
<linearGradient id="paint25_linear_3211_838" x1="133.81" y1="244.61" x2="133.81" y2="252.23" gradientUnits="userSpaceOnUse">
<stop stop-color="#144CA1"/>
<stop offset="1" stop-color="#67A3FF"/>
</linearGradient>
<linearGradient id="paint26_linear_3211_838" x1="148.785" y1="249.58" x2="148.785" y2="265.34" gradientUnits="userSpaceOnUse">
<stop stop-color="#144CA1"/>
<stop offset="1" stop-color="#67A3FF"/>
</linearGradient>
<linearGradient id="paint27_linear_3211_838" x1="136.415" y1="255.08" x2="136.415" y2="265.34" gradientUnits="userSpaceOnUse">
<stop stop-color="#144CA1"/>
<stop offset="1" stop-color="#67A3FF"/>
</linearGradient>
<linearGradient id="paint28_linear_3211_838" x1="143.725" y1="240.13" x2="143.725" y2="265.34" gradientUnits="userSpaceOnUse">
<stop stop-color="#144CA1"/>
<stop offset="1" stop-color="#67A3FF"/>
</linearGradient>
<linearGradient id="paint29_linear_3211_838" x1="498.385" y1="78.77" x2="498.385" y2="88" gradientUnits="userSpaceOnUse">
<stop stop-color="#144CA1"/>
<stop offset="1" stop-color="#67A3FF"/>
</linearGradient>
<linearGradient id="paint30_linear_3211_838" x1="498.385" y1="103.33" x2="498.385" y2="133.46" gradientUnits="userSpaceOnUse">
<stop stop-color="#144CA1"/>
<stop offset="1" stop-color="#67A3FF"/>
</linearGradient>
<linearGradient id="paint31_linear_3211_838" x1="498.385" y1="227.34" x2="498.385" y2="257.47" gradientUnits="userSpaceOnUse">
<stop stop-color="#144CA1"/>
<stop offset="1" stop-color="#67A3FF"/>
</linearGradient>
<linearGradient id="paint32_linear_3211_838" x1="498.38" y1="212.38" x2="498.38" y2="155.82" gradientUnits="userSpaceOnUse">
<stop stop-color="#144CA1"/>
<stop offset="1" stop-color="#67A3FF"/>
</linearGradient>
<linearGradient id="paint33_linear_3211_838" x1="486.975" y1="182.77" x2="486.975" y2="197.7" gradientUnits="userSpaceOnUse">
<stop stop-color="#144CA1"/>
<stop offset="1" stop-color="#67A3FF"/>
</linearGradient>
<linearGradient id="paint34_linear_3211_838" x1="498.38" y1="197.7" x2="498.38" y2="212.38" gradientUnits="userSpaceOnUse">
<stop stop-color="#144CA1"/>
<stop offset="1" stop-color="#67A3FF"/>
</linearGradient>
<linearGradient id="paint35_linear_3211_838" x1="271.12" y1="68.3896" x2="271.12" y2="133.95" gradientUnits="userSpaceOnUse">
<stop stop-color="#144CA1"/>
<stop offset="1" stop-color="#67A3FF"/>
</linearGradient>
<linearGradient id="paint36_linear_3211_838" x1="271.02" y1="61.5" x2="271.02" y2="68.99" gradientUnits="userSpaceOnUse">
<stop stop-color="#144CA1"/>
<stop offset="1" stop-color="#67A3FF"/>
</linearGradient>
<linearGradient id="paint37_linear_3211_838" x1="288.675" y1="65.2598" x2="288.675" y2="75.1298" gradientUnits="userSpaceOnUse">
<stop stop-color="#144CA1"/>
<stop offset="1" stop-color="#67A3FF"/>
</linearGradient>
<linearGradient id="paint38_linear_3211_838" x1="302" y1="78.6499" x2="302" y2="88.2499" gradientUnits="userSpaceOnUse">
<stop stop-color="#144CA1"/>
<stop offset="1" stop-color="#67A3FF"/>
</linearGradient>
<linearGradient id="paint39_linear_3211_838" x1="307.045" y1="97.3198" x2="307.045" y2="104.83" gradientUnits="userSpaceOnUse">
<stop stop-color="#144CA1"/>
<stop offset="1" stop-color="#67A3FF"/>
</linearGradient>
<linearGradient id="paint40_linear_3211_838" x1="302.095" y1="113.93" x2="302.095" y2="123.53" gradientUnits="userSpaceOnUse">
<stop stop-color="#144CA1"/>
<stop offset="1" stop-color="#67A3FF"/>
</linearGradient>
<linearGradient id="paint41_linear_3211_838" x1="288.84" y1="127.12" x2="288.84" y2="136.99" gradientUnits="userSpaceOnUse">
<stop stop-color="#144CA1"/>
<stop offset="1" stop-color="#67A3FF"/>
</linearGradient>
<linearGradient id="paint42_linear_3211_838" x1="271.215" y1="133.36" x2="271.215" y2="140.85" gradientUnits="userSpaceOnUse">
<stop stop-color="#144CA1"/>
<stop offset="1" stop-color="#67A3FF"/>
</linearGradient>
<linearGradient id="paint43_linear_3211_838" x1="253.56" y1="127.22" x2="253.56" y2="137.09" gradientUnits="userSpaceOnUse">
<stop stop-color="#144CA1"/>
<stop offset="1" stop-color="#67A3FF"/>
</linearGradient>
<linearGradient id="paint44_linear_3211_838" x1="240.235" y1="114.1" x2="240.235" y2="123.7" gradientUnits="userSpaceOnUse">
<stop stop-color="#144CA1"/>
<stop offset="1" stop-color="#67A3FF"/>
</linearGradient>
<linearGradient id="paint45_linear_3211_838" x1="235.185" y1="97.52" x2="235.185" y2="105.02" gradientUnits="userSpaceOnUse">
<stop stop-color="#144CA1"/>
<stop offset="1" stop-color="#67A3FF"/>
</linearGradient>
<linearGradient id="paint46_linear_3211_838" x1="240.135" y1="78.8198" x2="240.135" y2="88.4198" gradientUnits="userSpaceOnUse">
<stop stop-color="#144CA1"/>
<stop offset="1" stop-color="#67A3FF"/>
</linearGradient>
<linearGradient id="paint47_linear_3211_838" x1="253.39" y1="65.3599" x2="253.39" y2="75.2199" gradientUnits="userSpaceOnUse">
<stop stop-color="#144CA1"/>
<stop offset="1" stop-color="#67A3FF"/>
</linearGradient>
<linearGradient id="paint48_linear_3211_838" x1="670.747" y1="294.184" x2="670.747" y2="385.33" gradientUnits="userSpaceOnUse">
<stop stop-color="#144CA1"/>
<stop offset="1" stop-color="#67A3FF"/>
</linearGradient>
<linearGradient id="paint49_linear_3211_838" x1="639.722" y1="327.916" x2="639.722" y2="407.214" gradientUnits="userSpaceOnUse">
<stop stop-color="#144CA1"/>
<stop offset="1" stop-color="#67A3FF"/>
</linearGradient>
<linearGradient id="paint50_linear_3211_838" x1="681.463" y1="330.889" x2="681.463" y2="402.109" gradientUnits="userSpaceOnUse">
<stop stop-color="#144CA1"/>
<stop offset="1" stop-color="#67A3FF"/>
</linearGradient>
</defs>
</svg>
