<svg width="156" height="48" viewBox="0 0 156 48" fill="none" xmlns="http://www.w3.org/2000/svg">
<rect x="0.5" y="0.5" width="155" height="47" rx="5.5" fill="black"/>
<path fill-rule="evenodd" clip-rule="evenodd" d="M38.7689 24.5804C38.7907 22.8839 39.6801 21.3169 41.1254 20.4283C40.2095 19.1202 38.7304 18.3206 37.1343 18.2706C35.455 18.0944 33.8271 19.2754 32.9714 19.2754C32.0991 19.2754 30.7816 18.2881 29.3629 18.3173C27.4962 18.3776 25.7981 19.4132 24.89 21.0452C22.956 24.3936 24.3985 29.3146 26.2512 32.0213C27.1781 33.3466 28.2613 34.8271 29.6788 34.7746C31.0658 34.717 31.5839 33.8901 33.2582 33.8901C34.9169 33.8901 35.403 34.7746 36.8492 34.7412C38.3376 34.717 39.2753 33.4099 40.1697 32.072C40.8357 31.1277 41.3481 30.084 41.6881 28.9795C39.9204 28.2319 38.7709 26.4997 38.7689 24.5804Z" fill="white"/>
<path fill-rule="evenodd" clip-rule="evenodd" d="M36.0372 16.4906C36.8487 15.5164 37.2485 14.2642 37.1517 13C35.9119 13.1302 34.7666 13.7228 33.9442 14.6596C33.132 15.5839 32.7205 16.7932 32.8004 18.021C34.0569 18.0339 35.2499 17.4699 36.0372 16.4906Z" fill="white"/>
<path d="M54.557 17.78V12.794H55.997C56.393 12.794 56.726 12.851 56.996 12.965C57.266 13.073 57.485 13.235 57.653 13.451C57.827 13.661 57.95 13.919 58.022 14.225C58.1 14.525 58.139 14.867 58.139 15.251C58.139 15.647 58.097 15.986 58.013 16.268C57.935 16.544 57.833 16.775 57.707 16.961C57.581 17.147 57.437 17.294 57.275 17.402C57.119 17.51 56.96 17.594 56.798 17.654C56.636 17.708 56.483 17.744 56.339 17.762C56.195 17.774 56.075 17.78 55.979 17.78H54.557ZM53.702 12.074V18.5H55.907C56.441 18.5 56.903 18.425 57.293 18.275C57.683 18.125 58.004 17.909 58.256 17.627C58.508 17.339 58.694 16.988 58.814 16.574C58.934 16.154 58.994 15.674 58.994 15.134C58.994 14.102 58.727 13.334 58.193 12.83C57.659 12.326 56.897 12.074 55.907 12.074H53.702ZM60.6509 16.178C60.6509 15.896 60.6869 15.647 60.7589 15.431C60.8369 15.209 60.9419 15.023 61.0739 14.873C61.2059 14.723 61.3589 14.609 61.5329 14.531C61.7129 14.453 61.9019 14.414 62.0999 14.414C62.2979 14.414 62.4839 14.453 62.6579 14.531C62.8379 14.609 62.9939 14.723 63.1259 14.873C63.2579 15.023 63.3599 15.209 63.4319 15.431C63.5099 15.647 63.5489 15.896 63.5489 16.178C63.5489 16.46 63.5099 16.712 63.4319 16.934C63.3599 17.15 63.2579 17.333 63.1259 17.483C62.9939 17.627 62.8379 17.738 62.6579 17.816C62.4839 17.894 62.2979 17.933 62.0999 17.933C61.9019 17.933 61.7129 17.894 61.5329 17.816C61.3589 17.738 61.2059 17.627 61.0739 17.483C60.9419 17.333 60.8369 17.15 60.7589 16.934C60.6869 16.712 60.6509 16.46 60.6509 16.178ZM59.8409 16.178C59.8409 16.52 59.8889 16.838 59.9849 17.132C60.0809 17.426 60.2249 17.684 60.4169 17.906C60.6089 18.122 60.8459 18.293 61.1279 18.419C61.4099 18.539 61.7339 18.599 62.0999 18.599C62.4719 18.599 62.7959 18.539 63.0719 18.419C63.3539 18.293 63.5909 18.122 63.7829 17.906C63.9749 17.684 64.1189 17.426 64.2149 17.132C64.3109 16.838 64.3589 16.52 64.3589 16.178C64.3589 15.836 64.3109 15.518 64.2149 15.224C64.1189 14.924 63.9749 14.666 63.7829 14.45C63.5909 14.228 63.3539 14.054 63.0719 13.928C62.7959 13.802 62.4719 13.739 62.0999 13.739C61.7339 13.739 61.4099 13.802 61.1279 13.928C60.8459 14.054 60.6089 14.228 60.4169 14.45C60.2249 14.666 60.0809 14.924 59.9849 15.224C59.8889 15.518 59.8409 15.836 59.8409 16.178ZM70.0489 18.5L71.5339 13.847H70.7419L69.6979 17.654H69.6799L68.7079 13.847H67.8709L66.9349 17.654H66.9169L65.8639 13.847H65.0179L66.5119 18.5H67.3399L68.2759 14.801H68.2939L69.2389 18.5H70.0489ZM72.4412 13.847V18.5H73.2062V15.872C73.2062 15.662 73.2332 15.47 73.2872 15.296C73.3472 15.116 73.4342 14.96 73.5482 14.828C73.6622 14.696 73.8032 14.594 73.9712 14.522C74.1452 14.45 74.3492 14.414 74.5832 14.414C74.8772 14.414 75.1082 14.498 75.2762 14.666C75.4442 14.834 75.5282 15.062 75.5282 15.35V18.5H76.2932V15.44C76.2932 15.188 76.2662 14.96 76.2122 14.756C76.1642 14.546 76.0772 14.366 75.9512 14.216C75.8252 14.066 75.6602 13.949 75.4562 13.865C75.2522 13.781 74.9972 13.739 74.6912 13.739C74.0012 13.739 73.4972 14.021 73.1792 14.585H73.1612V13.847H72.4412ZM77.6672 12.074V18.5H78.4322V12.074H77.6672ZM80.3553 16.178C80.3553 15.896 80.3913 15.647 80.4633 15.431C80.5413 15.209 80.6463 15.023 80.7783 14.873C80.9103 14.723 81.0633 14.609 81.2373 14.531C81.4173 14.453 81.6063 14.414 81.8043 14.414C82.0023 14.414 82.1883 14.453 82.3623 14.531C82.5423 14.609 82.6983 14.723 82.8303 14.873C82.9623 15.023 83.0643 15.209 83.1363 15.431C83.2143 15.647 83.2533 15.896 83.2533 16.178C83.2533 16.46 83.2143 16.712 83.1363 16.934C83.0643 17.15 82.9623 17.333 82.8303 17.483C82.6983 17.627 82.5423 17.738 82.3623 17.816C82.1883 17.894 82.0023 17.933 81.8043 17.933C81.6063 17.933 81.4173 17.894 81.2373 17.816C81.0633 17.738 80.9103 17.627 80.7783 17.483C80.6463 17.333 80.5413 17.15 80.4633 16.934C80.3913 16.712 80.3553 16.46 80.3553 16.178ZM79.5453 16.178C79.5453 16.52 79.5933 16.838 79.6893 17.132C79.7853 17.426 79.9293 17.684 80.1213 17.906C80.3133 18.122 80.5503 18.293 80.8323 18.419C81.1143 18.539 81.4383 18.599 81.8043 18.599C82.1763 18.599 82.5003 18.539 82.7763 18.419C83.0583 18.293 83.2953 18.122 83.4873 17.906C83.6793 17.684 83.8233 17.426 83.9193 17.132C84.0153 16.838 84.0633 16.52 84.0633 16.178C84.0633 15.836 84.0153 15.518 83.9193 15.224C83.8233 14.924 83.6793 14.666 83.4873 14.45C83.2953 14.228 83.0583 14.054 82.7763 13.928C82.5003 13.802 82.1763 13.739 81.8043 13.739C81.4383 13.739 81.1143 13.802 80.8323 13.928C80.5503 14.054 80.3133 14.228 80.1213 14.45C79.9293 14.666 79.7853 14.924 79.6893 15.224C79.5933 15.518 79.5453 15.836 79.5453 16.178ZM89.2673 18.482C89.1353 18.56 88.9523 18.599 88.7183 18.599C88.5203 18.599 88.3613 18.545 88.2413 18.437C88.1273 18.323 88.0703 18.14 88.0703 17.888C87.8603 18.14 87.6143 18.323 87.3323 18.437C87.0563 18.545 86.7563 18.599 86.4323 18.599C86.2223 18.599 86.0213 18.575 85.8293 18.527C85.6433 18.479 85.4813 18.404 85.3433 18.302C85.2053 18.2 85.0943 18.068 85.0103 17.906C84.9323 17.738 84.8933 17.537 84.8933 17.303C84.8933 17.039 84.9383 16.823 85.0283 16.655C85.1183 16.487 85.2353 16.352 85.3793 16.25C85.5293 16.142 85.6973 16.061 85.8833 16.007C86.0753 15.953 86.2703 15.908 86.4683 15.872C86.6783 15.83 86.8763 15.8 87.0623 15.782C87.2543 15.758 87.4223 15.728 87.5663 15.692C87.7103 15.65 87.8243 15.593 87.9083 15.521C87.9923 15.443 88.0343 15.332 88.0343 15.188C88.0343 15.02 88.0013 14.885 87.9353 14.783C87.8753 14.681 87.7943 14.603 87.6923 14.549C87.5963 14.495 87.4853 14.459 87.3593 14.441C87.2393 14.423 87.1193 14.414 86.9993 14.414C86.6753 14.414 86.4053 14.477 86.1893 14.603C85.9733 14.723 85.8563 14.954 85.8383 15.296H85.0733C85.0853 15.008 85.1453 14.765 85.2533 14.567C85.3613 14.369 85.5053 14.21 85.6853 14.09C85.8653 13.964 86.0693 13.874 86.2973 13.82C86.5313 13.766 86.7803 13.739 87.0443 13.739C87.2543 13.739 87.4613 13.754 87.6653 13.784C87.8753 13.814 88.0643 13.877 88.2323 13.973C88.4003 14.063 88.5353 14.192 88.6373 14.36C88.7393 14.528 88.7903 14.747 88.7903 15.017V17.411C88.7903 17.591 88.7993 17.723 88.8173 17.807C88.8413 17.891 88.9133 17.933 89.0333 17.933C89.0993 17.933 89.1773 17.918 89.2673 17.888V18.482ZM88.0253 16.097C87.9293 16.169 87.8033 16.223 87.6473 16.259C87.4913 16.289 87.3263 16.316 87.1523 16.34C86.9843 16.358 86.8133 16.382 86.6393 16.412C86.4653 16.436 86.3093 16.478 86.1713 16.538C86.0333 16.598 85.9193 16.685 85.8293 16.799C85.7453 16.907 85.7033 17.057 85.7033 17.249C85.7033 17.375 85.7273 17.483 85.7753 17.573C85.8293 17.657 85.8953 17.726 85.9733 17.78C86.0573 17.834 86.1533 17.873 86.2613 17.897C86.3693 17.921 86.4833 17.933 86.6033 17.933C86.8553 17.933 87.0713 17.9 87.2513 17.834C87.4313 17.762 87.5783 17.675 87.6923 17.573C87.8063 17.465 87.8903 17.351 87.9443 17.231C87.9983 17.105 88.0253 16.988 88.0253 16.88V16.097ZM90.7172 16.214C90.7172 15.986 90.7412 15.764 90.7892 15.548C90.8372 15.332 90.9152 15.14 91.0232 14.972C91.1312 14.804 91.2752 14.669 91.4552 14.567C91.6352 14.465 91.8542 14.414 92.1122 14.414C92.3762 14.414 92.6012 14.465 92.7872 14.567C92.9732 14.663 93.1232 14.792 93.2372 14.954C93.3572 15.116 93.4442 15.305 93.4982 15.521C93.5522 15.731 93.5792 15.95 93.5792 16.178C93.5792 16.394 93.5522 16.607 93.4982 16.817C93.4502 17.027 93.3692 17.216 93.2552 17.384C93.1412 17.546 92.9942 17.678 92.8142 17.78C92.6342 17.882 92.4152 17.933 92.1572 17.933C91.9112 17.933 91.6952 17.885 91.5092 17.789C91.3292 17.693 91.1792 17.564 91.0592 17.402C90.9452 17.24 90.8582 17.057 90.7982 16.853C90.7442 16.643 90.7172 16.43 90.7172 16.214ZM94.3172 18.5V12.074H93.5522V14.468H93.5342C93.4502 14.33 93.3452 14.216 93.2192 14.126C93.0992 14.03 92.9702 13.955 92.8322 13.901C92.6942 13.841 92.5562 13.799 92.4182 13.775C92.2802 13.751 92.1512 13.739 92.0312 13.739C91.6772 13.739 91.3652 13.805 91.0952 13.937C90.8312 14.063 90.6092 14.237 90.4292 14.459C90.2552 14.675 90.1232 14.93 90.0332 15.224C89.9492 15.518 89.9072 15.83 89.9072 16.16C89.9072 16.49 89.9522 16.802 90.0422 17.096C90.1322 17.39 90.2642 17.648 90.4382 17.87C90.6182 18.092 90.8402 18.269 91.1042 18.401C91.3742 18.533 91.6892 18.599 92.0492 18.599C92.3732 18.599 92.6702 18.542 92.9402 18.428C93.2102 18.314 93.4082 18.128 93.5342 17.87H93.5522V18.5H94.3172ZM98.9171 16.178C98.9171 15.896 98.9531 15.647 99.0251 15.431C99.1031 15.209 99.2081 15.023 99.3401 14.873C99.4721 14.723 99.6251 14.609 99.7991 14.531C99.9791 14.453 100.168 14.414 100.366 14.414C100.564 14.414 100.75 14.453 100.924 14.531C101.104 14.609 101.26 14.723 101.392 14.873C101.524 15.023 101.626 15.209 101.698 15.431C101.776 15.647 101.815 15.896 101.815 16.178C101.815 16.46 101.776 16.712 101.698 16.934C101.626 17.15 101.524 17.333 101.392 17.483C101.26 17.627 101.104 17.738 100.924 17.816C100.75 17.894 100.564 17.933 100.366 17.933C100.168 17.933 99.9791 17.894 99.7991 17.816C99.6251 17.738 99.4721 17.627 99.3401 17.483C99.2081 17.333 99.1031 17.15 99.0251 16.934C98.9531 16.712 98.9171 16.46 98.9171 16.178ZM98.1071 16.178C98.1071 16.52 98.1551 16.838 98.2511 17.132C98.3471 17.426 98.4911 17.684 98.6831 17.906C98.8751 18.122 99.1121 18.293 99.3941 18.419C99.6761 18.539 100 18.599 100.366 18.599C100.738 18.599 101.062 18.539 101.338 18.419C101.62 18.293 101.857 18.122 102.049 17.906C102.241 17.684 102.385 17.426 102.481 17.132C102.577 16.838 102.625 16.52 102.625 16.178C102.625 15.836 102.577 15.518 102.481 15.224C102.385 14.924 102.241 14.666 102.049 14.45C101.857 14.228 101.62 14.054 101.338 13.928C101.062 13.802 100.738 13.739 100.366 13.739C100 13.739 99.6761 13.802 99.3941 13.928C99.1121 14.054 98.8751 14.228 98.6831 14.45C98.4911 14.666 98.3471 14.924 98.2511 15.224C98.1551 15.518 98.1071 15.836 98.1071 16.178ZM103.707 13.847V18.5H104.472V15.872C104.472 15.662 104.499 15.47 104.553 15.296C104.613 15.116 104.7 14.96 104.814 14.828C104.928 14.696 105.069 14.594 105.237 14.522C105.411 14.45 105.615 14.414 105.849 14.414C106.143 14.414 106.374 14.498 106.542 14.666C106.71 14.834 106.794 15.062 106.794 15.35V18.5H107.559V15.44C107.559 15.188 107.532 14.96 107.478 14.756C107.43 14.546 107.343 14.366 107.217 14.216C107.091 14.066 106.926 13.949 106.722 13.865C106.518 13.781 106.263 13.739 105.957 13.739C105.267 13.739 104.763 14.021 104.445 14.585H104.427V13.847H103.707ZM112.635 13.847V12.452H111.87V13.847H111.078V14.522H111.87V17.483C111.87 17.699 111.891 17.873 111.933 18.005C111.975 18.137 112.038 18.239 112.122 18.311C112.212 18.383 112.326 18.434 112.464 18.464C112.608 18.488 112.779 18.5 112.977 18.5H113.562V17.825H113.211C113.091 17.825 112.992 17.822 112.914 17.816C112.842 17.804 112.785 17.783 112.743 17.753C112.701 17.723 112.671 17.681 112.653 17.627C112.641 17.573 112.635 17.501 112.635 17.411V14.522H113.562V13.847H112.635ZM114.592 12.074V18.5H115.357V15.872C115.357 15.662 115.384 15.47 115.438 15.296C115.498 15.116 115.585 14.96 115.699 14.828C115.813 14.696 115.954 14.594 116.122 14.522C116.296 14.45 116.5 14.414 116.734 14.414C117.028 14.414 117.259 14.498 117.427 14.666C117.595 14.834 117.679 15.062 117.679 15.35V18.5H118.444V15.44C118.444 15.188 118.417 14.96 118.363 14.756C118.315 14.546 118.228 14.366 118.102 14.216C117.976 14.066 117.811 13.949 117.607 13.865C117.403 13.781 117.148 13.739 116.842 13.739C116.704 13.739 116.56 13.754 116.41 13.784C116.266 13.814 116.125 13.862 115.987 13.928C115.855 13.988 115.735 14.069 115.627 14.171C115.519 14.267 115.435 14.387 115.375 14.531H115.357V12.074H114.592ZM123.004 15.728H120.331C120.343 15.548 120.382 15.38 120.448 15.224C120.514 15.062 120.604 14.921 120.718 14.801C120.832 14.681 120.967 14.588 121.123 14.522C121.285 14.45 121.465 14.414 121.663 14.414C121.855 14.414 122.029 14.45 122.185 14.522C122.347 14.588 122.485 14.681 122.599 14.801C122.719 14.915 122.812 15.053 122.878 15.215C122.95 15.377 122.992 15.548 123.004 15.728ZM123.742 17.024H122.986C122.92 17.33 122.782 17.558 122.572 17.708C122.368 17.858 122.104 17.933 121.78 17.933C121.528 17.933 121.309 17.891 121.123 17.807C120.937 17.723 120.784 17.612 120.664 17.474C120.544 17.33 120.457 17.168 120.403 16.988C120.349 16.802 120.325 16.607 120.331 16.403H123.814C123.826 16.121 123.799 15.824 123.733 15.512C123.673 15.2 123.559 14.912 123.391 14.648C123.229 14.384 123.01 14.168 122.734 14C122.464 13.826 122.122 13.739 121.708 13.739C121.39 13.739 121.096 13.799 120.826 13.919C120.562 14.039 120.331 14.207 120.133 14.423C119.941 14.639 119.791 14.894 119.683 15.188C119.575 15.482 119.521 15.806 119.521 16.16C119.533 16.514 119.584 16.841 119.674 17.141C119.77 17.441 119.911 17.699 120.097 17.915C120.283 18.131 120.511 18.299 120.781 18.419C121.057 18.539 121.381 18.599 121.753 18.599C122.281 18.599 122.719 18.467 123.067 18.203C123.415 17.939 123.64 17.546 123.742 17.024Z" fill="white"/>
<path d="M69.9199 25.9766C72.2177 25.9766 73.7324 27.793 73.7324 30.5987C73.7324 33.4122 72.2266 35.2198 69.9541 35.2198C68.7795 35.2812 67.6731 34.666 67.1055 33.6358H67.0625V38.1202H65.2041V26.0713H67.0029V27.5772H67.0371C67.6299 26.5534 68.7375 25.9385 69.9199 25.9766ZM79.8847 25.9766C82.1826 25.9766 83.6973 27.793 83.6973 30.5987C83.6973 33.4122 82.1914 35.2198 79.9189 35.2198C78.7443 35.2812 77.6379 34.666 77.0703 33.6358H77.0273V38.1202H75.1689V26.0713H76.9677V27.5772H77.0019C77.5947 26.5534 78.7023 25.9385 79.8847 25.9766ZM93.2266 22.5C95.8506 22.5 97.6494 23.9717 97.71 26.1143H95.834C95.7217 24.875 94.6972 24.127 93.2002 24.127C91.7031 24.127 90.6787 24.8838 90.6787 25.9854C90.6787 26.8633 91.333 27.3799 92.9336 27.7754L94.3017 28.1113C96.8496 28.7138 97.9082 29.7373 97.9082 31.5537C97.9082 33.8769 96.0576 35.332 93.1142 35.332C90.3603 35.332 88.501 33.9111 88.3808 31.665L90.2832 31.6651C90.4209 32.8965 91.6172 33.7051 93.2519 33.7051C94.8184 33.7051 95.9453 32.8965 95.9453 31.7861C95.9453 30.8223 95.2656 30.2451 93.6562 29.8496L92.0469 29.4619C89.7666 28.9111 88.708 27.8447 88.708 26.1143C88.708 23.9717 90.5752 22.5 93.2266 22.5ZM108.932 25.96C111.557 25.96 113.227 27.75 113.227 30.5987C113.227 33.4551 111.565 35.2374 108.932 35.2374C106.299 35.2374 104.638 33.4551 104.638 30.5987C104.638 27.7501 106.315 25.96 108.932 25.96ZM123.98 25.96C126.485 25.96 128.061 27.6807 128.061 30.4258V31.0625H121.666V31.1749C121.606 31.8489 121.839 32.5161 122.305 33.0067C122.771 33.4974 123.425 33.7642 124.102 33.7393C125.003 33.8238 125.854 33.3059 126.192 32.4659L127.957 32.4659C127.707 34.1094 126.106 35.2374 124.059 35.2374C121.425 35.2374 119.79 33.4727 119.79 30.6416C119.79 27.8018 121.434 25.96 123.98 25.96ZM101.919 23.9288V26.0713H103.641V27.543H101.919V32.5342C101.919 33.3096 102.264 33.6709 103.021 33.6709C103.225 33.6674 103.429 33.653 103.632 33.6279V35.0908C103.292 35.1544 102.946 35.1832 102.6 35.1768C100.767 35.1768 100.052 34.4883 100.052 32.7324V27.543H98.7354V26.0713H100.052V23.9288H101.919ZM59.5664 22.7071L64.0498 35.1251H62.0107L60.875 31.7686H56.1416L55.0049 35.1251H53L57.4834 22.7071H59.5664ZM118.752 25.9766C118.966 25.9759 119.18 25.9991 119.389 26.0459V27.7842C119.118 27.7016 118.836 27.6637 118.554 27.6719C118.007 27.6498 117.479 27.8675 117.106 28.268C116.734 28.6684 116.555 29.2116 116.617 29.7549V35.125H114.759V26.0713H116.531V27.6123H116.574C116.821 26.6203 117.73 25.9376 118.752 25.9766ZM108.932 27.4913C107.426 27.4913 106.531 28.6534 106.531 30.5987C106.531 32.5606 107.426 33.7051 108.932 33.7051C110.438 33.7051 111.333 32.5606 111.333 30.5987C111.333 28.6446 110.438 27.4913 108.932 27.4913ZM69.4297 27.5606C68.0098 27.5606 67.0547 28.7911 67.0547 30.5987C67.0547 32.4229 68.0098 33.6446 69.4297 33.6446C70.875 33.6446 71.8223 32.4483 71.8223 30.5987C71.8223 28.7657 70.875 27.5606 69.4297 27.5606ZM79.3945 27.5606C77.9746 27.5606 77.0195 28.7911 77.0195 30.5987C77.0195 32.4229 77.9746 33.6446 79.3945 33.6446C80.8398 33.6446 81.7871 32.4483 81.7871 30.5987C81.7871 28.7657 80.8398 27.5606 79.3945 27.5606ZM58.5342 24.7725H58.4825L56.6318 30.2198H60.3838L58.5342 24.7725ZM123.98 27.4659C123.369 27.4622 122.782 27.7029 122.349 28.1344C121.916 28.5659 121.673 29.1525 121.675 29.7637H126.201C126.235 29.1581 126.014 28.5658 125.593 28.1296C125.171 27.6934 124.587 27.4528 123.98 27.4659Z" fill="white"/>
<rect x="0.5" y="0.5" width="155" height="47" rx="5.5" stroke="#A6A6A6"/>
</svg>
