<svg width="156" height="48" viewBox="0 0 156 48" fill="none" xmlns="http://www.w3.org/2000/svg">
<rect x="0.5" y="0.5" width="155" height="47" rx="5.5" fill="black"/>
<path fill-rule="evenodd" clip-rule="evenodd" d="M22.435 11.5469C22.144 11.8549 21.973 12.3319 21.973 12.9509V35.0489C21.973 35.6679 22.144 36.1449 22.435 36.4529L22.509 36.5249L34.888 24.1459V23.8539L22.509 11.4749L22.435 11.5469Z" fill="#00D7FE"/>
<mask id="mask0_347_9918" style="mask-type:alpha" maskUnits="userSpaceOnUse" x="34" y="19" width="12" height="10">
<path d="M39.0131 28.2741L34.8881 24.1461V23.8541L39.0151 19.7271L43.9971 22.5571C45.3931 23.3511 45.3931 24.6491 43.9971 25.4421L39.1081 28.2201L39.0131 28.2741Z" fill="white"/>
</mask>
<g mask="url(#mask0_347_9918)">
<path fill-rule="evenodd" clip-rule="evenodd" d="M39.0131 28.2741L34.8881 24.1461V23.8541L39.0151 19.7271L43.9971 22.5571C45.3931 23.3511 45.3931 24.6491 43.9971 25.4421L39.1081 28.2201L39.0131 28.2741Z" fill="url(#paint0_linear_347_9918)"/>
</g>
<mask id="mask1_347_9918" style="mask-type:alpha" maskUnits="userSpaceOnUse" x="22" y="24" width="18" height="13">
<path d="M39.1081 28.22L34.8881 24L22.4351 36.453C22.8961 36.94 23.6561 37 24.5121 36.514L39.1081 28.22Z" fill="white"/>
</mask>
<g mask="url(#mask1_347_9918)">
<path fill-rule="evenodd" clip-rule="evenodd" d="M39.1081 28.22L34.8881 24L22.4351 36.453C22.8961 36.94 23.6561 37 24.5121 36.514L39.1081 28.22Z" fill="url(#paint1_linear_347_9918)"/>
</g>
<mask id="mask2_347_9918" style="mask-type:alpha" maskUnits="userSpaceOnUse" x="22" y="11" width="18" height="13">
<path d="M39.1081 19.7799L24.5121 11.4859C23.6561 10.9999 22.8961 11.0599 22.4351 11.5469L34.8881 23.9999L39.1081 19.7799Z" fill="white"/>
</mask>
<g mask="url(#mask2_347_9918)">
<path fill-rule="evenodd" clip-rule="evenodd" d="M39.1081 19.7799L24.5121 11.4859C23.6561 10.9999 22.8961 11.0599 22.4351 11.5469L34.8881 23.9999L39.1081 19.7799Z" fill="url(#paint2_linear_347_9918)"/>
</g>
<path fill-rule="evenodd" clip-rule="evenodd" d="M116.894 34.953H118.76V22.452H116.894V34.953ZM133.701 26.955L131.562 32.375H131.498L129.278 26.955H127.268L130.597 34.53L128.699 38.744H130.646L135.776 26.955H133.701ZM123.119 33.533C122.507 33.533 121.655 33.228 121.655 32.472C121.655 31.507 122.717 31.137 123.633 31.137C124.454 31.137 124.839 31.314 125.338 31.555C125.193 32.713 124.196 33.533 123.119 33.533ZM123.344 26.682C121.993 26.682 120.594 27.277 120.015 28.596L121.671 29.287C122.025 28.596 122.684 28.37 123.376 28.37C124.341 28.37 125.322 28.949 125.338 29.979V30.107C125 29.914 124.277 29.625 123.392 29.625C121.607 29.625 119.789 30.606 119.789 32.439C119.789 34.112 121.253 35.19 122.893 35.19C124.148 35.19 124.839 34.627 125.274 33.967H125.338V34.932H127.139V30.14C127.139 27.92 125.483 26.682 123.344 26.682ZM111.812 28.477H109.158V24.192H111.812C113.207 24.192 113.999 25.347 113.999 26.334C113.999 27.303 113.207 28.477 111.812 28.477ZM111.764 22.452H107.293V34.953H109.158V30.217H111.764C113.832 30.217 115.865 28.719 115.865 26.334C115.865 23.949 113.832 22.452 111.764 22.452ZM87.383 33.535C86.094 33.535 85.015 32.456 85.015 30.974C85.015 29.476 86.094 28.38 87.383 28.38C88.656 28.38 89.654 29.476 89.654 30.974C89.654 32.456 88.656 33.535 87.383 33.535ZM89.525 27.655H89.461C89.042 27.156 88.237 26.705 87.222 26.705C85.095 26.705 83.146 28.573 83.146 30.974C83.146 33.358 85.095 35.211 87.222 35.211C88.237 35.211 89.042 34.76 89.461 34.244H89.525V34.856C89.525 36.484 88.656 37.354 87.254 37.354C86.11 37.354 85.401 36.532 85.111 35.839L83.484 36.516C83.951 37.644 85.192 39.029 87.254 39.029C89.445 39.029 91.298 37.74 91.298 34.599V26.962H89.525V27.655ZM92.587 34.953H94.456V22.451H92.587V34.953ZM97.21 30.829C97.162 29.186 98.483 28.348 99.433 28.348C100.175 28.348 100.803 28.718 101.012 29.25L97.21 30.829ZM103.01 29.411C102.656 28.461 101.576 26.705 99.369 26.705C97.178 26.705 95.358 28.428 95.358 30.958C95.358 33.342 97.162 35.211 99.578 35.211C101.528 35.211 102.656 34.019 103.123 33.326L101.673 32.359C101.19 33.068 100.529 33.535 99.578 33.535C98.628 33.535 97.951 33.1 97.516 32.247L103.203 29.895L103.01 29.411ZM57.702 28.01V29.814H62.019C61.89 30.829 61.552 31.57 61.037 32.086C60.408 32.714 59.425 33.406 57.702 33.406C55.044 33.406 52.965 31.264 52.965 28.606C52.965 25.947 55.044 23.805 57.702 23.805C59.136 23.805 60.183 24.369 60.956 25.094L62.229 23.821C61.149 22.79 59.716 22 57.702 22C54.061 22 51 24.965 51 28.606C51 32.247 54.061 35.211 57.702 35.211C59.667 35.211 61.149 34.567 62.309 33.358C63.501 32.166 63.872 30.491 63.872 29.137C63.872 28.718 63.84 28.332 63.775 28.01H57.702ZM68.781 33.535C67.492 33.535 66.38 32.472 66.38 30.958C66.38 29.427 67.492 28.38 68.781 28.38C70.069 28.38 71.181 29.427 71.181 30.958C71.181 32.472 70.069 33.535 68.781 33.535ZM68.781 26.705C66.428 26.705 64.511 28.493 64.511 30.958C64.511 33.406 66.428 35.211 68.781 35.211C71.133 35.211 73.05 33.406 73.05 30.958C73.05 28.493 71.133 26.705 68.781 26.705ZM78.094 33.535C76.805 33.535 75.693 32.472 75.693 30.958C75.693 29.427 76.805 28.38 78.094 28.38C79.383 28.38 80.494 29.427 80.494 30.958C80.494 32.472 79.383 33.535 78.094 33.535ZM78.094 26.705C75.742 26.705 73.825 28.493 73.825 30.958C73.825 33.406 75.742 35.211 78.094 35.211C80.446 35.211 82.363 33.406 82.363 30.958C82.363 28.493 80.446 26.705 78.094 26.705Z" fill="#FFFFFE"/>
<path d="M56.4712 14.814V17.1562C56.3921 17.2734 56.2661 17.4053 56.0933 17.5518C55.9204 17.6953 55.6816 17.8213 55.377 17.9297C55.0752 18.0352 54.6855 18.0879 54.208 18.0879C53.8184 18.0879 53.4595 18.0205 53.1313 17.8857C52.8062 17.748 52.5234 17.5488 52.2832 17.2881C52.0459 17.0244 51.8613 16.7051 51.7295 16.3301C51.6006 15.9521 51.5361 15.5244 51.5361 15.0469V14.5503C51.5361 14.0728 51.5918 13.6465 51.7031 13.2715C51.8174 12.8965 51.9844 12.5786 52.2041 12.3179C52.4238 12.0542 52.6934 11.855 53.0127 11.7202C53.332 11.5825 53.6982 11.5137 54.1113 11.5137C54.6006 11.5137 55.0093 11.5986 55.3374 11.7686C55.6685 11.9355 55.9263 12.167 56.1108 12.4629C56.2983 12.7588 56.4185 13.0957 56.4712 13.4736H55.623C55.585 13.2422 55.5088 13.0312 55.3945 12.8408C55.2832 12.6504 55.1235 12.498 54.9155 12.3838C54.7075 12.2666 54.4395 12.208 54.1113 12.208C53.8154 12.208 53.5591 12.2622 53.3423 12.3706C53.1255 12.479 52.9468 12.6343 52.8062 12.8364C52.6655 13.0386 52.5601 13.2832 52.4897 13.5703C52.4224 13.8574 52.3887 14.1812 52.3887 14.5415V15.0469C52.3887 15.416 52.4312 15.7456 52.5161 16.0356C52.604 16.3257 52.7285 16.5732 52.8896 16.7783C53.0508 16.9805 53.2427 17.1343 53.4653 17.2397C53.6909 17.3452 53.9399 17.3979 54.2124 17.3979C54.5142 17.3979 54.7588 17.373 54.9463 17.3232C55.1338 17.2705 55.2803 17.209 55.3857 17.1387C55.4912 17.0654 55.5718 16.9966 55.6274 16.9321V15.4995H54.1465V14.814H56.4712ZM61.6724 17.3101V18H58.2842V17.3101H61.6724ZM58.4556 11.6016V18H57.6074V11.6016H58.4556ZM61.2241 14.3525V15.0425H58.2842V14.3525H61.2241ZM61.6284 11.6016V12.2959H58.2842V11.6016H61.6284ZM64.9048 11.6016V18H64.0699V11.6016H64.9048ZM66.9615 11.6016V12.2959H62.0176V11.6016H66.9615ZM70.337 11.6016V18H69.4888V11.6016H70.337ZM73.8419 11.6016V18H73.0069V11.6016H73.8419ZM75.8985 11.6016V12.2959H70.9547V11.6016H75.8985ZM83.2907 14.5986V15.0029C83.2907 15.4834 83.2306 15.9141 83.1105 16.2949C82.9904 16.6758 82.8175 16.9995 82.5919 17.2661C82.3663 17.5327 82.0954 17.7363 81.7789 17.877C81.4655 18.0176 81.1139 18.0879 80.7243 18.0879C80.3463 18.0879 79.9992 18.0176 79.6828 17.877C79.3693 17.7363 79.0968 17.5327 78.8654 17.2661C78.6369 16.9995 78.4596 16.6758 78.3336 16.2949C78.2077 15.9141 78.1447 15.4834 78.1447 15.0029V14.5986C78.1447 14.1182 78.2062 13.689 78.3292 13.311C78.4552 12.9302 78.6325 12.6064 78.861 12.3398C79.0895 12.0703 79.3605 11.8652 79.674 11.7246C79.9904 11.584 80.3375 11.5137 80.7155 11.5137C81.1051 11.5137 81.4567 11.584 81.7702 11.7246C82.0866 11.8652 82.3576 12.0703 82.5831 12.3398C82.8117 12.6064 82.986 12.9302 83.1061 13.311C83.2291 13.689 83.2907 14.1182 83.2907 14.5986ZM82.4513 15.0029V14.5898C82.4513 14.209 82.4118 13.8721 82.3327 13.5791C82.2565 13.2861 82.1437 13.04 81.9943 12.8408C81.8449 12.6416 81.6618 12.4907 81.445 12.3882C81.2311 12.2856 80.9879 12.2344 80.7155 12.2344C80.4518 12.2344 80.213 12.2856 79.9992 12.3882C79.7882 12.4907 79.6066 12.6416 79.4542 12.8408C79.3048 13.04 79.1891 13.2861 79.1071 13.5791C79.025 13.8721 78.984 14.209 78.984 14.5898V15.0029C78.984 15.3867 79.025 15.7266 79.1071 16.0225C79.1891 16.3154 79.3063 16.563 79.4586 16.7651C79.6139 16.9644 79.797 17.1152 80.0079 17.2178C80.2218 17.3203 80.4606 17.3716 80.7243 17.3716C80.9996 17.3716 81.2443 17.3203 81.4581 17.2178C81.672 17.1152 81.8522 16.9644 81.9987 16.7651C82.1481 16.563 82.2609 16.3154 82.3371 16.0225C82.4132 15.7266 82.4513 15.3867 82.4513 15.0029ZM89.2126 11.6016V18H88.36L85.1388 13.0649V18H84.2907V11.6016H85.1388L88.3732 16.5498V11.6016H89.2126Z" fill="white"/>
<rect x="0.5" y="0.5" width="155" height="47" rx="5.5" stroke="#A6A6A6"/>
<defs>
<linearGradient id="paint0_linear_347_9918" x1="43.0889" y1="24.0004" x2="34.8881" y2="24.0004" gradientUnits="userSpaceOnUse">
<stop stop-color="#FFBC00"/>
<stop offset="1" stop-color="#FFDA03"/>
</linearGradient>
<linearGradient id="paint1_linear_347_9918" x1="36.8147" y1="27.9708" x2="26.1112" y2="36.7933" gradientUnits="userSpaceOnUse">
<stop stop-color="#E22652"/>
<stop offset="1" stop-color="#FF3A44"/>
</linearGradient>
<linearGradient id="paint2_linear_347_9918" x1="24.3207" y1="13.0461" x2="31.457" y2="19.321" gradientUnits="userSpaceOnUse">
<stop stop-color="#0ED574"/>
<stop offset="1" stop-color="#07F076"/>
</linearGradient>
</defs>
</svg>
