<svg width="140" height="140" viewBox="0 0 140 140" fill="none" xmlns="http://www.w3.org/2000/svg">
<g clip-path="url(#clip0_2531_19917)">
<path d="M139.144 80.9344C145.178 42.7483 119.114 6.90051 80.9282 0.866088C42.7421 -5.16833 6.89429 20.8957 0.859872 59.0818C-5.17454 97.2679 20.8895 133.116 59.0756 139.15C97.2617 145.185 133.109 119.12 139.144 80.9344Z" fill="url(#paint0_linear_2531_19917)"/>
<path d="M69.5692 36.1333C75.1558 42.0108 84.0385 46.7997 93.5228 48.8023C93.5297 49.4323 93.5681 52.9207 93.7476 68.9992C93.9852 90.4474 73.5476 101.063 70.3797 102.692C67.2856 101.299 46.4507 90.97 46.2121 69.5218C46.0336 53.4443 45.9952 49.9559 45.9883 49.3258C55.4212 47.1152 64.1157 42.1321 69.5692 36.1333Z" fill="#FDFCFC"/>
<path d="M69.6538 40.0092C75.1182 44.9332 82.6689 48.7845 90.9581 50.8551L91.1553 69.0268C91.247 77.3427 87.9784 84.8865 81.4383 91.4512C78.1528 94.7199 74.4036 97.4867 70.3115 99.6625L69.996 99.5018L69.6016 40.0536C69.6223 40.0378 69.639 40.024 69.6538 40.0092Z" fill="#0051C4"/>
<path d="M69.6081 40.0516L70.0025 99.4998C65.9845 97.4378 62.2832 94.81 59.0117 91.6967C52.3286 85.2769 48.8925 77.8071 48.7998 69.4913L48.5977 51.3185C56.8099 49.0734 64.2532 45.0752 69.6081 40.0516Z" fill="#0051C4"/>
<path d="M60.1641 66.3115L60.2627 80.3904C60.2725 81.9571 79.5022 81.8309 79.4894 80.2642L79.3908 66.1852L60.1641 66.3115ZM67.4387 71.5786C67.4333 71.1509 67.5436 70.7296 67.7578 70.3594C67.9721 69.9891 68.2823 69.6836 68.6558 69.475C69.0293 69.2665 69.4522 69.1627 69.8798 69.1746C70.3074 69.1865 70.7239 69.3137 71.0852 69.5426C71.4465 69.7716 71.7393 70.0939 71.9326 70.4755C72.1259 70.8571 72.2126 71.2838 72.1835 71.7106C72.1544 72.1374 72.0105 72.5484 71.7672 72.9002C71.5238 73.252 71.19 73.5315 70.8009 73.7093L70.8275 77.7085C70.8213 77.9613 70.717 78.2017 70.5366 78.3789C70.3562 78.5561 70.1139 78.6561 69.8611 78.6577C69.6082 78.6594 69.3646 78.5626 69.1819 78.3878C68.9992 78.213 68.8917 77.974 68.8822 77.7213L68.8555 73.731C68.4358 73.548 68.0785 73.2468 67.8272 72.864C67.5759 72.4812 67.4416 72.0335 67.4407 71.5756L67.4387 71.5786Z" fill="#FDFCFC"/>
<path d="M61.8382 65.2939L63.7845 65.2811L63.7786 64.3335C63.7856 62.7577 64.4138 61.2481 65.5269 60.1326C66.64 59.0171 68.1482 58.3856 69.724 58.3752C71.2999 58.3648 72.8162 58.9764 73.944 60.0771C75.0717 61.1779 75.7198 62.679 75.7475 64.2547L75.7534 65.2032L77.6997 65.1904L77.6928 64.2409C77.6643 59.8877 74.0831 56.3697 69.7063 56.3983C65.3295 56.4269 61.7997 59.9922 61.8283 64.3454L61.8382 65.2939Z" fill="#FDFCFC"/>
</g>
<defs>
<linearGradient id="paint0_linear_2531_19917" x1="20.322" y1="115.309" x2="80.9282" y2="0.866092" gradientUnits="userSpaceOnUse">
<stop stop-color="#FF403E"/>
<stop offset="1" stop-color="#FF8145"/>
</linearGradient>
<clipPath id="clip0_2531_19917">
<rect width="140" height="140" fill="white"/>
</clipPath>
</defs>
</svg>
